<?xml version="1.0" standalone="no"?>
<!DOCTYPE svg PUBLIC "-//W3C//DTD SVG 1.1//EN" "http://www.w3.org/Graphics/SVG/1.1/DTD/svg11.dtd" >
<svg xmlns="http://www.w3.org/2000/svg" xmlns:xlink="http://www.w3.org/1999/xlink" version="1.1">
<metadata>
Created by FontForge 20141024 at Mon Jun  8 22:40:47 2015
 By System Administrator
Based on DIN 1451 the German Industrial standard by the Deutsches Institut Normung - (1936/1986)
</metadata>
<defs>
<font id="DinTextCondPro-Bold" horiz-adv-x="1818" >
  <font-face 
    font-family="Din Text Cond Pro"
    font-weight="700"
    font-stretch="normal"
    units-per-em="1000"
    panose-1="2 0 0 0 0 0 0 0 0 0"
    ascent="750"
    descent="-250"
    x-height="494"
    cap-height="696"
    bbox="-223 -295 1760 951"
    underline-thickness="50"
    underline-position="-50"
    unicode-range="U+0020-FB04"
  />
<missing-glyph horiz-adv-x="449" 
d="M0 0v699h449v-699h-449zM120 82h209l-104 191zM225 427l104 190h-210zM81 530v-360l98 180zM271 349l97 -178v358z" />
    <glyph glyph-name="fj" unicode="fj" horiz-adv-x="532" 
d="M18 494h50v63c0 128 92 179 201 179c63 0 133 -13 186 -65l-75 -99c-27 27 -64 38 -103 38c-62 0 -70 -43 -70 -64v-52h268v-538c0 -103 -60 -154 -175 -154h-35v126h21c43 0 49 23 49 60v398h-128v-386h-139v386h-50v108z" />
    <glyph glyph-name="ffj" unicode="ffj" horiz-adv-x="800" 
d="M474 545v-51h268v-538c0 -115 -64 -154 -174 -154h-36v126h21c43 0 49 24 49 61v397h-128v-386h-139v386h-129v-386h-140v386h-50v108h50v39c0 128 93 179 202 179c37 0 80 -6 119 -25c37 35 90 49 149 49c63 0 134 -14 185 -65c-24 -33 -50 -65 -74 -98
c-29 24 -63 36 -103 36c-62 0 -70 -43 -70 -64zM276 585c-63 0 -70 -43 -70 -64v-27h129v80c-19 8 -40 11 -59 11z" />
    <glyph glyph-name="ff" unicode="ff" horiz-adv-x="570" 
d="M271 719c32 0 69 -5 104 -18c27 27 63 40 106 40h83v-122h-51c-23 0 -37 -15 -37 -39v-85h84v-109h-84v-386h-139v386h-128v-386h-140v386h-50v109h50v40c0 127 89 184 202 184zM209 495h128v88c-21 7 -38 9 -58 9c-64 0 -70 -43 -70 -64v-33z" />
    <glyph glyph-name="fi" unicode="fi" horiz-adv-x="532" 
d="M18 494h50v63c0 128 92 179 201 179c63 0 137 -13 186 -65l-75 -99c-27 27 -64 38 -103 38c-62 0 -70 -43 -70 -64v-52h268v-494h-140v386h-128v-386h-139v386h-50v108z" />
    <glyph glyph-name="fl" unicode="fl" horiz-adv-x="551" 
d="M532 -2h-38c-93 0 -155 34 -155 149v451c-28 8 -43 9 -62 9c-62 0 -70 -43 -70 -65v-48h89v-108h-89v-386h-139v386h-50v108h50v60c0 128 82 179 195 179c27 0 112 0 216 -35v-529c0 -39 16 -47 39 -47h14v-124z" />
    <glyph glyph-name="ffi" unicode="ffi" horiz-adv-x="795" 
d="M743 0h-140v386h-128v-386h-139v386h-129v-386h-140v386h-50v108h50v39c0 128 93 179 202 179c37 0 80 -6 119 -25c37 35 90 49 149 49c63 0 134 -14 185 -65c-24 -33 -50 -65 -74 -98c-29 24 -63 36 -103 36c-62 0 -70 -43 -70 -64v-51h268v-494zM277 585
c-63 0 -70 -43 -70 -64v-27h129v80c-19 8 -40 11 -59 11z" />
    <glyph glyph-name="ffl" unicode="ffl" horiz-adv-x="806" 
d="M207 494h129c0 36 0 74 1 79c-19 9 -39 13 -60 13c-62 0 -70 -43 -70 -64v-28zM538 736c29 0 116 -3 209 -35v-532c0 -39 16 -47 39 -47h14v-124h-38c-93 0 -155 34 -155 149v454c-28 8 -44 9 -60 9c-64 0 -71 -43 -71 -64v-52h85v-108h-85v-386h-140v386h-129v-386h-139
v386h-50v108h50v39c0 128 89 179 199 179c37 0 82 -5 122 -24c37 33 90 48 149 48z" />
    <glyph glyph-name="ft" unicode="ft" horiz-adv-x="569" 
d="M535 386h-64v-213c0 -33 7 -49 43 -49h22v-124h-67c-88 0 -134 57 -134 130v256h-128v-386h-139v386h-50v109h50v87c0 100 66 144 144 144h78v-122h-46c-23 0 -37 -15 -37 -39v-70h129v134h134v-133h65v-110z" />
    <glyph glyph-name=".notdef" horiz-adv-x="449" 
d="M0 0v699h449v-699h-449zM120 82h209l-104 191zM225 427l104 190h-210zM81 530v-360l98 180zM271 349l97 -178v358z" />
    <glyph glyph-name="exclam" unicode="!" horiz-adv-x="285" 
d="M212 696l-12 -499h-114l-13 499h139zM212 0h-138v133h138v-133z" />
    <glyph glyph-name="quotedbl" unicode="&#x22;" horiz-adv-x="360" 
d="M310 473h-109v223h109v-223zM154 473h-107v223h107v-223z" />
    <glyph glyph-name="numbersign" unicode="#" horiz-adv-x="511" 
d="M13 205v96h85c5 35 10 64 17 99h-70v97h85l32 198h108l-32 -198h77l33 198h108l-33 -198h73v-97h-88l-16 -99h73v-96h-89l-32 -205h-109l33 205h-77l-33 -205h-110l34 205h-69zM223 400l-17 -99h78c5 35 10 64 17 99h-78z" />
    <glyph glyph-name="dollar" unicode="$" horiz-adv-x="490" 
d="M469 206c0 -125 -71 -201 -199 -210v-90h-46v90c-100 5 -161 55 -210 135l115 74c27 -41 59 -65 95 -72v157c-130 48 -186 96 -186 208s75 193 186 204v65h46v-65c87 -7 145 -50 184 -111l-99 -80c-27 31 -54 45 -85 52v-135c145 -62 199 -109 199 -222zM324 200
c0 35 -22 56 -54 72v-138c40 7 54 34 54 66zM177 505c0 -24 18 -41 47 -56v114c-28 -7 -47 -29 -47 -58z" />
    <glyph glyph-name="percent" unicode="%" horiz-adv-x="770" 
d="M610 713l-371 -730h-91l370 730h92zM307 587v-196c0 -71 -61 -114 -130 -114s-129 43 -129 114v196c0 72 61 114 129 114c71 0 130 -42 130 -114zM204 394v190c0 16 -9 27 -28 27c-17 0 -27 -11 -27 -27v-190c0 -15 11 -26 28 -26c16 0 27 11 27 26zM722 307v-196
c0 -71 -61 -114 -130 -114s-129 43 -129 114v196c0 72 61 114 129 114c71 0 130 -42 130 -114zM619 114v190c0 16 -9 27 -28 27c-17 0 -27 -11 -27 -27v-190c0 -15 11 -26 28 -26c16 0 27 11 27 26z" />
    <glyph glyph-name="ampersand" unicode="&#x26;" horiz-adv-x="581" 
d="M415 0l-31 46c-43 -36 -94 -52 -146 -52c-121 0 -184 83 -184 188c0 81 35 143 103 199c-36 53 -60 95 -60 151c0 99 66 169 175 169c68 0 134 -21 185 -89l-92 -82c-32 39 -60 49 -87 49c-32 0 -48 -23 -48 -47s11 -49 32 -82l126 -190c7 21 13 57 16 84l120 -17
c-5 -63 -26 -133 -54 -181c11 -22 87 -125 100 -146h-155zM316 144l-90 133c-27 -27 -43 -55 -43 -90c0 -39 21 -69 64 -69c25 0 50 11 69 26z" />
    <glyph glyph-name="quoteright" unicode="&#x2019;" horiz-adv-x="291" 
d="M137 410h-75l36 149h-33v161h153v-155z" />
    <glyph glyph-name="parenleft" unicode="(" horiz-adv-x="335" 
d="M315 -73l-78 -55c-100 122 -177 272 -177 434c0 168 77 313 170 430l86 -48c-80 -120 -120 -260 -120 -377c0 -127 44 -272 119 -384z" />
    <glyph glyph-name="parenright" unicode=")" horiz-adv-x="335" 
d="M311 306c0 -163 -78 -311 -177 -434l-79 55c75 113 120 256 120 384c0 117 -41 257 -121 377l86 48c93 -117 171 -262 171 -430z" />
    <glyph glyph-name="asterisk" unicode="*" horiz-adv-x="429" 
d="M278 497l80 -93l-81 -58l-61 104l-64 -104l-80 58l80 93l-114 29l30 92l110 -45l-12 121h101l-12 -121l109 45l31 -92z" />
    <glyph glyph-name="plus" unicode="+" horiz-adv-x="490" 
d="M470 241h-167v-168h-117v168h-167v114h167v167h117v-167h167v-114z" />
    <glyph glyph-name="comma" unicode="," horiz-adv-x="267" 
d="M130 -152h-75l36 150h-33v160h153v-155z" />
    <glyph glyph-name="hyphen" unicode="-" horiz-adv-x="412" 
d="M369 204h-321v125h321v-125z" />
    <glyph glyph-name="period" unicode="." horiz-adv-x="263" 
d="M208 0h-152v158h152v-158z" />
    <glyph glyph-name="slash" unicode="/" horiz-adv-x="329" 
d="M323 725l-221 -767h-110l220 767h111z" />
    <glyph glyph-name="zero" unicode="0" horiz-adv-x="490" 
d="M443 516v-337c0 -116 -88 -184 -191 -184c-104 0 -192 68 -192 184v337c0 117 89 185 192 185c105 0 191 -68 191 -185zM303 180v336c0 35 -22 52 -51 52c-31 0 -52 -17 -52 -52v-336c0 -35 21 -52 52 -52c29 0 51 17 51 52z" />
    <glyph glyph-name="one" unicode="1" horiz-adv-x="490" 
d="M364 0h-140v534l-98 -72v152l112 82h126v-696z" />
    <glyph glyph-name="two" unicode="2" horiz-adv-x="490" 
d="M179 483l-138 20c8 128 94 198 196 198c124 0 196 -65 196 -185c0 -57 -15 -101 -46 -149l-162 -232h203v-135h-383v122l225 318c15 23 19 45 19 70c0 28 -16 58 -51 58c-27 0 -55 -20 -59 -85z" />
    <glyph glyph-name="three" unicode="3" horiz-adv-x="490" 
d="M369 361c71 -47 76 -100 76 -164c0 -121 -77 -202 -206 -202c-109 0 -188 57 -199 188l138 18c0 -59 32 -73 60 -73c31 0 59 20 59 76c0 67 -17 98 -73 98h-45v114h50c51 0 69 30 69 78c0 32 -15 73 -55 73c-25 0 -53 -14 -58 -77l-136 21c11 121 99 190 199 190
c157 0 195 -105 195 -201c0 -48 -21 -115 -74 -139z" />
    <glyph glyph-name="four" unicode="4" horiz-adv-x="490" 
d="M462 97h-48v-97h-139v97h-249v114l195 485h148l-188 -468h94v153h139v-153h48v-131z" />
    <glyph glyph-name="five" unicode="5" horiz-adv-x="490" 
d="M204 449h5c27 23 65 26 81 26c115 0 155 -86 155 -226c0 -157 -53 -254 -194 -254c-108 0 -192 42 -195 210h140c1 -60 23 -75 54 -75c44 0 52 49 52 113c0 60 -5 107 -53 107c-17 0 -43 -8 -56 -47h-123v393h362v-131h-228v-116z" />
    <glyph glyph-name="six" unicode="6" horiz-adv-x="490" 
d="M274 412l3 -3c11 4 28 6 36 6c67 0 133 -54 133 -193c0 -145 -62 -227 -198 -227c-123 0 -189 61 -189 216c0 48 10 102 25 134l158 351h156c-43 -95 -79 -192 -124 -284zM254 303c-35 0 -54 -24 -54 -88s14 -87 50 -87c43 0 53 30 53 99c0 56 -16 76 -49 76z" />
    <glyph glyph-name="seven" unicode="7" horiz-adv-x="490" 
d="M439 576l-211 -576h-145l200 563h-94v-80h-135v213h385v-120z" />
    <glyph glyph-name="eight" unicode="8" horiz-adv-x="490" 
d="M376 365l1 -5c59 -24 72 -99 72 -154c0 -154 -92 -211 -200 -211s-197 57 -197 211c0 53 13 125 73 154v5c-53 24 -66 85 -66 135c0 117 65 201 190 201c121 0 194 -64 194 -201c0 -52 -14 -111 -67 -135zM251 420c37 0 52 29 52 78c0 44 -16 70 -52 70
c-35 0 -51 -28 -51 -72c0 -56 16 -76 51 -76zM250 128c43 0 59 36 59 92c0 51 -18 80 -59 80c-39 0 -57 -33 -57 -82c0 -65 18 -90 57 -90z" />
    <glyph glyph-name="nine" unicode="9" horiz-adv-x="490" 
d="M228 284l-3 3c-11 -4 -24 -6 -32 -6c-84 0 -136 57 -136 194c0 145 58 226 194 226c140 0 193 -80 193 -213c0 -48 -12 -110 -26 -138l-157 -350h-156zM247 393c37 0 53 24 56 88c0 60 -13 87 -49 87c-43 0 -54 -31 -54 -104c0 -51 15 -71 47 -71z" />
    <glyph glyph-name="colon" unicode=":" horiz-adv-x="266" 
d="M209 0h-152v158h152v-158zM209 264h-152v157h152v-157z" />
    <glyph glyph-name="semicolon" unicode=";" horiz-adv-x="269" 
d="M211 264h-152v157h152v-157zM131 -152h-75l36 150h-33v160h153v-155z" />
    <glyph glyph-name="less" unicode="&#x3c;" horiz-adv-x="490" 
d="M468 41l-450 208v102l452 207v-132l-300 -127l298 -126v-132z" />
    <glyph glyph-name="equal" unicode="=" horiz-adv-x="490" 
d="M470 346h-452v111h452v-111zM470 142h-452v111h452v-111z" />
    <glyph glyph-name="greater" unicode="&#x3e;" horiz-adv-x="490" 
d="M471 249l-450 -208v132l299 126l-301 127v132l452 -207v-102z" />
    <glyph glyph-name="question" unicode="?" horiz-adv-x="469" 
d="M437 509c0 -59 -16 -91 -39 -124c-34 -49 -84 -95 -84 -163v-30h-140v33c0 55 7 86 32 126c37 61 79 111 79 159c0 21 -11 57 -55 57c-33 0 -60 -23 -61 -84c-47 7 -92 11 -139 16c8 130 97 202 208 202c131 0 199 -76 199 -192zM313 0h-138v133h138v-133z" />
    <glyph glyph-name="at" unicode="@" horiz-adv-x="866" 
d="M582 412l-1 -152c0 -20 15 -40 38 -40c55 0 85 54 85 163c0 153 -100 256 -258 256c-183 0 -287 -143 -287 -306c0 -188 118 -304 289 -304c79 0 134 15 201 50l36 -86c-77 -33 -147 -53 -232 -53c-225 0 -391 132 -391 394c0 223 153 393 384 393
c228 0 356 -146 356 -343c0 -155 -73 -257 -197 -257c-27 0 -88 15 -107 58l-4 1c-21 -33 -63 -56 -106 -56c-80 0 -125 48 -125 125c0 69 45 127 141 127h66v21c0 19 -8 41 -52 41c-28 0 -45 -8 -64 -35l-80 52c32 60 88 85 155 85c85 0 153 -32 153 -132v-2zM470 276v26
h-51c-31 0 -43 -15 -43 -39c0 -16 10 -35 43 -35c28 0 51 16 51 48z" />
    <glyph glyph-name="A" unicode="A" horiz-adv-x="555" 
d="M393 0l-34 142h-165c-12 -47 -25 -95 -38 -142h-153l201 696h144l201 -696h-156zM274 509l-28 -138l-20 -100h100l-19 99l-28 139h-5z" />
    <glyph glyph-name="B" unicode="B" horiz-adv-x="542" 
d="M502 212c0 -136 -83 -212 -206 -212h-235v696h225c136 0 208 -73 208 -196c0 -52 -23 -110 -82 -134v-5c64 -21 90 -90 90 -149zM352 495c0 47 -20 69 -75 69h-71v-141h72c53 0 74 29 74 72zM361 220c0 47 -22 77 -74 77h-81v-160h80c57 0 75 36 75 83z" />
    <glyph glyph-name="C" unicode="C" horiz-adv-x="514" 
d="M348 207l138 -40c-20 -108 -105 -173 -218 -173c-160 0 -223 110 -223 236v248c0 103 60 223 223 223c129 0 200 -83 219 -174l-137 -41c-6 28 -24 75 -82 75c-59 0 -78 -45 -78 -77v-258c0 -53 21 -92 78 -92c40 0 75 28 80 73z" />
    <glyph glyph-name="D" unicode="D" horiz-adv-x="552" 
d="M358 239v168c0 81 -10 154 -93 154h-60v-427h61c73 0 92 40 92 105zM61 696h230c93 0 161 -32 192 -112c19 -47 19 -117 19 -201c0 -121 4 -203 -19 -263c-34 -92 -114 -120 -205 -120h-217v696z" />
    <glyph glyph-name="E" unicode="E" horiz-adv-x="490" 
d="M466 0h-405v696h405v-134h-260v-144h224v-133h-224v-148h260v-137z" />
    <glyph glyph-name="F" unicode="F" horiz-adv-x="480" 
d="M466 562h-260v-147h224v-132h-224v-283h-145v696h405v-134z" />
    <glyph glyph-name="G" unicode="G" horiz-adv-x="539" 
d="M273 701c129 0 200 -83 219 -174l-137 -41c-6 28 -24 75 -82 75c-59 0 -78 -45 -78 -77v-258c0 -52 21 -93 77 -93c61 0 83 34 83 77v54h-94v123h238v-151c0 -144 -76 -242 -226 -242c-160 0 -223 110 -223 236v248c0 103 60 223 223 223z" />
    <glyph glyph-name="H" unicode="H" horiz-adv-x="567" 
d="M506 0h-143v286h-158v-286h-145v696h145v-278h158v278h143v-696z" />
    <glyph glyph-name="I" unicode="I" horiz-adv-x="268" 
d="M208 0h-145v696h145v-696z" />
    <glyph glyph-name="J" unicode="J" horiz-adv-x="436" 
d="M379 696v-499c0 -143 -91 -202 -204 -202c-72 0 -135 24 -183 88l95 97c24 -37 62 -50 84 -50c41 0 64 31 64 72v494h144z" />
    <glyph glyph-name="K" unicode="K" horiz-adv-x="552" 
d="M205 438h5c24 35 38 69 166 258h172l-194 -285c69 -137 138 -274 209 -411h-164c-47 92 -88 184 -135 277l-59 -91v-186h-145v696h145v-258z" />
    <glyph glyph-name="L" unicode="L" horiz-adv-x="482" 
d="M466 0h-405v696h145v-559h260v-137z" />
    <glyph glyph-name="M" unicode="M" horiz-adv-x="682" 
d="M629 0h-144v328l-4 1l-48 -125l-37 -90h-104l-39 96l-47 120l-4 -1v-329h-144v696h133l81 -194l69 -174h5l67 175l80 193h136v-696z" />
    <glyph glyph-name="N" unicode="N" horiz-adv-x="596" 
d="M539 0h-127l-129 232l-76 147l-3 -1v-378h-145v696h128l114 -208l91 -168l3 1v375h144v-696z" />
    <glyph glyph-name="O" unicode="O" horiz-adv-x="535" 
d="M490 478v-259c0 -139 -92 -225 -222 -225c-160 0 -224 110 -224 236v248c0 103 61 223 224 223c152 0 222 -114 222 -223zM344 209v275c0 26 -17 77 -76 77c-58 0 -80 -45 -80 -77v-258c0 -53 23 -92 80 -92c41 0 76 28 76 75z" />
    <glyph glyph-name="P" unicode="P" horiz-adv-x="519" 
d="M506 476c0 -133 -83 -222 -216 -222h-84v-254h-145v696h221c132 0 224 -68 224 -220zM364 478c0 60 -31 84 -82 84h-76v-173h77c43 0 81 24 81 89z" />
    <glyph glyph-name="Q" unicode="Q" horiz-adv-x="542" 
d="M544 55l-67 -77l-69 56c-37 -27 -82 -40 -135 -40c-160 0 -224 110 -224 236v248c0 103 61 223 224 223c152 0 222 -114 222 -223v-259c0 -40 -7 -75 -21 -106zM273 134c5 0 9 0 12 1l-24 58l31 36l55 -10l2 -2v267c0 26 -17 77 -76 77c-58 0 -80 -45 -80 -77v-258
c0 -53 23 -92 80 -92z" />
    <glyph glyph-name="R" unicode="R" horiz-adv-x="549" 
d="M517 0h-157l-93 275h-61v-275h-145v696h230c118 0 216 -62 216 -205c0 -89 -35 -154 -102 -190zM368 490c0 53 -33 74 -80 74h-82v-157h78c47 0 84 22 84 83z" />
    <glyph glyph-name="S" unicode="S" horiz-adv-x="529" 
d="M503 206c0 -133 -85 -211 -236 -211c-116 0 -188 49 -236 118l114 92c36 -51 73 -74 124 -74c61 0 81 30 81 69c0 53 -54 76 -122 94c-128 40 -179 98 -179 202c0 120 89 205 220 205c105 0 168 -33 215 -97l-104 -98c-33 39 -70 59 -111 59c-43 0 -73 -25 -73 -62
c0 -39 57 -64 126 -85c139 -43 181 -110 181 -212z" />
    <glyph glyph-name="T" unicode="T" horiz-adv-x="458" 
d="M448 564h-149v-564h-144v564h-149v132h442v-132z" />
    <glyph glyph-name="U" unicode="U" horiz-adv-x="551" 
d="M353 696h146v-477c0 -139 -92 -225 -222 -225c-160 0 -224 110 -224 236v466h144v-470c0 -53 23 -92 80 -92c41 0 76 31 76 78v484z" />
    <glyph glyph-name="V" unicode="V" horiz-adv-x="527" 
d="M524 696l-189 -696h-144l-189 696h156l65 -289l39 -192h5l37 189l65 292h155z" />
    <glyph glyph-name="W" unicode="W" horiz-adv-x="748" 
d="M377 365h-4l-37 -151c-16 -72 -38 -144 -55 -215h-130l-147 696h158c15 -85 30 -168 43 -252c8 -47 14 -92 22 -139h4c15 64 27 129 42 193l45 198h113l46 -199c15 -65 28 -131 43 -196h5l20 138l41 257h158l-147 -696h-130c-17 72 -37 145 -54 217z" />
    <glyph glyph-name="X" unicode="X" horiz-adv-x="540" 
d="M269 212l-102 -212h-166l190 359l-178 337h167l87 -191l90 191h167l-180 -337l192 -359h-167z" />
    <glyph glyph-name="Y" unicode="Y" horiz-adv-x="510" 
d="M507 696l-180 -417v-279h-142v279l-180 419h161l46 -142l41 -133h6l43 134l51 139h154z" />
    <glyph glyph-name="Z" unicode="Z" horiz-adv-x="455" 
d="M430 0h-405v126l236 438h-225v132h394v-122l-235 -437h235v-137z" />
    <glyph glyph-name="bracketleft" unicode="[" horiz-adv-x="287" 
d="M270 -98h-206v796h206v-102h-77v-593h77v-101z" />
    <glyph glyph-name="backslash" unicode="\" horiz-adv-x="329" 
d="M218 -42l-221 767h111l220 -767h-110z" />
    <glyph glyph-name="bracketright" unicode="]" horiz-adv-x="287" 
d="M222 -99h-205v101h76v594h-76v102h205v-797z" />
    <glyph glyph-name="asciicircum" unicode="^" horiz-adv-x="490" 
d="M245 534l-101 -263h-131l180 424h102c60 -141 120 -283 181 -424h-131z" />
    <glyph glyph-name="underscore" unicode="_" horiz-adv-x="500" 
d="M500 -160h-500v91h500v-91z" />
    <glyph glyph-name="quoteleft" unicode="&#x2018;" horiz-adv-x="291" 
d="M144 719h74l-35 -149h32v-161h-153v155z" />
    <glyph glyph-name="a" unicode="a" horiz-adv-x="462" 
d="M421 0h-140v40l-4 1c-25 -33 -69 -46 -100 -46c-97 0 -145 53 -145 153c0 83 55 152 169 152h80v29c0 21 -13 48 -58 48c-35 0 -61 -9 -80 -41l-101 64c37 73 102 100 185 100c113 0 194 -38 194 -160v-340zM281 172v30h-61c-37 0 -52 -17 -52 -44c0 -19 13 -41 53 -41
c32 0 60 19 60 55z" />
    <glyph glyph-name="b" unicode="b" horiz-adv-x="467" 
d="M236 370c-48 0 -50 -72 -50 -125c0 -77 7 -119 51 -119s52 56 52 129c0 53 -5 115 -53 115zM189 39l-3 -2v-37h-140v726h140v-268l4 -1c19 27 62 44 89 44c144 0 154 -137 154 -250c0 -107 -11 -258 -158 -258c-29 0 -63 17 -86 46z" />
    <glyph glyph-name="c" unicode="c" horiz-adv-x="422" 
d="M222 501c84 0 150 -39 177 -115l-118 -57c-15 32 -29 44 -52 44c-51 0 -59 -51 -59 -128c0 -84 11 -122 59 -122c24 0 38 14 53 43l118 -58c-27 -73 -92 -113 -176 -113c-149 0 -195 105 -195 250s46 256 193 256z" />
    <glyph glyph-name="d" unicode="d" horiz-adv-x="467" 
d="M233 370c-48 0 -52 -62 -52 -115c0 -73 8 -129 52 -129s51 42 51 119c0 53 -3 125 -51 125zM284 35l-3 2c-23 -29 -59 -42 -88 -42c-149 0 -156 135 -156 256c0 119 22 250 158 250c25 0 66 -17 85 -42l4 1v266h140v-726h-140v35z" />
    <glyph glyph-name="e" unicode="e" horiz-adv-x="464" 
d="M304 167l117 -63c-35 -75 -108 -109 -188 -109c-147 0 -197 93 -197 252c0 155 48 254 199 254c160 0 195 -113 195 -248v-39h-252v-8c0 -45 9 -83 54 -83c28 0 49 11 72 44zM178 302h105c0 36 -8 71 -53 71c-39 0 -49 -38 -52 -71z" />
    <glyph glyph-name="f" unicode="f" horiz-adv-x="295" 
d="M290 386h-84v-386h-139v386h-50v109h50v87c0 100 66 144 144 144h78v-122h-46c-23 0 -37 -15 -37 -39v-70h84v-109z" />
    <glyph glyph-name="g" unicode="g" horiz-adv-x="467" 
d="M419 495v-502c0 -119 -67 -199 -199 -199c-74 0 -133 26 -177 78l98 91c23 -28 49 -42 79 -42c32 0 59 20 59 53v72l-4 1c-18 -26 -63 -45 -89 -45c-145 0 -154 132 -154 245c0 107 11 253 155 253c29 0 66 -15 89 -44l3 2v37h140zM226 134c48 0 53 65 53 119
c0 77 -9 116 -53 116s-52 -53 -52 -126c0 -53 4 -109 52 -109z" />
    <glyph glyph-name="h" unicode="h" horiz-adv-x="482" 
d="M434 0h-140v313c0 39 -22 56 -49 56c-29 0 -52 -20 -52 -57v-312h-140v726h140v-268l5 -1c23 23 57 43 92 43c92 0 144 -62 144 -154v-346z" />
    <glyph glyph-name="i" unicode="i" horiz-adv-x="253" 
d="M197 569h-140v127h140v-127zM197 0h-140v495h140v-495z" />
    <glyph glyph-name="j" unicode="j" horiz-adv-x="256" 
d="M199 569h-140v127h140v-127zM199 496v-540c0 -101 -68 -154 -175 -154h-35v126h25c37 0 45 32 45 65v503h140z" />
    <glyph glyph-name="k" unicode="k" horiz-adv-x="483" 
d="M192 351h3l106 143h177l-161 -196l170 -298h-168l-97 184l-30 -41v-143h-139v724h139v-373z" />
    <glyph glyph-name="l" unicode="l" horiz-adv-x="260" 
d="M245 -2h-51c-93 0 -146 37 -146 140v588h140v-557c0 -39 14 -47 41 -47h16v-124z" />
    <glyph glyph-name="m" unicode="m" horiz-adv-x="728" 
d="M532 500c113 0 144 -85 144 -178v-322h-140v314c0 39 -22 56 -49 56c-29 0 -52 -19 -52 -55v-315h-140v314c0 39 -22 56 -49 56c-29 0 -52 -20 -52 -57v-313h-140v495h140v-44l5 -1c23 28 64 50 97 50c57 0 94 -23 118 -64c31 37 73 64 118 64z" />
    <glyph glyph-name="n" unicode="n" horiz-adv-x="482" 
d="M432 0h-140v313c0 39 -22 56 -49 56c-29 0 -52 -20 -52 -57v-312h-140v495h140v-40l4 -1c23 27 59 46 94 46c100 0 143 -59 143 -152v-348z" />
    <glyph glyph-name="o" unicode="o" horiz-adv-x="459" 
d="M234 502c92 0 144 -40 167 -95c19 -43 22 -97 22 -161c0 -71 -6 -121 -25 -160c-35 -71 -98 -93 -174 -93c-68 0 -114 22 -145 61c-32 43 -43 104 -43 192c1 56 5 118 20 153c28 64 85 103 178 103zM232 373c-22 0 -38 -12 -47 -35c-8 -23 -10 -51 -10 -94
c0 -33 1 -65 10 -88c8 -23 23 -34 45 -34c19 0 42 6 50 52c3 19 5 46 5 82c0 35 -3 62 -10 81c-9 24 -23 36 -43 36z" />
    <glyph glyph-name="p" unicode="p" horiz-adv-x="467" 
d="M240 125c48 0 53 68 53 121c0 73 -6 123 -51 123c-44 0 -54 -43 -54 -120c0 -53 4 -124 52 -124zM188 460l3 -2c23 29 59 42 88 42c146 0 156 -149 156 -256c0 -119 -18 -250 -157 -250c-26 0 -68 16 -86 42l-4 -1v-236h-140v696h140v-35z" />
    <glyph glyph-name="q" unicode="q" horiz-adv-x="467" 
d="M233 124c48 0 53 72 53 125c0 77 -9 118 -53 118s-52 -55 -52 -128c0 -53 6 -115 52 -115zM283 455l3 2v37h140v-695h-140v237l-4 1c-19 -27 -62 -44 -89 -44c-136 0 -155 122 -155 250c0 114 17 256 157 256c29 0 65 -15 88 -44z" />
    <glyph glyph-name="r" unicode="r" horiz-adv-x="364" 
d="M277 369c-49 0 -81 -24 -81 -84v-286h-141v496h139v-55l3 -1c25 44 64 61 108 61c21 0 41 -3 58 -15l-25 -130c-23 11 -42 14 -61 14z" />
    <glyph glyph-name="s" unicode="s" horiz-adv-x="442" 
d="M418 153c0 -95 -74 -158 -197 -158c-91 0 -149 25 -196 89l97 82c25 -37 56 -50 95 -50c37 0 58 19 58 38c0 23 -13 32 -48 39c-88 16 -190 45 -190 153c0 96 86 154 186 154c89 0 143 -28 186 -75l-84 -88c-25 29 -53 42 -96 42c-39 0 -51 -17 -51 -30
c0 -23 36 -32 67 -37c92 -19 173 -49 173 -159z" />
    <glyph glyph-name="t" unicode="t" horiz-adv-x="305" 
d="M274 386h-65v-213c0 -33 8 -49 44 -49h21v-124h-66c-88 0 -135 57 -135 130v256h-49v110h50v133h134v-133h66v-110z" />
    <glyph glyph-name="u" unicode="u" horiz-adv-x="482" 
d="M52 495h140v-313c0 -39 22 -56 49 -56c29 0 52 20 52 57v312h140v-495h-140v40l-4 1c-23 -27 -59 -46 -94 -46c-100 0 -143 59 -143 152v348z" />
    <glyph glyph-name="v" unicode="v" horiz-adv-x="453" 
d="M225 191h5c7 37 15 74 23 111c13 64 29 128 44 192h151l-155 -494h-134c-51 167 -103 327 -155 494h153c16 -64 29 -125 44 -189z" />
    <glyph glyph-name="w" unicode="w" horiz-adv-x="668" 
d="M660 495l-131 -495h-136l-27 111l-30 135h-4l-30 -134l-28 -112h-135l-132 495h149l26 -147l26 -141h5l30 141l30 147h122l31 -148l32 -140h5l26 142l25 146h146z" />
    <glyph glyph-name="x" unicode="x" horiz-adv-x="469" 
d="M233 142l-69 -142h-161l153 252l-147 243h162l62 -134h1l62 134h160l-149 -243l156 -252h-162z" />
    <glyph glyph-name="y" unicode="y" horiz-adv-x="442" 
d="M439 495l-185 -582c-25 -80 -78 -113 -153 -113h-49v120h29c27 0 46 17 56 51l16 55l-152 469h150l34 -160l31 -137h5l32 136l40 161h146z" />
    <glyph glyph-name="z" unicode="z" horiz-adv-x="407" 
d="M378 0h-350v120l184 253h-171v122h337v-113l-185 -254h185v-128z" />
    <glyph glyph-name="braceleft" unicode="{" horiz-adv-x="287" 
d="M139 303c41 -23 68 -57 68 -121v-118c0 -32 2 -64 37 -64h32v-98h-83c-64 0 -114 47 -114 123v142c0 60 -25 87 -68 88v93c44 3 68 28 68 88v137c0 76 50 123 114 123h83v-99h-32c-21 0 -37 -20 -37 -51v-126c0 -59 -29 -98 -68 -117z" />
    <glyph glyph-name="bar" unicode="|" horiz-adv-x="259" 
d="M187 -195h-116v925h116v-925z" />
    <glyph glyph-name="braceright" unicode="}" horiz-adv-x="287" 
d="M149 303c-39 19 -68 58 -68 117v126c0 31 -16 51 -37 51h-32v99h83c64 0 114 -47 114 -123v-137c0 -60 24 -85 68 -88v-93c-43 -1 -68 -28 -68 -88v-142c0 -76 -50 -123 -114 -123h-83v98h32c35 0 37 32 37 64v118c0 64 27 98 68 121z" />
    <glyph glyph-name="asciitilde" unicode="~" horiz-adv-x="490" 
d="M171 371c58 0 107 -53 144 -53c23 0 49 18 76 54l75 -45c-39 -85 -83 -120 -134 -120c-59 0 -112 52 -152 52c-25 0 -50 -11 -82 -54l-73 45c37 79 78 121 146 121z" />
    <glyph glyph-name="sterling" unicode="&#xa3;" horiz-adv-x="490" 
d="M257 568c-24 0 -58 -21 -58 -58c0 -40 27 -80 40 -139h120v-103h-119c-4 -55 -16 -103 -36 -143h241v-125h-412v110c36 48 56 91 61 158h-64v103h57c-15 53 -35 95 -35 147c0 101 71 183 200 183c103 0 168 -40 205 -147l-122 -54c-21 49 -43 68 -78 68z" />
    <glyph glyph-name="yen" unicode="&#xa5;" horiz-adv-x="490" 
d="M243 423h6c12 39 20 84 35 123l52 150h155l-141 -337h82v-75h-111l-5 -10v-31h116v-75h-116v-168h-142v168h-113v75h113v31l-5 10h-108v75h78l-140 337h155c19 -49 38 -101 53 -152z" />
    <glyph glyph-name="section" unicode="&#xa7;" horiz-adv-x="467" 
d="M436 298c0 -47 -25 -84 -58 -103c29 -29 43 -67 43 -102c0 -104 -85 -168 -200 -168c-69 0 -141 31 -194 82l78 89c43 -39 85 -57 117 -57c47 0 69 20 69 48c0 32 -29 51 -118 89c-85 35 -132 73 -132 159c0 43 28 84 64 101c-31 29 -46 62 -46 101c0 99 79 163 183 163
c72 0 128 -16 191 -65c-24 -31 -48 -62 -73 -93c-48 36 -86 42 -121 42c-37 0 -53 -15 -53 -36c0 -39 75 -68 118 -89c68 -32 132 -67 132 -161zM310 293c0 24 -19 42 -83 66c-11 3 -24 8 -38 15c-16 -9 -24 -20 -24 -35c0 -16 13 -31 40 -44s56 -24 87 -37
c12 7 18 19 18 35z" />
    <glyph glyph-name="quotesingle" unicode="'" horiz-adv-x="230" 
d="M170 473h-107v223h107v-223z" />
    <glyph glyph-name="quotedblleft" unicode="&#x201c;" horiz-adv-x="419" 
d="M119 719h74l-35 -149h32v-161h-153v155zM307 719h75l-36 -149h33v-161h-153v155z" />
    <glyph glyph-name="guillemotleft" unicode="&#xab;" horiz-adv-x="565" 
d="M528 28h-135l-131 207l131 207h135l-129 -207zM312 28h-135l-131 207l131 207h135l-129 -207z" />
    <glyph glyph-name="endash" unicode="&#x2013;" horiz-adv-x="500" 
d="M477 220h-457v116h457v-116z" />
    <glyph glyph-name="dagger" unicode="&#x2020;" horiz-adv-x="452" 
d="M436 361h-144v-521h-131v521h-144v119h144v206h131v-206h144v-119z" />
    <glyph glyph-name="periodcentered" unicode="&#xb7;" horiz-adv-x="266" 
d="M209 205h-152v157h152v-157z" />
    <glyph glyph-name="bullet" unicode="&#x2022;" horiz-adv-x="470" 
d="M86 281c0 86 69 155 154 155s153 -69 153 -155c0 -85 -68 -154 -153 -154s-154 69 -154 154z" />
    <glyph glyph-name="quotedblright" unicode="&#x201d;" horiz-adv-x="419" 
d="M301 410h-75l36 149h-33v161h153v-155zM112 410h-75l36 149h-33v161h153v-155z" />
    <glyph glyph-name="guillemotright" unicode="&#xbb;" horiz-adv-x="565" 
d="M181 28h-135l129 207l-129 207h135l131 -207zM397 28h-134l129 207l-129 207h134l131 -207z" />
    <glyph glyph-name="ellipsis" unicode="&#x2026;" horiz-adv-x="934" 
d="M218 0h-152v158h152v-158zM547 0h-152v158h152v-158zM866 0h-152v158h152v-158z" />
    <glyph glyph-name="perthousand" unicode="&#x2030;" horiz-adv-x="1059" 
d="M610 713l-371 -730h-91l370 730h92zM307 587v-196c0 -71 -61 -114 -130 -114s-129 43 -129 114v196c0 72 61 114 129 114c71 0 130 -42 130 -114zM204 394v190c0 16 -9 27 -28 27c-17 0 -27 -11 -27 -27v-190c0 -15 11 -26 28 -26c16 0 27 11 27 26zM723 307v-196
c0 -71 -61 -114 -130 -114s-129 43 -129 114v196c0 72 61 114 129 114c71 0 130 -42 130 -114zM620 114v190c0 16 -9 27 -28 27c-17 0 -27 -11 -27 -27v-190c0 -15 11 -26 28 -26c16 0 27 11 27 26zM1011 307v-196c0 -71 -61 -114 -130 -114s-129 43 -129 114v196
c0 72 61 114 129 114c71 0 130 -42 130 -114zM908 114v190c0 16 -9 27 -28 27c-17 0 -27 -11 -27 -27v-190c0 -15 11 -26 28 -26c16 0 27 11 27 26z" />
    <glyph glyph-name="grave" unicode="`" horiz-adv-x="451" 
d="M338 575l-77 -41l-141 181l121 50z" />
    <glyph glyph-name="dieresis" unicode="&#xa8;" horiz-adv-x="431" 
d="M382 558h-134v130h134v-130zM185 558h-133v130h133v-130z" />
    <glyph glyph-name="oe" unicode="&#x153;" horiz-adv-x="712" 
d="M556 167l117 -63c-35 -75 -108 -109 -188 -109c-54 0 -96 13 -127 38c-35 -31 -82 -40 -134 -40c-68 0 -114 22 -145 61c-32 43 -45 104 -45 192c1 56 7 118 22 153c28 64 91 103 178 103c56 0 96 -15 125 -39c31 25 72 38 128 38c160 0 195 -113 195 -248v-39h-252v-8
c0 -45 9 -83 54 -83c28 0 49 11 72 44zM232 373c-22 0 -38 -12 -47 -35c-8 -23 -10 -51 -10 -94c0 -33 1 -65 10 -88c8 -23 23 -34 45 -34c19 0 42 6 50 52c3 19 4 46 4 82c0 35 -2 61 -9 81c-9 24 -23 36 -43 36zM430 302h105c0 36 -8 71 -53 71c-39 0 -49 -38 -52 -71z
" />
    <glyph glyph-name="germandbls" unicode="&#xdf;" horiz-adv-x="498" 
d="M373 424v-4c80 -32 82 -122 82 -177c0 -127 -25 -248 -190 -248c-8 0 -16 0 -24 1v118c59 0 71 47 71 138c0 44 -4 110 -60 110v105c33 0 44 25 44 61c0 25 -2 72 -49 72c-49 0 -54 -40 -54 -82v-518h-141v516c0 130 56 209 191 209c131 0 188 -79 188 -171
c0 -56 -19 -110 -58 -130z" />
    <glyph glyph-name="trademark" unicode="&#x2122;" horiz-adv-x="869" 
d="M707 527h-3l-40 -106l-42 -100h-57c-15 35 -28 67 -43 100l-40 106h-3v-241h-92v409h111l51 -117c16 -36 29 -72 44 -107h2l43 106l52 118h111v-409h-94v241zM345 607h-104v-321h-96v321h-104v89h304v-89z" />
    <glyph glyph-name="plusminus" unicode="&#xb1;" horiz-adv-x="490" 
d="M470 298h-167v-157h-117v157h-168v112h168v162h117v-162h167v-112zM472 0h-456v109h456v-109z" />
    <glyph glyph-name="divide" unicode="&#xf7;" horiz-adv-x="490" 
d="M327 485c0 -43 -37 -79 -81 -79c-45 0 -82 36 -82 79c0 44 37 79 82 79s81 -35 81 -79zM470 239h-452v111h452v-111zM327 101c0 -44 -36 -80 -81 -80s-82 36 -82 80c0 43 37 79 82 79c44 0 81 -36 81 -79z" />
    <glyph glyph-name="degree" unicode="&#xb0;" horiz-adv-x="393" 
d="M344 559c0 -79 -65 -142 -147 -142c-81 0 -147 63 -147 142c0 78 66 142 147 142c82 0 147 -64 147 -142zM253 559c0 31 -24 54 -56 54c-31 0 -56 -23 -56 -54s25 -55 56 -55c32 0 56 24 56 55z" />
    <glyph glyph-name="registered" unicode="&#xae;" horiz-adv-x="506" 
d="M290 350l-38 99h-19v-99h-56v260h87c47 0 78 -28 78 -80c0 -28 -9 -54 -36 -71l46 -109h-62zM261 558h-28v-58h28c19 0 28 10 28 30c0 19 -9 28 -28 28zM256 252c-131 0 -213 96 -213 225c0 130 86 225 213 225s212 -95 212 -225c0 -129 -89 -225 -212 -225zM256 650
c-96 0 -156 -76 -156 -172c0 -98 62 -171 156 -171c95 0 152 75 152 171s-59 172 -152 172z" />
    <glyph glyph-name="copyright" unicode="&#xa9;" horiz-adv-x="762" 
d="M378 553c76 0 129 -46 141 -110l-86 -26c-5 28 -23 49 -54 49c-45 0 -53 -35 -53 -69v-126c0 -33 9 -68 52 -68c29 0 49 18 53 50c29 -9 58 -18 87 -26c-13 -69 -63 -111 -140 -111c-112 0 -142 76 -142 152v127c0 86 43 158 142 158zM378 -12c-200 0 -330 147 -330 353
c0 204 130 356 330 356c198 0 330 -149 330 -356c0 -203 -132 -353 -330 -353zM378 619c-151 0 -244 -122 -244 -278c0 -153 97 -275 244 -275c150 0 244 122 244 275c0 159 -96 278 -244 278z" />
    <glyph glyph-name="pi" unicode="&#x3c0;" horiz-adv-x="482" 
d="M431 0h-141v387h-101v-387h-139v496h381v-496z" />
    <glyph glyph-name="tonos" unicode="&#x384;" horiz-adv-x="451" 
d="M234 534l-78 36l93 195l120 -48z" />
    <glyph glyph-name="Gamma" unicode="&#x393;" horiz-adv-x="480" 
d="M466 562h-260v-562h-145v696h405v-134z" />
    <glyph glyph-name="Delta" unicode="&#x2206;" horiz-adv-x="555" 
d="M550 0h-547l202 696h143zM363 135l-47 213l-35 163h-7l-35 -163l-47 -213h171z" />
    <glyph glyph-name="Theta" unicode="&#x398;" horiz-adv-x="535" 
d="M209 286v127h114v-127h-114zM490 478v-259c0 -139 -92 -225 -222 -225c-160 0 -224 110 -224 236v248c0 103 61 223 224 223c152 0 222 -114 222 -223zM344 209v275c0 26 -17 77 -76 77c-58 0 -80 -45 -80 -77v-258c0 -53 23 -92 80 -92c41 0 76 28 76 75z" />
    <glyph glyph-name="Lambda" unicode="&#x39b;" horiz-adv-x="543" 
d="M545 0h-153l-66 300l-51 202h-5l-51 -201l-68 -301h-153l202 696h143z" />
    <glyph glyph-name="Xi" unicode="&#x39e;" horiz-adv-x="502" 
d="M461 562h-419v134h419v-134zM420 286h-338v131h338v-131zM463 0h-422v137h422v-137z" />
    <glyph glyph-name="Pi" unicode="&#x3a0;" horiz-adv-x="560" 
d="M499 0h-143v560h-150v-560h-145v696h438v-696z" />
    <glyph glyph-name="Sigma" unicode="&#x3a3;" horiz-adv-x="450" 
d="M430 0h-405v133l116 225l-118 209v129h394v-134h-225l115 -204l-113 -219h236v-139z" />
    <glyph glyph-name="Iotadieresis" unicode="&#x3aa;" horiz-adv-x="268" 
d="M208 0h-145v696h145v-696zM297 737h-135v131h135v-131zM103 737h-136v131h136v-131z" />
    <glyph glyph-name="Alpha" unicode="&#x391;" horiz-adv-x="555" 
d="M393 0l-34 142h-165c-12 -47 -25 -95 -38 -142h-153l201 696h144l201 -696h-156zM274 509l-28 -138l-20 -100h100l-19 99l-28 139h-5z" />
    <glyph glyph-name="Phi" unicode="&#x3a6;" horiz-adv-x="698" 
d="M279 187v342c-76 -8 -94 -78 -94 -167c0 -82 1 -167 94 -175zM418 61v-61h-139v61c-201 16 -235 147 -235 297c0 146 41 278 235 299v39h139v-39c184 -11 235 -149 235 -293c0 -153 -35 -287 -235 -303zM418 529v-342c92 8 96 90 96 178c0 89 -19 156 -96 164z" />
    <glyph glyph-name="Upsilondieresis" unicode="&#x3ab;" horiz-adv-x="510" 
d="M507 696l-180 -417v-279h-142v279l-180 419h161l46 -142l41 -133h6l43 134l51 139h154zM419 737h-135v131h135v-131zM225 737h-136v131h136v-131z" />
    <glyph glyph-name="Psi" unicode="&#x3a8;" horiz-adv-x="694" 
d="M641 696v-334c0 -131 -106 -213 -223 -221v-141h-144v141c-119 8 -223 93 -223 226v329h140v-329c0 -56 40 -85 83 -92v421h144v-421c43 5 83 34 83 87v334h140z" />
    <glyph glyph-name="Omega" unicode="&#x2126;" horiz-adv-x="537" 
d="M293 0v140c28 11 51 37 51 72v272c0 26 -17 77 -76 77c-58 0 -80 -45 -80 -77v-255c0 -43 17 -78 53 -89v-140h-210v132h50c0 3 1 3 1 4c-31 27 -38 73 -38 125v217c0 103 61 223 224 223c152 0 222 -114 222 -223v-223c0 -51 -8 -95 -39 -120c0 -1 1 -2 1 -3h52v-132
h-211z" />
    <glyph glyph-name="afii00208" unicode="&#x2015;" horiz-adv-x="1025" 
d="M1005 220h-985v116h985v-116z" />
    <glyph glyph-name="alpha" unicode="&#x3b1;" horiz-adv-x="469" 
d="M231 124c48 0 53 72 53 125c0 77 -9 119 -53 119s-52 -56 -52 -129c0 -53 4 -115 52 -115zM281 455l3 2v37h140v-494h-140v36l-4 1c-19 -27 -62 -44 -89 -44c-151 0 -154 137 -154 250c0 107 1 256 156 256c29 0 65 -15 88 -44z" />
    <glyph glyph-name="beta" unicode="&#x3b2;" horiz-adv-x="482" 
d="M357 420v-2c82 -24 85 -112 85 -186c0 -143 -32 -237 -154 -237c-31 0 -68 10 -95 39h-4v-184h-140v650c0 139 48 224 185 224c129 0 186 -80 186 -176c0 -50 -20 -109 -63 -128zM217 355v105h13c37 0 52 29 52 74c0 47 -28 66 -48 66c-44 0 -45 -45 -45 -81v-270
c0 -50 -10 -127 51 -127c47 0 59 37 59 126c0 72 -12 107 -64 107h-18z" />
    <glyph glyph-name="psi" unicode="&#x3c8;" horiz-adv-x="640" 
d="M593 495v-302c0 -142 -112 -193 -204 -198v-197h-138v198c-109 3 -203 69 -203 193v306h140v-297c0 -51 30 -71 63 -75v382h136v-382c28 3 67 20 67 75v297h139z" />
    <glyph glyph-name="delta" unicode="&#x3b4;" horiz-adv-x="463" 
d="M427 280v-22c0 -69 -1 -139 -41 -196c-37 -51 -96 -68 -156 -68c-84 0 -135 27 -163 78c-24 47 -29 100 -29 161c0 83 17 174 96 216c-43 33 -59 71 -59 115c0 100 70 158 183 158c40 0 93 -3 145 -26l-31 -109c-43 15 -73 19 -90 19c-48 0 -68 -16 -68 -41
c0 -24 46 -56 89 -80c96 -56 119 -114 124 -205zM235 367c-19 -7 -34 -19 -43 -38c-11 -23 -16 -47 -16 -90c0 -48 -3 -118 57 -118c49 0 57 68 57 121c0 68 1 101 -55 125z" />
    <glyph glyph-name="epsilon" unicode="&#x3b5;" horiz-adv-x="434" 
d="M226 501c88 0 157 -34 188 -115l-120 -55c-16 40 -46 42 -60 42c-27 0 -51 -15 -51 -44c0 -17 10 -33 47 -33h48v-100h-48c-35 0 -48 -16 -48 -35c0 -23 25 -37 52 -37c32 0 54 12 65 43l122 -60c-36 -72 -89 -112 -188 -112c-107 0 -194 50 -194 156c0 39 20 81 67 102
v2c-45 16 -64 56 -64 93c0 85 72 153 184 153z" />
    <glyph glyph-name="phi" unicode="&#x3c6;" horiz-adv-x="627" 
d="M245 499h156c43 0 89 -13 128 -46c60 -54 59 -126 59 -205c0 -44 -1 -72 -6 -104c-19 -112 -117 -146 -201 -149v-195h-136v195c-80 3 -136 29 -173 76c-31 40 -35 96 -35 175c0 51 2 99 17 139c19 51 52 90 113 105l47 -123c-37 -24 -37 -41 -37 -123
c0 -25 -1 -47 2 -66c7 -36 26 -56 66 -56v377zM448 246c0 27 2 49 -1 65c-7 41 -28 57 -67 60v-249c39 1 58 18 65 51c4 19 3 44 3 73z" />
    <glyph glyph-name="gamma" unicode="&#x3b3;" horiz-adv-x="459" 
d="M305 494h152c-53 -167 -107 -332 -155 -503v-192h-136v174c-16 57 -79 305 -99 358c-11 33 -19 50 -47 50c-1 0 -5 -1 -8 -1l-10 111c29 11 59 15 79 15c77 0 94 -63 115 -135c8 -29 27 -131 38 -160h6c21 100 42 194 65 283z" />
    <glyph glyph-name="eta" unicode="&#x3b7;" horiz-adv-x="482" 
d="M432 -1h-140v314c0 39 -22 56 -49 56c-29 0 -52 -20 -52 -57v-313h-140v496h140v-38h4c23 23 58 43 93 43c99 0 144 -59 144 -152v-349z" />
    <glyph glyph-name="iota" unicode="&#x3b9;" horiz-adv-x="266" 
d="M239 106l-2 -112c-11 -1 -39 -1 -48 -1c-115 0 -135 69 -135 141v361h136v-343c0 -32 8 -45 49 -46z" />
    <glyph glyph-name="xi" unicode="&#x3be;" horiz-adv-x="401" 
d="M243 725c72 0 146 -27 184 -113c-33 -20 -76 -52 -111 -72c-19 32 -42 59 -73 59c-40 0 -56 -37 -56 -76c0 -53 21 -86 88 -86h84v-114h-88c-64 0 -92 -51 -92 -103c0 -65 47 -83 106 -107c100 -40 129 -68 129 -120c0 -47 -43 -112 -94 -180c-33 20 -66 38 -99 58
c11 22 39 62 39 84c0 15 -11 25 -39 36c-115 43 -190 77 -190 224c0 63 30 133 89 165c-63 26 -78 97 -78 143c0 122 77 202 201 202z" />
    <glyph glyph-name="kappa" unicode="&#x3ba;" horiz-adv-x="483" 
d="M192 351h3l106 143h177l-161 -196l170 -298h-163l-98 186l-34 -43v-143h-139v494h139v-143z" />
    <glyph glyph-name="lambda" unicode="&#x3bb;" horiz-adv-x="448" 
d="M224 276h-5c-13 -56 -28 -111 -43 -167l-28 -109h-143l157 479l-19 79c-8 35 -20 53 -69 53l-12 -1l-2 114c27 7 50 10 71 10c81 0 117 -47 137 -120l133 -484c7 -24 17 -27 45 -30c1 -35 2 -68 2 -101c-21 -4 -46 -5 -63 -5c-68 0 -97 29 -114 96z" />
    <glyph glyph-name="nu" unicode="&#x3bd;" horiz-adv-x="453" 
d="M225 191h5c7 37 15 74 23 111c13 64 29 128 44 192h151l-155 -494h-134c-51 167 -103 327 -155 494h153c16 -64 29 -125 44 -189z" />
    <glyph glyph-name="omegatonos" unicode="&#x3ce;" horiz-adv-x="673" 
d="M459 -5c-47 1 -95 22 -118 67h-4c-27 -45 -76 -67 -123 -67c-162 0 -177 131 -177 263c0 123 29 244 195 244v-129c-51 -8 -55 -47 -55 -131s8 -118 47 -118c35 0 46 26 46 62v142h134v-142c0 -32 10 -62 45 -62c39 0 47 34 47 118s-4 123 -55 131v129
c166 0 195 -121 195 -244c0 -132 -15 -263 -177 -263zM339 534l-78 36l93 195l120 -48z" />
    <glyph glyph-name="rho" unicode="&#x3c1;" horiz-adv-x="465" 
d="M42 -200v446c0 56 7 118 22 153c28 64 91 103 178 103c92 0 144 -40 167 -95c19 -43 24 -97 24 -161c0 -71 -9 -135 -28 -174c-27 -49 -62 -77 -130 -77c-18 0 -64 10 -88 39l-5 -1v-233h-140zM240 373c-21 0 -41 -9 -50 -32c-7 -17 -7 -54 -7 -97c0 -33 -4 -65 5 -88
c8 -23 27 -34 50 -34c14 0 42 6 50 52c3 19 4 46 4 82c0 35 -1 61 -8 81c-9 24 -23 36 -44 36z" />
    <glyph glyph-name="sigma" unicode="&#x3c3;" horiz-adv-x="472" 
d="M235 495h222v-109h-63l-2 -4c27 -27 34 -65 34 -136s-8 -121 -27 -160c-35 -71 -98 -93 -174 -93c-68 0 -114 22 -145 61c-32 43 -45 104 -45 192c1 56 7 111 22 146c28 64 91 103 178 103zM233 366c-23 0 -38 -11 -47 -32c-8 -23 -10 -47 -10 -90c0 -33 -1 -65 8 -88
c8 -23 24 -34 47 -34c19 0 42 6 50 52c3 19 4 46 4 82c0 35 -1 54 -8 74c-9 24 -23 36 -44 36z" />
    <glyph glyph-name="tau" unicode="&#x3c4;" horiz-adv-x="331" 
d="M323 386h-93v-213c0 -31 7 -48 43 -48h20v-125h-65c-88 0 -134 57 -134 130v256h-79v109h308v-109z" />
    <glyph glyph-name="theta" unicode="&#x3b8;" horiz-adv-x="459" 
d="M234 725c96 0 155 -46 179 -114c11 -35 14 -85 14 -130v-278c0 -27 -3 -51 -8 -74c-24 -100 -102 -135 -190 -135c-103 0 -158 55 -178 124c-9 31 -12 78 -12 118v246c0 47 4 97 15 128c23 68 84 115 180 115zM234 123c17 0 30 8 37 19c11 12 16 39 16 72v100h-109v-89
c0 -59 13 -102 56 -102zM234 596c-19 0 -30 -8 -39 -20c-15 -21 -17 -49 -17 -85v-72h109v91c-1 28 -5 51 -16 66c-8 13 -20 20 -37 20z" />
    <glyph glyph-name="omega" unicode="&#x3c9;" horiz-adv-x="673" 
d="M636 258c0 -132 -16 -263 -176 -263c-47 0 -96 22 -119 67h-4c-27 -45 -76 -67 -123 -67c-162 0 -177 131 -177 263c0 123 29 244 195 244v-129c-51 -8 -55 -47 -55 -131s8 -118 47 -118c35 0 46 26 46 62v142h134v-142c0 -32 10 -62 45 -62c39 0 47 34 47 118
s-4 123 -55 131v129c166 0 195 -121 195 -244z" />
    <glyph glyph-name="sigma1" unicode="&#x3c2;" horiz-adv-x="433" 
d="M241 502c84 0 150 -41 177 -117l-109 -64c-17 33 -36 51 -68 51c-48 0 -63 -54 -63 -118c0 -79 18 -100 119 -148c75 -37 96 -67 96 -110s-35 -103 -91 -176c-33 19 -66 36 -99 55c11 20 40 68 40 83s-5 25 -34 37c-155 64 -169 124 -169 257c0 173 74 250 201 250z" />
    <glyph glyph-name="chi" unicode="&#x3c7;" horiz-adv-x="469" 
d="M233 142l-69 -142h-161l153 252l-147 243h162l62 -134h1l62 134h160l-149 -243l156 -252h-162z" />
    <glyph glyph-name="upsilon" unicode="&#x3c5;" horiz-adv-x="476" 
d="M289 494h139v-328c0 -109 -79 -171 -190 -171c-108 0 -191 62 -191 171v328h140v-318c0 -32 22 -50 51 -50c28 0 51 18 51 50v318z" />
    <glyph glyph-name="zeta" unicode="&#x3b6;" horiz-adv-x="414" 
d="M264 570v2h-174v124h372v-104c-165 -128 -265 -276 -265 -356c0 -79 54 -95 135 -135c75 -39 105 -67 105 -112c0 -56 -46 -126 -102 -193l-98 60c48 72 46 85 46 92c0 16 -15 26 -50 41c-81 35 -185 87 -185 227c0 100 83 242 216 354z" />
    <glyph glyph-name="Euro" unicode="&#x20ac;" horiz-adv-x="490" 
d="M348 207l131 -40c-19 -108 -101 -173 -207 -173c-153 0 -212 110 -212 236v26h-39v73h39v36h-39v73h39v40c0 103 58 223 212 223c121 0 192 -83 208 -174l-130 -41c-6 28 -23 75 -78 75s-74 -45 -74 -77v-46h150v-73h-150v-36h150v-73h-150v-30c0 -53 19 -92 74 -92
c39 0 71 28 76 73z" />
    <glyph glyph-name="logicalnot" unicode="&#xac;" horiz-adv-x="490" 
d="M469 355l1 -282h-117v168h-334v114h450z" />
    <glyph glyph-name="circumflex" unicode="&#x2c6;" horiz-adv-x="451" 
d="M364 518l-131 99c-24 -16 -109 -83 -132 -98l-53 47l141 157h91l138 -156z" />
    <glyph glyph-name="caron" unicode="&#x2c7;" horiz-adv-x="451" 
d="M233 624l131 99l54 -48l-138 -157h-91l-141 157l53 48c23 -16 108 -83 132 -99z" />
    <glyph glyph-name="breve" unicode="&#x2d8;" horiz-adv-x="509" 
d="M249 542c-119 0 -160 102 -163 169h103c0 -29 24 -72 60 -72c39 0 58 43 58 72h104c-5 -67 -47 -169 -162 -169z" />
    <glyph glyph-name="tilde" unicode="&#x2dc;" horiz-adv-x="439" 
d="M163 700c48 0 89 -42 118 -42c21 0 35 10 62 43c23 -12 44 -25 67 -38c-35 -76 -71 -104 -114 -104c-50 0 -92 41 -126 41c-20 0 -39 -9 -66 -44l-65 40c32 72 75 104 124 104z" />
    <glyph glyph-name="Acute" unicode="&#xf6c9;" horiz-adv-x="496" 
d="M223 726l-52 68l173 129l84 -100z" />
    <glyph glyph-name="Dieresis" unicode="&#xf6cb;" horiz-adv-x="556" 
d="M439 737h-135v131h135v-131zM245 737h-136v131h136v-131z" />
    <glyph glyph-name="dieresistonos" unicode="&#x385;" horiz-adv-x="541" 
d="M490 562h-134v126h134v-126zM178 562h-133v126h133v-126zM273 531l-84 18l50 211l129 -23z" />
    <glyph glyph-name="acute" unicode="&#xb4;" horiz-adv-x="451" 
d="M234 534l-78 36l93 195l120 -48z" />
    <glyph glyph-name="space" unicode=" " horiz-adv-x="248" 
 />
    <glyph glyph-name="cedilla" unicode="&#xb8;" horiz-adv-x="447" 
d="M147 -72l36 113c23 0 44 1 67 1l-27 -78c71 -8 93 -54 93 -89c0 -49 -33 -90 -109 -90c-36 1 -74 4 -107 23l23 61c31 -15 48 -17 67 -17c20 0 36 13 36 30c0 19 -13 27 -29 27c-5 0 -10 -1 -14 -3c-12 8 -24 14 -36 22z" />
    <glyph glyph-name="AE" unicode="&#xc6;" horiz-adv-x="867" 
d="M335 696h493v-134h-261v-144h224v-133h-224v-148h261v-137h-406v150h-172l-61 -150h-163zM422 561h-4l-115 -279h119v279z" />
    <glyph glyph-name="Ccedilla" unicode="&#xc7;" horiz-adv-x="514" 
d="M348 207l138 -40c-19 -103 -96 -165 -200 -172l-10 -31c71 -8 93 -54 93 -89c0 -49 -33 -90 -109 -90c-36 1 -74 4 -107 23l23 61c31 -15 48 -17 67 -17c20 0 36 13 36 30c0 19 -13 27 -29 27c-5 0 -10 -1 -14 -3c-12 8 -24 14 -36 22c7 23 14 46 22 69
c-125 19 -177 121 -177 233v248c0 103 60 223 223 223c129 0 200 -83 219 -174l-137 -41c-6 28 -24 75 -82 75c-59 0 -78 -45 -78 -77v-258c0 -53 21 -92 78 -92c40 0 75 28 80 73z" />
    <glyph glyph-name="multiply" unicode="&#xd7;" horiz-adv-x="490" 
d="M394 70l-144 147l-143 -140l-81 82l143 141l-145 147l81 79l144 -147l142 140l81 -84l-141 -139l144 -147z" />
    <glyph glyph-name="ae" unicode="&#xe6;" horiz-adv-x="707" 
d="M550 167l118 -64c-35 -75 -105 -108 -185 -108c-69 0 -117 20 -149 57c-65 -62 -138 -57 -157 -57c-97 0 -145 53 -145 153c0 83 55 152 169 152h80v19c0 20 -20 56 -62 56c-35 0 -61 -12 -76 -39l-101 64c37 73 102 100 185 100c53 0 105 -6 134 -41c27 31 66 42 117 42
c160 0 198 -113 198 -248v-50h-252c0 -49 9 -80 54 -80c28 0 49 11 72 44zM281 172v30h-61c-37 0 -52 -17 -52 -44c0 -19 13 -41 53 -41c32 0 60 19 60 55zM424 302h107c0 36 -9 71 -55 71c-40 0 -49 -38 -52 -71z" />
    <glyph glyph-name="eth" unicode="&#xf0;" horiz-adv-x="469" 
d="M203 557l50 40c-29 23 -67 34 -116 39c4 32 10 66 14 98c99 -7 159 -35 190 -66l61 49l42 -46l-62 -49c48 -64 54 -209 54 -311c0 -93 -15 -198 -69 -260c-33 -39 -78 -57 -146 -57c-67 0 -114 21 -143 57c-37 47 -46 109 -46 181c0 48 6 104 21 143
c25 63 80 101 160 101c33 0 82 -17 104 -44l2 1c-3 47 -5 77 -26 117l-50 -42c-13 15 -27 34 -40 49zM227 346c-32 0 -54 -19 -54 -118c0 -59 13 -105 54 -105c39 0 53 31 53 116c0 73 -10 107 -53 107z" />
    <glyph glyph-name="dotlessi" unicode="&#x131;" horiz-adv-x="253" 
d="M197 0h-140v495h140v-495z" />
    <glyph glyph-name="florin" unicode="&#x192;" horiz-adv-x="490" 
d="M107 318l-1 116h85l7 61c11 97 52 205 181 205c32 0 69 -5 100 -18l-28 -113c-32 13 -45 13 -64 13c-35 0 -50 -44 -55 -84l-8 -64h82l1 -116h-97l-23 -198c-16 -126 -55 -213 -167 -213c-28 0 -74 9 -111 25l33 109c29 -13 43 -14 55 -14c31 0 46 26 54 93l23 198h-67z
" />
    <glyph glyph-name="ccedilla" unicode="&#xe7;" horiz-adv-x="422" 
d="M222 501c84 0 150 -39 177 -115l-118 -57c-15 32 -29 44 -52 44c-51 0 -59 -51 -59 -128c0 -84 11 -122 59 -122c24 0 38 14 53 43l118 -58c-25 -68 -83 -108 -159 -112l-11 -32c71 -8 93 -54 93 -89c0 -49 -33 -90 -109 -90c-36 1 -74 4 -107 23l23 61
c31 -15 48 -17 67 -17c20 0 36 13 36 30c0 19 -13 27 -29 27c-5 0 -10 -1 -14 -3c-12 8 -24 14 -36 22c7 24 15 48 23 71c-112 19 -148 118 -148 246c0 145 46 256 193 256z" />
    <glyph glyph-name="Epsilon" unicode="&#x395;" horiz-adv-x="490" 
d="M466 0h-405v696h405v-134h-260v-144h224v-133h-224v-148h260v-137z" />
    <glyph glyph-name="Zeta" unicode="&#x396;" horiz-adv-x="455" 
d="M430 0h-405v126l236 438h-225v132h394v-122l-235 -437h235v-137z" />
    <glyph glyph-name="Iota" unicode="&#x399;" horiz-adv-x="268" 
d="M208 0h-145v696h145v-696z" />
    <glyph glyph-name="Kappa" unicode="&#x39a;" horiz-adv-x="552" 
d="M205 438h5c24 35 38 69 166 258h172l-194 -285c69 -137 138 -274 209 -411h-164c-47 92 -88 184 -135 277l-59 -91v-186h-145v696h145v-258z" />
    <glyph glyph-name="Mu" unicode="&#x39c;" horiz-adv-x="682" 
d="M629 0h-144v328l-4 1l-48 -125l-37 -90h-104l-39 96l-47 120l-4 -1v-329h-144v696h133l81 -194l69 -174h5l67 175l80 193h136v-696z" />
    <glyph glyph-name="Beta" unicode="&#x392;" horiz-adv-x="542" 
d="M502 212c0 -136 -83 -212 -206 -212h-235v696h225c136 0 208 -73 208 -196c0 -52 -23 -110 -82 -134v-5c64 -21 90 -90 90 -149zM352 495c0 47 -20 69 -75 69h-71v-141h72c53 0 74 29 74 72zM361 220c0 47 -22 77 -74 77h-81v-160h80c57 0 75 36 75 83z" />
    <glyph glyph-name="Nu" unicode="&#x39d;" horiz-adv-x="596" 
d="M539 0h-127l-129 232l-76 147l-3 -1v-378h-145v696h128l114 -208l91 -168l3 1v375h144v-696z" />
    <glyph glyph-name="Omicron" unicode="&#x39f;" horiz-adv-x="535" 
d="M490 478v-259c0 -139 -92 -225 -222 -225c-160 0 -224 110 -224 236v248c0 103 61 223 224 223c152 0 222 -114 222 -223zM344 209v275c0 26 -17 77 -76 77c-58 0 -80 -45 -80 -77v-258c0 -53 23 -92 80 -92c41 0 76 28 76 75z" />
    <glyph glyph-name="Rho" unicode="&#x3a1;" horiz-adv-x="519" 
d="M506 476c0 -133 -83 -222 -216 -222h-84v-254h-145v696h221c132 0 224 -68 224 -220zM364 478c0 60 -31 84 -82 84h-76v-173h77c43 0 81 24 81 89z" />
    <glyph glyph-name="Tau" unicode="&#x3a4;" horiz-adv-x="458" 
d="M448 564h-149v-564h-144v564h-149v132h442v-132z" />
    <glyph glyph-name="Upsilon" unicode="&#x3a5;" horiz-adv-x="510" 
d="M507 696l-180 -417v-279h-142v279l-180 419h161l46 -142l41 -133h6l43 134l51 139h154z" />
    <glyph glyph-name="Chi" unicode="&#x3a7;" horiz-adv-x="540" 
d="M269 212l-102 -212h-166l190 359l-178 337h167l87 -191l90 191h167l-180 -337l192 -359h-167z" />
    <glyph glyph-name="Alphatonos" unicode="&#x386;" horiz-adv-x="555" 
d="M393 0l-34 142h-165c-12 -47 -25 -95 -38 -142h-153l201 696h144l201 -696h-156zM-16 509l-78 36l93 195l120 -48zM274 509l-28 -138l-20 -100h100l-19 99l-28 139h-5z" />
    <glyph glyph-name="Epsilontonos" unicode="&#x388;" horiz-adv-x="490" 
d="M466 0h-405v696h405v-134h-260v-144h224v-133h-224v-148h260v-137zM-104 519l-78 36l93 195l120 -48z" />
    <glyph glyph-name="Etatonos" unicode="&#x389;" horiz-adv-x="567" 
d="M506 0h-143v286h-158v-286h-145v696h145v-278h158v278h143v-696zM-98 509l-78 36l93 195l120 -48z" />
    <glyph glyph-name="Iotatonos" unicode="&#x38a;" horiz-adv-x="268" 
d="M208 0h-145v696h145v-696zM-103 509l-78 36l93 195l120 -48z" />
    <glyph glyph-name="Omicrontonos" unicode="&#x38c;" horiz-adv-x="535" 
d="M490 478v-259c0 -139 -92 -225 -222 -225c-160 0 -224 110 -224 236v248c0 103 61 223 224 223c152 0 222 -114 222 -223zM344 209v275c0 26 -17 77 -76 77c-58 0 -80 -45 -80 -77v-258c0 -53 23 -92 80 -92c41 0 76 28 76 75zM-81 509l-78 36l93 195l120 -48z" />
    <glyph glyph-name="Upsilontonos" unicode="&#x38e;" horiz-adv-x="510" 
d="M507 696l-180 -417v-279h-142v279l-180 419h161l46 -142l41 -133h6l43 134l51 139h154zM-145 509l-78 36l93 195l120 -48z" />
    <glyph glyph-name="Omegatonos" unicode="&#x38f;" horiz-adv-x="537" 
d="M293 0v140c28 11 51 37 51 72v272c0 26 -17 77 -76 77c-58 0 -80 -45 -80 -77v-255c0 -43 17 -78 53 -89v-140h-210v132h50c0 3 1 3 1 4c-31 27 -38 73 -38 125v217c0 103 61 223 224 223c152 0 222 -114 222 -223v-223c0 -51 -8 -95 -39 -120c0 -1 1 -2 1 -3h52v-132
h-211zM-72 509l-78 36l93 195l120 -48z" />
    <glyph glyph-name="alphatonos" unicode="&#x3ac;" horiz-adv-x="469" 
d="M231 124c48 0 53 72 53 125c0 77 -9 119 -53 119s-52 -56 -52 -129c0 -53 4 -115 52 -115zM281 455l3 2v37h140v-494h-140v36l-4 1c-19 -27 -62 -44 -89 -44c-151 0 -154 137 -154 250c0 107 1 256 156 256c29 0 65 -15 88 -44zM236 534l-78 36l93 195l120 -48z" />
    <glyph glyph-name="omicron" unicode="&#x3bf;" horiz-adv-x="459" 
d="M234 502c92 0 144 -40 167 -95c19 -43 22 -97 22 -161c0 -71 -6 -121 -25 -160c-35 -71 -98 -93 -174 -93c-68 0 -114 22 -145 61c-32 43 -43 104 -43 192c1 56 5 118 20 153c28 64 85 103 178 103zM232 373c-22 0 -38 -12 -47 -35c-8 -23 -10 -51 -10 -94
c0 -33 1 -65 10 -88c8 -23 23 -34 45 -34c19 0 42 6 50 52c3 19 5 46 5 82c0 35 -3 62 -10 81c-9 24 -23 36 -43 36z" />
    <glyph glyph-name="epsilontonos" unicode="&#x3ad;" horiz-adv-x="434" 
d="M226 501c88 0 157 -34 188 -115l-120 -55c-16 40 -46 42 -60 42c-27 0 -51 -15 -51 -44c0 -17 10 -33 47 -33h48v-100h-48c-35 0 -48 -16 -48 -35c0 -23 25 -37 52 -37c32 0 54 12 65 43l122 -60c-36 -72 -89 -112 -188 -112c-107 0 -194 50 -194 156c0 39 20 81 67 102
v2c-45 16 -64 56 -64 93c0 85 72 153 184 153zM232 534l-78 36l93 195l120 -48z" />
    <glyph glyph-name="etatonos" unicode="&#x3ae;" horiz-adv-x="482" 
d="M432 -1h-140v314c0 39 -22 56 -49 56c-29 0 -52 -20 -52 -57v-313h-140v496h140v-38h4c23 23 58 43 93 43c99 0 144 -59 144 -152v-349zM224 534l-78 36l93 195l120 -48z" />
    <glyph glyph-name="iotatonos" unicode="&#x3af;" horiz-adv-x="259" 
d="M239 106l-2 -112c-11 -1 -39 -1 -48 -1c-115 0 -135 69 -135 141v361h136v-343c0 -32 8 -45 49 -46zM131 534l-78 36l93 195l120 -48z" />
    <glyph glyph-name="omicrontonos" unicode="&#x3cc;" horiz-adv-x="459" 
d="M234 502c92 0 144 -40 167 -95c19 -43 22 -97 22 -161c0 -71 -6 -121 -25 -160c-35 -71 -98 -93 -174 -93c-68 0 -114 22 -145 61c-32 43 -43 104 -43 192c1 56 5 118 20 153c28 64 85 103 178 103zM232 373c-22 0 -38 -12 -47 -35c-8 -23 -10 -51 -10 -94
c0 -33 1 -65 10 -88c8 -23 23 -34 45 -34c19 0 42 6 50 52c3 19 5 46 5 82c0 35 -3 62 -10 81c-9 24 -23 36 -43 36zM242 534l-78 36l93 195l120 -48z" />
    <glyph glyph-name="upsilontonos" unicode="&#x3cd;" horiz-adv-x="476" 
d="M289 494h139v-328c0 -109 -79 -171 -190 -171c-108 0 -191 62 -191 171v328h140v-318c0 -32 22 -50 51 -50c28 0 51 18 51 50v318zM244 534l-78 36l93 195l120 -48z" />
    <glyph glyph-name="iotadieresis" unicode="&#x3ca;" horiz-adv-x="259" 
d="M239 106l-2 -112c-11 -1 -39 -1 -48 -1c-115 0 -135 69 -135 141v361h136v-343c0 -32 8 -45 49 -46zM285 558h-134v130h134v-130zM88 558h-133v130h133v-130z" />
    <glyph glyph-name="upsilondieresis" unicode="&#x3cb;" horiz-adv-x="476" 
d="M289 494h139v-328c0 -109 -79 -171 -190 -171c-108 0 -191 62 -191 171v328h140v-318c0 -32 22 -50 51 -50c28 0 51 18 51 50v318zM400 558h-134v130h134v-130zM203 558h-133v130h133v-130z" />
    <glyph glyph-name="iotadieresistonos" unicode="&#x390;" horiz-adv-x="259" 
d="M239 106l-2 -112c-11 -1 -39 -1 -48 -1c-115 0 -135 69 -135 141v361h136v-343c0 -32 8 -45 49 -46zM359 562h-134v126h134v-126zM47 562h-133v126h133v-126zM142 531l-84 18l50 211l129 -23z" />
    <glyph glyph-name="upsilondieresistonos" unicode="&#x3b0;" horiz-adv-x="476" 
d="M289 494h139v-328c0 -109 -79 -171 -190 -171c-108 0 -191 62 -191 171v328h140v-318c0 -32 22 -50 51 -50c28 0 51 18 51 50v318zM459 562h-134v126h134v-126zM147 562h-133v126h133v-126zM242 531l-84 18l50 211l129 -23z" />
    <glyph glyph-name="Eta" unicode="&#x397;" horiz-adv-x="567" 
d="M506 0h-143v286h-158v-286h-145v696h145v-278h158v278h143v-696z" />
    <glyph glyph-name="mu" unicode="&#xb5;" horiz-adv-x="482" 
d="M51 -200v425h1v270h140v-313c0 -39 22 -56 49 -56c29 0 52 20 52 57v312h140v-495h-140v40l-4 1c-23 -27 -59 -46 -94 -46h-3v-195h-141z" />
    <glyph glyph-name="emdash" unicode="&#x2014;" horiz-adv-x="1000" 
d="M979 220h-959v116h959v-116z" />
    <glyph glyph-name="quotesinglbase" unicode="&#x201a;" horiz-adv-x="267" 
d="M130 -152h-75l36 150h-33v160h153v-155z" />
    <glyph glyph-name="quotedblbase" unicode="&#x201e;" horiz-adv-x="504" 
d="M130 -152h-75l36 150h-33v160h153v-155zM364 -152h-74l35 150h-32v160h152v-155z" />
    <glyph glyph-name="daggerdbl" unicode="&#x2021;" horiz-adv-x="452" 
d="M161 223v138h-144v119h144v206h131v-206h144v-119h-144v-138h144v-119h-144v-264h-131v264h-144v119h144z" />
    <glyph glyph-name="guilsinglleft" unicode="&#x2039;" horiz-adv-x="370" 
d="M313 28h-135l-131 207l131 207h135l-129 -207z" />
    <glyph glyph-name="OE" unicode="&#x152;" horiz-adv-x="744" 
d="M719 0h-394c-18 -4 -37 -6 -57 -6c-160 0 -224 110 -224 236v248c0 103 61 223 224 223c19 0 37 -2 53 -5h398v-134h-260v-144h224v-133h-224v-148h260v-137zM268 134c17 0 33 5 46 14v399c-12 8 -27 14 -46 14c-58 0 -80 -45 -80 -77v-258c0 -53 23 -92 80 -92z" />
    <glyph glyph-name="Zcaron" unicode="&#x17d;" horiz-adv-x="455" 
d="M430 0h-405v126l236 438h-225v132h394v-122l-235 -437h235v-137zM241 831l134 79l52 -53l-140 -130h-89l-141 130l50 53z" />
    <glyph glyph-name="scaron" unicode="&#x161;" horiz-adv-x="442" 
d="M418 153c0 -95 -74 -158 -197 -158c-91 0 -149 25 -196 89l97 82c25 -37 56 -50 95 -50c37 0 58 19 58 38c0 23 -13 32 -48 39c-88 16 -190 45 -190 153c0 96 86 154 186 154c89 0 143 -28 186 -75l-84 -88c-25 29 -53 42 -96 42c-39 0 -51 -17 -51 -30
c0 -23 36 -32 67 -37c92 -19 173 -49 173 -159zM226 624l131 99l54 -48l-138 -157h-91l-141 157l53 48c23 -16 108 -83 132 -99z" />
    <glyph glyph-name="guilsinglright" unicode="&#x203a;" horiz-adv-x="370" 
d="M181 28h-135l130 207l-130 207h135l131 -207z" />
    <glyph glyph-name="zcaron" unicode="&#x17e;" horiz-adv-x="407" 
d="M378 0h-350v120l184 253h-171v122h337v-113l-185 -254h185v-128zM206 624l131 99l54 -48l-138 -157h-91l-141 157l53 48c23 -16 108 -83 132 -99z" />
    <glyph glyph-name="Ydieresis" unicode="&#x178;" horiz-adv-x="510" 
d="M507 696l-180 -417v-279h-142v279l-180 419h161l46 -142l41 -133h6l43 134l51 139h154zM423 737h-135v131h135v-131zM229 737h-136v131h136v-131z" />
    <glyph glyph-name="exclamdown" unicode="&#xa1;" horiz-adv-x="285" 
d="M75 -201l10 499h118l10 -499h-138zM75 495h137v-133h-137v133z" />
    <glyph glyph-name="currency" unicode="&#xa4;" horiz-adv-x="535" 
d="M164 167l-64 -65l-75 75c21 23 42 42 65 65c-15 29 -23 60 -23 93c0 31 9 61 24 90l-65 65c25 25 51 49 76 76l65 -65c30 17 60 25 91 25c34 0 65 -8 93 -23l65 65l75 -76l-65 -64c15 -28 25 -56 25 -85c0 -36 -6 -66 -25 -101l65 -63l-76 -77l-64 65
c-31 -16 -60 -25 -95 -25c-31 0 -64 10 -92 25zM258 428c-51 -3 -94 -38 -94 -94c0 -47 37 -90 84 -90c59 0 103 35 103 91c0 55 -42 93 -93 93z" />
    <glyph glyph-name="brokenbar" unicode="&#xa6;" horiz-adv-x="259" 
d="M187 305h-116v421h116v-421zM71 225h116v-424h-116v424z" />
    <glyph glyph-name="Circumflex" unicode="&#xe023;" horiz-adv-x="525" 
d="M396 724l-134 79l-135 -79l-50 53l142 132h88l140 -132z" />
    <glyph glyph-name="commaaccent" unicode="&#xf6c3;" horiz-adv-x="516" 
d="M259 -295h-67l32 108h-29v131h136v-126z" />
    <glyph glyph-name="Caron" unicode="&#xf6ca;" horiz-adv-x="524" 
d="M261 831l134 79l52 -53l-140 -130h-89l-141 130l50 53z" />
    <glyph glyph-name="DieresisAcute" unicode="&#xf6cc;" horiz-adv-x="501" 
d="M494 748h-133v126h133v-126zM148 748h-134v126h134v-126zM237 720l-77 35l91 196l119 -47z" />
    <glyph glyph-name="DieresisGrave" unicode="&#xf6cd;" horiz-adv-x="501" 
d="M494 747h-134v126h134v-126zM147 747h-134v126h134v-126zM350 753l-77 -35l-133 184l119 48z" />
    <glyph glyph-name="Grave" unicode="&#xf6ce;" horiz-adv-x="524" 
d="M322 794l-52 -68l-205 97l84 100z" />
    <glyph glyph-name="Hungarumlaut" unicode="&#xf6cf;" horiz-adv-x="535" 
d="M142 718l-59 63l159 146l90 -85zM344 720l-58 63l162 143l89 -86z" />
    <glyph glyph-name="Macron" unicode="&#xf6d0;" horiz-adv-x="517" 
d="M413 752h-292v114h292v-114z" />
    <glyph glyph-name="cyrBreve" unicode="&#xf6d1;" horiz-adv-x="555" 
d="M280 728c-119 0 -160 102 -163 166h103c0 -28 24 -72 60 -72c39 0 58 44 58 72h104c-5 -64 -47 -166 -162 -166z" />
    <glyph glyph-name="cyrbreve" unicode="&#xf6d4;" horiz-adv-x="500" 
d="M252 542c-119 0 -160 101 -163 167h103c0 -28 24 -73 60 -73c39 0 58 45 58 73h104c-5 -66 -47 -167 -162 -167z" />
    <glyph glyph-name="macron" unicode="&#xaf;" horiz-adv-x="450" 
d="M381 572h-292v114h292v-114z" />
    <glyph glyph-name="paragraph" unicode="&#xb6;" horiz-adv-x="513" 
d="M176 -68v375c-113 11 -159 97 -159 194c0 95 57 198 189 198c93 0 176 -1 272 -1v-96h-44v-670h-100v670h-55v-670h-103z" />
    <glyph glyph-name="questiondown" unicode="&#xbf;" horiz-adv-x="456" 
d="M54 -15c0 59 16 91 39 124c34 50 84 94 84 163v30h140v-46c0 -61 -30 -113 -61 -160c-27 -40 -50 -76 -50 -111s20 -58 55 -58c33 0 60 23 61 84c47 -7 92 -11 139 -16c-8 -129 -97 -202 -208 -202c-131 0 -199 76 -199 192zM178 494h138v-133h-138v133z" />
    <glyph glyph-name="Scaron" unicode="&#x160;" horiz-adv-x="529" 
d="M503 206c0 -133 -85 -211 -236 -211c-116 0 -188 49 -236 118l114 92c36 -51 73 -74 124 -74c61 0 81 30 81 69c0 53 -54 76 -122 94c-128 40 -179 98 -179 202c0 120 89 205 220 205c105 0 168 -33 215 -97l-104 -98c-33 39 -70 59 -111 59c-43 0 -73 -25 -73 -62
c0 -39 57 -64 126 -85c139 -43 181 -110 181 -212zM267 831l134 79l52 -53l-140 -130h-89l-141 130l50 53z" />
    <glyph glyph-name="Oslash" unicode="&#xd8;" horiz-adv-x="535" 
d="M81 -5l-40 26l39 65c-25 41 -36 91 -36 144v248c0 103 61 223 224 223c64 0 113 -20 149 -51l31 52l43 -28l-39 -65c25 -39 38 -84 38 -131v-259c0 -139 -92 -225 -222 -225c-69 0 -120 20 -156 53zM344 209v221l-150 -247c11 -31 34 -49 74 -49c41 0 76 28 76 75z
M188 484v-217l149 249c-11 23 -30 45 -69 45c-58 0 -80 -45 -80 -77z" />
    <glyph glyph-name="Thorn" unicode="&#xde;" horiz-adv-x="519" 
d="M506 354c0 -133 -83 -222 -216 -222h-84v-132h-145v696h144v-122h77c132 0 224 -68 224 -220zM364 356c0 60 -31 84 -82 84h-76v-173h77c43 0 81 24 81 89z" />
    <glyph glyph-name="oslash" unicode="&#xf8;" horiz-adv-x="459" 
d="M234 502c48 0 85 -11 113 -30l36 55l30 -21l-38 -59c11 -12 20 -25 26 -40c19 -43 22 -97 22 -161c0 -71 -6 -121 -25 -160c-35 -71 -98 -93 -174 -93c-49 0 -89 11 -119 34l-30 -46l-29 20l33 52v1c-32 43 -43 104 -43 192c1 56 5 118 20 153c28 64 85 103 178 103z
M285 256c0 17 -1 33 -3 47l-96 -150c8 -21 23 -31 44 -31c19 0 42 6 50 52c3 19 5 46 5 82zM232 373c-22 0 -38 -12 -47 -35c-8 -23 -10 -51 -10 -94c0 -15 0 -27 1 -40l93 145c-9 16 -21 24 -37 24z" />
    <glyph glyph-name="thorn" unicode="&#xfe;" horiz-adv-x="467" 
d="M240 125c48 0 53 68 53 121c0 73 -6 123 -51 123c-44 0 -54 -43 -54 -120c0 -53 4 -124 52 -124zM188 460l3 -2c23 29 59 42 88 42c146 0 156 -149 156 -256c0 -119 -18 -250 -157 -250c-26 0 -68 16 -86 42l-4 -1v-236h-140v912h140v-251z" />
    <glyph glyph-name="Eth" unicode="&#xd0;" horiz-adv-x="552" 
d="M16 309v88h45v299h230c93 0 161 -32 192 -112c19 -47 19 -117 19 -201c0 -121 4 -203 -19 -263c-34 -92 -114 -120 -205 -120h-217v309h-45zM358 239v168c0 81 -10 154 -93 154h-60v-164h94v-88h-94v-175h61c73 0 92 40 92 105z" />
    <glyph glyph-name="cent" unicode="&#xa2;" horiz-adv-x="490" 
d="M236 -98v94c-136 8 -177 109 -177 249s41 247 177 255v82h34v-82c76 -5 135 -45 159 -114l-118 -57c-13 27 -24 39 -41 43v-248c15 3 29 17 42 42l118 -58c-25 -69 -84 -108 -160 -112v-94h-34zM200 245c0 -68 7 -106 36 -118v241c-31 -15 -36 -59 -36 -123z" />
    <glyph glyph-name="primemod" unicode="&#xe1ba;" horiz-adv-x="265" 
d="M155 752l142 -50l-150 -308l-103 32z" />
    <glyph glyph-name="dotaccent" unicode="&#x2d9;" horiz-adv-x="373" 
d="M263 558h-133v130h133v-130z" />
    <glyph glyph-name="ring" unicode="&#x2da;" horiz-adv-x="462" 
d="M285 631c0 19 -16 34 -35 34c-20 0 -36 -15 -36 -34s16 -34 36 -34c19 0 35 15 35 34zM137 632c0 60 50 109 113 109c64 0 112 -49 112 -109s-49 -109 -113 -109c-61 0 -112 49 -112 109z" />
    <glyph glyph-name="ogonek" unicode="&#x2db;" horiz-adv-x="344" 
d="M145 -109c0 31 14 68 45 115h83c-35 -49 -42 -82 -42 -101c0 -23 15 -35 38 -35c12 0 31 4 58 15l25 -64c-32 -19 -70 -29 -103 -29c-60 0 -104 40 -104 99z" />
    <glyph glyph-name="hungarumlaut" unicode="&#x2dd;" horiz-adv-x="492" 
d="M175 548l-78 36l93 195l120 -48zM333 534l-78 36l93 195l120 -48z" />
    <glyph glyph-name="Amacron" unicode="&#x100;" horiz-adv-x="555" 
d="M393 0l-34 142h-165c-12 -47 -25 -95 -38 -142h-153l201 696h144l201 -696h-156zM423 752h-292v114h292v-114zM274 509l-28 -138l-20 -100h100l-19 99l-28 139h-5z" />
    <glyph glyph-name="amacron" unicode="&#x101;" horiz-adv-x="462" 
d="M421 0h-140v40l-4 1c-25 -33 -69 -46 -100 -46c-97 0 -145 53 -145 153c0 83 55 152 169 152h80v29c0 21 -13 48 -58 48c-35 0 -61 -9 -80 -41l-101 64c37 73 102 100 185 100c113 0 194 -38 194 -160v-340zM281 172v30h-61c-37 0 -52 -17 -52 -44c0 -19 13 -41 53 -41
c32 0 60 19 60 55zM381 572h-292v114h292v-114z" />
    <glyph glyph-name="Abreve" unicode="&#x102;" horiz-adv-x="555" 
d="M393 0l-34 142h-165c-12 -47 -25 -95 -38 -142h-153l201 696h144l201 -696h-156zM280 728c-119 0 -160 102 -163 166h103c0 -28 24 -72 60 -72c39 0 58 44 58 72h104c-5 -64 -47 -166 -162 -166zM274 509l-28 -138l-20 -100h100l-19 99l-28 139h-5z" />
    <glyph glyph-name="abreve" unicode="&#x103;" horiz-adv-x="462" 
d="M421 0h-140v40l-4 1c-25 -33 -69 -46 -100 -46c-97 0 -145 53 -145 153c0 83 55 152 169 152h80v29c0 21 -13 48 -58 48c-35 0 -61 -9 -80 -41l-101 64c37 73 102 100 185 100c113 0 194 -38 194 -160v-340zM281 172v30h-61c-37 0 -52 -17 -52 -44c0 -19 13 -41 53 -41
c32 0 60 19 60 55zM239 542c-119 0 -160 102 -163 169h103c0 -29 24 -72 60 -72c39 0 58 43 58 72h104c-5 -67 -47 -169 -162 -169z" />
    <glyph glyph-name="Aogonek" unicode="&#x104;" horiz-adv-x="555" 
d="M393 0l-34 142h-165c-12 -47 -25 -95 -38 -142h-153l201 696h144l201 -696h-72c-31 -45 -37 -78 -37 -95c0 -23 15 -35 38 -35c12 0 31 4 58 15l25 -64c-32 -19 -70 -29 -103 -29c-60 0 -104 40 -104 99c0 29 12 65 41 109h-2zM274 509l-28 -138l-20 -100h100l-19 99
l-28 139h-5z" />
    <glyph glyph-name="aogonek" unicode="&#x105;" horiz-adv-x="462" 
d="M239 -109c0 31 14 67 42 110v39l-4 1c-25 -33 -69 -46 -100 -46c-97 0 -145 53 -145 153c0 83 55 152 169 152h80v29c0 21 -13 48 -58 48c-35 0 -61 -9 -80 -41l-101 64c37 73 102 100 185 100c113 0 194 -38 194 -160v-340h-59c-31 -45 -37 -78 -37 -95
c0 -23 15 -35 38 -35c12 0 31 4 58 15l25 -64c-32 -19 -70 -29 -103 -29c-60 0 -104 40 -104 99zM281 172v30h-61c-37 0 -52 -17 -52 -44c0 -19 13 -41 53 -41c32 0 60 19 60 55z" />
    <glyph glyph-name="Cacute" unicode="&#x106;" horiz-adv-x="514" 
d="M348 207l138 -40c-20 -108 -105 -173 -218 -173c-160 0 -223 110 -223 236v248c0 103 60 223 223 223c129 0 200 -83 219 -174l-137 -41c-6 28 -24 75 -82 75c-59 0 -78 -45 -78 -77v-258c0 -53 21 -92 78 -92c40 0 75 28 80 73zM223 726l-52 68l173 129l84 -100z" />
    <glyph glyph-name="cacute" unicode="&#x107;" horiz-adv-x="422" 
d="M222 501c84 0 150 -39 177 -115l-118 -57c-15 32 -29 44 -52 44c-51 0 -59 -51 -59 -128c0 -84 11 -122 59 -122c24 0 38 14 53 43l118 -58c-27 -73 -92 -113 -176 -113c-149 0 -195 105 -195 250s46 256 193 256zM234 534l-78 36l93 195l120 -48z" />
    <glyph glyph-name="Ccircumflex" unicode="&#x108;" horiz-adv-x="514" 
d="M348 207l138 -40c-20 -108 -105 -173 -218 -173c-160 0 -223 110 -223 236v248c0 103 60 223 223 223c129 0 200 -83 219 -174l-137 -41c-6 28 -24 75 -82 75c-59 0 -78 -45 -78 -77v-258c0 -53 21 -92 78 -92c40 0 75 28 80 73zM400 724l-134 79l-135 -79l-50 53
l142 132h88l140 -132z" />
    <glyph glyph-name="ccircumflex" unicode="&#x109;" horiz-adv-x="422" 
d="M222 501c84 0 150 -39 177 -115l-118 -57c-15 32 -29 44 -52 44c-51 0 -59 -51 -59 -128c0 -84 11 -122 59 -122c24 0 38 14 53 43l118 -58c-27 -73 -92 -113 -176 -113c-149 0 -195 105 -195 250s46 256 193 256zM359 518l-131 99c-24 -16 -109 -83 -132 -98l-53 47
l141 157h91l138 -156z" />
    <glyph glyph-name="Cdotaccent" unicode="&#x10a;" horiz-adv-x="514" 
d="M348 207l138 -40c-20 -108 -105 -173 -218 -173c-160 0 -223 110 -223 236v248c0 103 60 223 223 223c129 0 200 -83 219 -174l-137 -41c-6 28 -24 75 -82 75c-59 0 -78 -45 -78 -77v-258c0 -53 21 -92 78 -92c40 0 75 28 80 73zM328 742h-133v130h133v-130z" />
    <glyph glyph-name="cdotaccent" unicode="&#x10b;" horiz-adv-x="422" 
d="M222 501c84 0 150 -39 177 -115l-118 -57c-15 32 -29 44 -52 44c-51 0 -59 -51 -59 -128c0 -84 11 -122 59 -122c24 0 38 14 53 43l118 -58c-27 -73 -92 -113 -176 -113c-149 0 -195 105 -195 250s46 256 193 256zM283 558h-133v130h133v-130z" />
    <glyph glyph-name="Ccaron" unicode="&#x10c;" horiz-adv-x="514" 
d="M348 207l138 -40c-20 -108 -105 -173 -218 -173c-160 0 -223 110 -223 236v248c0 103 60 223 223 223c129 0 200 -83 219 -174l-137 -41c-6 28 -24 75 -82 75c-59 0 -78 -45 -78 -77v-258c0 -53 21 -92 78 -92c40 0 75 28 80 73zM266 831l134 79l52 -53l-140 -130h-89
l-141 130l50 53z" />
    <glyph glyph-name="ccaron" unicode="&#x10d;" horiz-adv-x="422" 
d="M222 501c84 0 150 -39 177 -115l-118 -57c-15 32 -29 44 -52 44c-51 0 -59 -51 -59 -128c0 -84 11 -122 59 -122c24 0 38 14 53 43l118 -58c-27 -73 -92 -113 -176 -113c-149 0 -195 105 -195 250s46 256 193 256zM217 624l131 99l54 -48l-138 -157h-91l-141 157l53 48
c23 -16 108 -83 132 -99z" />
    <glyph glyph-name="Dcaron" unicode="&#x10e;" horiz-adv-x="552" 
d="M358 239v168c0 81 -10 154 -93 154h-60v-427h61c73 0 92 40 92 105zM61 696h230c93 0 161 -32 192 -112c19 -47 19 -117 19 -201c0 -121 4 -203 -19 -263c-34 -92 -114 -120 -205 -120h-217v696zM238 831l134 79l52 -53l-140 -130h-89l-141 130l50 53z" />
    <glyph glyph-name="dcaron" unicode="&#x10f;" horiz-adv-x="574" 
d="M526 488h-67l32 108h-29v131h136v-126zM229 370c-48 0 -52 -62 -52 -115c0 -73 8 -129 52 -129s51 42 51 119c0 53 -3 125 -51 125zM280 35l-3 2c-23 -29 -59 -42 -88 -42c-149 0 -156 135 -156 256c0 119 22 250 158 250c25 0 66 -17 85 -42l4 1v266h140v-726h-140v35z
" />
    <glyph glyph-name="Dcroat" unicode="&#x110;" horiz-adv-x="552" 
d="M16 311v88h45v297h230c93 0 161 -32 192 -112c19 -47 19 -117 19 -201c0 -121 4 -203 -19 -263c-34 -92 -114 -120 -205 -120h-217v311h-45zM358 239v168c0 81 -10 154 -93 154h-60v-162h94v-88h-94v-177h61c73 0 92 40 92 105z" />
    <glyph glyph-name="dcroat" unicode="&#x111;" horiz-adv-x="478" 
d="M284 35l-3 2c-23 -29 -59 -42 -88 -42c-149 0 -156 135 -156 256c0 119 22 250 158 250c25 0 66 -17 85 -42l4 1v97h-120v82h120v87h140v-87h43v-82h-43v-557h-140v35zM233 370c-48 0 -52 -62 -52 -115c0 -73 8 -129 52 -129s51 42 51 119c0 53 -3 125 -51 125z" />
    <glyph glyph-name="Emacron" unicode="&#x112;" horiz-adv-x="490" 
d="M466 0h-405v696h405v-134h-260v-144h224v-133h-224v-148h260v-137zM406 752h-292v114h292v-114z" />
    <glyph glyph-name="emacron" unicode="&#x113;" horiz-adv-x="464" 
d="M304 167l117 -63c-35 -75 -108 -109 -188 -109c-147 0 -197 93 -197 252c0 155 48 254 199 254c160 0 195 -113 195 -248v-39h-252v-8c0 -45 9 -83 54 -83c28 0 49 11 72 44zM178 302h105c0 36 -8 71 -53 71c-39 0 -49 -38 -52 -71zM381 572h-292v114h292v-114z" />
    <glyph glyph-name="Ebreve" unicode="&#x114;" horiz-adv-x="490" 
d="M466 0h-405v696h405v-134h-260v-144h224v-133h-224v-148h260v-137zM267 726c-119 0 -160 102 -163 166h103c0 -28 24 -72 60 -72c39 0 58 44 58 72h104c-5 -64 -47 -166 -162 -166z" />
    <glyph glyph-name="ebreve" unicode="&#x115;" horiz-adv-x="464" 
d="M304 167l117 -63c-35 -75 -108 -109 -188 -109c-147 0 -197 93 -197 252c0 155 48 254 199 254c160 0 195 -113 195 -248v-39h-252v-8c0 -45 9 -83 54 -83c28 0 49 11 72 44zM178 302h105c0 36 -8 71 -53 71c-39 0 -49 -38 -52 -71zM236 542c-119 0 -160 102 -163 169
h103c0 -29 24 -72 60 -72c39 0 58 43 58 72h104c-5 -67 -47 -169 -162 -169z" />
    <glyph glyph-name="Edotaccent" unicode="&#x116;" horiz-adv-x="490" 
d="M466 0h-405v696h405v-134h-260v-144h224v-133h-224v-148h260v-137zM332 738h-133v130h133v-130z" />
    <glyph glyph-name="edotaccent" unicode="&#x117;" horiz-adv-x="464" 
d="M304 167l117 -63c-35 -75 -108 -109 -188 -109c-147 0 -197 93 -197 252c0 155 48 254 199 254c160 0 195 -113 195 -248v-39h-252v-8c0 -45 9 -83 54 -83c28 0 49 11 72 44zM178 302h105c0 36 -8 71 -53 71c-39 0 -49 -38 -52 -71zM303 558h-133v130h133v-130z" />
    <glyph glyph-name="Eogonek" unicode="&#x118;" horiz-adv-x="490" 
d="M343 -109c0 29 12 65 41 109h-323v696h405v-134h-260v-144h224v-133h-224v-148h260v-137c-31 -45 -37 -78 -37 -95c0 -23 15 -35 38 -35c12 0 31 4 58 15l25 -64c-32 -19 -70 -29 -103 -29c-60 0 -104 40 -104 99z" />
    <glyph glyph-name="eogonek" unicode="&#x119;" horiz-adv-x="464" 
d="M234 -79c0 21 7 46 21 75c-7 0 -15 -1 -22 -1c-147 0 -197 93 -197 252c0 155 48 254 199 254c160 0 195 -113 195 -248v-39h-252v-8c0 -45 9 -83 54 -83c28 0 49 11 72 44l117 -63c-15 -32 -36 -57 -64 -74c-31 -45 -37 -78 -37 -95c0 -23 15 -35 38 -35
c12 0 31 4 58 15l25 -64c-32 -19 -70 -29 -103 -29c-60 0 -104 40 -104 99zM178 302h105c0 36 -8 71 -53 71c-39 0 -49 -38 -52 -71z" />
    <glyph glyph-name="Ecaron" unicode="&#x11a;" horiz-adv-x="490" 
d="M466 0h-405v696h405v-134h-260v-144h224v-133h-224v-148h260v-137zM264 831l134 79l52 -53l-140 -130h-89l-141 130l50 53z" />
    <glyph glyph-name="ecaron" unicode="&#x11b;" horiz-adv-x="464" 
d="M304 167l117 -63c-35 -75 -108 -109 -188 -109c-147 0 -197 93 -197 252c0 155 48 254 199 254c160 0 195 -113 195 -248v-39h-252v-8c0 -45 9 -83 54 -83c28 0 49 11 72 44zM178 302h105c0 36 -8 71 -53 71c-39 0 -49 -38 -52 -71zM234 624l131 99l54 -48l-138 -157h-91
l-141 157l53 48c23 -16 108 -83 132 -99z" />
    <glyph glyph-name="Gcircumflex" unicode="&#x11c;" horiz-adv-x="539" 
d="M273 701c129 0 200 -83 219 -174l-137 -41c-6 28 -24 75 -82 75c-59 0 -78 -45 -78 -77v-258c0 -52 21 -93 77 -93c61 0 83 34 83 77v54h-94v123h238v-151c0 -144 -76 -242 -226 -242c-160 0 -223 110 -223 236v248c0 103 60 223 223 223zM402 724l-134 79l-135 -79
l-50 53l142 132h88l140 -132z" />
    <glyph glyph-name="gcircumflex" unicode="&#x11d;" horiz-adv-x="467" 
d="M419 495v-502c0 -119 -67 -199 -199 -199c-74 0 -133 26 -177 78l98 91c23 -28 49 -42 79 -42c32 0 59 20 59 53v72l-4 1c-18 -26 -63 -45 -89 -45c-145 0 -154 132 -154 245c0 107 11 253 155 253c29 0 66 -15 89 -44l3 2v37h140zM226 134c48 0 53 65 53 119
c0 77 -9 116 -53 116s-52 -53 -52 -126c0 -53 4 -109 52 -109zM369 518l-131 99c-24 -16 -109 -83 -132 -98l-53 47l141 157h91l138 -156z" />
    <glyph glyph-name="Gbreve" unicode="&#x11e;" horiz-adv-x="539" 
d="M273 701c129 0 200 -83 219 -174l-137 -41c-6 28 -24 75 -82 75c-59 0 -78 -45 -78 -77v-258c0 -52 21 -93 77 -93c61 0 83 34 83 77v54h-94v123h238v-151c0 -144 -76 -242 -226 -242c-160 0 -223 110 -223 236v248c0 103 60 223 223 223zM276 728
c-119 0 -160 102 -163 166h103c0 -28 24 -72 60 -72c39 0 58 44 58 72h104c-5 -64 -47 -166 -162 -166z" />
    <glyph glyph-name="gbreve" unicode="&#x11f;" horiz-adv-x="467" 
d="M419 495v-502c0 -119 -67 -199 -199 -199c-74 0 -133 26 -177 78l98 91c23 -28 49 -42 79 -42c32 0 59 20 59 53v72l-4 1c-18 -26 -63 -45 -89 -45c-145 0 -154 132 -154 245c0 107 11 253 155 253c29 0 66 -15 89 -44l3 2v37h140zM226 134c48 0 53 65 53 119
c0 77 -9 116 -53 116s-52 -53 -52 -126c0 -53 4 -109 52 -109zM243 542c-119 0 -160 102 -163 169h103c0 -29 24 -72 60 -72c39 0 58 43 58 72h104c-5 -67 -47 -169 -162 -169z" />
    <glyph glyph-name="Gdotaccent" unicode="&#x120;" horiz-adv-x="539" 
d="M273 701c129 0 200 -83 219 -174l-137 -41c-6 28 -24 75 -82 75c-59 0 -78 -45 -78 -77v-258c0 -52 21 -93 77 -93c61 0 83 34 83 77v54h-94v123h238v-151c0 -144 -76 -242 -226 -242c-160 0 -223 110 -223 236v248c0 103 60 223 223 223zM337 738h-133v130h133v-130z
" />
    <glyph glyph-name="gdotaccent" unicode="&#x121;" horiz-adv-x="467" 
d="M419 495v-502c0 -119 -67 -199 -199 -199c-74 0 -133 26 -177 78l98 91c23 -28 49 -42 79 -42c32 0 59 20 59 53v72l-4 1c-18 -26 -63 -45 -89 -45c-145 0 -154 132 -154 245c0 107 11 253 155 253c29 0 66 -15 89 -44l3 2v37h140zM226 134c48 0 53 65 53 119
c0 77 -9 116 -53 116s-52 -53 -52 -126c0 -53 4 -109 52 -109zM319 558h-133v130h133v-130z" />
    <glyph glyph-name="Gcommaaccent" unicode="&#x122;" horiz-adv-x="539" 
d="M273 701c129 0 200 -83 219 -174l-137 -41c-6 28 -24 75 -82 75c-59 0 -78 -45 -78 -77v-258c0 -52 21 -93 77 -93c61 0 83 34 83 77v54h-94v123h238v-151c0 -144 -76 -242 -226 -242c-160 0 -223 110 -223 236v248c0 103 60 223 223 223zM260 -295h-67l32 108h-29v131
h136v-126z" />
    <glyph glyph-name="gcommaaccent" unicode="&#x123;" horiz-adv-x="467" 
d="M419 495v-502c0 -119 -67 -199 -199 -199c-74 0 -133 26 -177 78l98 91c23 -28 49 -42 79 -42c32 0 59 20 59 53v72l-4 1c-18 -26 -63 -45 -89 -45c-145 0 -154 132 -154 245c0 107 11 253 155 253c29 0 66 -15 89 -44l3 2v37h140zM180 700l72 112h66l-31 -107h28v-131
h-135v126zM226 134c48 0 53 65 53 119c0 77 -9 116 -53 116s-52 -53 -52 -126c0 -53 4 -109 52 -109z" />
    <glyph glyph-name="Hcircumflex" unicode="&#x124;" horiz-adv-x="567" 
d="M506 0h-143v286h-158v-286h-145v696h145v-278h158v278h143v-696zM414 724l-134 79l-135 -79l-50 53l142 132h88l140 -132z" />
    <glyph glyph-name="hcircumflex" unicode="&#x125;" horiz-adv-x="482" 
d="M434 0h-140v313c0 39 -22 56 -49 56c-29 0 -52 -20 -52 -57v-312h-140v726h140v-268l5 -1c23 23 57 43 92 43c92 0 144 -62 144 -154v-346zM252 724l-134 79l-135 -79l-50 53l142 132h88l140 -132z" />
    <glyph glyph-name="Hbar" unicode="&#x126;" horiz-adv-x="567" 
d="M506 0h-143v286h-158v-286h-145v516h-46v79h46v101h145v-101h158v101h143v-101h43v-79h-43v-516zM205 418h158v98h-158v-98z" />
    <glyph glyph-name="hbar" unicode="&#x127;" horiz-adv-x="482" 
d="M434 0h-140v313c0 39 -22 56 -49 56c-29 0 -52 -20 -52 -57v-312h-140v563h-53v80h53v83h140v-83h133v-80h-133v-105l5 -1c23 23 57 43 92 43c92 0 144 -62 144 -154v-346z" />
    <glyph glyph-name="Itilde" unicode="&#x128;" horiz-adv-x="331" 
d="M240 0h-145v696h145v-696zM104 870c48 0 89 -42 118 -42c21 0 35 10 62 43c23 -12 44 -25 67 -38c-35 -76 -71 -104 -114 -104c-50 0 -92 41 -126 41c-20 0 -39 -9 -66 -44l-65 40c32 72 75 104 124 104z" />
    <glyph glyph-name="itilde" unicode="&#x129;" horiz-adv-x="331" 
d="M239 0h-140v495h140v-495zM104 700c48 0 89 -42 118 -42c21 0 35 10 62 43c23 -12 44 -25 67 -38c-35 -76 -71 -104 -114 -104c-50 0 -92 41 -126 41c-20 0 -39 -9 -66 -44l-65 40c32 72 75 104 124 104z" />
    <glyph glyph-name="Imacron" unicode="&#x12a;" horiz-adv-x="268" 
d="M208 0h-145v696h145v-696zM280 752h-292v114h292v-114z" />
    <glyph glyph-name="imacron" unicode="&#x12b;" horiz-adv-x="272" 
d="M206 0h-140v495h140v-495zM282 572h-292v114h292v-114z" />
    <glyph glyph-name="ibreve" unicode="&#x12d;" horiz-adv-x="285" 
d="M212 0h-140v495h140v-495zM143 542c-119 0 -160 102 -163 169h103c0 -29 24 -72 60 -72c39 0 58 43 58 72h104c-5 -67 -47 -169 -162 -169z" />
    <glyph glyph-name="Iogonek" unicode="&#x12e;" horiz-adv-x="268" 
d="M52 -108c0 29 12 64 40 108h-29v696h145v-696h-33c-31 -45 -37 -77 -37 -94c0 -23 15 -35 38 -35c12 0 31 4 58 15l25 -64c-32 -19 -70 -29 -103 -29c-60 0 -104 40 -104 99z" />
    <glyph glyph-name="iogonek" unicode="&#x12f;" horiz-adv-x="253" 
d="M44 -108c0 29 12 64 40 108h-27v495h140v-495h-30c-31 -45 -37 -77 -37 -94c0 -23 15 -35 38 -35c12 0 31 4 58 15l25 -64c-32 -19 -70 -29 -103 -29c-60 0 -104 40 -104 99zM197 569h-140v127h140v-127z" />
    <glyph glyph-name="Idotaccent" unicode="&#x130;" horiz-adv-x="268" 
d="M208 0h-145v696h145v-696zM199 738h-133v130h133v-130z" />
    <glyph glyph-name="IJ" unicode="&#x132;" horiz-adv-x="692" 
d="M208 0h-145v696h145v-696zM630 696v-499c0 -143 -91 -202 -204 -202c-72 0 -135 24 -183 88l95 97c24 -37 62 -50 84 -50c41 0 64 31 64 72v494h144z" />
    <glyph glyph-name="ij" unicode="&#x133;" horiz-adv-x="502" 
d="M197 569h-140v127h140v-127zM197 0h-140v495h140v-495zM442 569h-140v127h140v-127zM442 496v-540c0 -101 -68 -154 -175 -154h-35v126h25c37 0 45 32 45 65v503h140z" />
    <glyph glyph-name="Jcircumflex" unicode="&#x134;" horiz-adv-x="436" 
d="M379 697v-499c0 -143 -91 -202 -204 -202c-72 0 -135 24 -183 88l95 97c24 -37 62 -50 84 -50c41 0 64 31 64 72v494h144zM439 726l-134 79l-135 -79l-50 53l142 132h88l140 -132z" />
    <glyph glyph-name="jcircumflex" unicode="&#x135;" horiz-adv-x="330" 
d="M232 496v-540c0 -101 -70 -154 -175 -154h-36v126h25c37 0 46 32 46 65v503h140zM296 518l-131 99c-24 -16 -109 -83 -132 -98l-53 47l141 157h91l138 -156z" />
    <glyph glyph-name="Kcommaaccent" unicode="&#x136;" horiz-adv-x="552" 
d="M205 438h5c24 35 38 69 166 258h172l-194 -285c69 -137 138 -274 209 -411h-164c-47 92 -88 184 -135 277l-59 -91v-186h-145v696h145v-258zM289 -275h-67l32 108h-29v131h136v-126z" />
    <glyph glyph-name="kcommaaccent" unicode="&#x137;" horiz-adv-x="483" 
d="M192 351h3l106 143h177l-161 -196l170 -298h-168l-97 184l-30 -41v-143h-139v724h139v-373zM248 -295h-67l32 108h-29v131h136v-126z" />
    <glyph glyph-name="kgreenlandic" unicode="&#x138;" horiz-adv-x="483" 
d="M192 351h3l106 143h177l-161 -196l170 -298h-163l-98 186l-34 -43v-143h-139v494h139v-143z" />
    <glyph glyph-name="Lacute" unicode="&#x139;" horiz-adv-x="482" 
d="M466 0h-405v696h145v-559h260v-137zM126 726l-52 68l173 129l84 -100z" />
    <glyph glyph-name="lacute" unicode="&#x13a;" horiz-adv-x="260" 
d="M245 -2h-51c-93 0 -146 37 -146 140v588h140v-557c0 -39 14 -47 41 -47h16v-124zM103 741l-52 68l173 129l84 -100z" />
    <glyph glyph-name="Lcommaaccent" unicode="&#x13b;" horiz-adv-x="482" 
d="M466 0h-405v696h145v-559h260v-137zM264 -295h-67l32 108h-29v131h136v-126z" />
    <glyph glyph-name="lcommaaccent" unicode="&#x13c;" horiz-adv-x="260" 
d="M245 -2h-51c-93 0 -146 37 -146 140v588h140v-557c0 -39 14 -47 41 -47h16v-124zM137 -293h-67l32 108h-29v131h136v-126z" />
    <glyph glyph-name="Lcaron" unicode="&#x13d;" horiz-adv-x="482" 
d="M466 0h-405v696h145v-559h260v-137zM339 457h-67l32 108h-29v131h136v-126z" />
    <glyph glyph-name="lcaron" unicode="&#x13e;" horiz-adv-x="353" 
d="M294 485h-67l32 108h-29v131h136v-126zM245 -2h-51c-93 0 -146 37 -146 140v588h140v-557c0 -39 14 -47 41 -47h16v-124z" />
    <glyph glyph-name="Ldot" unicode="&#x13f;" horiz-adv-x="482" 
d="M466 0h-405v696h145v-559h260v-137zM426 302h-133v130h133v-130z" />
    <glyph glyph-name="ldot" unicode="&#x140;" horiz-adv-x="344" 
d="M358 320h-133v130h133v-130zM245 -2h-51c-93 0 -146 37 -146 140v588h140v-557c0 -39 14 -47 41 -47h16v-124z" />
    <glyph glyph-name="Lslash" unicode="&#x141;" horiz-adv-x="512" 
d="M496 0h-405v233l-45 -29l-46 73l91 58v361h145v-268l74 48l46 -73l-120 -77v-191h260v-135z" />
    <glyph glyph-name="lslash" unicode="&#x142;" horiz-adv-x="328" 
d="M286 -2h-51c-93 0 -146 37 -146 140v131l-42 -27l-47 73l89 56v355h140v-265l52 33l46 -73l-98 -63v-189c0 -39 14 -47 41 -47h16v-124z" />
    <glyph glyph-name="Nacute" unicode="&#x143;" horiz-adv-x="596" 
d="M244 726l-52 68l173 129l84 -100zM539 0h-127l-129 230l-76 149l-3 -1v-378h-145v696h128l114 -208l91 -168l3 1v375h144v-696z" />
    <glyph glyph-name="nacute" unicode="&#x144;" horiz-adv-x="482" 
d="M432 0h-140v313c0 39 -22 56 -49 56c-29 0 -52 -20 -52 -57v-312h-140v495h140v-40l4 -1c23 27 59 46 94 46c100 0 143 -59 143 -152v-348zM239 534l-78 36l93 195l120 -48z" />
    <glyph glyph-name="Ncommaaccent" unicode="&#x145;" horiz-adv-x="596" 
d="M539 0h-127l-129 232l-76 147l-3 -1v-378h-145v696h128l114 -208l91 -168l3 1v375h144v-696zM297 -275h-67l32 108h-29v131h136v-126z" />
    <glyph glyph-name="ncommaaccent" unicode="&#x146;" horiz-adv-x="482" 
d="M432 0h-140v313c0 39 -22 56 -49 56c-29 0 -52 -20 -52 -57v-312h-140v495h140v-40l4 -1c23 27 59 46 94 46c100 0 143 -59 143 -152v-348zM234 -295h-67l32 108h-29v131h136v-126z" />
    <glyph glyph-name="Ncaron" unicode="&#x147;" horiz-adv-x="596" 
d="M539 0h-127l-129 232l-76 147l-3 -1v-378h-145v696h128l114 -208l91 -168l3 1v375h144v-696zM301 831l134 79l52 -53l-140 -130h-89l-141 130l50 53z" />
    <glyph glyph-name="ncaron" unicode="&#x148;" horiz-adv-x="482" 
d="M432 0h-140v313c0 39 -22 56 -49 56c-29 0 -52 -20 -52 -57v-312h-140v495h140v-40l4 -1c23 27 59 46 94 46c100 0 143 -59 143 -152v-348zM227 624l131 99l54 -48l-138 -157h-91l-141 157l53 48c23 -16 108 -83 132 -99z" />
    <glyph glyph-name="napostrophe" unicode="&#x149;" horiz-adv-x="521" 
d="M511 0h-140v313c0 39 -22 56 -49 56c-29 0 -52 -20 -52 -57v-312h-140v495h140v-40l4 -1c23 27 59 46 94 46c100 0 143 -59 143 -152v-348zM56 432h-67l32 108h-29v131h136v-126z" />
    <glyph glyph-name="Eng" unicode="&#x14a;" horiz-adv-x="596" 
d="M301 488l90 -168c3 0 1 1 4 1v375h143v-750c0 -100 -63 -131 -132 -131c-25 0 -50 4 -76 11l11 113c31 0 58 -1 58 27v65l-95 173l-97 181c-3 0 -1 -1 -4 -1v-384h-144v696h128c37 -69 77 -137 114 -208z" />
    <glyph glyph-name="eng" unicode="&#x14b;" horiz-adv-x="482" 
d="M431 316v-370c0 -100 -63 -131 -132 -131c-25 0 -50 4 -76 11l11 113c31 0 58 -1 58 27v347c0 39 -22 56 -50 56c-29 0 -51 -20 -51 -57v-312h-140v495h140v-40c1 0 2 -1 3 -1c24 25 66 46 101 46c123 0 136 -83 136 -184z" />
    <glyph glyph-name="Omacron" unicode="&#x14c;" horiz-adv-x="535" 
d="M490 478v-259c0 -139 -92 -225 -222 -225c-160 0 -224 110 -224 236v248c0 103 61 223 224 223c152 0 222 -114 222 -223zM344 209v275c0 26 -17 77 -76 77c-58 0 -80 -45 -80 -77v-258c0 -53 23 -92 80 -92c41 0 76 28 76 75zM412 752h-292v114h292v-114z" />
    <glyph glyph-name="omacron" unicode="&#x14d;" horiz-adv-x="459" 
d="M234 502c92 0 144 -40 167 -95c19 -43 22 -97 22 -161c0 -71 -6 -121 -25 -160c-35 -71 -98 -93 -174 -93c-68 0 -114 22 -145 61c-32 43 -43 104 -43 192c1 56 5 118 20 153c28 64 85 103 178 103zM232 373c-22 0 -38 -12 -47 -35c-8 -23 -10 -51 -10 -94
c0 -33 1 -65 10 -88c8 -23 23 -34 45 -34c19 0 42 6 50 52c3 19 5 46 5 82c0 35 -3 62 -10 81c-9 24 -23 36 -43 36zM380 572h-292v114h292v-114z" />
    <glyph glyph-name="Obreve" unicode="&#x14e;" horiz-adv-x="535" 
d="M490 478v-259c0 -139 -92 -225 -222 -225c-160 0 -224 110 -224 236v248c0 103 61 223 224 223c152 0 222 -114 222 -223zM344 209v275c0 26 -17 77 -76 77c-58 0 -80 -45 -80 -77v-258c0 -53 23 -92 80 -92c41 0 76 28 76 75zM268 728c-119 0 -160 102 -163 166h103
c0 -28 24 -72 60 -72c39 0 58 44 58 72h104c-5 -64 -47 -166 -162 -166z" />
    <glyph glyph-name="obreve" unicode="&#x14f;" horiz-adv-x="459" 
d="M234 502c92 0 144 -40 167 -95c19 -43 22 -97 22 -161c0 -71 -6 -121 -25 -160c-35 -71 -98 -93 -174 -93c-68 0 -114 22 -145 61c-32 43 -43 104 -43 192c1 56 5 118 20 153c28 64 85 103 178 103zM232 373c-22 0 -38 -12 -47 -35c-8 -23 -10 -51 -10 -94
c0 -33 1 -65 10 -88c8 -23 23 -34 45 -34c19 0 42 6 50 52c3 19 5 46 5 82c0 35 -3 62 -10 81c-9 24 -23 36 -43 36zM232 542c-119 0 -160 102 -163 169h103c0 -29 24 -72 60 -72c39 0 58 43 58 72h104c-5 -67 -47 -169 -162 -169z" />
    <glyph glyph-name="Ohungarumlaut" unicode="&#x150;" horiz-adv-x="535" 
d="M490 478v-259c0 -139 -92 -225 -222 -225c-160 0 -224 110 -224 236v248c0 103 61 223 224 223c152 0 222 -114 222 -223zM344 209v275c0 26 -17 77 -76 77c-58 0 -80 -45 -80 -77v-258c0 -53 23 -92 80 -92c41 0 76 28 76 75zM138 718l-59 63l159 146l90 -85zM340 720
l-58 63l162 143l89 -86z" />
    <glyph glyph-name="ohungarumlaut" unicode="&#x151;" horiz-adv-x="459" 
d="M234 502c92 0 144 -40 167 -95c19 -43 22 -97 22 -161c0 -71 -6 -121 -25 -160c-35 -71 -98 -93 -174 -93c-68 0 -114 22 -145 61c-32 43 -43 104 -43 192c1 56 5 118 20 153c28 64 85 103 178 103zM232 373c-22 0 -38 -12 -47 -35c-8 -23 -10 -51 -10 -94
c0 -33 1 -65 10 -88c8 -23 23 -34 45 -34c19 0 42 6 50 52c3 19 5 46 5 82c0 35 -3 62 -10 81c-9 24 -23 36 -43 36zM162 548l-78 36l93 195l120 -48zM320 534l-78 36l93 195l120 -48z" />
    <glyph glyph-name="Racute" unicode="&#x154;" horiz-adv-x="549" 
d="M517 0h-157l-93 275h-61v-275h-145v696h230c118 0 216 -62 216 -205c0 -89 -35 -154 -102 -190zM368 490c0 53 -33 74 -80 74h-82v-157h78c47 0 84 22 84 83zM207 726l-52 68l173 129l84 -100z" />
    <glyph glyph-name="racute" unicode="&#x155;" horiz-adv-x="364" 
d="M277 369c-49 0 -81 -24 -81 -84v-286h-141v496h139v-55l3 -1c25 44 64 61 108 61c21 0 41 -3 58 -15l-25 -130c-23 11 -42 14 -61 14zM196 534l-78 36l93 195l120 -48z" />
    <glyph glyph-name="Rcommaaccent" unicode="&#x156;" horiz-adv-x="549" 
d="M517 0h-157l-93 275h-61v-275h-145v696h230c118 0 216 -62 216 -205c0 -89 -35 -154 -102 -190zM368 490c0 53 -33 74 -80 74h-82v-157h78c47 0 84 22 84 83zM282 -275h-67l32 108h-29v131h136v-126z" />
    <glyph glyph-name="rcommaaccent" unicode="&#x157;" horiz-adv-x="364" 
d="M277 369c-49 0 -81 -24 -81 -84v-286h-141v496h139v-55l3 -1c25 44 64 61 108 61c21 0 41 -3 58 -15l-25 -130c-23 11 -42 14 -61 14zM122 -294h-67l32 108h-29v131h136v-126z" />
    <glyph glyph-name="Rcaron" unicode="&#x158;" horiz-adv-x="549" 
d="M517 0h-157l-93 275h-61v-275h-145v696h230c118 0 216 -62 216 -205c0 -89 -35 -154 -102 -190zM368 490c0 53 -33 74 -80 74h-82v-157h78c47 0 84 22 84 83zM234 831l134 79l52 -53l-140 -130h-89l-141 130l50 53z" />
    <glyph glyph-name="rcaron" unicode="&#x159;" horiz-adv-x="364" 
d="M277 369c-49 0 -81 -24 -81 -84v-286h-141v496h139v-55l3 -1c25 44 64 61 108 61c21 0 41 -3 58 -15l-25 -130c-23 11 -42 14 -61 14zM185 624l131 99l54 -48l-138 -157h-91l-141 157l53 48c23 -16 108 -83 132 -99z" />
    <glyph glyph-name="Sacute" unicode="&#x15a;" horiz-adv-x="529" 
d="M503 206c0 -133 -85 -211 -236 -211c-116 0 -188 49 -236 118l114 92c36 -51 73 -74 124 -74c61 0 81 30 81 69c0 53 -54 76 -122 94c-128 40 -179 98 -179 202c0 120 89 205 220 205c105 0 168 -33 215 -97l-104 -98c-33 39 -70 59 -111 59c-43 0 -73 -25 -73 -62
c0 -39 57 -64 126 -85c139 -43 181 -110 181 -212zM223 726l-52 68l173 129l84 -100z" />
    <glyph glyph-name="sacute" unicode="&#x15b;" horiz-adv-x="442" 
d="M418 153c0 -95 -74 -158 -197 -158c-91 0 -149 25 -196 89l97 82c25 -37 56 -50 95 -50c37 0 58 19 58 38c0 23 -13 32 -48 39c-88 16 -190 45 -190 153c0 96 86 154 186 154c89 0 143 -28 186 -75l-84 -88c-25 29 -53 42 -96 42c-39 0 -51 -17 -51 -30
c0 -23 36 -32 67 -37c92 -19 173 -49 173 -159zM232 534l-78 36l93 195l120 -48z" />
    <glyph glyph-name="Scircumflex" unicode="&#x15c;" horiz-adv-x="529" 
d="M503 206c0 -133 -85 -211 -236 -211c-116 0 -188 49 -236 118l114 92c36 -51 73 -74 124 -74c61 0 81 30 81 69c0 53 -54 76 -122 94c-128 40 -179 98 -179 202c0 120 89 205 220 205c105 0 168 -33 215 -97l-104 -98c-33 39 -70 59 -111 59c-43 0 -73 -25 -73 -62
c0 -39 57 -64 126 -85c139 -43 181 -110 181 -212zM404 724l-134 79l-135 -79l-50 53l142 132h88l140 -132z" />
    <glyph glyph-name="scircumflex" unicode="&#x15d;" horiz-adv-x="442" 
d="M418 153c0 -95 -74 -158 -197 -158c-91 0 -149 25 -196 89l97 82c25 -37 56 -50 95 -50c37 0 58 19 58 38c0 23 -13 32 -48 39c-88 16 -190 45 -190 153c0 96 86 154 186 154c89 0 143 -28 186 -75l-84 -88c-25 29 -53 42 -96 42c-39 0 -51 -17 -51 -30
c0 -23 36 -32 67 -37c92 -19 173 -49 173 -159zM357 518l-131 99c-24 -16 -109 -83 -132 -98l-53 47l141 157h91l138 -156z" />
    <glyph glyph-name="Scedilla" unicode="&#x15e;" horiz-adv-x="529" 
d="M503 206c0 -131 -82 -207 -227 -211l-10 -31c71 -8 93 -54 93 -89c0 -49 -33 -90 -109 -90c-36 1 -74 4 -107 23l23 61c31 -15 48 -17 67 -17c20 0 36 13 36 30c0 19 -13 27 -29 27c-5 0 -10 -1 -14 -3c-12 8 -24 14 -36 22l22 71c-85 13 -140 57 -181 114l114 92
c36 -51 73 -74 124 -74c61 0 81 30 81 69c0 53 -54 76 -122 94c-128 40 -179 98 -179 202c0 120 89 205 220 205c105 0 168 -33 215 -97l-104 -98c-33 39 -70 59 -111 59c-43 0 -73 -25 -73 -62c0 -39 57 -64 126 -85c139 -43 181 -110 181 -212z" />
    <glyph glyph-name="scedilla" unicode="&#x15f;" horiz-adv-x="442" 
d="M418 153c0 -84 -60 -144 -160 -155l-11 -34c71 -8 93 -54 93 -89c0 -49 -33 -90 -109 -90c-36 1 -74 4 -107 23l23 61c31 -15 48 -17 67 -17c20 0 36 13 36 30c0 19 -13 27 -29 27c-5 0 -10 -1 -14 -3c-12 8 -24 14 -36 22l21 68c-75 5 -124 31 -167 88l97 82
c25 -37 56 -50 95 -50c37 0 58 19 58 38c0 23 -13 32 -48 39c-88 16 -190 45 -190 153c0 96 86 154 186 154c89 0 143 -28 186 -75l-84 -88c-25 29 -53 42 -96 42c-39 0 -51 -17 -51 -30c0 -23 36 -32 67 -37c92 -19 173 -49 173 -159z" />
    <glyph glyph-name="Tcommaaccent" unicode="&#x162;" horiz-adv-x="458" 
d="M448 564h-149v-564h-144v564h-149v132h442v-132zM224 -295h-67l32 108h-29v131h136v-126z" />
    <glyph glyph-name="tcommaaccent" unicode="&#x163;" horiz-adv-x="305" 
d="M274 386h-65v-213c0 -33 8 -49 44 -49h21v-124h-66c-88 0 -135 57 -135 130v256h-49v110h50v133h134v-133h66v-110zM147 -295h-67l32 108h-29v131h136v-126z" />
    <glyph glyph-name="Tcaron" unicode="&#x164;" horiz-adv-x="458" 
d="M448 564h-149v-564h-144v564h-149v132h442v-132zM229 831l134 79l52 -53l-140 -130h-89l-141 130l50 53z" />
    <glyph glyph-name="tcaron" unicode="&#x165;" horiz-adv-x="368" 
d="M322 554h-67l32 108h-29v131h136v-126zM274 386h-65v-213c0 -33 8 -49 44 -49h21v-124h-66c-88 0 -135 57 -135 130v256h-49v110h50v133h134v-133h66v-110z" />
    <glyph glyph-name="Tbar" unicode="&#x166;" horiz-adv-x="458" 
d="M448 564h-149v-158h127v-89h-127v-317h-144v317h-118v89h118v158h-149v132h442v-132z" />
    <glyph glyph-name="tbar" unicode="&#x167;" horiz-adv-x="305" 
d="M274 386h-65v-71h65v-83h-65v-59c0 -33 8 -49 44 -49h21v-124h-66c-88 0 -135 57 -135 130v102h-49v83h49v71h-49v110h50v133h134v-133h66v-110z" />
    <glyph glyph-name="Utilde" unicode="&#x168;" horiz-adv-x="551" 
d="M353 696h146v-477c0 -139 -92 -225 -222 -225c-160 0 -224 110 -224 236v466h144v-470c0 -53 23 -92 80 -92c41 0 76 31 76 78v484zM218 875c48 0 89 -42 118 -42c21 0 35 10 62 43c23 -12 44 -25 67 -38c-35 -76 -71 -104 -114 -104c-50 0 -92 41 -126 41
c-20 0 -39 -9 -66 -44l-65 40c32 72 75 104 124 104z" />
    <glyph glyph-name="utilde" unicode="&#x169;" horiz-adv-x="482" 
d="M52 495h140v-313c0 -39 22 -56 49 -56c29 0 52 20 52 57v312h140v-495h-140v40l-4 1c-23 -27 -59 -46 -94 -46c-100 0 -143 59 -143 152v348zM179 700c48 0 89 -42 118 -42c21 0 35 10 62 43c23 -12 44 -25 67 -38c-35 -76 -71 -104 -114 -104c-50 0 -92 41 -126 41
c-20 0 -39 -9 -66 -44l-65 40c32 72 75 104 124 104z" />
    <glyph glyph-name="Umacron" unicode="&#x16a;" horiz-adv-x="551" 
d="M353 696h146v-477c0 -139 -92 -225 -222 -225c-160 0 -224 110 -224 236v466h144v-470c0 -53 23 -92 80 -92c41 0 76 31 76 78v484zM422 752h-292v114h292v-114z" />
    <glyph glyph-name="umacron" unicode="&#x16b;" horiz-adv-x="482" 
d="M52 495h140v-313c0 -39 22 -56 49 -56c29 0 52 20 52 57v312h140v-495h-140v40l-4 1c-23 -27 -59 -46 -94 -46c-100 0 -143 59 -143 152v348zM390 572h-292v114h292v-114z" />
    <glyph glyph-name="Ubreve" unicode="&#x16c;" horiz-adv-x="551" 
d="M353 696h146v-477c0 -139 -92 -225 -222 -225c-160 0 -224 110 -224 236v466h144v-470c0 -53 23 -92 80 -92c41 0 76 31 76 78v484zM278 728c-119 0 -160 102 -163 166h103c0 -28 24 -72 60 -72c39 0 58 44 58 72h104c-5 -64 -47 -166 -162 -166z" />
    <glyph glyph-name="ubreve" unicode="&#x16d;" horiz-adv-x="482" 
d="M52 495h140v-313c0 -39 22 -56 49 -56c29 0 52 20 52 57v312h140v-495h-140v40l-4 1c-23 -27 -59 -46 -94 -46c-100 0 -143 59 -143 152v348zM245 542c-119 0 -160 102 -163 169h103c0 -29 24 -72 60 -72c39 0 58 43 58 72h104c-5 -67 -47 -169 -162 -169z" />
    <glyph glyph-name="Uring" unicode="&#x16e;" horiz-adv-x="551" 
d="M353 696h146v-477c0 -139 -92 -225 -222 -225c-160 0 -224 110 -224 236v466h144v-470c0 -53 23 -92 80 -92c41 0 76 31 76 78v484zM310 818c0 19 -16 34 -35 34c-20 0 -36 -15 -36 -34s16 -34 36 -34c19 0 35 15 35 34zM162 819c0 60 50 109 113 109
c64 0 112 -49 112 -109s-49 -109 -113 -109c-61 0 -112 49 -112 109z" />
    <glyph glyph-name="uring" unicode="&#x16f;" horiz-adv-x="482" 
d="M52 495h140v-313c0 -39 22 -56 49 -56c29 0 52 20 52 57v312h140v-495h-140v40l-4 1c-23 -27 -59 -46 -94 -46c-100 0 -143 59 -143 152v348zM280 631c0 19 -16 34 -35 34c-20 0 -36 -15 -36 -34s16 -34 36 -34c19 0 35 15 35 34zM132 632c0 60 50 109 113 109
c64 0 112 -49 112 -109s-49 -109 -113 -109c-61 0 -112 49 -112 109z" />
    <glyph glyph-name="Uhungarumlaut" unicode="&#x170;" horiz-adv-x="551" 
d="M353 696h146v-477c0 -139 -92 -225 -222 -225c-160 0 -224 110 -224 236v466h144v-470c0 -53 23 -92 80 -92c41 0 76 31 76 78v484zM142 718l-59 63l159 146l90 -85zM344 720l-58 63l162 143l89 -86z" />
    <glyph glyph-name="uhungarumlaut" unicode="&#x171;" horiz-adv-x="482" 
d="M52 495h140v-313c0 -39 22 -56 49 -56c29 0 52 20 52 57v312h140v-495h-140v40l-4 1c-23 -27 -59 -46 -94 -46c-100 0 -143 59 -143 152v348zM156 548l-78 36l93 195l120 -48zM314 534l-78 36l93 195l120 -48z" />
    <glyph glyph-name="Uogonek" unicode="&#x172;" horiz-adv-x="551" 
d="M353 696h146v-477c0 -124 -75 -209 -184 -222c-27 -41 -34 -73 -34 -90c0 -23 15 -35 38 -35c12 0 31 4 58 15l25 -64c-32 -19 -70 -29 -103 -29c-60 0 -104 40 -104 99c0 28 10 63 37 104c-127 19 -179 119 -179 233v466h144v-470c0 -53 23 -92 80 -92c41 0 76 31 76 78
v484z" />
    <glyph glyph-name="uogonek" unicode="&#x173;" horiz-adv-x="482" 
d="M252 -107c0 29 12 65 41 109v38l-4 1c-23 -27 -59 -46 -94 -46c-100 0 -143 59 -143 152v348h140v-313c0 -39 22 -56 49 -56c29 0 52 20 52 57v312h140v-495h-59c-29 -44 -36 -76 -36 -93c0 -23 15 -35 38 -35c12 0 31 4 58 15l25 -64c-32 -19 -70 -29 -103 -29
c-60 0 -104 40 -104 99z" />
    <glyph glyph-name="Wcircumflex" unicode="&#x174;" horiz-adv-x="748" 
d="M377 365h-4l-37 -151c-16 -72 -38 -144 -55 -215h-130l-147 696h158c15 -85 30 -168 43 -252c8 -47 14 -92 22 -139h4c15 64 27 129 42 193l45 198h113l46 -199c15 -65 28 -131 43 -196h5l20 138l41 257h158l-147 -696h-130c-17 72 -37 145 -54 217zM506 724l-134 79
l-135 -79l-50 53l142 132h88l140 -132z" />
    <glyph glyph-name="wcircumflex" unicode="&#x175;" horiz-adv-x="668" 
d="M660 495l-131 -495h-136l-27 111l-30 135h-4l-30 -134l-28 -112h-135l-132 495h149l26 -147l26 -141h5l30 141l30 147h122l31 -148l32 -140h5l26 142l25 146h146zM460 518l-131 99c-24 -16 -109 -83 -132 -98l-53 47l141 157h91l138 -156z" />
    <glyph glyph-name="Ycircumflex" unicode="&#x176;" horiz-adv-x="510" 
d="M507 696l-180 -417v-279h-142v279l-180 419h161l46 -142l41 -133h6l43 134l51 139h154zM395 724l-134 79l-135 -79l-50 53l142 132h88l140 -132z" />
    <glyph glyph-name="ycircumflex" unicode="&#x177;" horiz-adv-x="442" 
d="M439 495l-185 -582c-25 -80 -78 -113 -153 -113h-49v120h29c27 0 46 17 56 51l16 55l-152 469h150l34 -160l31 -137h5l32 136l40 161h146zM350 518l-131 99c-24 -16 -109 -83 -132 -98l-53 47l141 157h91l138 -156z" />
    <glyph glyph-name="Zacute" unicode="&#x179;" horiz-adv-x="455" 
d="M430 0h-405v126l236 438h-225v132h394v-122l-235 -437h235v-137zM183 726l-52 68l173 129l84 -100z" />
    <glyph glyph-name="zacute" unicode="&#x17a;" horiz-adv-x="407" 
d="M378 0h-350v120l184 253h-171v122h337v-113l-185 -254h185v-128zM229 534l-78 36l93 195l120 -48z" />
    <glyph glyph-name="Zdotaccent" unicode="&#x17b;" horiz-adv-x="455" 
d="M430 0h-405v126l236 438h-225v132h394v-122l-235 -437h235v-137zM299 738h-133v130h133v-130z" />
    <glyph glyph-name="zdotaccent" unicode="&#x17c;" horiz-adv-x="407" 
d="M378 0h-350v120l184 253h-171v122h337v-113l-185 -254h185v-128zM283 558h-133v130h133v-130z" />
    <glyph glyph-name="AEacute" unicode="&#x1fc;" horiz-adv-x="867" 
d="M335 696h493v-134h-261v-144h224v-133h-224v-148h261v-137h-406v150h-172l-61 -150h-163zM422 561h-4l-115 -279h119v279zM493 726l-52 68l173 129l84 -100z" />
    <glyph glyph-name="aeacute" unicode="&#x1fd;" horiz-adv-x="710" 
d="M550 167l118 -64c-35 -75 -105 -108 -185 -108c-69 0 -117 20 -149 57c-65 -62 -138 -57 -157 -57c-97 0 -145 53 -145 153c0 83 55 152 169 152h80v19c0 20 -20 56 -62 56c-35 0 -61 -12 -76 -39l-101 64c37 73 102 100 185 100c53 0 105 -6 134 -41c27 31 66 42 117 42
c160 0 198 -113 198 -248v-50h-252c0 -49 9 -80 54 -80c28 0 49 11 72 44zM281 172v30h-61c-37 0 -52 -17 -52 -44c0 -19 13 -41 53 -41c32 0 60 19 60 55zM424 302h107c0 36 -9 71 -55 71c-40 0 -49 -38 -52 -71zM386 534l-78 36l93 195l120 -48z" />
    <glyph glyph-name="Oslashacute" unicode="&#x1fe;" horiz-adv-x="535" 
d="M81 -5l-40 26l39 65c-25 41 -36 91 -36 144v248c0 103 61 223 224 223c64 0 113 -20 149 -51l31 52l43 -28l-39 -65c25 -39 38 -84 38 -131v-259c0 -139 -92 -225 -222 -225c-69 0 -120 20 -156 53zM344 209v221l-150 -247c11 -31 34 -49 74 -49c41 0 76 28 76 75z
M238 726l-52 68l173 129l84 -100zM188 484v-217l149 249c-11 23 -30 45 -69 45c-58 0 -80 -45 -80 -77z" />
    <glyph glyph-name="oslashacute" unicode="&#x1ff;" horiz-adv-x="459" 
d="M234 502c48 0 85 -11 113 -30l36 55l30 -21l-38 -59c11 -12 20 -25 26 -40c19 -43 22 -97 22 -161c0 -71 -6 -121 -25 -160c-35 -71 -98 -93 -174 -93c-49 0 -89 11 -119 34l-30 -46l-29 20l33 52v1c-32 43 -43 104 -43 192c1 56 5 118 20 153c28 64 85 103 178 103z
M238 534l-78 36l93 195l120 -48zM285 256c0 17 -1 33 -3 47l-96 -150c8 -21 23 -31 44 -31c19 0 42 6 50 52c3 19 5 46 5 82zM232 373c-22 0 -38 -12 -47 -35c-8 -23 -10 -51 -10 -94c0 -15 0 -27 1 -40l93 145c-9 16 -21 24 -37 24z" />
    <glyph glyph-name="Scommaaccent" unicode="&#x218;" horiz-adv-x="529" 
d="M503 206c0 -133 -85 -211 -236 -211c-116 0 -188 49 -236 118l114 92c36 -51 73 -74 124 -74c61 0 81 30 81 69c0 53 -54 76 -122 94c-128 40 -179 98 -179 202c0 120 89 205 220 205c105 0 168 -33 215 -97l-104 -98c-33 39 -70 59 -111 59c-43 0 -73 -25 -73 -62
c0 -39 57 -64 126 -85c139 -43 181 -110 181 -212zM259 -295h-67l32 108h-29v131h136v-126z" />
    <glyph glyph-name="scommaaccent" unicode="&#x219;" horiz-adv-x="442" 
d="M418 153c0 -95 -74 -158 -197 -158c-91 0 -149 25 -196 89l97 82c25 -37 56 -50 95 -50c37 0 58 19 58 38c0 23 -13 32 -48 39c-88 16 -190 45 -190 153c0 96 86 154 186 154c89 0 143 -28 186 -75l-84 -88c-25 29 -53 42 -96 42c-39 0 -51 -17 -51 -30
c0 -23 36 -32 67 -37c92 -19 173 -49 173 -159zM212 -295h-67l32 108h-29v131h136v-126z" />
    <glyph glyph-name="schwa" unicode="&#xe1ce;" horiz-adv-x="464" 
d="M148 327l-96 73c41 67 102 101 181 101c147 0 197 -93 197 -252c0 -157 -48 -254 -199 -254c-160 0 -195 113 -195 248v39h252v8c0 45 -14 83 -59 83c-28 0 -58 -13 -81 -46zM288 194h-105c0 -36 8 -71 53 -71c37 0 49 38 52 71z" />
    <glyph glyph-name="afii10023" unicode="&#x401;" horiz-adv-x="490" 
d="M466 0h-405v696h405v-134h-260v-144h224v-133h-224v-148h260v-137zM427 737h-135v131h135v-131zM233 737h-136v131h136v-131z" />
    <glyph glyph-name="afii10051" unicode="&#x402;" horiz-adv-x="638" 
d="M290 420l2 -1c27 29 81 51 126 51c136 0 174 -98 174 -234c0 -164 -45 -262 -237 -251v114c84 0 91 75 91 132c0 59 -10 110 -74 110c-37 0 -71 -24 -83 -48v-293h-144v565h-140v130h465v-130h-180v-145z" />
    <glyph glyph-name="afii10052" unicode="&#x403;" horiz-adv-x="480" 
d="M466 562h-260v-562h-145v696h405v-134zM215 726l-52 68l173 129l84 -100z" />
    <glyph glyph-name="afii10053" unicode="&#x404;" horiz-adv-x="514" 
d="M270 701c128 0 205 -74 218 -178l-139 -37c-7 44 -35 78 -80 78c-56 0 -79 -44 -79 -83v-64h153v-132h-153v-55c0 -44 9 -99 76 -99c45 0 73 30 80 79c47 -12 94 -24 141 -37c-19 -109 -95 -179 -218 -179c-140 0 -211 70 -222 191c-3 27 -2 55 -2 83v156
c0 27 -1 53 2 80c11 114 88 197 223 197z" />
    <glyph glyph-name="afii10054" unicode="&#x405;" horiz-adv-x="529" 
d="M503 206c0 -133 -85 -211 -236 -211c-116 0 -188 49 -236 118l114 92c36 -51 73 -74 124 -74c61 0 81 30 81 69c0 53 -54 76 -122 94c-128 40 -179 98 -179 202c0 120 89 205 220 205c105 0 168 -33 215 -97l-104 -98c-33 39 -70 59 -111 59c-43 0 -73 -25 -73 -62
c0 -39 57 -64 126 -85c139 -43 181 -110 181 -212z" />
    <glyph glyph-name="afii10055" unicode="&#x406;" horiz-adv-x="268" 
d="M208 0h-145v696h145v-696z" />
    <glyph glyph-name="afii10056" unicode="&#x407;" horiz-adv-x="268" 
d="M208 0h-145v696h145v-696zM294 737h-134v130h134v-130zM97 737h-133v130h133v-130z" />
    <glyph glyph-name="afii10057" unicode="&#x408;" horiz-adv-x="436" 
d="M379 696v-499c0 -143 -91 -202 -204 -202c-72 0 -135 24 -183 88l95 97c24 -37 62 -50 84 -50c41 0 64 31 64 72v494h144z" />
    <glyph glyph-name="afii10058" unicode="&#x409;" horiz-adv-x="816" 
d="M113 342v354h379v-261h88c148 0 216 -89 216 -213c0 -147 -88 -222 -219 -222h-230v561h-103v-214c0 -203 -26 -334 -206 -361l-33 112c103 37 108 105 108 244zM652 219c0 60 -30 81 -81 81h-80v-166h81c53 0 80 34 80 85z" />
    <glyph glyph-name="afii10059" unicode="&#x40a;" horiz-adv-x="797" 
d="M560 0h-230v297h-129v-297h-145v696h145v-264h129v264h145v-264h88c148 0 216 -87 216 -211c0 -148 -88 -221 -219 -221zM474 134h81c53 0 80 32 80 83c0 60 -30 80 -81 80h-80v-163z" />
    <glyph glyph-name="afii10060" unicode="&#x40b;" horiz-adv-x="639" 
d="M593 0h-145v269c0 41 -12 73 -67 73c-27 0 -61 -17 -82 -45v-297h-145v564h-140v132h473v-132h-188v-144l3 -1c31 29 85 52 134 52c109 0 157 -70 157 -162v-309z" />
    <glyph glyph-name="afii10145" unicode="&#x40f;" horiz-adv-x="559" 
d="M356 696h143v-696h-158v-150h-122v150h-158v696h145v-559h150v559z" />
    <glyph glyph-name="afii10017" unicode="&#x410;" horiz-adv-x="555" 
d="M393 0l-34 142h-165c-12 -47 -25 -95 -38 -142h-153l201 696h144l201 -696h-156zM274 509l-28 -138l-20 -100h100l-19 99l-28 139h-5z" />
    <glyph glyph-name="afii10018" unicode="&#x411;" horiz-adv-x="519" 
d="M283 0h-231v696h390v-134h-245v-127h88c148 0 216 -89 216 -213c0 -148 -86 -222 -218 -222zM197 134h81c53 0 79 33 79 85c0 60 -29 81 -80 81h-80v-166z" />
    <glyph glyph-name="afii10019" unicode="&#x412;" horiz-adv-x="542" 
d="M502 212c0 -136 -83 -212 -206 -212h-235v696h225c136 0 208 -73 208 -196c0 -52 -23 -110 -82 -134v-5c64 -21 90 -90 90 -149zM352 495c0 47 -20 69 -75 69h-71v-141h72c53 0 74 29 74 72zM361 220c0 47 -22 77 -74 77h-81v-160h80c57 0 75 36 75 83z" />
    <glyph glyph-name="afii10020" unicode="&#x413;" horiz-adv-x="480" 
d="M466 562h-260v-562h-145v696h405v-134z" />
    <glyph glyph-name="afii10021" unicode="&#x414;" horiz-adv-x="638" 
d="M490 0h-355v-146h-120v269l59 12c57 60 55 139 63 280l13 281h398v-564h62v-278h-120v146zM274 561l-8 -178c-5 -89 -7 -196 -40 -251h180v429h-132z" />
    <glyph glyph-name="afii10022" unicode="&#x415;" horiz-adv-x="490" 
d="M466 0h-405v696h405v-134h-260v-144h224v-133h-224v-148h260v-137z" />
    <glyph glyph-name="afii10025" unicode="&#x417;" horiz-adv-x="512" 
d="M32 165l138 43c11 -45 43 -75 87 -75c52 0 75 45 75 82c0 44 -13 85 -81 85h-50v121h51c43 0 77 20 77 77c0 28 -17 65 -66 65c-47 0 -77 -29 -88 -72l-131 50c27 99 102 162 223 162c131 0 209 -70 209 -191c0 -42 -11 -116 -79 -148v-3c63 -21 84 -92 84 -153
c0 -151 -102 -213 -224 -213c-123 0 -202 66 -225 170z" />
    <glyph glyph-name="afii10026" unicode="&#x418;" horiz-adv-x="590" 
d="M534 0h-145v379h-1l-194 -379h-136v696h144v-404h2l199 404h131v-696z" />
    <glyph glyph-name="afii10029" unicode="&#x41b;" horiz-adv-x="580" 
d="M121 696h392v-696h-143v561h-118v-215c0 -202 -27 -334 -206 -361l-34 114c103 34 109 105 109 243v354z" />
    <glyph glyph-name="afii10030" unicode="&#x41c;" horiz-adv-x="682" 
d="M629 0h-144v328l-4 1l-48 -125l-37 -90h-104l-39 96l-47 120l-4 -1v-329h-144v696h133l81 -194l69 -174h5l67 175l80 193h136v-696z" />
    <glyph glyph-name="afii10031" unicode="&#x41d;" horiz-adv-x="567" 
d="M506 0h-143v286h-158v-286h-145v696h145v-278h158v278h143v-696z" />
    <glyph glyph-name="afii10032" unicode="&#x41e;" horiz-adv-x="535" 
d="M490 478v-259c0 -139 -92 -225 -222 -225c-160 0 -224 110 -224 236v248c0 103 61 223 224 223c152 0 222 -114 222 -223zM344 209v275c0 26 -17 77 -76 77c-58 0 -80 -45 -80 -77v-258c0 -53 23 -92 80 -92c41 0 76 28 76 75z" />
    <glyph glyph-name="afii10033" unicode="&#x41f;" horiz-adv-x="560" 
d="M499 0h-143v560h-150v-560h-145v696h438v-696z" />
    <glyph glyph-name="afii10034" unicode="&#x420;" horiz-adv-x="519" 
d="M506 476c0 -133 -83 -222 -216 -222h-84v-254h-145v696h221c132 0 224 -68 224 -220zM364 478c0 60 -31 84 -82 84h-76v-173h77c43 0 81 24 81 89z" />
    <glyph glyph-name="afii10035" unicode="&#x421;" horiz-adv-x="514" 
d="M348 207l138 -40c-20 -108 -105 -173 -218 -173c-160 0 -223 110 -223 236v248c0 103 60 223 223 223c129 0 200 -83 219 -174l-137 -41c-6 28 -24 75 -82 75c-59 0 -78 -45 -78 -77v-258c0 -53 21 -92 78 -92c40 0 75 28 80 73z" />
    <glyph glyph-name="afii10036" unicode="&#x422;" horiz-adv-x="458" 
d="M448 564h-149v-564h-144v564h-149v132h442v-132z" />
    <glyph glyph-name="afii10037" unicode="&#x423;" horiz-adv-x="505" 
d="M261 352h5l41 151c16 65 33 128 50 193h140l-149 -487c-8 -27 -16 -50 -25 -73c-42 -119 -99 -138 -180 -141h-56v117h35c28 0 44 8 63 41c3 7 7 14 10 22l-186 520h150l57 -193z" />
    <glyph glyph-name="afii10038" unicode="&#x424;" horiz-adv-x="698" 
d="M279 187v342c-76 -8 -94 -78 -94 -167c0 -82 1 -167 94 -175zM418 61v-61h-139v61c-201 16 -235 147 -235 297c0 146 41 278 235 299v39h139v-39c184 -11 235 -149 235 -293c0 -153 -35 -287 -235 -303zM418 529v-342c92 8 96 90 96 178c0 89 -19 156 -96 164z" />
    <glyph glyph-name="afii10039" unicode="&#x425;" horiz-adv-x="540" 
d="M269 212l-102 -212h-166l190 359l-178 337h167l87 -191l90 191h167l-180 -337l192 -359h-167z" />
    <glyph glyph-name="afii10040" unicode="&#x426;" horiz-adv-x="591" 
d="M459 -147v147h-399v696h145v-563h157v563h144v-564h73v-279h-120z" />
    <glyph glyph-name="afii10041" unicode="&#x427;" horiz-adv-x="546" 
d="M47 696h143v-201c0 -85 20 -113 76 -113c23 0 56 7 76 18v296h144v-696h-144v276c-33 -15 -75 -20 -112 -20c-104 0 -183 50 -183 185v255z" />
    <glyph glyph-name="afii10042" unicode="&#x428;" horiz-adv-x="804" 
d="M600 696h144v-696h-683v696h145v-564h124v564h145v-564h125v564z" />
    <glyph glyph-name="afii10043" unicode="&#x429;" horiz-adv-x="834" 
d="M697 -147v147h-637v696h145v-563h125v563h145v-563h125v563h144v-564h73v-279h-120z" />
    <glyph glyph-name="afii10044" unicode="&#x42a;" horiz-adv-x="657" 
d="M423 0h-231v562h-180v134h325v-261h89c148 0 215 -89 215 -213c0 -147 -86 -222 -218 -222zM497 219c0 60 -29 81 -80 81h-80v-166h81c53 0 79 34 79 85z" />
    <glyph glyph-name="afii10045" unicode="&#x42b;" horiz-adv-x="770" 
d="M291 0h-231v696h145v-261h89c148 0 215 -89 215 -213c0 -148 -86 -222 -218 -222zM205 134h81c53 0 79 33 79 85c0 60 -29 81 -80 81h-80v-166zM709 0h-145v696h145v-696z" />
    <glyph glyph-name="afii10046" unicode="&#x42c;" horiz-adv-x="525" 
d="M510 222c0 -147 -88 -222 -219 -222h-230v696h145v-261h88c148 0 216 -89 216 -213zM366 219c0 60 -30 81 -81 81h-80v-166h81c53 0 80 34 80 85z" />
    <glyph glyph-name="afii10047" unicode="&#x42d;" horiz-adv-x="519" 
d="M173 289v130h154v65c0 32 -4 80 -74 80c-55 0 -83 -51 -86 -78l-135 41c19 91 92 174 221 174c172 0 219 -120 219 -223v-248c0 -126 -63 -236 -223 -236c-113 0 -198 65 -218 173l138 40c5 -45 40 -76 80 -76c57 0 78 42 78 95v63h-154z" />
    <glyph glyph-name="afii10048" unicode="&#x42e;" horiz-adv-x="733" 
d="M474 701c147 0 214 -85 214 -224v-259c0 -143 -78 -224 -215 -224c-147 0 -213 92 -213 224v68h-58v-286h-145v696h145v-278h58v59c0 132 73 224 214 224zM473 563c-49 0 -72 -34 -72 -78v-274c0 -47 22 -80 71 -80c48 0 73 31 73 80v274c0 47 -24 78 -72 78z" />
    <glyph glyph-name="afii10065" unicode="&#x430;" horiz-adv-x="462" 
d="M421 0h-140v40l-4 1c-25 -33 -69 -46 -100 -46c-97 0 -145 53 -145 153c0 83 55 152 169 152h80v29c0 21 -13 48 -58 48c-35 0 -61 -9 -80 -41l-101 64c37 73 102 100 185 100c113 0 194 -38 194 -160v-340zM281 172v30h-61c-37 0 -52 -17 -52 -44c0 -19 13 -41 53 -41
c32 0 60 19 60 55z" />
    <glyph glyph-name="afii10066" unicode="&#x431;" horiz-adv-x="456" 
d="M256 472c57 0 94 -20 121 -51c35 -43 46 -105 46 -174c0 -105 -20 -168 -60 -207c-35 -33 -81 -47 -144 -47c-71 0 -114 19 -141 52c-39 47 -45 133 -45 229c0 64 2 115 7 160c13 119 50 180 132 222c57 27 89 32 185 72l44 -104c-60 -27 -104 -42 -137 -57
c-61 -27 -84 -51 -92 -121l3 -2c25 23 61 28 81 28zM229 344c-17 0 -32 -6 -44 -29c-7 -12 -11 -32 -11 -84c0 -31 2 -58 10 -77s21 -31 45 -31c22 0 36 9 43 26c11 20 11 51 11 80c0 41 -3 70 -10 87c-7 19 -22 28 -44 28z" />
    <glyph glyph-name="afii10067" unicode="&#x432;" horiz-adv-x="457" 
d="M280 343c0 31 -26 39 -47 39h-50v-78h50c24 0 47 12 47 39zM288 165c0 28 -20 42 -47 42h-58v-89h58c24 0 47 16 47 47zM47 495h204c115 0 169 -51 169 -139c0 -40 -15 -83 -60 -99c47 -19 67 -63 67 -102c0 -95 -67 -155 -166 -155h-214v495z" />
    <glyph glyph-name="afii10068" unicode="&#x433;" horiz-adv-x="405" 
d="M398 373h-215v-373h-136v495h351v-122z" />
    <glyph glyph-name="afii10069" unicode="&#x434;" horiz-adv-x="546" 
d="M470 495v-371h56v-257h-116v133h-277v-133h-116v250l54 9c32 35 44 62 49 138l13 231h337zM332 373h-83c-4 -121 -11 -207 -36 -250h119v250z" />
    <glyph glyph-name="afii10070" unicode="&#x435;" horiz-adv-x="464" 
d="M304 167l117 -63c-35 -75 -108 -109 -188 -109c-147 0 -197 93 -197 252c0 155 48 254 199 254c160 0 195 -113 195 -248v-39h-252v-8c0 -45 9 -83 54 -83c28 0 49 11 72 44zM178 302h105c0 36 -8 71 -53 71c-39 0 -49 -38 -52 -71z" />
    <glyph glyph-name="afii10073" unicode="&#x437;" horiz-adv-x="423" 
d="M210 501c113 0 177 -49 177 -145c0 -31 -14 -77 -63 -100l-1 -3c51 -19 67 -57 67 -104c0 -99 -74 -154 -186 -154c-100 0 -154 37 -186 105l106 56c11 -25 46 -42 77 -42c32 0 49 20 49 43c0 36 -22 48 -54 48h-51v96h57c31 0 45 17 45 44c0 23 -18 36 -49 36
c-23 0 -55 -19 -71 -38l-94 59c31 63 94 99 177 99z" />
    <glyph glyph-name="afii10074" unicode="&#x438;" horiz-adv-x="502" 
d="M181 233h2l151 262h123v-495h-135v239h-3l-147 -239h-126v495h135v-262z" />
    <glyph glyph-name="afii10075" unicode="&#x439;" horiz-adv-x="502" 
d="M90 707h103c0 -29 24 -72 60 -72c39 0 58 43 58 72h104c-5 -67 -47 -166 -162 -166c-119 0 -160 99 -163 166zM181 233h2l151 262h123v-495h-135v239h-3l-147 -239h-126v495h135v-262z" />
    <glyph glyph-name="afii10077" unicode="&#x43b;" horiz-adv-x="490" 
d="M302 372h-77v-105c0 -184 -47 -267 -188 -278l-26 103c82 24 89 59 89 182v221h340v-495h-138v372z" />
    <glyph glyph-name="afii10078" unicode="&#x43c;" horiz-adv-x="576" 
d="M289 248h2l49 105l69 142h126v-495h-137v209h-2l-27 -60l-31 -70h-94l-33 70l-27 60h-2v-209h-136v495h123l69 -143z" />
    <glyph glyph-name="afii10079" unicode="&#x43d;" horiz-adv-x="477" 
d="M431 0h-136v197h-112v-197h-136v495h136v-192h112v192h136v-495z" />
    <glyph glyph-name="afii10080" unicode="&#x43e;" horiz-adv-x="459" 
d="M234 502c92 0 144 -40 167 -95c19 -43 22 -97 22 -161c0 -71 -6 -121 -25 -160c-35 -71 -98 -93 -174 -93c-68 0 -114 22 -145 61c-32 43 -43 104 -43 192c1 56 5 118 20 153c28 64 85 103 178 103zM232 373c-22 0 -38 -12 -47 -35c-8 -23 -10 -51 -10 -94
c0 -33 1 -65 10 -88c8 -23 23 -34 45 -34c19 0 42 6 50 52c3 19 5 46 5 82c0 35 -3 62 -10 81c-9 24 -23 36 -43 36z" />
    <glyph glyph-name="afii10081" unicode="&#x43f;" horiz-adv-x="482" 
d="M431 0h-141v387h-101v-387h-139v496h381v-496z" />
    <glyph glyph-name="afii10082" unicode="&#x440;" horiz-adv-x="467" 
d="M240 125c48 0 53 68 53 121c0 73 -6 123 -51 123c-44 0 -54 -43 -54 -120c0 -53 4 -124 52 -124zM188 460l3 -2c23 29 59 42 88 42c146 0 156 -149 156 -256c0 -119 -18 -250 -157 -250c-26 0 -68 16 -86 42l-4 -1v-236h-140v696h140v-35z" />
    <glyph glyph-name="afii10083" unicode="&#x441;" horiz-adv-x="422" 
d="M222 501c84 0 150 -39 177 -115l-118 -57c-15 32 -29 44 -52 44c-51 0 -59 -51 -59 -128c0 -84 11 -122 59 -122c24 0 38 14 53 43l118 -58c-27 -73 -92 -113 -176 -113c-149 0 -195 105 -195 250s46 256 193 256z" />
    <glyph glyph-name="afii10084" unicode="&#x442;" horiz-adv-x="395" 
d="M386 382h-123v-382h-136v382h-122v113h381v-113z" />
    <glyph glyph-name="afii10085" unicode="&#x443;" horiz-adv-x="442" 
d="M439 495l-185 -582c-25 -80 -78 -113 -153 -113h-49v120h29c27 0 46 17 56 51l16 55l-152 469h150l34 -160l31 -137h5l32 136l40 161h146z" />
    <glyph glyph-name="afii10086" unicode="&#x444;" horiz-adv-x="633" 
d="M383 -192h-135v186c-141 8 -208 76 -208 238c0 59 6 114 22 153c27 64 99 110 186 114v212h134v-212c164 -5 211 -119 211 -252c0 -186 -94 -244 -210 -252v-187zM382 371v-251c56 4 69 49 69 121c0 103 -21 125 -69 130zM248 120v251c-46 -8 -68 -39 -68 -131
c0 -84 17 -117 68 -120z" />
    <glyph glyph-name="afii10087" unicode="&#x445;" horiz-adv-x="469" 
d="M233 142l-69 -142h-161l153 252l-147 243h162l62 -134h1l62 134h160l-149 -243l156 -252h-162z" />
    <glyph glyph-name="afii10088" unicode="&#x446;" horiz-adv-x="516" 
d="M299 495h139v-370h64v-257h-116v132h-335v495h138v-370h110v370z" />
    <glyph glyph-name="afii10089" unicode="&#x447;" horiz-adv-x="455" 
d="M274 0v192c-32 -11 -69 -18 -105 -18c-77 0 -136 39 -136 130v191h140v-130c0 -45 5 -72 48 -72c16 0 36 5 53 12v190h138v-495h-138z" />
    <glyph glyph-name="afii10090" unicode="&#x448;" horiz-adv-x="706" 
d="M520 495h136v-495h-605v495h137v-369h97v369h138v-369h97v369z" />
    <glyph glyph-name="afii10091" unicode="&#x449;" horiz-adv-x="735" 
d="M520 495h137v-370h64v-257h-117v132h-553v495h137v-370h97v370h138v-370h97v370z" />
    <glyph glyph-name="afii10092" unicode="&#x44a;" horiz-adv-x="552" 
d="M296 114h57c36 0 54 20 54 51c0 27 -13 52 -52 52h-59v-103zM160 377h-149v118h286v-165h61c133 0 181 -71 181 -160c0 -107 -80 -170 -177 -170h-202v377z" />
    <glyph glyph-name="afii10093" unicode="&#x44b;" horiz-adv-x="653" 
d="M605 0h-136v495h136v-495zM184 114h57c36 0 54 20 54 51c0 27 -13 52 -52 52h-59v-103zM48 0v495h137v-165h61c133 0 181 -71 181 -160c0 -107 -80 -170 -177 -170h-202z" />
    <glyph glyph-name="afii10094" unicode="&#x44c;" horiz-adv-x="443" 
d="M180 114h57c36 0 54 20 54 51c0 27 -13 52 -52 52h-59v-103zM44 0v495h137v-165h61c133 0 181 -71 181 -160c0 -107 -80 -170 -177 -170h-202z" />
    <glyph glyph-name="afii10095" unicode="&#x44d;" horiz-adv-x="427" 
d="M143 199v101h106c-4 45 -16 74 -59 74c-20 0 -42 -13 -55 -45c-36 17 -71 34 -107 53c31 76 94 118 174 118c143 0 192 -86 192 -254c0 -153 -55 -251 -204 -251c-84 0 -144 42 -168 117l113 52c11 -31 33 -41 54 -41c41 0 57 33 60 76h-106z" />
    <glyph glyph-name="afii10096" unicode="&#x44e;" horiz-adv-x="649" 
d="M423 501c89 0 141 -40 164 -95c17 -43 23 -96 23 -160c0 -71 -7 -121 -26 -160c-35 -71 -95 -93 -171 -93c-68 0 -113 22 -142 61c-27 33 -39 79 -44 143h-46v-197h-136v495h136v-192h48c3 37 8 72 19 95c27 64 90 103 175 103zM421 370c-21 0 -37 -12 -46 -35
c-8 -23 -10 -50 -10 -91c0 -33 1 -63 10 -86c8 -23 23 -34 44 -34c19 0 41 6 49 52c3 19 4 44 4 79s-2 59 -9 79c-9 24 -23 36 -42 36z" />
    <glyph glyph-name="afii10071" unicode="&#x451;" horiz-adv-x="464" 
d="M304 167l117 -63c-35 -75 -108 -109 -188 -109c-147 0 -197 93 -197 252c0 155 48 254 199 254c160 0 195 -113 195 -248v-39h-252v-8c0 -45 9 -83 54 -83c28 0 49 11 72 44zM178 302h105c0 36 -8 71 -53 71c-39 0 -49 -38 -52 -71zM399 565h-134v130h134v-130zM202 565
h-133v130h133v-130z" />
    <glyph glyph-name="afii10099" unicode="&#x452;" horiz-adv-x="513" 
d="M312 494c122 0 161 -79 161 -250c0 -175 -55 -253 -192 -257h-29v114c67 3 78 45 78 152c0 55 -8 113 -61 113c-47 0 -66 -43 -66 -114c0 -84 -1 -168 -1 -252h-140v562h-61v81h61v83h140v-83h155v-81h-154v-116h2c27 31 72 48 107 48z" />
    <glyph glyph-name="afii10100" unicode="&#x453;" horiz-adv-x="405" 
d="M390 373h-216v-373h-135v495h351v-122zM225 534l-77 36l92 195l121 -48z" />
    <glyph glyph-name="afii10101" unicode="&#x454;" horiz-adv-x="424" 
d="M294 164l114 -59c-31 -68 -92 -110 -172 -110c-157 0 -206 99 -206 251c0 170 68 255 205 255c83 0 142 -38 170 -110l-109 -56c-16 28 -39 39 -58 39c-35 0 -55 -15 -62 -74h108v-101h-109c7 -56 25 -76 62 -76c20 0 41 10 57 41z" />
    <glyph glyph-name="afii10102" unicode="&#x455;" horiz-adv-x="442" 
d="M418 153c0 -95 -74 -158 -197 -158c-91 0 -149 25 -196 89l97 82c25 -37 56 -50 95 -50c37 0 58 19 58 38c0 23 -13 32 -48 39c-88 16 -190 45 -190 153c0 96 86 154 186 154c89 0 143 -28 186 -75l-84 -88c-25 29 -53 42 -96 42c-39 0 -51 -17 -51 -30
c0 -23 36 -32 67 -37c92 -19 173 -49 173 -159z" />
    <glyph glyph-name="afii10103" unicode="&#x456;" horiz-adv-x="253" 
d="M197 569h-140v127h140v-127zM197 0h-140v495h140v-495z" />
    <glyph glyph-name="afii10104" unicode="&#x457;" horiz-adv-x="253" 
d="M293 558h-134v130h134v-130zM96 558h-133v130h133v-130zM197 0h-140v495h140v-495z" />
    <glyph glyph-name="afii10105" unicode="&#x458;" horiz-adv-x="256" 
d="M199 569h-140v127h140v-127zM199 496v-540c0 -101 -68 -154 -175 -154h-35v126h25c37 0 45 32 45 65v503h140z" />
    <glyph glyph-name="afii10106" unicode="&#x459;" horiz-adv-x="687" 
d="M99 495h329v-165h61c134 0 182 -71 182 -160c0 -124 -80 -170 -201 -170h-180v372h-66v-105c0 -23 -1 -45 -2 -66c-7 -137 -67 -204 -186 -212l-26 103c58 18 81 41 86 100c2 21 3 45 3 74v229zM428 122h52c31 0 52 16 52 43s-16 45 -53 45h-51v-88z" />
    <glyph glyph-name="afii10107" unicode="&#x45a;" horiz-adv-x="665" 
d="M647 170c0 -104 -66 -170 -183 -170h-196v215h-89v-215h-136v495h136v-167h89v167h136v-167h61c135 0 182 -70 182 -158zM515 164c0 34 -18 51 -55 51h-56v-100h57c36 0 54 18 54 49z" />
    <glyph glyph-name="afii10108" unicode="&#x45b;" horiz-adv-x="497" 
d="M447 0h-140v307c0 39 -19 56 -47 56c-29 0 -54 -23 -54 -62v-301h-140v562h-62v81h62v83h140v-83h149v-81h-149v-110l5 -1c23 23 67 44 102 44c92 0 134 -62 134 -155v-340z" />
    <glyph glyph-name="afii10110" unicode="&#x45e;" horiz-adv-x="442" 
d="M439 495l-185 -582c-25 -80 -78 -113 -153 -113h-49v120h29c27 0 46 17 56 51l16 55l-152 469h150l34 -160l31 -137h5l32 136l40 161h146zM224 542c-119 0 -160 102 -163 169h103c0 -29 24 -72 60 -72c39 0 58 43 58 72h104c-5 -67 -47 -169 -162 -169z" />
    <glyph glyph-name="afii10193" unicode="&#x45f;" horiz-adv-x="480" 
d="M297 495h136v-495h-135v-140h-116v140h-132v495h136v-370h111v370z" />
    <glyph glyph-name="afii10050" unicode="&#x490;" horiz-adv-x="480" 
d="M466 562h-260v-562h-145v696h290v119h115v-253z" />
    <glyph glyph-name="afii10098" unicode="&#x491;" horiz-adv-x="405" 
d="M398 373h-212v-373h-139v495h242v110h109v-232z" />
    <glyph glyph-name="schwacyrillic" unicode="&#xe1cf;" horiz-adv-x="464" 
d="M162 329l-117 63c35 75 111 109 191 109c148 0 194 -93 194 -252c0 -157 -48 -254 -199 -254c-160 0 -195 113 -195 248v39h252v8c0 45 -9 83 -54 83c-28 0 -49 -11 -72 -44zM288 194h-105c0 -36 8 -71 53 -71c37 0 49 38 52 71z" />
    <glyph glyph-name="Wgrave" unicode="&#x1e80;" horiz-adv-x="748" 
d="M377 365h-4l-37 -151c-16 -72 -38 -144 -55 -215h-130l-147 696h158c15 -85 30 -168 43 -252c8 -47 14 -92 22 -139h4c15 64 27 129 42 193l45 198h113l46 -199c15 -65 28 -131 43 -196h5l20 138l41 257h158l-147 -696h-130c-17 72 -37 145 -54 217zM452 809l-52 -68
l-205 97l84 100z" />
    <glyph glyph-name="wgrave" unicode="&#x1e81;" horiz-adv-x="668" 
d="M660 495l-131 -495h-136l-27 111l-30 135h-4l-30 -134l-28 -112h-135l-132 495h149l26 -147l26 -141h5l30 141l30 147h122l31 -148l32 -140h5l26 142l25 146h146zM401 575l-77 -41l-141 181l121 50z" />
    <glyph glyph-name="Wacute" unicode="&#x1e82;" horiz-adv-x="748" 
d="M377 365h-4l-37 -151c-16 -72 -38 -144 -55 -215h-130l-147 696h158c15 -85 30 -168 43 -252c8 -47 14 -92 22 -139h4c15 64 27 129 42 193l45 198h113l46 -199c15 -65 28 -131 43 -196h5l20 138l41 257h158l-147 -696h-130c-17 72 -37 145 -54 217zM345 726l-52 68
l173 129l84 -100z" />
    <glyph glyph-name="wacute" unicode="&#x1e83;" horiz-adv-x="668" 
d="M660 495l-131 -495h-136l-27 111l-30 135h-4l-30 -134l-28 -112h-135l-132 495h149l26 -147l26 -141h5l30 141l30 147h122l31 -148l32 -140h5l26 142l25 146h146zM368 534l-78 36l93 195l120 -48z" />
    <glyph glyph-name="Wdieresis" unicode="&#x1e84;" horiz-adv-x="748" 
d="M377 365h-4l-37 -151c-16 -72 -38 -144 -55 -215h-130l-147 696h158c15 -85 30 -168 43 -252c8 -47 14 -92 22 -139h4c15 64 27 129 42 193l45 198h113l46 -199c15 -65 28 -131 43 -196h5l20 138l41 257h158l-147 -696h-130c-17 72 -37 145 -54 217zM347 737h-136v131
h136v-131zM541 737h-135v131h135v-131z" />
    <glyph glyph-name="wdieresis" unicode="&#x1e85;" horiz-adv-x="668" 
d="M660 495l-131 -495h-136l-27 111l-30 135h-4l-30 -134l-28 -112h-135l-132 495h149l26 -147l26 -141h5l30 141l30 147h122l31 -148l32 -140h5l26 142l25 146h146zM498 558h-134v130h134v-130zM301 558h-133v130h133v-130z" />
    <glyph glyph-name="Ygrave" unicode="&#x1ef2;" horiz-adv-x="510" 
d="M507 696l-180 -417v-279h-142v279l-180 419h161l46 -142l41 -133h6l43 134l51 139h154zM341 794l-52 -68l-205 97l84 100z" />
    <glyph glyph-name="ygrave" unicode="&#x1ef3;" horiz-adv-x="442" 
d="M439 495l-185 -582c-25 -80 -78 -113 -153 -113h-49v120h29c27 0 46 17 56 51l16 55l-152 469h150l34 -160l31 -137h5l32 136l40 161h146zM282 575l-77 -41l-141 181l121 50z" />
    <glyph glyph-name="centigrade" unicode="&#xe12e;" horiz-adv-x="828" 
d="M662 207l138 -40c-20 -108 -105 -173 -218 -173c-160 0 -223 110 -223 236v248c0 103 60 223 223 223c129 0 200 -83 219 -174l-137 -41c-6 28 -24 75 -82 75c-59 0 -78 -45 -78 -77v-258c0 -53 21 -92 78 -92c40 0 75 28 80 73zM319 559c0 -79 -65 -142 -147 -142
c-81 0 -147 63 -147 142c0 78 66 142 147 142c82 0 147 -64 147 -142zM228 559c0 31 -24 54 -56 54c-31 0 -56 -23 -56 -54s25 -55 56 -55c32 0 56 24 56 55z" />
    <glyph glyph-name="fahrenheit" unicode="&#xe15f;" horiz-adv-x="786" 
d="M772 562h-260v-147h224v-132h-224v-283h-145v696h405v-134zM319 559c0 -79 -65 -142 -147 -142c-81 0 -147 63 -147 142c0 78 66 142 147 142c82 0 147 -64 147 -142zM228 559c0 31 -24 54 -56 54c-31 0 -56 -23 -56 -54s25 -55 56 -55c32 0 56 24 56 55z" />
    <glyph glyph-name="afii61289" unicode="&#x2113;" horiz-adv-x="470" 
d="M355 194l83 -36c-35 -100 -95 -168 -183 -168c-95 0 -161 70 -161 169v21c-11 -5 -26 -19 -41 -26l-39 67c27 16 58 36 79 56v204c0 160 67 222 154 222c60 0 125 -41 125 -138c0 -108 -57 -203 -177 -319v-44c0 -84 38 -113 70 -113c35 0 67 37 90 105zM195 497v-127
c56 67 85 127 85 199c0 23 -12 46 -37 46c-24 0 -48 -34 -48 -118z" />
    <glyph glyph-name="afii61352" unicode="&#x2116;" horiz-adv-x="887" 
d="M290 488l80 -164c3 0 1 1 4 1v371h143v-696h-126l-96 198c-27 56 -55 117 -84 176c-3 0 -1 -1 -4 -1v-373h-144v696h128zM703 702c64 0 101 -27 118 -64c12 -27 15 -63 15 -104c0 -47 -3 -80 -18 -105c-25 -47 -69 -63 -122 -63c-48 0 -80 16 -103 41
c-23 28 -30 68 -30 127c1 36 3 76 14 99c19 43 63 69 126 69zM574 249v84h253v-84h-253zM700 610c-13 0 -22 -6 -27 -18c-7 -15 -6 -35 -6 -60c0 -23 -1 -42 6 -57c5 -11 14 -16 26 -16c13 0 21 6 26 17c5 12 6 33 6 64c0 23 -1 40 -6 52s-14 18 -25 18z" />
    <glyph glyph-name="published" unicode="&#xe1bb;" horiz-adv-x="762" 
d="M378 -12c-200 0 -330 147 -330 353c0 204 130 356 330 356c198 0 330 -149 330 -356c0 -203 -132 -353 -330 -353zM378 619c-151 0 -244 -122 -244 -278c0 -153 97 -275 244 -275c150 0 244 122 244 275c0 159 -96 278 -244 278zM261 549h145c84 0 139 -42 139 -141
c0 -85 -51 -142 -138 -142h-49v-149h-97v432zM402 460h-44v-104h34c31 0 60 9 60 54c0 35 -19 50 -50 50z" />
    <glyph glyph-name="Ohm" unicode="&#xe0a7;" horiz-adv-x="537" 
d="M293 0v140c28 11 51 37 51 72v272c0 26 -17 77 -76 77c-58 0 -80 -45 -80 -77v-255c0 -43 17 -78 53 -89v-140h-210v132h50c0 3 1 3 1 4c-31 27 -38 73 -38 125v217c0 103 61 223 224 223c152 0 222 -114 222 -223v-223c0 -51 -8 -95 -39 -120c0 -1 1 -2 1 -3h52v-132
h-211z" />
    <glyph glyph-name="angstrom" unicode="&#xe110;" horiz-adv-x="555" 
d="M163 791c0 60 50 109 113 109c64 0 112 -49 112 -109c0 -41 -22 -76 -57 -95h17l201 -696h-156l-34 142h-165c-12 -47 -25 -95 -38 -142h-153l201 696h15c-35 19 -56 54 -56 95zM274 509l-28 -138l-20 -100h100l-19 99l-28 139h-5zM311 790c0 19 -16 34 -35 34
c-20 0 -36 -15 -36 -34s16 -34 36 -34c19 0 35 15 35 34z" />
    <glyph glyph-name="estimated" unicode="&#x212e;" horiz-adv-x="817" 
d="M742 291h-533v-150c40 -59 115 -97 190 -97c80 0 152 39 201 102h96c-79 -96 -186 -157 -298 -157c-189 0 -343 145 -343 326c0 183 154 328 343 328c194 0 336 -148 344 -352zM586 342v151c-34 58 -114 93 -187 93c-64 0 -137 -37 -190 -97v-147h377z" />
    <glyph glyph-name="partialdiff" unicode="&#x2202;" horiz-adv-x="481" 
d="M227 111c64 0 89 104 94 189c-35 37 -67 47 -94 47c-43 0 -73 -61 -73 -118c0 -83 34 -118 73 -118zM226 -10c-118 0 -207 83 -207 237c0 145 91 237 203 237c33 0 63 -8 95 -23c-5 92 -60 162 -131 162c-19 0 -44 -1 -89 -18l-1 121c35 11 70 15 97 15
c195 0 262 -175 262 -370c0 -239 -96 -361 -229 -361z" />
    <glyph glyph-name="gradient" unicode="&#x2207;" horiz-adv-x="555" 
d="M3 696h547l-202 -696h-143zM316 348l47 213h-171l47 -213l35 -163h7z" />
    <glyph glyph-name="product" unicode="&#x220f;" horiz-adv-x="560" 
d="M499 -78h-143v638h-150v-638h-145v774h438v-774z" />
    <glyph glyph-name="summation" unicode="&#x2211;" horiz-adv-x="450" 
d="M430 -78h-405v133l117 258l-118 254v129h394v-134h-226l115 -248l-112 -253h235v-139z" />
    <glyph glyph-name="minus" unicode="&#x2212;" horiz-adv-x="490" 
d="M19 355h450v-114h-450v114z" />
    <glyph glyph-name="radical" unicode="&#x221a;" horiz-adv-x="553" 
d="M533 791l-178 -868h-116l-119 375l-63 -17l-38 99c31 10 159 49 191 60l78 -266c24 101 91 515 115 617h130z" />
    <glyph glyph-name="infinity" unicode="&#x221e;" horiz-adv-x="692" 
d="M204 434c53 0 111 -40 145 -77c37 51 78 77 146 77c88 0 152 -68 152 -162c0 -87 -70 -164 -158 -164c-61 0 -105 36 -142 79c-39 -44 -80 -79 -148 -79c-85 0 -154 68 -154 164c0 86 72 162 159 162zM204 328c-25 0 -49 -24 -49 -55c0 -33 23 -61 47 -61
c29 0 56 27 79 59c-20 29 -46 57 -77 57zM491 328c-27 0 -52 -24 -79 -55c27 -32 53 -61 78 -61s49 28 49 60c0 31 -24 56 -48 56z" />
    <glyph glyph-name="logicaland" unicode="&#x2227;" horiz-adv-x="497" 
d="M251 283l-86 -283h-146l175 534h111l173 -534h-147z" />
    <glyph glyph-name="logicalor" unicode="&#x2228;" horiz-adv-x="497" 
d="M250 251l81 282h147l-173 -533h-111l-175 533h146z" />
    <glyph glyph-name="intersection" unicode="&#x2229;" horiz-adv-x="500" 
d="M467 315v-315h-142v308c0 53 -24 95 -79 95c-52 0 -76 -36 -76 -95v-308h-139v315c0 120 65 221 213 221c152 0 223 -96 223 -221z" />
    <glyph glyph-name="union" unicode="&#x222a;" horiz-adv-x="500" 
d="M467 535v-316c0 -124 -71 -220 -223 -220c-148 0 -213 100 -213 220v316h139v-309c0 -59 24 -94 76 -94c55 0 79 41 79 94v309h142z" />
    <glyph glyph-name="integral" unicode="&#x222b;" horiz-adv-x="316" 
d="M97 437c0 35 5 113 10 152c17 133 77 183 173 183c23 0 59 -6 84 -17l-24 -96c-23 5 -40 7 -51 7c-40 0 -55 -25 -63 -123c-4 -52 -6 -262 -6 -354c0 -256 -53 -336 -180 -336c-23 0 -59 6 -86 19l25 90c25 -6 43 -8 55 -7c28 0 44 20 52 94c8 67 11 182 11 388z" />
    <glyph glyph-name="approxequal" unicode="&#x2248;" horiz-adv-x="500" 
d="M173 479c58 0 107 -53 144 -53c23 0 49 18 76 54l75 -45c-39 -85 -83 -120 -134 -120c-59 0 -112 52 -152 52c-25 0 -50 -11 -82 -54l-73 45c37 79 78 121 146 121zM167 293c58 0 107 -53 144 -53c23 0 49 18 76 54l75 -45c-39 -85 -83 -120 -134 -120
c-59 0 -112 52 -152 52c-25 0 -50 -11 -82 -54l-73 45c37 79 78 121 146 121z" />
    <glyph glyph-name="notequal" unicode="&#x2260;" horiz-adv-x="490" 
d="M470 142h-260l-70 -122h-113l69 122h-78v111h142l54 93h-196v111h259l70 121h114l-70 -121h79v-111h-143l-54 -93h197v-111z" />
    <glyph glyph-name="lessequal" unicode="&#x2264;" horiz-adv-x="500" 
d="M474 166l-446 161v99l446 167v-130l-255 -86h1l254 -80v-131zM474 0h-445v116h445v-116z" />
    <glyph glyph-name="greaterequal" unicode="&#x2265;" horiz-adv-x="500" 
d="M475 327l-446 -161v131l254 80h1l-255 86v130l446 -167v-99zM474 0h-445v116h445v-116z" />
    <glyph glyph-name="zero.text" unicode="&#xe20a;" horiz-adv-x="490" 
d="M436 516v-337c0 -116 -88 -184 -191 -184c-104 0 -192 68 -192 184v337c0 117 89 185 192 185c105 0 191 -68 191 -185zM296 180v336c0 35 -22 52 -51 52c-31 0 -52 -17 -52 -52v-336c0 -35 21 -52 52 -52c29 0 51 17 51 52z" />
    <glyph glyph-name="one.text" unicode="&#xe1a3;" horiz-adv-x="407" 
d="M294 0h-140v534l-98 -72v152l112 82h126v-696z" />
    <glyph glyph-name="two.text" unicode="&#xe1f8;" horiz-adv-x="490" 
d="M177 483l-138 20c8 128 94 198 196 198c124 0 196 -65 196 -185c0 -57 -15 -101 -46 -149l-162 -232h203v-135h-383v122l225 318c15 23 19 45 19 70c0 28 -16 58 -51 58c-27 0 -55 -20 -59 -85z" />
    <glyph glyph-name="three.text" unicode="&#xe1eb;" horiz-adv-x="490" 
d="M361 361c71 -47 76 -100 76 -164c0 -121 -77 -202 -206 -202c-109 0 -188 57 -199 188l138 18c0 -59 32 -73 60 -73c31 0 59 20 59 76c0 67 -17 98 -73 98h-45v114h50c51 0 69 30 69 78c0 32 -15 73 -55 73c-25 0 -53 -14 -58 -77l-136 21c11 121 99 190 199 190
c157 0 195 -105 195 -201c0 -48 -21 -115 -74 -139z" />
    <glyph glyph-name="four.text" unicode="&#xe173;" horiz-adv-x="490" 
d="M463 97h-48v-97h-139v97h-249v114l195 485h148l-188 -468h94v153h139v-153h48v-131z" />
    <glyph glyph-name="five.text" unicode="&#xe166;" horiz-adv-x="483" 
d="M188 449h5c27 23 65 26 81 26c115 0 155 -86 155 -226c0 -157 -53 -254 -194 -254c-108 0 -192 42 -195 210h140c1 -60 23 -75 54 -75c44 0 52 49 52 113c0 60 -5 107 -53 107c-17 0 -43 -8 -56 -47h-123v393h362v-131h-228v-116z" />
    <glyph glyph-name="six.text" unicode="&#xe1dc;" horiz-adv-x="479" 
d="M260 412l3 -3c11 4 28 6 36 6c67 0 133 -54 133 -193c0 -145 -62 -227 -198 -227c-123 0 -189 61 -189 216c0 48 10 102 25 134l158 351h156c-43 -95 -79 -192 -124 -284zM240 303c-35 0 -54 -24 -54 -88s14 -87 50 -87c43 0 53 30 53 99c0 56 -16 76 -49 76z" />
    <glyph glyph-name="seven.text" unicode="&#xe1d3;" horiz-adv-x="462" 
d="M427 576l-211 -576h-145l200 563h-94v-80h-135v213h385v-120z" />
    <glyph glyph-name="eight.text" unicode="&#xe152;" horiz-adv-x="490" 
d="M370 365l1 -5c59 -24 72 -99 72 -154c0 -154 -92 -211 -200 -211s-197 57 -197 211c0 53 13 125 73 154v5c-53 24 -66 85 -66 135c0 117 65 201 190 201c121 0 194 -64 194 -201c0 -52 -14 -111 -67 -135zM245 420c37 0 52 29 52 78c0 44 -16 70 -52 70
c-35 0 -51 -28 -51 -72c0 -56 16 -76 51 -76zM244 128c43 0 59 36 59 92c0 51 -18 80 -59 80c-39 0 -57 -33 -57 -82c0 -65 18 -90 57 -90z" />
    <glyph glyph-name="nine.text" unicode="&#xe194;" horiz-adv-x="490" 
d="M222 284l-3 3c-11 -4 -24 -6 -32 -6c-84 0 -136 57 -136 194c0 145 58 226 194 226c140 0 193 -80 193 -213c0 -48 -12 -110 -26 -138l-157 -350h-156zM241 393c37 0 53 24 56 88c0 60 -13 87 -49 87c-43 0 -54 -31 -54 -104c0 -51 15 -71 47 -71z" />
    <glyph glyph-name="numbersign.text" unicode="&#xe19b;" horiz-adv-x="521" 
d="M23 205v96h85c5 35 10 64 17 99h-70v97h85l32 198h108l-32 -198h77l33 198h108l-33 -198h73v-97h-88l-16 -99h73v-96h-89l-32 -205h-109l33 205h-77l-33 -205h-110l34 205h-69zM233 400l-17 -99h78c5 35 10 64 17 99h-78z" />
    <glyph glyph-name="dollar.text" unicode="&#xe13e;" horiz-adv-x="490" 
d="M472 206c0 -125 -71 -201 -199 -210v-90h-46v90c-100 5 -161 55 -210 135l115 74c27 -41 59 -65 95 -72v157c-130 48 -186 96 -186 208s75 193 186 204v65h46v-65c87 -7 145 -50 184 -111l-99 -80c-27 31 -54 45 -85 52v-135c145 -62 199 -109 199 -222zM327 200
c0 35 -22 56 -54 72v-138c40 7 54 34 54 66zM180 505c0 -24 18 -41 47 -56v114c-28 -7 -47 -29 -47 -58z" />
    <glyph glyph-name="euro.text" unicode="&#xe15d;" horiz-adv-x="490" 
d="M342 207l131 -40c-19 -108 -101 -173 -207 -173c-153 0 -212 110 -212 236v26h-39v73h39v36h-39v73h39v40c0 103 58 223 212 223c121 0 192 -83 208 -174l-130 -41c-6 28 -23 75 -78 75s-74 -45 -74 -77v-46h150v-73h-150v-36h150v-73h-150v-30c0 -53 19 -92 74 -92
c39 0 71 28 76 73z" />
    <glyph glyph-name="florin.text" unicode="&#xe16c;" horiz-adv-x="458" 
d="M88 318l-1 116h85l7 61c11 97 52 205 181 205c32 0 69 -5 100 -18l-28 -113c-32 13 -45 13 -64 13c-35 0 -50 -44 -55 -84l-8 -64h82l1 -116h-97l-23 -198c-16 -126 -55 -213 -167 -213c-28 0 -74 9 -111 25l33 109c29 -13 43 -14 55 -14c31 0 46 26 54 93l23 198h-67z
" />
    <glyph glyph-name="sterling.text" unicode="&#xe1e2;" horiz-adv-x="470" 
d="M258 568c-24 0 -58 -21 -58 -58c0 -40 27 -80 40 -139h120v-103h-119c-4 -55 -16 -103 -36 -143h241v-125h-412v110c36 48 56 91 61 158h-64v103h57c-15 53 -35 95 -35 147c0 101 71 183 200 183c103 0 168 -40 205 -147l-122 -54c-21 49 -43 68 -78 68z" />
    <glyph glyph-name="cent.text" unicode="&#xe12c;" horiz-adv-x="422" 
d="M206 -98v94c-136 8 -177 109 -177 249s41 247 177 255v82h34v-82c76 -5 135 -45 159 -114l-118 -57c-13 27 -24 39 -41 43v-248c15 3 29 17 42 42l118 -58c-25 -69 -84 -108 -160 -112v-94h-34zM170 245c0 -68 7 -106 36 -118v241c-31 -15 -36 -59 -36 -123z" />
    <glyph glyph-name="yen.text" unicode="&#xe204;" horiz-adv-x="490" 
d="M243 423h6c12 39 20 84 35 123l52 150h155l-141 -337h82v-75h-111l-5 -10v-31h116v-75h-116v-168h-142v168h-113v75h113v31l-5 10h-108v75h78l-140 337h155c19 -49 38 -101 53 -152z" />
    <glyph glyph-name="zero.taboldstyle" unicode="&#xe209;" horiz-adv-x="490" 
d="M436 316v-137c0 -116 -88 -184 -191 -184c-104 0 -192 68 -192 184v137c0 117 89 185 192 185c105 0 191 -68 191 -185zM296 180v136c0 35 -22 52 -51 52c-31 0 -52 -17 -52 -52v-136c0 -35 21 -52 52 -52c29 0 51 17 51 52z" />
    <glyph glyph-name="one.taboldstyle" unicode="&#xe1a2;" horiz-adv-x="490" 
d="M57 129h120v204l-98 -71v151l112 82h126v-366h116v-129h-376v129z" />
    <glyph glyph-name="two.taboldstyle" unicode="&#xe1f7;" horiz-adv-x="490" 
d="M442 0h-386v112c72 59 132 104 177 143c37 31 48 55 48 75s-12 33 -39 33c-12 0 -45 -4 -58 -65l-136 21c13 127 109 182 207 182c110 0 183 -64 183 -156c0 -69 -45 -128 -170 -216l1 -1h173v-128z" />
    <glyph glyph-name="three.taboldstyle" unicode="&#xe1ea;" horiz-adv-x="490" 
d="M353 185v-8c63 -39 66 -91 66 -149c0 -109 -75 -191 -201 -191c-105 0 -183 56 -194 181l139 17c0 -54 28 -68 54 -68c28 0 54 17 54 68c0 60 -15 89 -67 89h-46v112h50c47 0 64 26 64 69c0 29 -13 65 -50 65c-24 0 -48 -12 -53 -71l-136 20c11 116 97 182 194 182
c153 0 190 -99 190 -190c0 -43 -18 -101 -64 -126z" />
    <glyph glyph-name="four.taboldstyle" unicode="&#xe172;" horiz-adv-x="490" 
d="M454 0h-45v-158h-140v158h-240v110l168 385h150l-161 -367h83v143h140v-143h45v-128z" />
    <glyph glyph-name="five.taboldstyle" unicode="&#xe165;" horiz-adv-x="490" 
d="M205 266h1c27 21 64 25 80 25c112 0 151 -81 151 -214c0 -149 -50 -240 -189 -240c-107 0 -187 41 -190 202h140c1 -56 22 -70 49 -70c40 0 47 45 47 102c0 56 -5 97 -48 97c-15 0 -40 -8 -52 -43h-123v371h354v-128h-220v-102z" />
    <glyph glyph-name="six.taboldstyle" unicode="&#xe1db;" horiz-adv-x="490" 
d="M345 555l-76 -167c11 4 20 5 29 5c83 -3 135 -51 135 -183c0 -137 -60 -215 -193 -215c-116 0 -184 67 -184 204c0 45 7 90 23 126c49 105 105 224 153 329h157zM246 283c-32 0 -50 -23 -50 -80s13 -78 46 -78c39 0 48 28 48 89c0 51 -13 69 -44 69z" />
    <glyph glyph-name="seven.taboldstyle" unicode="&#xe1d2;" horiz-adv-x="490" 
d="M427 380l-203 -538h-146l193 525h-84v-75h-135v204h375v-116z" />
    <glyph glyph-name="eight.taboldstyle" unicode="&#xe151;" horiz-adv-x="490" 
d="M367 342v-2c56 -24 69 -93 69 -145c0 -141 -90 -200 -195 -200s-192 62 -192 200c0 51 13 116 69 145v1c-51 25 -63 79 -63 128c0 112 69 190 186 190s189 -59 189 -190c0 -49 -14 -102 -63 -127zM242 127c39 0 54 30 54 81c0 45 -17 72 -54 72c-36 0 -53 -30 -53 -74
c0 -59 17 -79 53 -79zM243 398c35 0 47 25 47 69c0 39 -14 62 -47 62c-32 0 -47 -24 -47 -64c0 -51 15 -67 47 -67z" />
    <glyph glyph-name="nine.taboldstyle" unicode="&#xe193;" horiz-adv-x="490" 
d="M257 -158h-157l120 266c-9 -3 -24 -5 -31 -5c-81 3 -133 53 -133 184c0 137 61 213 194 213c131 0 184 -74 184 -201c0 -46 -13 -104 -24 -130zM242 213c35 0 48 23 51 79c0 56 -10 78 -42 78c-40 0 -52 -26 -52 -94c0 -45 14 -63 43 -63z" />
    <glyph glyph-name="numbersign.taboldstyle" unicode="&#xe19a;" horiz-adv-x="490" 
d="M28 174v82h76l16 84h-63v82h76l29 169h97l-29 -169h70l29 169h97l-29 -169h65v-82h-79l-14 -84h66v-82h-81l-28 -174h-98l29 174h-69l-30 -174h-99l31 174h-62zM217 340l-16 -84h71l15 84h-70z" />
    <glyph glyph-name="dollar.taboldstyle" unicode="&#xe13d;" horiz-adv-x="490" 
d="M442 176c0 -107 -62 -171 -177 -179v-76h-48v76c-89 4 -144 46 -189 117l108 65c25 -33 52 -53 81 -60v127c-116 40 -165 81 -165 176c0 97 65 165 165 176v54h48v-54c77 -7 129 -45 164 -97l-92 -72c-23 27 -45 39 -72 46v-109c129 -54 177 -92 177 -190zM306 172
c0 27 -14 42 -41 55v-107c31 7 41 28 41 52zM181 428c0 -19 13 -30 36 -41v87c-24 -7 -36 -23 -36 -46z" />
    <glyph glyph-name="euro.taboldstyle" unicode="&#xe15c;" horiz-adv-x="490" 
d="M339 181l123 -35c-19 -95 -90 -151 -189 -151c-137 0 -192 93 -192 202v19h-34v68h34v23h-34v68h34v31c0 88 53 191 192 191c111 0 174 -72 190 -152l-122 -37c-5 24 -21 65 -68 65c-48 0 -63 -36 -63 -63v-35h134v-68h-134v-23h134v-68h-134v-23c0 -43 16 -74 63 -74
c35 0 61 23 66 62z" />
    <glyph glyph-name="florin.taboldstyle" unicode="&#xe16b;" horiz-adv-x="490" 
d="M112 282l-1 109h83l7 57c11 91 50 193 175 193c31 0 68 -5 97 -17l-27 -106c-31 12 -45 12 -62 12c-32 0 -50 -42 -53 -79l-8 -60h79l1 -109h-94l-22 -186c-16 -119 -54 -200 -162 -200c-27 0 -72 8 -108 23l32 103c28 -13 42 -14 54 -14c31 0 44 25 52 88l22 186h-65z
" />
    <glyph glyph-name="sterling.taboldstyle" unicode="&#xe1e1;" horiz-adv-x="490" 
d="M256 479c-20 0 -49 -17 -49 -46c0 -19 7 -36 16 -57c7 -19 15 -35 20 -58h107v-92h-106c-4 -48 -13 -82 -30 -115h212v-111h-372v97c32 40 49 74 54 129h-57v92h49l-11 34c-11 29 -19 56 -19 87c0 88 66 158 182 158c92 0 151 -36 186 -129l-115 -48
c-19 43 -36 59 -67 59z" />
    <glyph glyph-name="cent.taboldstyle" unicode="&#xe12b;" horiz-adv-x="490" 
d="M233 -42v79c-119 8 -158 95 -158 212c0 120 39 210 158 218v70h37v-70c67 -5 120 -40 143 -101l-111 -49c-11 20 -21 32 -32 35v-201c13 4 22 16 33 36l111 -51c-23 -60 -77 -94 -144 -99v-79h-37zM207 249c0 -51 5 -82 26 -94v193c-23 -15 -26 -50 -26 -99z" />
    <glyph glyph-name="yen.taboldstyle" unicode="&#xe203;" horiz-adv-x="490" 
d="M243 364h5l35 110l40 119h146l-126 -285h72v-69h-101l-4 -6v-22h105v-69h-105v-142h-131v142h-102v69h102v22l-4 6h-98v69h68l-125 285h146l43 -124z" />
    <glyph glyph-name="zero.textoldstyle" unicode="&#xe20b;" horiz-adv-x="490" 
d="M436 316v-137c0 -116 -88 -184 -191 -184c-104 0 -192 68 -192 184v137c0 117 89 185 192 185c105 0 191 -68 191 -185zM296 180v136c0 35 -22 52 -51 52c-31 0 -52 -17 -52 -52v-136c0 -35 21 -52 52 -52c29 0 51 17 51 52z" />
    <glyph glyph-name="one.textoldstyle" unicode="&#xe1a4;" horiz-adv-x="441" 
d="M47 129h120v204l-98 -71v151l112 82h126v-366h116v-129h-376v129z" />
    <glyph glyph-name="two.textoldstyle" unicode="&#xe1f9;" horiz-adv-x="475" 
d="M425 0h-386v112c72 59 132 104 177 143c37 31 48 55 48 75s-12 33 -39 33c-12 0 -45 -4 -58 -65l-136 21c13 127 109 182 207 182c110 0 183 -64 183 -156c0 -69 -45 -128 -170 -216l1 -1h173v-128z" />
    <glyph glyph-name="three.textoldstyle" unicode="&#xe1ec;" horiz-adv-x="458" 
d="M337 185v-8c63 -39 66 -91 66 -149c0 -109 -75 -191 -201 -191c-105 0 -183 56 -194 181l139 17c0 -54 28 -68 54 -68c28 0 54 17 54 68c0 60 -15 89 -67 89h-46v112h50c47 0 64 26 64 69c0 29 -13 65 -50 65c-24 0 -48 -12 -53 -71l-136 20c11 116 97 182 194 182
c153 0 190 -99 190 -190c0 -43 -18 -101 -64 -126z" />
    <glyph glyph-name="four.textoldstyle" unicode="&#xe174;" horiz-adv-x="462" 
d="M444 0h-45v-158h-140v158h-240v110l168 385h150l-161 -367h83v143h140v-143h45v-128z" />
    <glyph glyph-name="five.textoldstyle" unicode="&#xe167;" horiz-adv-x="458" 
d="M184 266h1c27 21 64 25 80 25c112 0 151 -81 151 -214c0 -149 -50 -240 -189 -240c-107 0 -187 41 -190 202h140c1 -56 22 -70 49 -70c40 0 47 45 47 102c0 56 -5 97 -48 97c-15 0 -40 -8 -52 -43h-123v371h354v-128h-220v-102z" />
    <glyph glyph-name="six.textoldstyle" unicode="&#xe1dd;" horiz-adv-x="470" 
d="M335 555l-76 -167c11 4 20 5 29 5c83 -3 135 -51 135 -183c0 -137 -60 -215 -193 -215c-116 0 -184 67 -184 204c0 45 7 90 23 126c49 105 105 224 153 329h157zM236 283c-32 0 -50 -23 -50 -80s13 -78 46 -78c39 0 48 28 48 89c0 51 -13 69 -44 69z" />
    <glyph glyph-name="seven.textoldstyle" unicode="&#xe1d4;" horiz-adv-x="441" 
d="M397 380l-203 -538h-146l193 525h-84v-75h-135v204h375v-116z" />
    <glyph glyph-name="eight.textoldstyle" unicode="&#xe153;" horiz-adv-x="483" 
d="M363 342v-2c56 -24 69 -93 69 -145c0 -141 -90 -200 -195 -200s-192 62 -192 200c0 51 13 116 69 145v1c-51 25 -63 79 -63 128c0 112 69 190 186 190s189 -59 189 -190c0 -49 -14 -102 -63 -127zM238 127c39 0 54 30 54 81c0 45 -17 72 -54 72c-36 0 -53 -30 -53 -74
c0 -59 17 -79 53 -79zM239 398c35 0 47 25 47 69c0 39 -14 62 -47 62c-32 0 -47 -24 -47 -64c0 -51 15 -67 47 -67z" />
    <glyph glyph-name="nine.textoldstyle" unicode="&#xe195;" horiz-adv-x="487" 
d="M253 -158h-157l120 266c-9 -3 -24 -5 -31 -5c-81 3 -133 53 -133 184c0 137 61 213 194 213c131 0 184 -74 184 -201c0 -46 -13 -104 -24 -130zM238 213c35 0 48 23 51 79c0 56 -10 78 -42 78c-40 0 -52 -26 -52 -94c0 -45 14 -63 43 -63z" />
    <glyph glyph-name="numbersign.textoldstyle" unicode="&#xe19c;" horiz-adv-x="490" 
d="M28 174v82h76l16 84h-63v82h76l29 169h97l-29 -169h70l29 169h97l-29 -169h65v-82h-79l-14 -84h66v-82h-81l-28 -174h-98l29 174h-69l-30 -174h-99l31 174h-62zM217 340l-16 -84h71l15 84h-70z" />
    <glyph glyph-name="dollar.textoldstyle" unicode="&#xe13f;" horiz-adv-x="490" 
d="M442 176c0 -107 -62 -171 -177 -179v-76h-48v76c-89 4 -144 46 -189 117l108 65c25 -33 52 -53 81 -60v127c-116 40 -165 81 -165 176c0 97 65 165 165 176v54h48v-54c77 -7 129 -45 164 -97l-92 -72c-23 27 -45 39 -72 46v-109c129 -54 177 -92 177 -190zM306 172
c0 27 -14 42 -41 55v-107c31 7 41 28 41 52zM181 428c0 -19 13 -30 36 -41v87c-24 -7 -36 -23 -36 -46z" />
    <glyph glyph-name="euro.textoldstyle" unicode="&#xe15e;" horiz-adv-x="483" 
d="M333 181l123 -35c-19 -95 -90 -151 -189 -151c-137 0 -192 93 -192 202v19h-34v68h34v23h-34v68h34v31c0 88 53 191 192 191c111 0 174 -72 190 -152l-122 -37c-5 24 -21 65 -68 65c-48 0 -63 -36 -63 -63v-35h134v-68h-134v-23h134v-68h-134v-23c0 -43 16 -74 63 -74
c35 0 61 23 66 62z" />
    <glyph glyph-name="florin.textoldstyle" unicode="&#xe16d;" horiz-adv-x="428" 
d="M69 282l-1 109h83l7 57c11 91 50 193 175 193c31 0 68 -5 97 -17l-27 -106c-31 12 -45 12 -62 12c-32 0 -50 -42 -53 -79l-8 -60h79l1 -109h-94l-22 -186c-16 -119 -54 -200 -162 -200c-27 0 -72 8 -108 23l32 103c28 -13 42 -14 54 -14c31 0 44 25 52 88l22 186h-65z
" />
    <glyph glyph-name="sterling.textoldstyle" unicode="&#xe1e3;" horiz-adv-x="445" 
d="M246 479c-20 0 -49 -17 -49 -46c0 -19 7 -36 16 -57c7 -19 15 -35 20 -58h107v-92h-106c-4 -48 -13 -82 -30 -115h212v-111h-372v97c32 40 49 74 54 129h-57v92h49l-11 34c-11 29 -19 56 -19 87c0 88 66 158 182 158c92 0 151 -36 186 -129l-115 -48
c-19 43 -36 59 -67 59z" />
    <glyph glyph-name="cent.textoldstyle" unicode="&#xe12d;" horiz-adv-x="412" 
d="M199 -42v79c-119 8 -158 95 -158 212c0 120 39 210 158 218v70h37v-70c67 -5 120 -40 143 -101l-111 -49c-11 20 -21 32 -32 35v-201c13 4 22 16 33 36l111 -51c-23 -60 -77 -94 -144 -99v-79h-37zM173 249c0 -51 5 -82 26 -94v193c-23 -15 -26 -50 -26 -99z" />
    <glyph glyph-name="yen.textoldstyle" unicode="&#xe205;" horiz-adv-x="483" 
d="M233 364h5l35 110l40 119h146l-126 -285h72v-69h-101l-4 -6v-22h105v-69h-105v-142h-131v142h-102v69h102v22l-4 6h-98v69h68l-125 285h146l43 -124z" />
    <glyph glyph-name="percent.text" unicode="&#xe1b3;" horiz-adv-x="685" 
d="M638 250v-158c0 -59 -52 -94 -112 -94s-112 35 -112 94v158c0 60 52 95 112 95s112 -35 112 -95zM271 504v-160c0 -59 -52 -93 -113 -93c-60 0 -112 35 -112 93v160c0 58 52 93 112 93c61 0 113 -34 113 -93zM555 607l-333 -621h-92l332 621h93zM181 346v155
c0 14 -8 21 -24 21c-15 0 -23 -7 -23 -21v-155c0 -13 8 -20 23 -20c16 0 24 7 24 20zM549 94v154c0 15 -8 22 -24 22c-15 0 -23 -7 -23 -22v-154c0 -13 8 -20 23 -20c16 0 24 7 24 20z" />
    <glyph glyph-name="perthousand.text" unicode="&#xe1b6;" horiz-adv-x="941" 
d="M905 250v-158c0 -59 -52 -94 -113 -94c-59 0 -111 35 -111 94v158c0 60 52 95 111 95c63 0 113 -35 113 -95zM639 250v-158c0 -59 -53 -94 -113 -94s-112 35 -112 94v158c0 60 52 95 112 95c61 0 113 -35 113 -95zM271 504v-160c0 -59 -51 -93 -112 -93
c-60 0 -112 35 -112 93v160c0 58 52 93 112 93c61 0 112 -34 112 -93zM556 607l-333 -621h-92l332 621h93zM182 346v155c0 14 -8 21 -24 21c-15 0 -23 -7 -23 -21v-155c0 -13 8 -20 23 -20c16 0 24 7 24 20zM816 94v154c0 15 -8 22 -24 22s-24 -7 -24 -22v-154
c0 -13 8 -20 24 -20s24 7 24 20zM549 94v154c0 15 -8 22 -24 22c-15 0 -23 -7 -23 -22v-154c0 -13 8 -20 24 -20c15 0 23 7 23 20z" />
    <glyph glyph-name="ampersandsmall" unicode="&#xf726;" horiz-adv-x="519" 
d="M361 0l-25 31c-39 -23 -80 -35 -123 -35c-110 0 -164 62 -164 146c0 57 29 103 78 146c-20 28 -39 59 -39 104c0 79 56 134 156 134c60 0 113 -14 164 -65l-81 -81c-31 29 -59 36 -82 36c-17 0 -29 -11 -29 -24c0 -16 8 -29 25 -50l98 -125c5 13 10 32 11 57l119 -16
c-4 -55 -20 -103 -44 -140c16 -19 80 -102 96 -118h-160zM262 124l-61 73c-15 -17 -23 -32 -23 -51s12 -38 43 -38c15 0 30 7 41 16z" />
    <glyph glyph-name="exclamsmall" unicode="&#xf721;" horiz-adv-x="257" 
d="M197 522l-10 -362h-118l-9 362h137zM196 0h-135v122h135v-122z" />
    <glyph glyph-name="questionsmall" unicode="&#xf73f;" horiz-adv-x="421" 
d="M393 376c0 -81 -54 -113 -89 -161c-9 -13 -16 -26 -16 -41v-21h-138v34c0 43 16 73 51 112c32 40 39 55 39 77c0 13 -9 27 -34 27c-23 0 -43 -16 -44 -59l-135 14c9 108 83 168 186 168c119 0 180 -58 180 -150zM287 0h-135v122h135v-122z" />
    <glyph glyph-name="Asmall" unicode="&#xf761;" horiz-adv-x="480" 
d="M474 0h-143c-8 35 -18 66 -29 101h-126l-29 -101h-143l168 522h134zM241 357h-4l-21 -87l-12 -50h69l-12 50z" />
    <glyph glyph-name="Bsmall" unicode="&#xf762;" horiz-adv-x="459" 
d="M287 365c0 24 -19 37 -44 37h-58v-78h62c23 0 40 18 40 41zM295 168c0 31 -21 45 -52 45h-58v-90h55c27 0 55 14 55 45zM50 522h196c113 0 173 -52 173 -148c0 -32 -27 -81 -56 -100c40 -21 63 -70 63 -110c0 -83 -52 -164 -172 -164h-204v522z" />
    <glyph glyph-name="Csmall" unicode="&#xf763;" horiz-adv-x="435" 
d="M225 526c113 0 168 -61 186 -148l-124 -43c-4 39 -25 65 -58 65c-45 0 -57 -36 -57 -64v-160c0 -27 17 -56 54 -56c32 0 54 23 59 66l130 -33c-16 -97 -85 -158 -189 -158c-128 0 -188 72 -188 185v152c0 109 57 194 187 194z" />
    <glyph glyph-name="Dsmall" unicode="&#xf764;" horiz-adv-x="467" 
d="M51 522h195c89 0 148 -39 169 -114c11 -35 10 -84 10 -144c0 -65 0 -132 -15 -168c-29 -75 -98 -96 -174 -96h-185v522zM291 188v146c0 32 -15 64 -58 64h-48v-275h41c51 0 65 26 65 65z" />
    <glyph glyph-name="Esmall" unicode="&#xf765;" horiz-adv-x="418" 
d="M395 0h-345v522h345v-122h-210v-75h181v-121h-181v-81h210v-123z" />
    <glyph glyph-name="Fsmall" unicode="&#xf766;" horiz-adv-x="414" 
d="M395 400h-210v-78h181v-121h-181v-201h-135v522h345v-122z" />
    <glyph glyph-name="Gsmall" unicode="&#xf767;" horiz-adv-x="456" 
d="M232 401c-48 0 -56 -45 -56 -78v-124c0 -33 6 -78 54 -78c39 0 56 31 59 66h-60v109h193v-100c0 -116 -61 -200 -189 -200c-144 0 -191 96 -191 195v146c0 108 60 190 188 190c115 0 166 -65 185 -153c-41 -12 -82 -26 -123 -38c-5 39 -27 65 -60 65z" />
    <glyph glyph-name="Hsmall" unicode="&#xf768;" horiz-adv-x="480" 
d="M429 0h-133v204h-110v-204h-135v522h135v-197h110v197h133v-522z" />
    <glyph glyph-name="Ismall" unicode="&#xf769;" horiz-adv-x="229" 
d="M183 0h-135v522h135v-522z" />
    <glyph glyph-name="Jsmall" unicode="&#xf76a;" horiz-adv-x="376" 
d="M335 522v-356c0 -110 -77 -170 -164 -170c-60 0 -122 10 -173 79l91 90c23 -25 40 -40 63 -40c28 0 50 14 50 53v344h133z" />
    <glyph glyph-name="Ksmall" unicode="&#xf76b;" horiz-adv-x="483" 
d="M187 341l38 54l93 127h158l-167 -219l176 -303h-155l-107 199c-12 -16 -25 -32 -37 -49v-150h-135v522h136v-181z" />
    <glyph glyph-name="Lsmall" unicode="&#xf76c;" horiz-adv-x="409" 
d="M395 0h-345v522h135v-399h210v-123z" />
    <glyph glyph-name="Msmall" unicode="&#xf76d;" horiz-adv-x="580" 
d="M290 258h4l61 142l55 122h122v-522h-134v235h-3l-31 -82l-26 -62h-92l-24 59l-33 86l-4 -1v-235h-135v522h121l58 -127z" />
    <glyph glyph-name="Nsmall" unicode="&#xf76e;" horiz-adv-x="504" 
d="M317 268l5 2v252h133v-522h-114c-27 47 -53 91 -80 136c-24 40 -48 84 -75 125h-2v-261h-135v522h117l89 -147c21 -35 42 -74 62 -107z" />
    <glyph glyph-name="Osmall" unicode="&#xf76f;" horiz-adv-x="453" 
d="M282 182v154c0 41 -22 66 -57 66c-32 0 -54 -25 -54 -66v-154c0 -31 11 -64 54 -64c35 0 57 28 57 64zM418 340v-159c0 -120 -71 -186 -192 -186c-125 0 -190 75 -190 186v159c0 113 66 186 190 186s192 -69 192 -186z" />
    <glyph glyph-name="Psmall" unicode="&#xf770;" horiz-adv-x="442" 
d="M421 349c0 -103 -73 -173 -178 -173h-57v-176h-135v522h186c113 0 184 -54 184 -173zM290 350c0 33 -19 50 -56 50h-48v-104h48c31 0 56 18 56 54z" />
    <glyph glyph-name="Qsmall" unicode="&#xf771;" horiz-adv-x="459" 
d="M420 340v-159c0 -36 -7 -67 -20 -94l51 -37l-51 -71l-58 43c-31 -18 -69 -27 -114 -27c-125 0 -190 75 -190 186v159c0 113 66 186 190 186s192 -69 192 -186zM284 182v154c0 41 -22 66 -57 66c-32 0 -54 -25 -54 -66v-154c0 -31 11 -64 54 -64h3l-21 34l26 37l48 -20
c0 4 1 8 1 13z" />
    <glyph glyph-name="Rsmall" unicode="&#xf772;" horiz-adv-x="469" 
d="M437 0h-139l-71 190h-33v-190h-134v522h193c100 0 176 -51 176 -163c0 -64 -30 -116 -79 -145zM298 357c0 28 -17 45 -52 45h-52v-93h52c32 0 52 17 52 48z" />
    <glyph glyph-name="Ssmall" unicode="&#xf773;" horiz-adv-x="448" 
d="M421 160c0 -93 -68 -164 -195 -164c-100 0 -153 35 -198 91l89 86c29 -36 71 -54 111 -54c43 0 55 15 55 36c0 27 -34 38 -87 51c-100 25 -152 74 -152 161c0 97 70 159 182 159c97 0 157 -41 181 -84l-90 -78c-31 31 -60 40 -87 40c-29 0 -51 -12 -51 -32s42 -35 93 -50
c115 -32 149 -85 149 -162z" />
    <glyph glyph-name="Tsmall" unicode="&#xf774;" horiz-adv-x="396" 
d="M383 402h-120v-402h-134v402h-120v120h374v-120z" />
    <glyph glyph-name="Usmall" unicode="&#xf775;" horiz-adv-x="466" 
d="M288 522h136v-351c0 -109 -78 -175 -191 -175c-112 0 -190 66 -190 178v348h135v-342c0 -39 24 -59 55 -59s55 17 55 56v345z" />
    <glyph glyph-name="Vsmall" unicode="&#xf776;" horiz-adv-x="459" 
d="M228 188h3l24 112l55 222h145l-161 -522h-129l-162 522h146l55 -221z" />
    <glyph glyph-name="Wsmall" unicode="&#xf777;" horiz-adv-x="642" 
d="M324 268h-4l-31 -123l-38 -145h-117l-126 523h147l31 -179l17 -109l4 1l23 108l42 179h101l43 -189l24 -98h3l15 105l29 182h148l-125 -523h-117l-42 151z" />
    <glyph glyph-name="Xsmall" unicode="&#xf778;" horiz-adv-x="463" 
d="M230 156l-77 -156h-154c52 91 106 179 158 270l-148 252h156c21 -48 44 -95 65 -143l66 143h156l-151 -252l161 -270h-156l-75 156h-1z" />
    <glyph glyph-name="Ysmall" unicode="&#xf779;" horiz-adv-x="448" 
d="M222 333h6l31 89l37 100h143l-148 -318v-204h-134v204l-149 318h145l37 -98z" />
    <glyph glyph-name="Zsmall" unicode="&#xf77a;" horiz-adv-x="390" 
d="M367 0h-343v109l178 293h-172v120h337v-105l-179 -294h179v-123z" />
    <glyph glyph-name="Scaronsmall" unicode="&#xf6fd;" horiz-adv-x="448" 
d="M421 160c0 -93 -68 -164 -195 -164c-100 0 -153 35 -198 91l89 86c29 -36 71 -54 111 -54c43 0 55 15 55 36c0 27 -34 38 -87 51c-100 25 -152 74 -152 161c0 97 70 159 182 159c97 0 157 -41 181 -84l-90 -78c-31 31 -60 40 -87 40c-29 0 -51 -12 -51 -32s42 -35 93 -50
c115 -32 149 -85 149 -162zM236 649l131 99l54 -48l-138 -157h-91l-141 157l53 48c23 -16 108 -83 132 -99z" />
    <glyph glyph-name="OEsmall" unicode="&#xf6fa;" horiz-adv-x="663" 
d="M276 141v243c-5 7 -18 18 -35 18c-58 0 -58 -52 -58 -72v-137c0 -49 15 -75 58 -75c15 0 28 4 35 23zM411 203v-78h226v-125h-342c-16 -3 -35 -5 -54 -5c-140 0 -200 83 -200 184v138c0 117 52 209 200 209c19 0 36 -1 51 -4h345v-123h-226v-74h195v-122h-195z" />
    <glyph glyph-name="Zcaronsmall" unicode="&#xf6ff;" horiz-adv-x="390" 
d="M367 0h-343v109l178 293h-172v120h337v-105l-179 -294h179v-123zM200 649l131 99l54 -48l-138 -157h-91l-141 157l53 48c23 -16 108 -83 132 -99z" />
    <glyph glyph-name="Ydieresissmall" unicode="&#xf7ff;" horiz-adv-x="448" 
d="M222 333h6l31 89l37 100h143l-148 -318v-204h-134v204l-149 318h145l37 -98zM392 583h-134v130h134v-130zM195 583h-133v130h133v-130z" />
    <glyph glyph-name="Agravesmall" unicode="&#xf7e0;" horiz-adv-x="480" 
d="M474 0h-143c-8 35 -18 66 -29 101h-126l-29 -101h-143l168 522h134zM308 600l-77 -41l-141 181l121 50zM241 357h-4l-21 -87l-12 -50h69l-12 50z" />
    <glyph glyph-name="Aacutesmall" unicode="&#xf7e1;" horiz-adv-x="480" 
d="M474 0h-143c-8 35 -18 66 -29 101h-126l-29 -101h-143l168 522h134zM257 559l-78 36l93 195l120 -48zM241 357h-4l-21 -87l-12 -50h69l-12 50z" />
    <glyph glyph-name="Acircumflexsmall" unicode="&#xf7e2;" horiz-adv-x="480" 
d="M474 0h-143c-8 35 -18 66 -29 101h-126l-29 -101h-143l168 522h134zM369 543l-131 99c-24 -16 -109 -83 -132 -98l-53 47l141 157h91l138 -156zM241 357h-4l-21 -87l-12 -50h69l-12 50z" />
    <glyph glyph-name="Atildesmall" unicode="&#xf7e3;" horiz-adv-x="480" 
d="M474 0h-143c-8 35 -18 66 -29 101h-126l-29 -101h-143l168 522h134zM176 725c48 0 89 -42 118 -42c21 0 35 10 62 43c23 -12 44 -25 67 -38c-35 -76 -71 -104 -114 -104c-50 0 -92 41 -126 41c-20 0 -39 -9 -66 -44l-65 40c32 72 75 104 124 104zM241 357h-4l-21 -87
l-12 -50h69l-12 50z" />
    <glyph glyph-name="Adieresissmall" unicode="&#xf7e4;" horiz-adv-x="480" 
d="M474 0h-143c-8 35 -18 66 -29 101h-126l-29 -101h-143l168 522h134zM404 583h-134v130h134v-130zM207 583h-133v130h133v-130zM241 357h-4l-21 -87l-12 -50h69l-12 50z" />
    <glyph glyph-name="Aringsmall" unicode="&#xf7e5;" horiz-adv-x="480" 
d="M474 0h-143c-8 35 -18 66 -29 101h-126l-29 -101h-143l168 522h134zM127 652c0 60 50 109 113 109c64 0 112 -49 112 -109s-49 -109 -113 -109c-61 0 -112 49 -112 109zM241 357h-4l-21 -87l-12 -50h69l-12 50zM275 651c0 19 -16 34 -35 34c-20 0 -36 -15 -36 -34
s16 -34 36 -34c19 0 35 15 35 34z" />
    <glyph glyph-name="AEsmall" unicode="&#xf7e6;" horiz-adv-x="768" 
d="M728 0h-364v107h-134c-16 -35 -34 -72 -51 -107h-161c89 175 178 347 266 522h444v-123h-222v-74h191v-122h-191v-78h222v-125zM364 392h-4l-74 -164h78v164z" />
    <glyph glyph-name="Ccedillasmall" unicode="&#xf7e7;" horiz-adv-x="435" 
d="M225 526c113 0 168 -61 186 -148l-124 -43c-4 39 -25 65 -58 65c-45 0 -57 -36 -57 -64v-160c0 -27 17 -56 54 -56c32 0 54 23 59 66l130 -33c-15 -92 -77 -152 -173 -157l-11 -32c71 -8 93 -54 93 -89c0 -49 -33 -90 -109 -90c-36 1 -74 4 -107 23l23 61
c31 -15 48 -17 67 -17c20 0 36 13 36 30c0 19 -13 27 -29 27c-5 0 -10 -1 -14 -3c-12 8 -24 14 -36 22l22 71c-96 16 -139 82 -139 181v152c0 109 57 194 187 194z" />
    <glyph glyph-name="Egravesmall" unicode="&#xf7e8;" horiz-adv-x="418" 
d="M395 0h-345v522h345v-122h-210v-75h181v-121h-181v-81h210v-123zM297 600l-77 -41l-141 181l121 50z" />
    <glyph glyph-name="Eacutesmall" unicode="&#xf7e9;" horiz-adv-x="418" 
d="M395 0h-345v522h345v-122h-210v-75h181v-121h-181v-81h210v-123zM226 559l-78 36l93 195l120 -48z" />
    <glyph glyph-name="Ecircumflexsmall" unicode="&#xf7ea;" horiz-adv-x="418" 
d="M395 0h-345v522h345v-122h-210v-75h181v-121h-181v-81h210v-123zM350 543l-131 99c-24 -16 -109 -83 -132 -98l-53 47l141 157h91l138 -156z" />
    <glyph glyph-name="Edieresissmall" unicode="&#xf7eb;" horiz-adv-x="418" 
d="M395 0h-345v522h345v-122h-210v-75h181v-121h-181v-81h210v-123zM382 583h-134v130h134v-130zM185 583h-133v130h133v-130z" />
    <glyph glyph-name="Igravesmall" unicode="&#xf7ec;" horiz-adv-x="229" 
d="M183 0h-135v522h135v-522zM176 600l-77 -41l-141 181l121 50z" />
    <glyph glyph-name="Iacutesmall" unicode="&#xf7ed;" horiz-adv-x="229" 
d="M183 0h-135v522h135v-522zM135 559l-78 36l93 195l120 -48z" />
    <glyph glyph-name="Icircumflexsmall" unicode="&#xf7ee;" horiz-adv-x="229" 
d="M183 0h-135v522h135v-522zM245 543l-131 99c-24 -16 -109 -83 -132 -98l-53 47l141 157h91l138 -156z" />
    <glyph glyph-name="Idieresissmall" unicode="&#xf7ef;" horiz-adv-x="229" 
d="M183 0h-135v522h135v-522zM277 583h-134v130h134v-130zM80 583h-133v130h133v-130z" />
    <glyph glyph-name="Ethsmall" unicode="&#xf7f0;" horiz-adv-x="467" 
d="M51 522h195c89 0 148 -39 169 -114c11 -35 10 -84 10 -144c0 -65 0 -132 -15 -168c-29 -75 -98 -96 -174 -96h-185v216h-38v84h38v222zM291 188v146c0 32 -15 64 -58 64h-48v-98h67v-84h-67v-93h41c51 0 65 26 65 65z" />
    <glyph glyph-name="Ntildesmall" unicode="&#xf7f1;" horiz-adv-x="504" 
d="M317 268l5 2v252h133v-522h-114c-27 47 -53 91 -80 136c-24 40 -48 84 -75 125h-2v-261h-135v522h117l89 -147c21 -35 42 -74 62 -107zM182 725c48 0 89 -42 118 -42c21 0 35 10 62 43c23 -12 44 -25 67 -38c-35 -76 -71 -104 -114 -104c-50 0 -92 41 -126 41
c-20 0 -39 -9 -66 -44l-65 40c32 72 75 104 124 104z" />
    <glyph glyph-name="Ogravesmall" unicode="&#xf7f2;" horiz-adv-x="453" 
d="M282 182v154c0 41 -22 66 -57 66c-32 0 -54 -25 -54 -66v-154c0 -31 11 -64 54 -64c35 0 57 28 57 64zM418 340v-159c0 -120 -71 -186 -192 -186c-125 0 -190 75 -190 186v159c0 113 66 186 190 186s192 -69 192 -186zM287 600l-77 -41l-141 181l121 50z" />
    <glyph glyph-name="Oacutesmall" unicode="&#xf7f3;" horiz-adv-x="453" 
d="M282 182v154c0 41 -22 66 -57 66c-32 0 -54 -25 -54 -66v-154c0 -31 11 -64 54 -64c35 0 57 28 57 64zM418 340v-159c0 -120 -71 -186 -192 -186c-125 0 -190 75 -190 186v159c0 113 66 186 190 186s192 -69 192 -186zM251 559l-78 36l93 195l120 -48z" />
    <glyph glyph-name="Ocircumflexsmall" unicode="&#xf7f4;" horiz-adv-x="453" 
d="M282 182v154c0 41 -22 66 -57 66c-32 0 -54 -25 -54 -66v-154c0 -31 11 -64 54 -64c35 0 57 28 57 64zM418 340v-159c0 -120 -71 -186 -192 -186c-125 0 -190 75 -190 186v159c0 113 66 186 190 186s192 -69 192 -186zM355 543l-131 99c-24 -16 -109 -83 -132 -98l-53 47
l141 157h91l138 -156z" />
    <glyph glyph-name="Otildesmall" unicode="&#xf7f5;" horiz-adv-x="453" 
d="M418 340v-159c0 -120 -71 -186 -192 -186c-125 0 -190 75 -190 186v159c0 113 66 186 190 186s192 -69 192 -186zM162 725c48 0 89 -42 118 -42c21 0 35 10 62 43c23 -12 44 -25 67 -38c-35 -76 -71 -104 -114 -104c-50 0 -92 41 -126 41c-20 0 -39 -9 -66 -44l-65 40
c32 72 75 104 124 104zM282 182v154c0 41 -22 66 -57 66c-32 0 -54 -25 -54 -66v-154c0 -31 11 -64 54 -64c35 0 57 28 57 64z" />
    <glyph glyph-name="Odieresissmall" unicode="&#xf7f6;" horiz-adv-x="453" 
d="M282 182v154c0 41 -22 66 -57 66c-32 0 -54 -25 -54 -66v-154c0 -31 11 -64 54 -64c35 0 57 28 57 64zM418 340v-159c0 -120 -71 -186 -192 -186c-125 0 -190 75 -190 186v159c0 113 66 186 190 186s192 -69 192 -186zM390 583h-134v130h134v-130zM193 583h-133v130h133
v-130z" />
    <glyph glyph-name="Oslashsmall" unicode="&#xf7f8;" horiz-adv-x="453" 
d="M65 -10l-36 28l36 51c-19 31 -29 68 -29 112v159c0 113 66 186 190 186c55 0 100 -14 133 -42l35 49l39 -30l-41 -57c17 -29 26 -65 26 -106v-159c0 -120 -71 -186 -192 -186c-54 0 -97 13 -129 39zM171 336v-118l106 149c-9 23 -27 35 -52 35c-32 0 -54 -25 -54 -66z
M282 182v110l-105 -146c8 -16 21 -28 48 -28c35 0 57 28 57 64z" />
    <glyph glyph-name="Ugravesmall" unicode="&#xf7f9;" horiz-adv-x="466" 
d="M288 522h136v-351c0 -109 -78 -175 -191 -175c-112 0 -190 66 -190 178v348h135v-342c0 -39 24 -59 55 -59s55 17 55 56v345zM301 600l-77 -41l-141 181l121 50z" />
    <glyph glyph-name="Uacutesmall" unicode="&#xf7fa;" horiz-adv-x="466" 
d="M288 522h136v-351c0 -109 -78 -175 -191 -175c-112 0 -190 66 -190 178v348h135v-342c0 -39 24 -59 55 -59s55 17 55 56v345zM253 559l-78 36l93 195l120 -48z" />
    <glyph glyph-name="Ucircumflexsmall" unicode="&#xf7fb;" horiz-adv-x="466" 
d="M288 522h136v-351c0 -109 -78 -175 -191 -175c-112 0 -190 66 -190 178v348h135v-342c0 -39 24 -59 55 -59s55 17 55 56v345zM361 543l-131 99c-24 -16 -109 -83 -132 -98l-53 47l141 157h91l138 -156z" />
    <glyph glyph-name="Udieresissmall" unicode="&#xf7fc;" horiz-adv-x="466" 
d="M288 522h136v-351c0 -109 -78 -175 -191 -175c-112 0 -190 66 -190 178v348h135v-342c0 -39 24 -59 55 -59s55 17 55 56v345zM398 583h-134v130h134v-130zM201 583h-133v130h133v-130z" />
    <glyph glyph-name="Yacutesmall" unicode="&#xf7fd;" horiz-adv-x="448" 
d="M222 333h6l31 89l37 100h143l-148 -318v-204h-134v204l-149 318h145l37 -98zM248 559l-78 36l93 195l120 -48z" />
    <glyph glyph-name="Thornsmall" unicode="&#xf7fe;" horiz-adv-x="462" 
d="M438 264c0 -104 -68 -171 -180 -171h-63v-93h-142v522h143v-89h52c119 0 190 -52 190 -169zM301 264c0 31 -19 47 -57 47h-49v-98h51c32 0 55 16 55 51z" />
    <glyph glyph-name="Amacronsmall" unicode="&#xe008;" horiz-adv-x="480" 
d="M474 0h-143c-8 35 -18 66 -29 101h-126l-29 -101h-143l168 522h134zM384 597h-292v114h292v-114zM241 357h-4l-21 -87l-12 -50h69l-12 50z" />
    <glyph glyph-name="Abrevesmall" unicode="&#xe002;" horiz-adv-x="480" 
d="M474 0h-143c-8 35 -18 66 -29 101h-126l-29 -101h-143l168 522h134zM239 567c-119 0 -160 102 -163 169h103c0 -29 24 -72 60 -72c39 0 58 43 58 72h104c-5 -67 -47 -169 -162 -169zM241 357h-4l-21 -87l-12 -50h69l-12 50z" />
    <glyph glyph-name="Aogoneksmall" unicode="&#xe009;" horiz-adv-x="480" 
d="M287 -109c0 31 12 67 43 112c-8 33 -19 65 -28 98h-126l-29 -101h-143l168 522h134l168 -522h-64c-31 -45 -37 -78 -37 -95c0 -23 15 -35 38 -35c12 0 31 4 58 15l25 -64c-32 -19 -70 -29 -103 -29c-60 0 -104 40 -104 99zM241 357h-4l-21 -87l-12 -50h69l-12 50z" />
    <glyph glyph-name="Cacutesmall" unicode="&#xe01a;" horiz-adv-x="435" 
d="M225 526c113 0 168 -61 186 -148l-124 -43c-4 39 -25 65 -58 65c-45 0 -57 -36 -57 -64v-160c0 -27 17 -56 54 -56c32 0 54 23 59 66l130 -33c-16 -97 -85 -158 -189 -158c-128 0 -188 72 -188 185v152c0 109 57 194 187 194zM225 559l-78 36l93 195l120 -48z" />
    <glyph glyph-name="Ccircumflexsmall" unicode="&#xe01e;" horiz-adv-x="435" 
d="M225 526c113 0 168 -61 186 -148l-124 -43c-4 39 -25 65 -58 65c-45 0 -57 -36 -57 -64v-160c0 -27 17 -56 54 -56c32 0 54 23 59 66l130 -33c-16 -97 -85 -158 -189 -158c-128 0 -188 72 -188 185v152c0 109 57 194 187 194zM356 543l-131 99c-24 -16 -109 -83 -132 -98
l-53 47l141 157h91l138 -156z" />
    <glyph glyph-name="Cdotaccentsmall" unicode="&#xe01f;" horiz-adv-x="435" 
d="M225 526c113 0 168 -61 186 -148l-124 -43c-4 39 -25 65 -58 65c-45 0 -57 -36 -57 -64v-160c0 -27 17 -56 54 -56c32 0 54 23 59 66l130 -33c-16 -97 -85 -158 -189 -158c-128 0 -188 72 -188 185v152c0 109 57 194 187 194zM284 583h-133v130h133v-130z" />
    <glyph glyph-name="Ccaronsmall" unicode="&#xe01d;" horiz-adv-x="435" 
d="M225 526c113 0 168 -61 186 -148l-124 -43c-4 39 -25 65 -58 65c-45 0 -57 -36 -57 -64v-160c0 -27 17 -56 54 -56c32 0 54 23 59 66l130 -33c-16 -97 -85 -158 -189 -158c-128 0 -188 72 -188 185v152c0 109 57 194 187 194zM222 649l131 99l54 -48l-138 -157h-91
l-141 157l53 48c23 -16 108 -83 132 -99z" />
    <glyph glyph-name="Dcaronsmall" unicode="&#xe02d;" horiz-adv-x="467" 
d="M51 522h195c89 0 148 -39 169 -114c11 -35 10 -84 10 -144c0 -65 0 -132 -15 -168c-29 -75 -98 -96 -174 -96h-185v522zM291 188v146c0 32 -15 64 -58 64h-48v-275h41c51 0 65 26 65 65zM226 649l131 99l54 -48l-138 -157h-91l-141 157l53 48c23 -16 108 -83 132 -99z
" />
    <glyph glyph-name="Dcroatsmall" unicode="&#xe02e;" horiz-adv-x="467" 
d="M51 522h195c89 0 148 -39 169 -114c11 -35 10 -84 10 -144c0 -65 0 -132 -15 -168c-29 -75 -98 -96 -174 -96h-185v216h-43v84h43v222zM291 188v146c0 32 -15 64 -58 64h-48v-98h67v-84h-67v-93h41c51 0 65 26 65 65z" />
    <glyph glyph-name="Emacronsmall" unicode="&#xe039;" horiz-adv-x="418" 
d="M395 0h-345v522h345v-122h-210v-75h181v-121h-181v-81h210v-123zM367 597h-292v114h292v-114z" />
    <glyph glyph-name="Ebrevesmall" unicode="&#xe033;" horiz-adv-x="418" 
d="M395 0h-345v522h345v-122h-210v-75h181v-121h-181v-81h210v-123zM219 567c-119 0 -160 102 -163 169h103c0 -29 24 -72 60 -72c39 0 58 43 58 72h104c-5 -67 -47 -169 -162 -169z" />
    <glyph glyph-name="Edotaccentsmall" unicode="&#xe035;" horiz-adv-x="418" 
d="M395 0h-345v522h345v-122h-210v-75h181v-121h-181v-81h210v-123zM290 583h-133v130h133v-130z" />
    <glyph glyph-name="Eogoneksmall" unicode="&#xe03d;" horiz-adv-x="418" 
d="M267 -111c0 29 13 66 42 111h-259v522h345v-122h-210v-75h181v-121h-181v-81h210v-123h-3c-32 -47 -39 -78 -39 -97c0 -23 15 -35 38 -35c12 0 31 4 58 15l25 -64c-32 -19 -70 -29 -103 -29c-60 0 -104 40 -104 99z" />
    <glyph glyph-name="Ecaronsmall" unicode="&#xe034;" horiz-adv-x="418" 
d="M395 0h-345v522h345v-122h-210v-75h181v-121h-181v-81h210v-123zM223 649l131 99l54 -48l-138 -157h-91l-141 157l53 48c23 -16 108 -83 132 -99z" />
    <glyph glyph-name="Gcircumflexsmall" unicode="&#xe04c;" horiz-adv-x="456" 
d="M232 401c-48 0 -56 -45 -56 -78v-124c0 -33 6 -78 54 -78c39 0 56 31 59 66h-60v109h193v-100c0 -116 -61 -200 -189 -200c-144 0 -191 96 -191 195v146c0 108 60 190 188 190c115 0 166 -65 185 -153c-41 -12 -82 -26 -123 -38c-5 39 -27 65 -60 65zM358 543l-131 99
c-24 -16 -109 -83 -132 -98l-53 47l141 157h91l138 -156z" />
    <glyph glyph-name="Gbrevesmall" unicode="&#xe04b;" horiz-adv-x="456" 
d="M232 401c-48 0 -56 -45 -56 -78v-124c0 -33 6 -78 54 -78c39 0 56 31 59 66h-60v109h193v-100c0 -116 -61 -200 -189 -200c-144 0 -191 96 -191 195v146c0 108 60 190 188 190c115 0 166 -65 185 -153c-41 -12 -82 -26 -123 -38c-5 39 -27 65 -60 65zM230 567
c-119 0 -160 102 -163 169h103c0 -29 24 -72 60 -72c39 0 58 43 58 72h104c-5 -67 -47 -169 -162 -169z" />
    <glyph glyph-name="Gdotaccentsmall" unicode="&#xe04e;" horiz-adv-x="456" 
d="M232 401c-48 0 -56 -45 -56 -78v-124c0 -33 6 -78 54 -78c39 0 56 31 59 66h-60v109h193v-100c0 -116 -61 -200 -189 -200c-144 0 -191 96 -191 195v146c0 108 60 190 188 190c115 0 166 -65 185 -153c-41 -12 -82 -26 -123 -38c-5 39 -27 65 -60 65zM296 583h-133v130
h133v-130z" />
    <glyph glyph-name="Gcommaaccentsmall" unicode="&#xe04d;" horiz-adv-x="456" 
d="M232 401c-48 0 -56 -45 -56 -78v-124c0 -33 6 -78 54 -78c39 0 56 31 59 66h-60v109h193v-100c0 -116 -61 -200 -189 -200c-144 0 -191 96 -191 195v146c0 108 60 190 188 190c115 0 166 -65 185 -153c-41 -12 -82 -26 -123 -38c-5 39 -27 65 -60 65zM225 -295h-67
l32 108h-29v131h136v-126z" />
    <glyph glyph-name="Hcircumflexsmall" unicode="&#xe059;" horiz-adv-x="480" 
d="M429 0h-133v204h-110v-204h-135v522h135v-197h110v197h133v-522zM369 543l-131 99c-24 -16 -109 -83 -132 -98l-53 47l141 157h91l138 -156z" />
    <glyph glyph-name="Hbarsmall" unicode="&#xe058;" horiz-adv-x="480" 
d="M429 0h-133v204h-110v-204h-135v383h-41v67h41v72h135v-72h110v72h133v-72h35v-67h-35v-383zM186 325h110v58h-110v-58z" />
    <glyph glyph-name="Itildesmall" unicode="&#xe079;" horiz-adv-x="229" 
d="M183 0h-135v522h135v-522zM53 725c48 0 89 -42 118 -42c21 0 35 10 62 43c23 -12 44 -25 67 -38c-35 -76 -71 -104 -114 -104c-50 0 -92 41 -126 41c-20 0 -39 -9 -66 -44l-65 40c32 72 75 104 124 104z" />
    <glyph glyph-name="Imacronsmall" unicode="&#xe066;" horiz-adv-x="229" 
d="M183 0h-135v522h135v-522zM258 597h-292v114h292v-114z" />
    <glyph glyph-name="Ibrevesmall" unicode="&#xe062;" horiz-adv-x="229" 
d="M183 0h-135v522h135v-522zM113 567c-119 0 -160 102 -163 169h103c0 -29 24 -72 60 -72c39 0 58 43 58 72h104c-5 -67 -47 -169 -162 -169z" />
    <glyph glyph-name="Iogoneksmall" unicode="&#xe06b;" horiz-adv-x="229" 
d="M30 -109c0 29 12 65 41 109h-23v522h135v-522h-30c-31 -45 -37 -78 -37 -95c0 -23 15 -35 38 -35c12 0 31 4 58 15l25 -64c-32 -19 -70 -29 -103 -29c-60 0 -104 40 -104 99z" />
    <glyph glyph-name="Idotaccentsmall" unicode="&#xe065;" horiz-adv-x="229" 
d="M183 0h-135v522h135v-522zM183 583h-133v130h133v-130z" />
    <glyph glyph-name="IJsmall" unicode="&#xe061;" horiz-adv-x="608" 
d="M183 0h-135v522h135v-522zM559 522v-356c0 -110 -77 -170 -164 -170c-60 0 -122 10 -173 79l91 90c23 -25 40 -40 63 -40c28 0 50 14 50 53v344h133z" />
    <glyph glyph-name="Jcircumflexsmall" unicode="&#xe07c;" horiz-adv-x="376" 
d="M335 522v-356c0 -110 -77 -170 -164 -170c-60 0 -122 10 -173 79l91 90c23 -25 40 -40 63 -40c28 0 50 14 50 53v344h133zM398 543l-131 99c-24 -16 -109 -83 -132 -98l-53 47l141 157h91l138 -156z" />
    <glyph glyph-name="Kcommaaccentsmall" unicode="&#xe081;" horiz-adv-x="483" 
d="M187 341l38 54l93 127h158l-167 -219l176 -303h-155l-107 199c-12 -16 -25 -32 -37 -49v-150h-135v522h136v-181zM253 -295h-67l32 108h-29v131h136v-126z" />
    <glyph glyph-name="Lacutesmall" unicode="&#xe086;" horiz-adv-x="409" 
d="M395 0h-345v522h135v-399h210v-123zM147 549l-78 36l93 195l120 -48z" />
    <glyph glyph-name="Lcommaaccentsmall" unicode="&#xe08b;" horiz-adv-x="409" 
d="M395 0h-345v522h135v-399h210v-123zM217 -295h-67l32 108h-29v131h136v-126z" />
    <glyph glyph-name="Lcaronsmall" unicode="&#xe08a;" horiz-adv-x="409" 
d="M395 0h-345v522h135v-399h210v-123zM328 284h-67l32 108h-29v131h136v-126z" />
    <glyph glyph-name="Ldotsmall" unicode="&#xe08c;" horiz-adv-x="409" 
d="M395 0h-345v522h135v-399h210v-123zM385 221h-133v130h133v-130z" />
    <glyph glyph-name="Lslashsmall" unicode="&#xf6f9;" horiz-adv-x="409" 
d="M395 0h-345v149l-30 -19l-40 62l70 46v284h135v-196l63 42l41 -62l-104 -68v-115h210v-123z" />
    <glyph glyph-name="Nacutesmall" unicode="&#xe09a;" horiz-adv-x="504" 
d="M317 268l5 2v252h133v-522h-114c-27 47 -53 91 -80 136c-24 40 -48 84 -75 125h-2v-261h-135v522h117l89 -147c21 -35 42 -74 62 -107zM268 559l-78 36l93 195l120 -48z" />
    <glyph glyph-name="Ncommaaccentsmall" unicode="&#xe09c;" horiz-adv-x="504" 
d="M317 268l5 2v252h133v-522h-114c-27 47 -53 91 -80 136c-24 40 -48 84 -75 125h-2v-261h-135v522h117l89 -147c21 -35 42 -74 62 -107zM257 -295h-67l32 108h-29v131h136v-126z" />
    <glyph glyph-name="Ncaronsmall" unicode="&#xe09b;" horiz-adv-x="504" 
d="M317 268l5 2v252h133v-522h-114c-27 47 -53 91 -80 136c-24 40 -48 84 -75 125h-2v-261h-135v522h117l89 -147c21 -35 42 -74 62 -107zM247 649l131 99l54 -48l-138 -157h-91l-141 157l53 48c23 -16 108 -83 132 -99z" />
    <glyph glyph-name="Engsmall" unicode="&#xe03c;" horiz-adv-x="504" 
d="M317 268l5 2v252h133v-576c0 -100 -63 -131 -132 -131c-25 0 -50 4 -76 11l11 113c31 0 58 -1 58 27v78l-55 92c-24 40 -48 84 -75 125h-2v-261h-135v522h117l89 -147c21 -35 42 -74 62 -107z" />
    <glyph glyph-name="Omacronsmall" unicode="&#xe0a9;" horiz-adv-x="453" 
d="M282 182v154c0 41 -22 66 -57 66c-32 0 -54 -25 -54 -66v-154c0 -31 11 -64 54 -64c35 0 57 28 57 64zM418 340v-159c0 -120 -71 -186 -192 -186c-125 0 -190 75 -190 186v159c0 113 66 186 190 186s192 -69 192 -186zM370 597h-292v114h292v-114z" />
    <glyph glyph-name="Obrevesmall" unicode="&#xe0a6;" horiz-adv-x="453" 
d="M282 182v154c0 41 -22 66 -57 66c-32 0 -54 -25 -54 -66v-154c0 -31 11 -64 54 -64c35 0 57 28 57 64zM418 340v-159c0 -120 -71 -186 -192 -186c-125 0 -190 75 -190 186v159c0 113 66 186 190 186s192 -69 192 -186zM224 567c-119 0 -160 102 -163 169h103
c0 -29 24 -72 60 -72c39 0 58 43 58 72h104c-5 -67 -47 -169 -162 -169z" />
    <glyph glyph-name="Ohungarumlautsmall" unicode="&#xe0a8;" horiz-adv-x="453" 
d="M282 182v154c0 41 -22 66 -57 66c-32 0 -54 -25 -54 -66v-154c0 -31 11 -64 54 -64c35 0 57 28 57 64zM418 340v-159c0 -120 -71 -186 -192 -186c-125 0 -190 75 -190 186v159c0 113 66 186 190 186s192 -69 192 -186zM153 573l-78 36l93 195l120 -48zM311 559l-78 36
l93 195l120 -48z" />
    <glyph glyph-name="Racutesmall" unicode="&#xe0c1;" horiz-adv-x="469" 
d="M437 0h-139l-71 190h-33v-190h-134v522h193c100 0 176 -51 176 -163c0 -64 -30 -116 -79 -145zM298 357c0 28 -17 45 -52 45h-52v-93h52c32 0 52 17 52 48zM242 559l-78 36l93 195l120 -48z" />
    <glyph glyph-name="Rcommaaccentsmall" unicode="&#xe0c3;" horiz-adv-x="469" 
d="M437 0h-139l-71 190h-33v-190h-134v522h193c100 0 176 -51 176 -163c0 -64 -30 -116 -79 -145zM298 357c0 28 -17 45 -52 45h-52v-93h52c32 0 52 17 52 48zM242 -295h-67l32 108h-29v131h136v-126z" />
    <glyph glyph-name="Rcaronsmall" unicode="&#xe0c2;" horiz-adv-x="469" 
d="M437 0h-139l-71 190h-33v-190h-134v522h193c100 0 176 -51 176 -163c0 -64 -30 -116 -79 -145zM298 357c0 28 -17 45 -52 45h-52v-93h52c32 0 52 17 52 48zM224 649l131 99l54 -48l-138 -157h-91l-141 157l53 48c23 -16 108 -83 132 -99z" />
    <glyph glyph-name="Sacutesmall" unicode="&#xe0cb;" horiz-adv-x="448" 
d="M421 160c0 -93 -68 -164 -195 -164c-100 0 -153 35 -198 91l89 86c29 -36 71 -54 111 -54c43 0 55 15 55 36c0 27 -34 38 -87 51c-100 25 -152 74 -152 161c0 97 70 159 182 159c97 0 157 -41 181 -84l-90 -78c-31 31 -60 40 -87 40c-29 0 -51 -12 -51 -32s42 -35 93 -50
c115 -32 149 -85 149 -162zM240 559l-78 36l93 195l120 -48z" />
    <glyph glyph-name="Scircumflexsmall" unicode="&#xe0cf;" horiz-adv-x="448" 
d="M421 160c0 -93 -68 -164 -195 -164c-100 0 -153 35 -198 91l89 86c29 -36 71 -54 111 -54c43 0 55 15 55 36c0 27 -34 38 -87 51c-100 25 -152 74 -152 161c0 97 70 159 182 159c97 0 157 -41 181 -84l-90 -78c-31 31 -60 40 -87 40c-29 0 -51 -12 -51 -32s42 -35 93 -50
c115 -32 149 -85 149 -162zM357 543l-131 99c-24 -16 -109 -83 -132 -98l-53 47l141 157h91l138 -156z" />
    <glyph glyph-name="Scedillasmall" unicode="&#xe0ce;" horiz-adv-x="448" 
d="M421 160c0 -91 -61 -156 -177 -163l-11 -33c71 -8 93 -54 93 -89c0 -49 -33 -90 -109 -90c-36 1 -74 4 -107 23l23 61c31 -15 48 -17 67 -17c20 0 36 13 36 30c0 19 -13 27 -29 27c-5 0 -10 -1 -14 -3c-12 8 -24 14 -36 22l22 71c-72 9 -114 41 -151 88l89 86
c29 -36 71 -54 111 -54c43 0 55 15 55 36c0 27 -34 38 -87 51c-100 25 -152 74 -152 161c0 97 70 159 182 159c97 0 157 -41 181 -84l-90 -78c-31 31 -60 40 -87 40c-29 0 -51 -12 -51 -32s42 -35 93 -50c115 -32 149 -85 149 -162z" />
    <glyph glyph-name="Tcommaaccentsmall" unicode="&#xe0e7;" horiz-adv-x="396" 
d="M383 402h-120v-402h-134v402h-120v120h374v-120zM192 -295h-67l32 108h-29v131h136v-126z" />
    <glyph glyph-name="Tcaronsmall" unicode="&#xe0e6;" horiz-adv-x="396" 
d="M383 402h-120v-402h-134v402h-120v120h374v-120zM193 649l131 99l54 -48l-138 -157h-91l-141 157l53 48c23 -16 108 -83 132 -99z" />
    <glyph glyph-name="Tbarsmall" unicode="&#xe0e5;" horiz-adv-x="396" 
d="M383 402h-120v-90h102v-87h-102v-225h-134v225h-94v87h94v90h-120v120h374v-120z" />
    <glyph glyph-name="Utildesmall" unicode="&#xe0fa;" horiz-adv-x="466" 
d="M288 522h136v-351c0 -109 -78 -175 -191 -175c-112 0 -190 66 -190 178v348h135v-342c0 -39 24 -59 55 -59s55 17 55 56v345zM170 725c48 0 89 -42 118 -42c21 0 35 10 62 43c23 -12 44 -25 67 -38c-35 -76 -71 -104 -114 -104c-50 0 -92 41 -126 41
c-20 0 -39 -9 -66 -44l-65 40c32 72 75 104 124 104z" />
    <glyph glyph-name="Umacronsmall" unicode="&#xe0f1;" horiz-adv-x="466" 
d="M288 522h136v-351c0 -109 -78 -175 -191 -175c-112 0 -190 66 -190 178v348h135v-342c0 -39 24 -59 55 -59s55 17 55 56v345zM378 597h-292v114h292v-114z" />
    <glyph glyph-name="Ubrevesmall" unicode="&#xe0ed;" horiz-adv-x="466" 
d="M288 522h136v-351c0 -109 -78 -175 -191 -175c-112 0 -190 66 -190 178v348h135v-342c0 -39 24 -59 55 -59s55 17 55 56v345zM234 567c-119 0 -160 102 -163 169h103c0 -29 24 -72 60 -72c39 0 58 43 58 72h104c-5 -67 -47 -169 -162 -169z" />
    <glyph glyph-name="Uringsmall" unicode="&#xe0f9;" horiz-adv-x="466" 
d="M288 522h136v-351c0 -109 -78 -175 -191 -175c-112 0 -190 66 -190 178v348h135v-342c0 -39 24 -59 55 -59s55 17 55 56v345zM271 656c0 19 -16 34 -35 34c-20 0 -36 -15 -36 -34s16 -34 36 -34c19 0 35 15 35 34zM123 657c0 60 50 109 113 109c64 0 112 -49 112 -109
s-49 -109 -113 -109c-61 0 -112 49 -112 109z" />
    <glyph glyph-name="Uhungarumlautsmall" unicode="&#xe0ee;" horiz-adv-x="466" 
d="M288 522h136v-351c0 -109 -78 -175 -191 -175c-112 0 -190 66 -190 178v348h135v-342c0 -39 24 -59 55 -59s55 17 55 56v345zM153 573l-78 36l93 195l120 -48zM311 559l-78 36l93 195l120 -48z" />
    <glyph glyph-name="Uogoneksmall" unicode="&#xe0f6;" horiz-adv-x="466" 
d="M152 -109c0 29 12 64 40 108c-91 15 -149 76 -149 175v348h135v-342c0 -39 24 -59 55 -59s55 17 55 56v345h136v-351c0 -96 -58 -156 -149 -171c-31 -47 -37 -78 -37 -95c0 -23 15 -35 38 -35c12 0 31 4 58 15l25 -64c-32 -19 -70 -29 -103 -29c-60 0 -104 40 -104 99z
" />
    <glyph glyph-name="Wcircumflexsmall" unicode="&#xe100;" horiz-adv-x="642" 
d="M324 268h-4l-31 -123l-38 -145h-117l-126 523h147l31 -179l17 -109l4 1l23 108l42 179h101l43 -189l24 -98h3l15 105l29 182h148l-125 -523h-117l-42 151zM451 543l-131 99c-24 -16 -109 -83 -132 -98l-53 47l141 157h91l138 -156z" />
    <glyph glyph-name="Ycircumflexsmall" unicode="&#xe104;" horiz-adv-x="448" 
d="M222 333h6l31 89l37 100h143l-148 -318v-204h-134v204l-149 318h145l37 -98zM353 543l-131 99c-24 -16 -109 -83 -132 -98l-53 47l141 157h91l138 -156z" />
    <glyph glyph-name="Zacutesmall" unicode="&#xe10a;" horiz-adv-x="390" 
d="M367 0h-343v109l178 293h-172v120h337v-105l-179 -294h179v-123zM217 559l-78 36l93 195l120 -48z" />
    <glyph glyph-name="Zdotaccentsmall" unicode="&#xe10b;" horiz-adv-x="390" 
d="M367 0h-343v109l178 293h-172v120h337v-105l-179 -294h179v-123zM266 583h-133v130h133v-130z" />
    <glyph glyph-name="AEacutesmall" unicode="&#xe001;" horiz-adv-x="768" 
d="M728 0h-364v107h-134c-16 -35 -34 -72 -51 -107h-161c89 175 178 347 266 522h444v-123h-222v-74h191v-122h-191v-78h222v-125zM502 559l-78 36l93 195l120 -48zM364 392h-4l-74 -164h78v164z" />
    <glyph glyph-name="Oslashacutesmall" unicode="&#xe0af;" horiz-adv-x="453" 
d="M65 -10l-36 28l36 51c-19 31 -29 68 -29 112v159c0 113 66 186 190 186c55 0 100 -14 133 -42l35 49l39 -30l-41 -57c17 -29 26 -65 26 -106v-159c0 -120 -71 -186 -192 -186c-54 0 -97 13 -129 39zM249 558l-78 36l93 195l120 -48zM171 336v-118l106 149
c-9 23 -27 35 -52 35c-32 0 -54 -25 -54 -66zM282 182v110l-105 -146c8 -16 21 -28 48 -28c35 0 57 28 57 64z" />
    <glyph glyph-name="exclamdownsmall" unicode="&#xf7a1;" horiz-adv-x="257" 
d="M60 -24l9 363h119l9 -363h-137zM60 499h136v-123h-136v123z" />
    <glyph glyph-name="questiondownsmall" unicode="&#xf7bf;" horiz-adv-x="421" 
d="M44 124c0 106 105 138 105 202v21h138v-34c0 -43 -16 -72 -51 -112c-31 -40 -39 -53 -39 -77c0 -13 9 -27 34 -27c23 0 43 16 44 59l135 -14c-9 -108 -83 -168 -186 -168c-119 0 -180 58 -180 150zM150 500h135v-122h-135v122z" />
    <glyph glyph-name="Scommaaccentsmall" unicode="&#xe0d0;" horiz-adv-x="448" 
d="M421 160c0 -93 -68 -164 -195 -164c-100 0 -153 35 -198 91l89 86c29 -36 71 -54 111 -54c43 0 55 15 55 36c0 27 -34 38 -87 51c-100 25 -152 74 -152 161c0 97 70 159 182 159c97 0 157 -41 181 -84l-90 -78c-31 31 -60 40 -87 40c-29 0 -51 -12 -51 -32s42 -35 93 -50
c115 -32 149 -85 149 -162zM217 -295h-67l32 108h-29v131h136v-126z" />
    <glyph glyph-name="Wacutesmall" unicode="&#xe0ff;" horiz-adv-x="642" 
d="M324 268h-4l-31 -123l-38 -145h-117l-126 523h147l31 -179l17 -109l4 1l23 108l42 179h101l43 -189l24 -98h3l15 105l29 182h148l-125 -523h-117l-42 151zM349 549l-78 36l93 195l120 -48z" />
    <glyph glyph-name="Wgravesmall" unicode="&#xe102;" horiz-adv-x="642" 
d="M324 268h-4l-31 -123l-38 -145h-117l-126 523h147l31 -179l17 -109l4 1l23 108l42 179h101l43 -189l24 -98h3l15 105l29 182h148l-125 -523h-117l-42 151zM393 590l-77 -41l-141 181l121 50z" />
    <glyph glyph-name="Wdieresissmall" unicode="&#xe101;" horiz-adv-x="642" 
d="M324 268h-4l-31 -123l-38 -145h-117l-126 523h147l31 -179l17 -109l4 1l23 108l42 179h101l43 -189l24 -98h3l15 105l29 182h148l-125 -523h-117l-42 151zM487 573h-134v130h134v-130zM290 573h-133v130h133v-130z" />
    <glyph glyph-name="Ygravesmall" unicode="&#xe107;" horiz-adv-x="448" 
d="M222 333h6l31 89l37 100h143l-148 -318v-204h-134v204l-149 318h145l37 -98zM302 590l-77 -41l-141 181l121 50z" />
    <glyph glyph-name="Alphasmall" unicode="&#xe006;" horiz-adv-x="480" 
d="M474 0h-143c-8 35 -18 66 -29 101h-126l-29 -101h-143l168 522h134zM241 357h-4l-21 -87l-12 -50h69l-12 50z" />
    <glyph glyph-name="Betasmall" unicode="&#xe00f;" horiz-adv-x="459" 
d="M287 365c0 24 -19 37 -44 37h-58v-78h62c23 0 40 18 40 41zM295 168c0 31 -21 45 -52 45h-58v-90h55c27 0 55 14 55 45zM50 522h196c113 0 173 -52 173 -148c0 -32 -27 -81 -56 -100c40 -21 63 -70 63 -110c0 -83 -52 -164 -172 -164h-204v522z" />
    <glyph glyph-name="Epsilonsmall" unicode="&#xe03e;" horiz-adv-x="418" 
d="M395 0h-345v522h345v-122h-210v-75h181v-121h-181v-81h210v-123z" />
    <glyph glyph-name="Zetasmall" unicode="&#xe10c;" horiz-adv-x="390" 
d="M367 0h-343v109l178 293h-172v120h337v-105l-179 -294h179v-123z" />
    <glyph glyph-name="Etasmall" unicode="&#xe043;" horiz-adv-x="480" 
d="M429 0h-133v204h-110v-204h-135v522h135v-197h110v197h133v-522z" />
    <glyph glyph-name="Iotasmall" unicode="&#xe06d;" horiz-adv-x="229" 
d="M183 0h-135v522h135v-522z" />
    <glyph glyph-name="Kappasmall" unicode="&#xe080;" horiz-adv-x="483" 
d="M187 341l38 54l93 127h158l-167 -219l176 -303h-155l-107 199c-12 -16 -25 -32 -37 -49v-150h-135v522h136v-181z" />
    <glyph glyph-name="Musmall" unicode="&#xe098;" horiz-adv-x="580" 
d="M290 258h4l61 142l55 122h122v-522h-134v235h-3l-31 -82l-26 -62h-92l-24 59l-33 86l-4 -1v-235h-135v522h121l58 -127z" />
    <glyph glyph-name="Nusmall" unicode="&#xe0a4;" horiz-adv-x="504" 
d="M317 268l5 2v252h133v-522h-114c-27 47 -53 91 -80 136c-24 40 -48 84 -75 125h-2v-261h-135v522h117l89 -147c21 -35 42 -74 62 -107z" />
    <glyph glyph-name="Omicronsmall" unicode="&#xe0ad;" horiz-adv-x="453" 
d="M282 182v154c0 41 -22 66 -57 66c-32 0 -54 -25 -54 -66v-154c0 -31 11 -64 54 -64c35 0 57 28 57 64zM418 340v-159c0 -120 -71 -186 -192 -186c-125 0 -190 75 -190 186v159c0 113 66 186 190 186s192 -69 192 -186z" />
    <glyph glyph-name="Rhosmall" unicode="&#xe0c5;" horiz-adv-x="442" 
d="M421 349c0 -103 -73 -173 -178 -173h-57v-176h-135v522h186c113 0 184 -54 184 -173zM290 350c0 33 -19 50 -56 50h-48v-104h48c31 0 56 18 56 54z" />
    <glyph glyph-name="Tausmall" unicode="&#xe0e4;" horiz-adv-x="396" 
d="M383 402h-120v-402h-134v402h-120v120h374v-120z" />
    <glyph glyph-name="Upsilonsmall" unicode="&#xe0f8;" horiz-adv-x="448" 
d="M222 333h6l31 89l37 100h143l-148 -318v-204h-134v204l-149 318h145l37 -98z" />
    <glyph glyph-name="Chismall" unicode="&#xe022;" horiz-adv-x="463" 
d="M230 156l-77 -156h-154c52 91 106 179 158 270l-148 252h156c21 -48 44 -95 65 -143l66 143h156l-151 -252l161 -270h-156l-75 156h-1z" />
    <glyph glyph-name="Alphatonossmall" unicode="&#xe007;" horiz-adv-x="480" 
d="M474 0h-143c-8 35 -18 66 -29 101h-126l-29 -101h-143l168 522h134zM273 559l-78 36l93 195l120 -48zM241 357h-4l-21 -87l-12 -50h69l-12 50z" />
    <glyph glyph-name="Epsilontonossmall" unicode="&#xe03f;" horiz-adv-x="440" 
d="M416 0h-363v522h363v-122h-221v-75h190v-121h-190v-81h221v-123zM230 559l-77 36l92 195l121 -48z" />
    <glyph glyph-name="Etatonossmall" unicode="&#xe044;" horiz-adv-x="480" 
d="M429 0h-133v204h-110v-204h-135v522h135v-197h110v197h133v-522zM261 559l-78 36l93 195l120 -48z" />
    <glyph glyph-name="Iotatonossmall" unicode="&#xe06e;" horiz-adv-x="229" 
d="M183 0h-135v522h135v-522zM134 559l-78 36l93 195l120 -48z" />
    <glyph glyph-name="Omicrontonossmall" unicode="&#xe0ae;" horiz-adv-x="453" 
d="M282 182v154c0 41 -22 66 -57 66c-32 0 -54 -25 -54 -66v-154c0 -31 11 -64 54 -64c35 0 57 28 57 64zM418 340v-159c0 -120 -71 -186 -192 -186c-125 0 -190 75 -190 186v159c0 113 66 186 190 186s192 -69 192 -186zM260 559l-78 36l93 195l120 -48z" />
    <glyph glyph-name="Ypsilontonossmall" unicode="&#xe109;" horiz-adv-x="448" 
d="M222 333h6l31 89l37 100h143l-148 -318v-204h-134v204l-149 318h145l37 -98zM246 559l-78 36l93 195l120 -48z" />
    <glyph glyph-name="Omegatonossmall" unicode="&#xe0ab;" horiz-adv-x="463" 
d="M248 559l-78 36l93 195l120 -48zM420 340v-140c0 -31 -10 -63 -25 -82c0 -1 0 -1 1 -1h37v-117h-189v120c36 17 40 44 40 77v128c0 32 -6 77 -55 77c-51 0 -56 -45 -56 -77v-129c0 -27 -1 -71 40 -76v-120h-185v117h34l1 1c-24 24 -25 69 -25 101v120
c0 115 64 187 191 187c119 0 191 -66 191 -186z" />
    <glyph glyph-name="Iotadieresissmall" unicode="&#xe06c;" horiz-adv-x="229" 
d="M183 0h-135v522h135v-522zM282 583h-134v130h134v-130zM85 583h-133v130h133v-130z" />
    <glyph glyph-name="Ypsilondieresissmall" unicode="&#xe108;" horiz-adv-x="448" 
d="M222 333h6l31 89l37 100h143l-148 -318v-204h-134v204l-149 318h145l37 -98zM388 583h-134v130h134v-130zM191 583h-133v130h133v-130z" />
    <glyph glyph-name="slashedzero" unicode="&#xe1de;" horiz-adv-x="490" 
d="M443 516v-337c0 -116 -88 -184 -191 -184c-104 0 -192 68 -192 184v337c0 117 89 185 192 185c105 0 191 -68 191 -185zM200 516v-225l103 218v7c0 35 -22 52 -51 52c-31 0 -52 -17 -52 -52zM303 180v215l-103 -217c1 -33 21 -50 52 -50c29 0 51 17 51 52z" />
    <glyph glyph-name="zero.numerator" unicode="&#xe208;" horiz-adv-x="313" 
d="M287 587v-196c0 -71 -61 -114 -130 -114s-129 43 -129 114v196c0 72 61 114 129 114c71 0 130 -42 130 -114zM184 394v190c0 16 -9 27 -28 27c-17 0 -27 -11 -27 -27v-190c0 -15 11 -26 28 -26c16 0 27 11 27 26z" />
    <glyph glyph-name="one.numerator" unicode="&#xe1a1;" horiz-adv-x="255" 
d="M198 279h-104v304l-61 -42v105l76 50h89v-417z" />
    <glyph glyph-name="two.numerator" unicode="&#xe1f6;" horiz-adv-x="312" 
d="M121 560l-101 13c8 83 66 128 135 128c83 0 132 -41 132 -114c0 -33 -12 -61 -33 -90l-94 -126h122v-92h-258v81l146 187c8 11 12 23 12 36c0 15 -8 27 -27 27c-16 0 -31 -13 -34 -50z" />
    <glyph glyph-name="three.numerator" unicode="&#xe1e9;" horiz-adv-x="313" 
d="M160 701c95 0 131 -56 131 -124c0 -27 -11 -66 -44 -82c37 -13 46 -50 46 -87c0 -77 -44 -132 -136 -132c-63 0 -125 37 -133 118l99 12c3 -31 20 -37 32 -37c32 0 32 28 32 45c0 23 -5 42 -33 42h-37v78h33c29 0 36 18 36 42c0 13 -3 34 -30 34c-13 0 -29 -10 -32 -45
l-98 15c11 76 66 121 134 121z" />
    <glyph glyph-name="four.numerator" unicode="&#xe171;" horiz-adv-x="317" 
d="M301 336h-30v-57h-98v57h-160v74l123 286h105l-116 -273h48v79h98v-79h30v-87z" />
    <glyph glyph-name="five.numerator" unicode="&#xe164;" horiz-adv-x="315" 
d="M184 568c87 0 107 -53 107 -134c0 -95 -32 -159 -132 -159c-73 0 -124 33 -133 117c35 5 67 10 100 14c3 -33 17 -39 32 -39c32 0 30 36 30 67c0 20 -1 48 -30 48c-8 0 -20 -6 -31 -27h-89v241h243v-89h-145v-51c15 9 33 12 48 12z" />
    <glyph glyph-name="six.numerator" unicode="&#xe1da;" horiz-adv-x="312" 
d="M259 695l-80 -167c5 3 13 3 18 3c47 0 90 -33 90 -117c0 -88 -42 -137 -131 -137c-83 0 -126 35 -126 123c0 28 9 72 20 95l98 200h111zM160 456c-20 0 -30 -13 -30 -46s8 -46 27 -46c23 0 29 16 29 53c0 28 -9 39 -26 39z" />
    <glyph glyph-name="seven.numerator" unicode="&#xe1d1;" horiz-adv-x="298" 
d="M289 618l-140 -339h-107l131 327h-50v-46h-99v136h265v-78z" />
    <glyph glyph-name="eight.numerator" unicode="&#xe150;" horiz-adv-x="317" 
d="M287 579c0 -32 -8 -64 -39 -81c33 -19 43 -60 43 -93c0 -95 -63 -129 -134 -129s-131 34 -131 129c0 31 6 69 41 93c-29 19 -37 50 -37 81c0 72 44 122 127 122c80 0 130 -38 130 -122zM157 364c24 0 34 18 34 49c0 28 -11 42 -34 42c-21 0 -31 -16 -31 -43
c0 -35 10 -48 31 -48zM158 535c19 0 29 14 29 43c0 21 -9 35 -29 35c-19 0 -27 -14 -27 -37c0 -31 8 -41 27 -41z" />
    <glyph glyph-name="nine.numerator" unicode="&#xe192;" horiz-adv-x="314" 
d="M56 282l80 167c-5 -2 -11 -3 -18 -3c-47 0 -90 33 -90 117c0 87 41 137 129 137c76 0 128 -35 128 -123c0 -28 -9 -72 -20 -95l-98 -200h-111zM155 521c20 0 30 13 30 46s-8 46 -27 46c-23 0 -29 -16 -29 -53c0 -28 9 -39 26 -39z" />
    <glyph glyph-name="parenleft.numerator" unicode="&#xe1ae;" horiz-adv-x="218" 
d="M213 242l-60 -40c-68 76 -119 163 -119 262s50 185 114 257l66 -32c-52 -73 -80 -155 -80 -222c0 -73 30 -157 79 -225z" />
    <glyph glyph-name="parenright.numerator" unicode="&#xe1b0;" horiz-adv-x="218" 
d="M208 464c0 -99 -51 -186 -119 -262l-62 40c51 68 80 152 80 225c0 67 -27 149 -80 222l66 32c63 -68 115 -159 115 -257z" />
    <glyph glyph-name="comma.numerator" unicode="&#xe134;" horiz-adv-x="173" 
d="M89 192h-61l24 86h-20v106h111v-99z" />
    <glyph glyph-name="period.numerator" unicode="&#xe1b5;" horiz-adv-x="171" 
d="M141 279h-110v105h110v-105z" />
    <glyph glyph-name="zero.denominator" unicode="&#xe207;" horiz-adv-x="313" 
d="M287 307v-196c0 -71 -61 -114 -130 -114s-129 43 -129 114v196c0 72 61 114 129 114c71 0 130 -42 130 -114zM184 114v190c0 16 -9 27 -28 27c-17 0 -27 -11 -27 -27v-190c0 -15 11 -26 28 -26c16 0 27 11 27 26z" />
    <glyph glyph-name="one.denominator" unicode="&#xe19f;" horiz-adv-x="255" 
d="M198 -1h-104v304l-61 -42v105l76 50h89v-417z" />
    <glyph glyph-name="two.denominator" unicode="&#xe1f5;" horiz-adv-x="312" 
d="M121 280l-101 13c8 83 66 128 135 128c83 0 132 -41 132 -114c0 -33 -12 -61 -33 -90l-94 -126h122v-92h-258v81l146 187c8 11 12 23 12 36c0 15 -8 27 -27 27c-16 0 -31 -13 -34 -50z" />
    <glyph glyph-name="three.denominator" unicode="&#xe1e8;" horiz-adv-x="313" 
d="M160 421c95 0 131 -56 131 -124c0 -27 -11 -66 -44 -82c37 -13 46 -50 46 -87c0 -77 -44 -132 -136 -132c-63 0 -125 37 -133 118l99 12c3 -31 20 -37 32 -37c32 0 32 28 32 45c0 23 -5 42 -33 42h-37v78h33c29 0 36 18 36 42c0 13 -3 34 -30 34c-13 0 -29 -10 -32 -45
l-98 15c11 76 66 121 134 121z" />
    <glyph glyph-name="four.denominator" unicode="&#xe170;" horiz-adv-x="317" 
d="M301 56h-30v-57h-98v57h-160v74l123 286h105l-116 -273h48v79h98v-79h30v-87z" />
    <glyph glyph-name="five.denominator" unicode="&#xe163;" horiz-adv-x="315" 
d="M184 288c87 0 107 -53 107 -134c0 -95 -32 -159 -132 -159c-73 0 -124 33 -133 117c35 5 67 10 100 14c3 -33 17 -39 32 -39c32 0 30 36 30 67c0 20 -1 48 -30 48c-8 0 -20 -6 -31 -27h-89v241h243v-89h-145v-51c15 9 33 12 48 12z" />
    <glyph glyph-name="six.denominator" unicode="&#xe1d9;" horiz-adv-x="312" 
d="M259 415l-80 -167c5 3 13 3 18 3c47 0 90 -33 90 -117c0 -88 -42 -137 -131 -137c-83 0 -126 35 -126 123c0 28 9 72 20 95l98 200h111zM160 176c-20 0 -30 -13 -30 -46s8 -46 27 -46c23 0 29 16 29 53c0 28 -9 39 -26 39z" />
    <glyph glyph-name="seven.denominator" unicode="&#xe1d0;" horiz-adv-x="298" 
d="M289 338l-140 -339h-107l131 327h-50v-46h-99v136h265v-78z" />
    <glyph glyph-name="eight.denominator" unicode="&#xe14f;" horiz-adv-x="317" 
d="M287 299c0 -32 -8 -64 -39 -81c33 -19 43 -60 43 -93c0 -95 -63 -129 -134 -129s-131 34 -131 129c0 31 6 69 41 93c-29 19 -37 50 -37 81c0 72 44 122 127 122c80 0 130 -38 130 -122zM157 84c24 0 34 18 34 49c0 28 -11 42 -34 42c-21 0 -31 -16 -31 -43
c0 -35 10 -48 31 -48zM158 255c19 0 29 14 29 43c0 21 -9 35 -29 35c-19 0 -27 -14 -27 -37c0 -31 8 -41 27 -41z" />
    <glyph glyph-name="nine.denominator" unicode="&#xe191;" horiz-adv-x="314" 
d="M56 2l80 167c-5 -2 -11 -3 -18 -3c-47 0 -90 33 -90 117c0 87 41 137 129 137c76 0 128 -35 128 -123c0 -28 -9 -72 -20 -95l-98 -200h-111zM155 241c20 0 30 13 30 46s-8 46 -27 46c-23 0 -29 -16 -29 -53c0 -28 9 -39 26 -39z" />
    <glyph glyph-name="parenleft.denominator" unicode="&#xe1ad;" horiz-adv-x="218" 
d="M213 -38l-60 -40c-68 76 -119 163 -119 262s50 185 114 257l66 -32c-52 -73 -80 -155 -80 -222c0 -73 30 -157 79 -225z" />
    <glyph glyph-name="parenright.denominator" unicode="&#xe1af;" horiz-adv-x="218" 
d="M208 184c0 -99 -51 -186 -119 -262l-62 40c51 68 80 152 80 225c0 67 -27 149 -80 222l66 32c63 -68 115 -159 115 -257z" />
    <glyph glyph-name="comma.denominator" unicode="&#xe133;" horiz-adv-x="173" 
d="M89 -88h-61l24 86h-20v106h111v-99z" />
    <glyph glyph-name="period.denominator" unicode="&#xe1b4;" horiz-adv-x="171" 
d="M141 -1h-110v105h110v-105z" />
    <glyph glyph-name="fraction" unicode="&#x2044;" horiz-adv-x="180" 
d="M318 713l-371 -730h-91l370 730h92z" />
    <glyph glyph-name="trianglebullet" unicode="&#xe1f1;" horiz-adv-x="584" 
d="M81 557l463 -270l-463 -281v551z" />
    <glyph glyph-name="arrowleft" unicode="&#x2190;" horiz-adv-x="829" 
d="M237 372h532v-99h-532l120 -116l-71 -71l-236 237l236 238l71 -71z" />
    <glyph glyph-name="arrowup" unicode="&#x2191;" horiz-adv-x="518" 
d="M310 516v-516h-99v516l-116 -119l-71 71l237 236l238 -236l-71 -71z" />
    <glyph glyph-name="arrowright" unicode="&#x2192;" horiz-adv-x="829" 
d="M51 372h533l-120 118l70 71l236 -238l-236 -237l-70 71l120 116h-533v99z" />
    <glyph glyph-name="arrowdown" unicode="&#x2193;" horiz-adv-x="518" 
d="M310 704v-517l118 120l71 -71l-238 -236l-237 236l71 71l117 -120v517h98z" />
    <glyph glyph-name="arrowupleft" unicode="&#xe11b;" horiz-adv-x="840" 
d="M289 546l486 -481l-69 -71l-486 484v-168h-99v334h336v-98h-168z" />
    <glyph glyph-name="arrowdownright" unicode="&#xe116;" horiz-adv-x="840" 
d="M607 94l-486 481l69 70l486 -483v167h99v-333h-336v98h168z" />
    <glyph glyph-name="arrowhookleft" unicode="&#xe117;" horiz-adv-x="867" 
d="M330 490l-120 -119h443c56 0 75 37 75 84v76c0 44 -23 70 -75 70h-103v96h107c124 0 169 -73 169 -170v-72c0 -111 -58 -182 -181 -182h-435l120 -117l-69 -69l-235 236l235 236z" />
    <glyph glyph-name="arrowhookright" unicode="&#xe118;" horiz-adv-x="863" 
d="M643 371l-121 119l70 69l234 -236l-234 -236l-70 69l121 117h-434c-124 0 -182 71 -182 182v72c0 97 45 170 169 170h107v-96h-102c-55 0 -76 -26 -76 -70v-76c0 -47 20 -84 76 -84h442z" />
    <glyph glyph-name="carriagereturnright" unicode="&#xe12a;" horiz-adv-x="854" 
d="M187 693v-322h454l-120 119l70 69l234 -236l-234 -236l-70 69l120 118h-553v419h99z" />
    <glyph glyph-name="carriagereturn" unicode="&#x21b5;" horiz-adv-x="854" 
d="M717 371v322h98v-419h-552l119 -118l-69 -69l-235 236l235 236l69 -69l-119 -119h454z" />
    <glyph glyph-name="pageup" unicode="&#xe1aa;" horiz-adv-x="510" 
d="M99 274v92h103v151l-110 -103l-71 72l229 218l234 -218l-71 -72l-114 103v-151h101v-92h-101v-54h101v-90h-101v-130h-97v130h-103v90h103v54h-103z" />
    <glyph glyph-name="pagedown" unicode="&#xe1a9;" horiz-adv-x="510" 
d="M99 338v91h102v55h-102v89h102v131h98v-131h101v-89h-101v-55h101v-91h-101v-153l114 104l71 -71l-234 -218l-229 218l71 71l109 -104v153h-102z" />
    <glyph glyph-name="arrowdashleft" unicode="&#xe113;" horiz-adv-x="836" 
d="M391 273v97h99v-97h-99zM529 273v97h99v-97h-99zM669 273v97h99v-97h-99zM236 370h117v-97h-117l121 -118l-71 -70l-235 236l235 238l71 -70z" />
    <glyph glyph-name="arrowdashup" unicode="&#xe115;" horiz-adv-x="522" 
d="M309 511v-116h-98v116l-117 -120l-71 70l237 236l238 -236l-70 -70zM211 357h98v-99h-98v99zM211 219h98v-99h-98v99zM211 79h98v-99h-98v99z" />
    <glyph glyph-name="arrowdashright" unicode="&#xe114;" horiz-adv-x="836" 
d="M467 371h117l-121 118l70 71l236 -238l-236 -237l-70 71l121 117h-117v98zM429 371v-98h-99v98h99zM291 371v-98h-99v98h99zM152 371v-98h-100v98h100z" />
    <glyph glyph-name="arrowdashdown" unicode="&#xe112;" horiz-adv-x="522" 
d="M308 282v-116l119 120c23 -23 46 -47 70 -70c-80 -79 -158 -157 -238 -234l-236 234l70 70l118 -120v116h97zM308 320h-97v99h97v-99zM308 598h-97v99h97v-99zM308 459h-97v98h97v-98z" />
    <glyph glyph-name="arrowtableft" unicode="&#xe119;" horiz-adv-x="871" 
d="M172 104h-106v435h106v-435zM398 372h431v-99h-431l120 -116l-71 -71l-235 237l235 238l71 -71z" />
    <glyph glyph-name="arrowtabright" unicode="&#xe11a;" horiz-adv-x="871" 
d="M830 104h-106v435h106v-435zM67 372h431l-120 118l71 71l235 -238l-235 -237l-71 71l120 116h-431v99z" />
    <glyph glyph-name="shift" unicode="&#xe1d6;" horiz-adv-x="840" 
d="M630 378l-207 215l-207 -215h94v-301h227v301h93zM232 306h-195l386 397l386 -397h-195v-306h-382v306z" />
    <glyph glyph-name="capslock" unicode="&#xe129;" horiz-adv-x="840" 
d="M531 -45h-228v-67h228v67zM225 -181v207h382v-207h-382zM624 378l-207 215l-208 -215h94v-200h228v200h93zM225 306h-195l387 397l386 -397h-195v-206h-383v206z" />
    <glyph glyph-name="sfthyphen" unicode="&#xe1d5;" horiz-adv-x="412" 
d="M369 204h-321v125h321v-125z" />
    <glyph glyph-name="Agrave" unicode="&#xc0;" horiz-adv-x="555" 
d="M393 0l-34 142h-165c-12 -47 -25 -95 -38 -142h-153l201 696h144l201 -696h-156zM346 794l-52 -68l-205 97l84 100zM274 509l-28 -138l-20 -100h100l-19 99l-28 139h-5z" />
    <glyph glyph-name="Aacute" unicode="&#xc1;" horiz-adv-x="555" 
d="M393 0l-34 142h-165c-12 -47 -25 -95 -38 -142h-153l201 696h144l201 -696h-156zM253 726l-52 68l173 129l84 -100zM274 509l-28 -138l-20 -100h100l-19 99l-28 139h-5z" />
    <glyph glyph-name="Acircumflex" unicode="&#xc2;" horiz-adv-x="555" 
d="M393 0l-34 142h-165c-12 -47 -25 -95 -38 -142h-153l201 696h144l201 -696h-156zM410 724l-134 79l-135 -79l-50 53l142 132h88l140 -132zM274 509l-28 -138l-20 -100h100l-19 99l-28 139h-5z" />
    <glyph glyph-name="Atilde" unicode="&#xc3;" horiz-adv-x="555" 
d="M393 0l-34 142h-165c-12 -47 -25 -95 -38 -142h-153l201 696h144l201 -696h-156zM205 870c48 0 89 -42 118 -42c21 0 35 10 62 43c23 -12 44 -25 67 -38c-35 -76 -71 -104 -114 -104c-50 0 -92 41 -126 41c-20 0 -39 -9 -66 -44l-65 40c32 72 75 104 124 104zM274 509
l-28 -138l-20 -100h100l-19 99l-28 139h-5z" />
    <glyph glyph-name="Adieresis" unicode="&#xc4;" horiz-adv-x="555" 
d="M393 0l-34 142h-165c-12 -47 -25 -95 -38 -142h-153l201 696h144l201 -696h-156zM246 737h-136v131h136v-131zM440 737h-135v131h135v-131zM274 509l-28 -138l-20 -100h100l-19 99l-28 139h-5z" />
    <glyph glyph-name="Aring" unicode="&#xc5;" horiz-adv-x="555" 
d="M164 800c0 60 50 109 113 109c64 0 112 -49 112 -109c0 -49 -32 -89 -79 -104h38l201 -696h-156l-34 142h-165c-12 -47 -25 -95 -38 -142h-153l201 696h38c-47 15 -78 55 -78 104zM274 509l-28 -138l-20 -100h100l-19 99l-28 139h-5zM312 799c0 19 -16 34 -35 34
c-20 0 -36 -15 -36 -34s16 -34 36 -34c19 0 35 15 35 34z" />
    <glyph glyph-name="Egrave" unicode="&#xc8;" horiz-adv-x="490" 
d="M466 0h-405v696h405v-134h-260v-144h224v-133h-224v-148h260v-137zM337 794l-52 -68l-205 97l84 100z" />
    <glyph glyph-name="Eacute" unicode="&#xc9;" horiz-adv-x="490" 
d="M466 0h-405v696h405v-134h-260v-144h224v-133h-224v-148h260v-137zM223 726l-52 68l173 129l84 -100z" />
    <glyph glyph-name="Ecircumflex" unicode="&#xca;" horiz-adv-x="490" 
d="M466 0h-405v696h405v-134h-260v-144h224v-133h-224v-148h260v-137zM396 724l-134 79l-135 -79l-50 53l142 132h88l140 -132z" />
    <glyph glyph-name="Edieresis" unicode="&#xcb;" horiz-adv-x="490" 
d="M466 0h-405v696h405v-134h-260v-144h224v-133h-224v-148h260v-137zM419 728h-134v130h134v-130zM222 728h-133v130h133v-130z" />
    <glyph glyph-name="Igrave" unicode="&#xcc;" horiz-adv-x="268" 
d="M208 0h-145v696h145v-696zM203 794l-52 -68l-205 97l84 100z" />
    <glyph glyph-name="Iacute" unicode="&#xcd;" horiz-adv-x="268" 
d="M208 0h-145v696h145v-696zM106 726l-52 68l173 129l84 -100z" />
    <glyph glyph-name="Icircumflex" unicode="&#xce;" horiz-adv-x="268" 
d="M208 0h-145v696h145v-696zM272 724l-134 79l-135 -79l-50 53l142 132h88l140 -132z" />
    <glyph glyph-name="Idieresis" unicode="&#xcf;" horiz-adv-x="268" 
d="M208 0h-145v696h145v-696zM300 728h-134v130h134v-130zM103 728h-133v130h133v-130z" />
    <glyph glyph-name="Ntilde" unicode="&#xd1;" horiz-adv-x="596" 
d="M539 0h-127l-129 232l-76 147l-3 -1v-378h-145v696h128l114 -208l91 -168l3 1v375h144v-696zM228 868c48 0 89 -42 118 -42c21 0 35 10 62 43c23 -12 44 -25 67 -38c-35 -76 -71 -104 -114 -104c-50 0 -92 41 -126 41c-20 0 -39 -9 -66 -44l-65 40c32 72 75 104 124 104z
" />
    <glyph glyph-name="Ograve" unicode="&#xd2;" horiz-adv-x="535" 
d="M490 478v-259c0 -139 -92 -225 -222 -225c-160 0 -224 110 -224 236v248c0 103 61 223 224 223c152 0 222 -114 222 -223zM344 209v275c0 26 -17 77 -76 77c-58 0 -80 -45 -80 -77v-258c0 -53 23 -92 80 -92c41 0 76 28 76 75zM339 794l-52 -68l-205 97l84 100z" />
    <glyph glyph-name="Oacute" unicode="&#xd3;" horiz-adv-x="535" 
d="M490 478v-259c0 -139 -92 -225 -222 -225c-160 0 -224 110 -224 236v248c0 103 61 223 224 223c152 0 222 -114 222 -223zM344 209v275c0 26 -17 77 -76 77c-58 0 -80 -45 -80 -77v-258c0 -53 23 -92 80 -92c41 0 76 28 76 75zM250 726l-52 68l173 129l84 -100z" />
    <glyph glyph-name="Ocircumflex" unicode="&#xd4;" horiz-adv-x="535" 
d="M490 478v-259c0 -139 -92 -225 -222 -225c-160 0 -224 110 -224 236v248c0 103 61 223 224 223c152 0 222 -114 222 -223zM344 209v275c0 26 -17 77 -76 77c-58 0 -80 -45 -80 -77v-258c0 -53 23 -92 80 -92c41 0 76 28 76 75zM396 724l-134 79l-135 -79l-50 53l142 132
h88l140 -132z" />
    <glyph glyph-name="Otilde" unicode="&#xd5;" horiz-adv-x="535" 
d="M490 478v-259c0 -139 -92 -225 -222 -225c-160 0 -224 110 -224 236v248c0 103 61 223 224 223c152 0 222 -114 222 -223zM344 209v275c0 26 -17 77 -76 77c-58 0 -80 -45 -80 -77v-258c0 -53 23 -92 80 -92c41 0 76 28 76 75zM205 870c48 0 89 -42 118 -42
c21 0 35 10 62 43c23 -12 44 -25 67 -38c-35 -76 -71 -104 -114 -104c-50 0 -92 41 -126 41c-20 0 -39 -9 -66 -44l-65 40c32 72 75 104 124 104z" />
    <glyph glyph-name="Odieresis" unicode="&#xd6;" horiz-adv-x="535" 
d="M490 478v-259c0 -139 -92 -225 -222 -225c-160 0 -224 110 -224 236v248c0 103 61 223 224 223c152 0 222 -114 222 -223zM344 209v275c0 26 -17 77 -76 77c-58 0 -80 -45 -80 -77v-258c0 -53 23 -92 80 -92c41 0 76 28 76 75zM438 737h-135v131h135v-131zM244 737h-136
v131h136v-131z" />
    <glyph glyph-name="Ugrave" unicode="&#xd9;" horiz-adv-x="551" 
d="M353 696h146v-477c0 -139 -92 -225 -222 -225c-160 0 -224 110 -224 236v466h144v-470c0 -53 23 -92 80 -92c41 0 76 31 76 78v484zM346 794l-52 -68l-205 97l84 100z" />
    <glyph glyph-name="Uacute" unicode="&#xda;" horiz-adv-x="551" 
d="M353 696h146v-477c0 -139 -92 -225 -222 -225c-160 0 -224 110 -224 236v466h144v-470c0 -53 23 -92 80 -92c41 0 76 31 76 78v484zM243 726l-52 68l173 129l84 -100z" />
    <glyph glyph-name="Ucircumflex" unicode="&#xdb;" horiz-adv-x="551" 
d="M353 696h146v-477c0 -139 -92 -225 -222 -225c-160 0 -224 110 -224 236v466h144v-470c0 -53 23 -92 80 -92c41 0 76 31 76 78v484zM402 724l-134 79l-135 -79l-50 53l142 132h88l140 -132z" />
    <glyph glyph-name="Udieresis" unicode="&#xdc;" horiz-adv-x="551" 
d="M353 696h146v-477c0 -139 -92 -225 -222 -225c-160 0 -224 110 -224 236v466h144v-470c0 -53 23 -92 80 -92c41 0 76 31 76 78v484zM441 737h-135v131h135v-131zM247 737h-136v131h136v-131z" />
    <glyph glyph-name="Yacute" unicode="&#xdd;" horiz-adv-x="510" 
d="M507 696l-180 -417v-279h-142v279l-180 419h161l46 -142l41 -133h6l43 134l51 139h154zM230 726l-52 68l173 129l84 -100z" />
    <glyph glyph-name="agrave" unicode="&#xe0;" horiz-adv-x="462" 
d="M421 0h-140v40l-4 1c-25 -33 -69 -46 -100 -46c-97 0 -145 53 -145 153c0 83 55 152 169 152h80v29c0 21 -13 48 -58 48c-35 0 -61 -9 -80 -41l-101 64c37 73 102 100 185 100c113 0 194 -38 194 -160v-340zM281 172v30h-61c-37 0 -52 -17 -52 -44c0 -19 13 -41 53 -41
c32 0 60 19 60 55zM318 575l-77 -41l-141 181l121 50z" />
    <glyph glyph-name="aacute" unicode="&#xe1;" horiz-adv-x="462" 
d="M421 0h-140v40l-4 1c-25 -33 -69 -46 -100 -46c-97 0 -145 53 -145 153c0 83 55 152 169 152h80v29c0 21 -13 48 -58 48c-35 0 -61 -9 -80 -41l-101 64c37 73 102 100 185 100c113 0 194 -38 194 -160v-340zM281 172v30h-61c-37 0 -52 -17 -52 -44c0 -19 13 -41 53 -41
c32 0 60 19 60 55zM252 534l-78 36l93 195l120 -48z" />
    <glyph glyph-name="acircumflex" unicode="&#xe2;" horiz-adv-x="462" 
d="M421 0h-140v40l-4 1c-25 -33 -69 -46 -100 -46c-97 0 -145 53 -145 153c0 83 55 152 169 152h80v29c0 21 -13 48 -58 48c-35 0 -61 -9 -80 -41l-101 64c37 73 102 100 185 100c113 0 194 -38 194 -160v-340zM281 172v30h-61c-37 0 -52 -17 -52 -44c0 -19 13 -41 53 -41
c32 0 60 19 60 55zM370 518l-131 99c-24 -16 -109 -83 -132 -98l-53 47l141 157h91l138 -156z" />
    <glyph glyph-name="atilde" unicode="&#xe3;" horiz-adv-x="462" 
d="M421 0h-140v40l-4 1c-25 -33 -69 -46 -100 -46c-97 0 -145 53 -145 153c0 83 55 152 169 152h80v29c0 21 -13 48 -58 48c-35 0 -61 -9 -80 -41l-101 64c37 73 102 100 185 100c113 0 194 -38 194 -160v-340zM174 700c48 0 89 -42 118 -42c21 0 35 10 62 43
c23 -12 44 -25 67 -38c-35 -76 -71 -104 -114 -104c-50 0 -92 41 -126 41c-20 0 -39 -9 -66 -44l-65 40c32 72 75 104 124 104zM281 172v30h-61c-37 0 -52 -17 -52 -44c0 -19 13 -41 53 -41c32 0 60 19 60 55z" />
    <glyph glyph-name="adieresis" unicode="&#xe4;" horiz-adv-x="462" 
d="M421 0h-140v40l-4 1c-25 -33 -69 -46 -100 -46c-97 0 -145 53 -145 153c0 83 55 152 169 152h80v29c0 21 -13 48 -58 48c-35 0 -61 -9 -80 -41l-101 64c37 73 102 100 185 100c113 0 194 -38 194 -160v-340zM281 172v30h-61c-37 0 -52 -17 -52 -44c0 -19 13 -41 53 -41
c32 0 60 19 60 55zM407 558h-134v130h134v-130zM210 558h-133v130h133v-130z" />
    <glyph glyph-name="aring" unicode="&#xe5;" horiz-adv-x="462" 
d="M421 0h-140v40l-4 1c-25 -33 -69 -46 -100 -46c-97 0 -145 53 -145 153c0 83 55 152 169 152h80v29c0 21 -13 48 -58 48c-35 0 -61 -9 -80 -41l-101 64c37 73 102 100 185 100c113 0 194 -38 194 -160v-340zM281 172v30h-61c-37 0 -52 -17 -52 -44c0 -19 13 -41 53 -41
c32 0 60 19 60 55zM275 631c0 19 -16 34 -35 34c-20 0 -36 -15 -36 -34s16 -34 36 -34c19 0 35 15 35 34zM127 632c0 60 50 109 113 109c64 0 112 -49 112 -109s-49 -109 -113 -109c-61 0 -112 49 -112 109z" />
    </font>
</defs>
</svg>
