<?xml version="1.0" standalone="no"?>
<!DOCTYPE svg PUBLIC "-//W3C//DTD SVG 1.1//EN" "http://www.w3.org/Graphics/SVG/1.1/DTD/svg11.dtd" >
<svg xmlns="http://www.w3.org/2000/svg" xmlns:xlink="http://www.w3.org/1999/xlink" version="1.1">
<metadata>
Created by FontForge 20141024 at Mon Apr 27 17:22:42 2015
 By System Administrator
Based on DIN 1451 the German Industrial standard by the Deutsches Institut Normung - (1936/1986)
</metadata>
<defs>
<font id="DinTextCompPro-Bold" horiz-adv-x="1818" >
  <font-face 
    font-family="Din Text Comp Pro"
    font-weight="700"
    font-stretch="normal"
    units-per-em="1000"
    panose-1="2 0 8 6 0 0 0 2 0 4"
    ascent="750"
    descent="-250"
    x-height="494"
    cap-height="696"
    bbox="-213 -276 1760 949"
    underline-thickness="90"
    underline-position="-115"
    unicode-range="U+0020-FB04"
  />
<missing-glyph horiz-adv-x="437" 
d="M0 0v696h437v-696h-437zM101 68h234l-116 216zM219 414l116 214h-234zM66 554v-413l113 208zM259 349l111 -207v412z" />
    <glyph glyph-name="ff" unicode="ff" horiz-adv-x="518" 
d="M446 736h69v-124h-33c-19 0 -35 -16 -35 -37v-81h71v-106h-71v-388h-137v388h-114v-388h-137v388h-44v106h44v38c0 125 88 173 186 173c27 0 61 -5 93 -16c25 32 65 47 108 47zM196 516v-22h114v75c-23 7 -36 7 -53 7c-55 0 -61 -39 -61 -60z" />
    <glyph glyph-name="fi" unicode="fi" horiz-adv-x="490" 
d="M447 0h-137v388h-114v-388h-137v388h-44v106h44v66c0 125 88 173 186 173c56 0 131 -12 176 -57l-72 -102c-24 24 -61 30 -92 30c-55 0 -61 -39 -61 -60v-50h251v-494z" />
    <glyph glyph-name="fl" unicode="fl" horiz-adv-x="508" 
d="M492 -5h-24c-107 0 -158 40 -158 151l1 451c-23 7 -37 7 -54 7c-55 0 -61 -39 -61 -60v-50h79v-106h-79v-388h-137v388h-44v106h44v66c0 125 76 173 183 173c22 0 114 -1 205 -28v-541c0 -35 13 -44 33 -44h12v-125z" />
    <glyph glyph-name="ffi" unicode="ffi" horiz-adv-x="741" 
d="M698 0h-137v388h-114v-388h-137v388h-114v-388h-137v388h-44v107h44v37c0 125 88 173 186 173c32 0 72 -7 109 -23c35 36 86 51 142 51s125 -13 174 -56l-70 -102c-31 23 -61 29 -92 29c-55 0 -61 -39 -61 -60v-49h251v-495zM257 576c-55 0 -61 -39 -61 -60v-21h114v71
c-19 9 -41 10 -53 10z" />
    <glyph glyph-name="ffl" unicode="ffl" horiz-adv-x="762" 
d="M240 705c32 0 77 -7 114 -23c35 36 89 51 142 51c21 0 120 -1 205 -28v-541c0 -35 13 -44 33 -44h12v-125h-24c-107 0 -158 40 -158 151l1 451c-23 7 -37 7 -54 7c-58 0 -64 -39 -64 -60v-49h79v-107h-79v-388h-137v388h-114v-388h-137v388h-44v107h44v37
c0 125 82 173 181 173zM257 576c-55 0 -61 -39 -61 -60v-21h114v68c-16 9 -36 13 -53 13z" />
    <glyph glyph-name="ft" unicode="ft" horiz-adv-x="528" 
d="M496 0h-56c-96 0 -129 65 -129 126v262h-115v-388h-137v388h-44v106h44v90c0 101 64 142 136 142h69v-124h-33c-19 0 -35 -16 -35 -37v-71h115v131h129v-130h56v-107h-56v-218c0 -23 1 -46 44 -46h12v-124z" />
    <glyph glyph-name="fj" unicode="fj" horiz-adv-x="490" 
d="M196 544v-50h251v-530c0 -115 -69 -160 -186 -160h-11v128h17c35 0 43 21 43 69v387h-114v-388h-137v388h-44v106h44v66c0 125 88 173 186 173c55 0 125 -12 176 -57l-72 -102c-24 24 -61 30 -92 30c-55 0 -61 -39 -61 -60z" />
    <glyph glyph-name="ffj" unicode="ffj" horiz-adv-x="741" 
d="M447 544v-49h251v-531c0 -115 -69 -160 -186 -160h-11v128h17c35 0 43 21 43 69v387h-114v-388h-137v388h-114v-388h-137v388h-44v107h44v37c0 125 88 173 186 173c32 0 72 -7 109 -23c35 36 86 51 142 51s125 -13 174 -56l-70 -102c-31 23 -61 29 -92 29
c-55 0 -61 -39 -61 -60zM257 576c-55 0 -61 -39 -61 -60v-21h114v71c-19 9 -41 10 -53 10z" />
    <glyph glyph-name=".notdef" horiz-adv-x="437" 
d="M0 0v696h437v-696h-437zM101 68h234l-116 216zM219 414l116 214h-234zM66 554v-413l113 208zM259 349l111 -207v412z" />
    <glyph glyph-name="exclam" unicode="!" horiz-adv-x="275" 
d="M204 696l-10 -493h-113l-10 493h133zM202 0h-128v139h128v-139z" />
    <glyph glyph-name="quotedbl" unicode="&#x22;" horiz-adv-x="310" 
d="M272 477h-93v219h93v-219zM131 477h-92v219h92v-219z" />
    <glyph glyph-name="numbersign" unicode="#" horiz-adv-x="430" 
d="M4 207v95h68l20 102h-52v95h67l34 196h98l-35 -196h70l35 196h98l-36 -196h54v-95h-70l-17 -102h53v-95h-71l-36 -207h-97l36 207h-71l-35 -207h-98l37 207h-52zM188 404l-18 -102h70l19 102h-71z" />
    <glyph glyph-name="dollar" unicode="$" horiz-adv-x="430" 
d="M400 205c0 -122 -37 -205 -162 -210v-78h-36v78c-117 5 -163 85 -163 178l136 26c3 -39 8 -65 27 -73v169c-137 56 -158 118 -158 209c0 108 46 186 158 197v68h36v-67c128 -5 162 -101 162 -175l-134 -29c0 32 -4 63 -28 71v-142c136 -64 162 -110 162 -222zM266 204
c0 37 -7 57 -28 72v-151c25 9 28 44 28 79zM179 505c0 -24 2 -41 23 -57v120c-19 -11 -23 -40 -23 -63z" />
    <glyph glyph-name="ampersand" unicode="&#x26;" horiz-adv-x="499" 
d="M203 536c0 -27 17 -65 40 -106l93 -172c4 17 9 43 8 72h115c1 -68 -18 -138 -45 -189l79 -141h-145l-20 35c-39 -32 -82 -41 -126 -41c-99 0 -159 74 -159 189c0 79 33 138 89 191l-11 19c-23 40 -41 85 -41 144c0 93 60 164 150 164c77 0 139 -30 174 -110l-107 -56
c-12 33 -36 48 -55 48c-31 0 -39 -24 -39 -47zM271 133l-77 132c-17 -25 -25 -51 -25 -78c0 -39 18 -73 50 -73c19 0 39 7 52 19z" />
    <glyph glyph-name="quoteright" unicode="&#x2019;" horiz-adv-x="298" 
d="M215 563l-64 -152h-76l33 149h-29v154h136v-151z" />
    <glyph glyph-name="parenleft" unicode="(" horiz-adv-x="296" 
d="M56 308c0 162 62 305 139 416l85 -41c-64 -112 -103 -254 -103 -371c0 -131 40 -271 100 -378l-72 -48c-88 124 -149 261 -149 422z" />
    <glyph glyph-name="parenright" unicode=")" horiz-adv-x="296" 
d="M280 308c0 -161 -61 -298 -149 -422l-72 48c60 107 100 247 100 378c0 117 -39 259 -103 371l85 41c75 -113 139 -252 139 -416z" />
    <glyph glyph-name="asterisk" unicode="*" horiz-adv-x="394" 
d="M250 502l80 -98l-71 -50l-63 105l-65 -106l-71 51l78 98l-113 31l28 82l109 -45l-11 125h89l-11 -124l108 44l30 -82z" />
    <glyph glyph-name="plus" unicode="+" horiz-adv-x="430" 
d="M408 243h-140v-151h-109v151h-140v111h140v151h109v-151h140v-111z" />
    <glyph glyph-name="comma" unicode="," horiz-adv-x="234" 
d="M187 -1l-64 -152h-76l33 149h-29v154h136v-151z" />
    <glyph glyph-name="hyphen" unicode="-" horiz-adv-x="383" 
d="M345 216h-296v120h296v-120z" />
    <glyph glyph-name="period" unicode="." horiz-adv-x="229" 
d="M182 0h-135v150h135v-150z" />
    <glyph glyph-name="slash" unicode="/" horiz-adv-x="289" 
d="M288 725l-187 -767h-101l187 767h101z" />
    <glyph glyph-name="zero" unicode="0" horiz-adv-x="430" 
d="M380 541v-387c0 -99 -69 -160 -161 -160c-94 0 -163 61 -163 160v387c0 100 71 161 163 161c96 0 161 -61 161 -161zM247 149v397c0 17 -13 28 -28 28s-30 -11 -30 -28v-397c0 -16 15 -27 30 -27s28 11 28 27z" />
    <glyph glyph-name="one" unicode="1" horiz-adv-x="430" 
d="M327 0h-133v537l-91 -71v149l104 81h120v-696z" />
    <glyph glyph-name="two" unicode="2" horiz-adv-x="430" 
d="M374 0h-320v120l171 317c17 32 20 59 20 92c0 19 -7 44 -30 44c-16 0 -39 -13 -39 -81l-132 16c0 133 78 194 171 194c119 0 168 -68 168 -173c0 -63 -12 -100 -43 -159l-126 -239h160v-131z" />
    <glyph glyph-name="three" unicode="3" horiz-adv-x="430" 
d="M325 363v-5c43 -20 56 -67 56 -106v-69c0 -116 -61 -189 -178 -189c-118 0 -174 65 -168 195l135 16c-8 -72 20 -82 35 -82s37 8 37 44v83c0 39 -25 53 -52 53h-30v114h38c27 0 49 13 49 48v66c0 19 -8 41 -32 41c-19 0 -39 -12 -39 -81l-132 16c0 124 77 195 176 195
c123 0 161 -85 161 -161v-41c0 -51 -5 -110 -56 -137z" />
    <glyph glyph-name="four" unicode="4" horiz-adv-x="430" 
d="M396 98h-39v-98h-131v98h-203v111l149 487h132l-141 -470h63v124h131v-124h39v-128z" />
    <glyph glyph-name="five" unicode="5" horiz-adv-x="430" 
d="M384 330v-147c0 -121 -56 -189 -173 -189c-105 0 -167 64 -160 195l129 16c-8 -72 17 -81 33 -81c15 0 32 7 32 43v149c0 19 -9 28 -28 28c-11 0 -31 -5 -43 -36h-111v388h311v-127h-185v-126l3 -1c15 16 46 24 65 24c91 0 127 -56 127 -136z" />
    <glyph glyph-name="six" unicode="6" horiz-adv-x="430" 
d="M240 408l5 -4c10 5 22 8 37 8c43 0 103 -21 103 -136v-98c0 -94 -32 -184 -168 -184c-108 0 -159 68 -159 155v62c0 49 2 95 19 142l127 343h147zM250 150v131c0 19 -15 28 -30 28s-28 -9 -28 -28v-131c0 -17 13 -27 28 -27s30 10 30 27z" />
    <glyph glyph-name="seven" unicode="7" horiz-adv-x="430" 
d="M382 580l-172 -580h-135l165 569h-63v-67h-122v194h327v-116z" />
    <glyph glyph-name="eight" unicode="8" horiz-adv-x="430" 
d="M325 367l3 -5c50 -24 51 -83 51 -135v-57c0 -115 -58 -176 -161 -176c-117 0 -164 81 -164 174v35c0 51 0 128 55 159l-1 6c-51 27 -53 86 -53 137v30c0 85 53 167 161 167c113 0 162 -74 162 -165v-32c0 -53 -3 -114 -53 -138zM245 441v106c0 15 -12 27 -28 27
c-13 0 -30 -12 -30 -27v-106c0 -15 15 -27 30 -27c16 0 28 12 28 27zM245 148v140c0 15 -12 27 -28 27s-30 -12 -30 -27v-140c0 -15 15 -26 30 -26c16 0 28 11 28 26z" />
    <glyph glyph-name="nine" unicode="9" horiz-adv-x="430" 
d="M198 288l-5 4c-10 -5 -22 -8 -37 -8c-43 0 -103 9 -103 137v97c0 94 32 184 168 184c108 0 159 -68 159 -155v-62c0 -49 -2 -95 -19 -142l-127 -343h-147zM188 546v-131c0 -19 15 -28 30 -28s28 9 28 28v131c0 17 -13 27 -28 27s-30 -10 -30 -27z" />
    <glyph glyph-name="colon" unicode=":" horiz-adv-x="229" 
d="M182 259h-135v150h135v-150zM182 0h-135v150h135v-150z" />
    <glyph glyph-name="semicolon" unicode=";" horiz-adv-x="234" 
d="M187 -1l-64 -152h-76l33 149h-29v154h136v-151zM186 259h-135v150h135v-150z" />
    <glyph glyph-name="less" unicode="&#x3c;" horiz-adv-x="430" 
d="M407 198v-132l-388 190v91l391 191v-132l-247 -105z" />
    <glyph glyph-name="equal" unicode="=" horiz-adv-x="430" 
d="M408 335h-389v111h389v-111zM408 156h-389v111h389v-111z" />
    <glyph glyph-name="greater" unicode="&#x3e;" horiz-adv-x="430" 
d="M23 66v132l244 103l-247 105v132l391 -191v-91z" />
    <glyph glyph-name="question" unicode="?" horiz-adv-x="416" 
d="M390 516c0 -71 -11 -99 -30 -134l-51 -90c-11 -17 -15 -33 -15 -64v-37h-133v77c0 31 11 59 26 84c59 97 61 114 61 164c0 24 -11 56 -43 56c-21 0 -46 -20 -46 -79l-131 15c5 125 69 194 185 194c124 0 177 -66 177 -186zM291 0h-128v139h128v-139z" />
    <glyph glyph-name="at" unicode="@" horiz-adv-x="811" 
d="M459 183l-4 1c-25 -35 -65 -48 -100 -48c-80 0 -104 58 -104 125c0 68 39 128 134 128h39v29c0 20 -6 30 -30 30c-11 0 -26 -7 -34 -38l-98 33c21 71 70 109 143 109c89 0 132 -33 132 -128v-161c0 -27 19 -39 34 -39c35 0 85 26 85 158c0 147 -78 250 -236 250
c-186 0 -266 -141 -266 -296c0 -197 98 -304 258 -304c59 0 105 11 169 46l39 -83c-65 -31 -134 -52 -203 -52c-211 0 -357 119 -357 393c0 219 130 386 357 386c235 0 336 -155 336 -340c0 -181 -100 -250 -197 -250c-18 0 -76 12 -97 51zM424 274v40h-24
c-19 0 -37 -11 -37 -46c0 -23 12 -33 31 -33s30 16 30 39z" />
    <glyph glyph-name="A" unicode="A" horiz-adv-x="449" 
d="M297 0l-21 136h-102l-21 -136h-144l132 696h166l133 -696h-143zM222 516l-15 -141l-14 -111h63l-13 111l-15 141h-6z" />
    <glyph glyph-name="B" unicode="B" horiz-adv-x="446" 
d="M264 498c0 55 -19 68 -63 68h-14v-138h17c40 0 60 23 60 70zM270 226c0 56 -19 76 -58 76h-25v-171h24c51 0 59 43 59 95zM318 369v-5c63 -21 82 -83 82 -147c0 -149 -66 -217 -195 -217h-154v696h157c124 0 186 -66 186 -194c0 -55 -23 -114 -76 -133z" />
    <glyph glyph-name="C" unicode="C" horiz-adv-x="427" 
d="M226 702c121 0 178 -65 178 -160c0 -7 0 -12 -1 -19l-131 -23c-1 41 -19 72 -47 72c-36 0 -45 -33 -45 -53v-355c0 -19 5 -40 40 -40c27 0 45 24 46 72l135 -18c-1 -111 -63 -184 -176 -184c-125 0 -180 59 -180 176v349c0 111 58 183 181 183z" />
    <glyph glyph-name="D" unicode="D" horiz-adv-x="446" 
d="M259 191v314c0 39 -8 60 -51 60h-21v-434h21c43 0 51 20 51 60zM52 696h183c83 0 129 -26 148 -94c12 -43 12 -138 12 -253s1 -203 -14 -246c-25 -79 -84 -103 -155 -103h-174v696z" />
    <glyph glyph-name="E" unicode="E" horiz-adv-x="394" 
d="M370 0h-319v696h319v-130h-183v-147h160v-131h-160v-157h183v-131z" />
    <glyph glyph-name="F" unicode="F" horiz-adv-x="394" 
d="M370 566h-183v-147h160v-131h-160v-288h-136v696h319v-130z" />
    <glyph glyph-name="G" unicode="G" horiz-adv-x="440" 
d="M233 702c125 0 185 -77 177 -179l-131 -23c-1 41 -19 72 -47 72c-36 0 -45 -33 -45 -53v-355c0 -19 5 -40 40 -40c27 0 46 15 46 38v107h-47v119h182v-219c0 -115 -64 -175 -176 -175c-125 0 -180 59 -180 176v349c0 111 64 183 181 183z" />
    <glyph glyph-name="H" unicode="H" horiz-adv-x="459" 
d="M409 0h-135v288h-87v-288h-136v696h136v-276h87v276h135v-696z" />
    <glyph glyph-name="I" unicode="I" horiz-adv-x="242" 
d="M189 0h-136v696h136v-696z" />
    <glyph glyph-name="J" unicode="J" horiz-adv-x="381" 
d="M195 696h135v-527c0 -109 -65 -175 -177 -175c-63 0 -119 31 -158 92l101 78c17 -25 41 -39 56 -39c31 0 43 27 43 46v525z" />
    <glyph glyph-name="K" unicode="K" horiz-adv-x="446" 
d="M187 481h7l95 215h145l-145 -288l160 -408h-141l-97 267l-24 -63v-204h-136v696h136v-215z" />
    <glyph glyph-name="L" unicode="L" horiz-adv-x="378" 
d="M370 0h-319v696h136v-565h183v-131z" />
    <glyph glyph-name="M" unicode="M" horiz-adv-x="582" 
d="M337 136h-91l-29 89l-32 103h-5v-328h-135v696h127l69 -186l47 -138h6l48 141l68 183h127v-696h-136v325h-4l-33 -108z" />
    <glyph glyph-name="N" unicode="N" horiz-adv-x="481" 
d="M296 367h5v329h133v-696h-116l-82 203l-48 132h-5v-335h-135v696h119l82 -202z" />
    <glyph glyph-name="O" unicode="O" horiz-adv-x="445" 
d="M262 164v368c0 31 -17 43 -40 43s-41 -12 -41 -43v-368c0 -32 18 -43 41 -43s40 11 40 43zM400 527v-357c0 -120 -61 -176 -178 -176c-118 0 -177 59 -177 176v357c0 120 66 175 177 175c121 0 178 -55 178 -175z" />
    <glyph glyph-name="P" unicode="P" horiz-adv-x="428" 
d="M51 696h165c116 0 194 -50 194 -215c0 -143 -56 -226 -191 -226h-32v-255h-136v696zM212 566h-25v-180h23c35 0 70 15 70 96c0 61 -27 84 -68 84z" />
    <glyph glyph-name="Q" unicode="Q" horiz-adv-x="446" 
d="M403 527v-357c0 -27 -4 -52 -11 -74l62 -46l-63 -78l-63 44c-27 -15 -61 -22 -103 -22c-118 0 -177 59 -177 176v357c0 120 66 175 177 175c121 0 178 -55 178 -175zM265 167v362c0 31 -17 43 -40 43s-41 -12 -41 -43v-362c0 -32 18 -43 41 -43s40 11 40 43z" />
    <glyph glyph-name="R" unicode="R" horiz-adv-x="446" 
d="M51 696h165c115 0 196 -53 196 -206c0 -95 -25 -152 -77 -188l100 -302h-139l-82 271h-27v-271h-136v696zM212 566h-25v-164h21c39 0 74 16 74 87c0 53 -29 77 -70 77z" />
    <glyph glyph-name="S" unicode="S" horiz-adv-x="427" 
d="M397 205c0 -128 -40 -211 -181 -211c-129 0 -180 80 -180 179l136 26c3 -51 12 -76 47 -76c39 0 44 40 44 81c0 56 -14 70 -66 92c-137 56 -156 118 -156 208c0 115 50 198 181 198c139 0 175 -98 175 -175l-134 -29c0 39 -6 74 -45 74c-36 0 -42 -38 -42 -67
c0 -37 5 -57 79 -86c127 -50 142 -107 142 -214z" />
    <glyph glyph-name="T" unicode="T" horiz-adv-x="360" 
d="M354 566h-107v-566h-136v566h-107v130h350v-130z" />
    <glyph glyph-name="U" unicode="U" horiz-adv-x="445" 
d="M263 695h138v-525c0 -120 -61 -176 -178 -176c-118 0 -177 59 -177 176v525h136v-528c0 -32 18 -43 41 -43s40 11 40 43v528z" />
    <glyph glyph-name="V" unicode="V" horiz-adv-x="447" 
d="M252 416l42 280h148l-133 -696h-172l-132 696h149l42 -278l25 -197h6z" />
    <glyph glyph-name="W" unicode="W" horiz-adv-x="641" 
d="M326 331h-6l-62 -331h-150l-101 696h155l37 -388h5l64 388h112l64 -395h6l31 395h155l-101 -696h-150z" />
    <glyph glyph-name="X" unicode="X" horiz-adv-x="450" 
d="M226 204h-4l-61 -204h-158l144 363l-134 333h159l51 -172h6l48 172h160l-138 -333l148 -363h-160z" />
    <glyph glyph-name="Y" unicode="Y" horiz-adv-x="414" 
d="M207 442h5l25 117l30 137h144l-135 -413v-283h-137v283l-136 413h145l34 -139z" />
    <glyph glyph-name="Z" unicode="Z" horiz-adv-x="360" 
d="M339 0h-315v124l168 442h-162v130h309v-120l-169 -445h169v-131z" />
    <glyph glyph-name="bracketleft" unicode="[" horiz-adv-x="259" 
d="M243 -102h-182v799h182v-97h-60v-605h60v-97z" />
    <glyph glyph-name="backslash" unicode="\" horiz-adv-x="289" 
d="M187 -42l-187 767h101l187 -767h-101z" />
    <glyph glyph-name="bracketright" unicode="]" horiz-adv-x="259" 
d="M197 -103h-181v97h60v606h-60v97h181v-800z" />
    <glyph glyph-name="asciicircum" unicode="^" horiz-adv-x="430" 
d="M218 531h-8l-40 -122l-36 -101h-132l167 388h91l171 -391h-132l-38 101z" />
    <glyph glyph-name="underscore" unicode="_" horiz-adv-x="500" 
d="M500 -160h-500v90h500v-90z" />
    <glyph glyph-name="quoteleft" unicode="&#x2018;" horiz-adv-x="298" 
d="M75 561l64 152h76l-33 -149h29v-154h-136v151z" />
    <glyph glyph-name="a" unicode="a" horiz-adv-x="408" 
d="M236 34l-5 1c-15 -24 -51 -41 -79 -41c-97 0 -124 64 -124 155c0 80 46 152 159 152h49v42c0 21 -12 31 -35 31c-13 0 -31 -6 -38 -41l-121 39c20 81 77 129 169 129c111 0 162 -46 162 -158v-343h-137v34zM236 164v44h-28c-23 0 -45 -12 -45 -51c0 -25 18 -36 38 -36
s35 18 35 43z" />
    <glyph glyph-name="b" unicode="b" horiz-adv-x="401" 
d="M201 372c-13 0 -21 -7 -26 -20s-3 -57 -4 -113v-11c0 -35 0 -69 3 -80c3 -15 12 -22 27 -22s25 11 25 22c3 8 4 46 4 93c0 44 -1 91 -4 108c-3 13 -10 23 -25 23zM254 503c83 0 95 -41 109 -87c8 -32 10 -112 10 -168c0 -51 -2 -97 -5 -120c-11 -97 -47 -134 -118 -134
c-22 0 -61 7 -77 44l-4 -2v-36h-134v726h137v-261h5c16 24 59 38 77 38z" />
    <glyph glyph-name="c" unicode="c" horiz-adv-x="381" 
d="M201 -6c-100 0 -143 50 -157 104c-8 33 -10 99 -10 147c0 60 5 133 18 168c20 53 70 90 150 90c100 0 156 -57 156 -161l-133 -15c0 35 -11 49 -26 49c-13 0 -19 -8 -23 -20c-4 -11 -5 -57 -6 -113v-15c0 -35 1 -68 5 -84c3 -15 11 -22 24 -22c15 0 26 12 26 45l135 -17
c0 -97 -60 -156 -159 -156z" />
    <glyph glyph-name="d" unicode="d" horiz-adv-x="411" 
d="M205 372c-15 0 -22 -10 -25 -23c-3 -17 -4 -64 -4 -108c0 -47 1 -85 4 -93c0 -11 10 -22 25 -22s24 7 27 22c3 11 3 45 3 80v11c-1 56 1 100 -4 113s-13 20 -26 20zM156 503c17 0 50 -7 73 -30h5v253h137v-726h-134v36l-4 2c-16 -37 -56 -44 -79 -44
c-71 0 -109 35 -117 134c-3 19 -3 69 -3 120c0 55 6 132 14 164c8 35 25 91 108 91z" />
    <glyph glyph-name="e" unicode="e" horiz-adv-x="394" 
d="M362 220h-192c0 -32 -2 -61 2 -76c3 -15 12 -22 25 -22c15 0 28 11 31 40l135 -20c-5 -91 -63 -148 -162 -148c-100 0 -143 50 -157 104c-8 33 -10 99 -10 147c0 60 5 133 18 168c20 53 69 90 149 90c100 0 161 -55 161 -159v-124zM176 356c-3 -7 -4 -26 -5 -53h54v42
c0 13 -6 30 -25 30c-12 0 -20 -6 -24 -19z" />
    <glyph glyph-name="f" unicode="f" horiz-adv-x="265" 
d="M265 388h-71v-388h-137v388h-44v106h44v90c0 101 64 142 136 142h69v-124h-33c-19 0 -35 -16 -35 -37v-71h71v-106z" />
    <glyph glyph-name="g" unicode="g" horiz-adv-x="413" 
d="M153 0c-83 0 -95 41 -109 87c-8 32 -10 104 -10 160c0 51 2 97 5 120c11 97 47 134 118 134c23 0 60 -8 77 -44l4 2v36h135v-515c0 -124 -61 -177 -166 -177c-100 0 -158 48 -163 147l132 19c3 -28 17 -39 32 -39c19 0 28 13 28 33v75h-5c-16 -24 -59 -38 -78 -38z
M206 131c13 0 21 7 26 20s5 48 5 105v11c0 35 -1 69 -4 80c-3 15 -12 22 -27 22s-25 -11 -25 -22c-3 -8 -4 -46 -4 -93c0 -44 1 -83 4 -100c3 -13 10 -23 25 -23z" />
    <glyph glyph-name="h" unicode="h" horiz-adv-x="413" 
d="M179 456l5 -1c17 22 57 46 89 46c90 0 100 -63 100 -131v-370h-137v335c0 27 -12 36 -27 36c-16 0 -30 -14 -30 -39v-332h-137v726h137v-270z" />
    <glyph glyph-name="i" unicode="i" horiz-adv-x="237" 
d="M187 566h-137v130h137v-130zM187 0h-137v494h137v-494z" />
    <glyph glyph-name="j" unicode="j" horiz-adv-x="226" 
d="M183 566h-137v130h137v-130zM183 495v-530c0 -115 -69 -160 -186 -160h-11v128h17c35 0 43 21 43 69v493h137z" />
    <glyph glyph-name="k" unicode="k" horiz-adv-x="426" 
d="M176 378l7 -1l71 117h163l-133 -193l136 -301h-163l-70 172l-11 -17v-155h-136v725h136v-347z" />
    <glyph glyph-name="l" unicode="l" horiz-adv-x="234" 
d="M218 -5h-24c-107 0 -158 40 -158 151v580h137v-562c0 -35 13 -44 33 -44h12v-125z" />
    <glyph glyph-name="m" unicode="m" horiz-adv-x="607" 
d="M463 501c91 0 104 -57 104 -125v-376h-137v335c0 27 -12 36 -27 36s-27 -11 -30 -34v-337h-137v335c0 27 -12 36 -27 36c-16 0 -30 -14 -30 -39v-332h-137v495h137v-41l5 -1c17 21 52 48 83 48c57 0 82 -23 95 -58c27 36 70 58 101 58z" />
    <glyph glyph-name="n" unicode="n" horiz-adv-x="413" 
d="M179 456l5 -1c17 23 53 46 84 46c90 0 105 -57 105 -126v-375h-137v335c0 27 -12 36 -27 36c-16 0 -30 -14 -30 -39v-332h-137v495h137v-39z" />
    <glyph glyph-name="o" unicode="o" horiz-adv-x="401" 
d="M202 503c84 0 131 -38 150 -87c13 -37 14 -112 14 -168v-15c0 -36 0 -72 -4 -105c-13 -115 -100 -135 -168 -135c-91 0 -137 51 -150 105c-8 33 -10 99 -10 147c0 59 4 134 17 168c20 53 71 90 151 90zM202 376c-13 0 -21 -7 -26 -20s-5 -57 -6 -113v-15
c0 -35 0 -68 5 -84c3 -15 12 -22 27 -22s25 11 25 22c3 8 5 54 5 101c0 44 -2 91 -5 108c-3 13 -10 23 -25 23z" />
    <glyph glyph-name="p" unicode="p" horiz-adv-x="401" 
d="M201 123c15 0 22 10 25 23c3 17 4 64 4 108c0 47 -1 85 -4 93c0 11 -10 22 -25 22s-24 -7 -27 -22c-3 -11 -3 -45 -3 -80v-11c1 -56 -1 -100 4 -113s13 -20 26 -20zM251 -8c-17 0 -51 5 -74 28h-5v-210h-137v685h134v-36l4 -2c17 36 56 44 79 44c71 0 109 -35 117 -134
c3 -19 3 -69 3 -120c0 -56 -4 -133 -12 -164c-8 -36 -28 -91 -109 -91z" />
    <glyph glyph-name="q" unicode="q" horiz-adv-x="414" 
d="M208 122c13 0 21 7 26 20s3 57 4 113v11c0 35 0 69 -3 80c-3 15 -12 22 -27 22s-25 -11 -25 -22c-3 -8 -4 -46 -4 -93c0 -44 1 -91 4 -108c3 -13 10 -23 25 -23zM155 -9c-83 0 -95 41 -109 87c-8 32 -10 112 -10 168c0 51 2 97 5 120c11 97 47 134 118 134
c23 0 60 -8 77 -44l4 2v36h134v-685h-137v220h-5c-16 -24 -59 -38 -77 -38z" />
    <glyph glyph-name="r" unicode="r" horiz-adv-x="316" 
d="M50 0v496h138v-55h2c25 51 63 60 107 60h11v-135c-11 1 -21 2 -30 2c-57 0 -90 -24 -90 -93v-275h-138z" />
    <glyph glyph-name="s" unicode="s" horiz-adv-x="387" 
d="M27 143l131 19c-1 -27 15 -44 36 -44c17 0 32 15 32 31c0 35 -12 42 -32 49c-76 26 -162 40 -162 155c0 83 57 150 164 150c108 0 161 -59 162 -151l-130 -17c0 19 -9 43 -32 43c-21 0 -29 -17 -29 -28c0 -20 4 -29 27 -36c95 -29 166 -52 166 -165
c0 -80 -42 -155 -170 -155c-99 0 -159 49 -163 149z" />
    <glyph glyph-name="t" unicode="t" horiz-adv-x="277" 
d="M245 0h-56c-96 0 -129 65 -129 126v262h-45v107h45v130h129v-130h56v-107h-56v-218c0 -23 1 -46 44 -46h12v-124z" />
    <glyph glyph-name="u" unicode="u" horiz-adv-x="413" 
d="M237 39l-5 1c-17 -22 -54 -46 -86 -46c-90 0 -103 57 -103 126v375h137v-335c0 -27 12 -36 27 -36c16 0 30 14 30 39v332h137v-495h-137v39z" />
    <glyph glyph-name="v" unicode="v" horiz-adv-x="397" 
d="M198 176h7l11 121l26 197h150l-115 -494h-157l-115 494h153l26 -191z" />
    <glyph glyph-name="w" unicode="w" horiz-adv-x="582" 
d="M292 225h-5l-16 -119l-16 -106h-151l-94 494h144l17 -175l13 -128h5l15 128l21 175h129l24 -177l19 -126h5l12 129l15 174h141l-94 -494h-151l-16 106z" />
    <glyph glyph-name="x" unicode="x" horiz-adv-x="405" 
d="M204 140h-5l-45 -140h-150l118 252l-112 243h153l40 -129h3l41 129h147l-114 -243l120 -252h-150z" />
    <glyph glyph-name="y" unicode="y" horiz-adv-x="382" 
d="M183 199h5l17 116l31 179h140l-143 -564c-20 -79 -66 -122 -149 -122h-46v121h25c21 0 44 11 55 56l6 26l-121 483h146l20 -178z" />
    <glyph glyph-name="z" unicode="z" horiz-adv-x="350" 
d="M322 0h-294v121l138 252h-127v122h283v-112l-142 -256h142v-127z" />
    <glyph glyph-name="braceleft" unicode="{" horiz-adv-x="259" 
d="M130 305l1 -7c36 -15 60 -57 60 -117v-148c0 -39 23 -40 34 -40h23v-96h-69c-61 0 -109 46 -109 122v154c0 61 -24 86 -59 89v81c36 3 59 26 59 86v145c0 76 48 122 109 122h69v-96h-24c-11 0 -33 -7 -33 -44v-135c0 -55 -22 -97 -61 -116z" />
    <glyph glyph-name="bar" unicode="|" horiz-adv-x="259" 
d="M183 -162h-107v892h107v-892z" />
    <glyph glyph-name="braceright" unicode="}" horiz-adv-x="259" 
d="M129 298l1 7c-39 19 -61 61 -61 116v135c0 37 -22 44 -33 44h-24v96h69c61 0 109 -46 109 -122v-145c0 -60 23 -83 59 -86v-81c-35 -3 -59 -28 -59 -89v-154c0 -76 -48 -122 -109 -122h-69v96h23c11 0 34 1 34 40v148c0 60 24 102 60 117z" />
    <glyph glyph-name="asciitilde" unicode="~" horiz-adv-x="430" 
d="M144 393c53 0 99 -52 132 -52c22 0 46 18 71 53l74 -44c-36 -84 -79 -117 -127 -117c-56 0 -102 51 -139 51c-24 0 -46 -10 -77 -53l-72 43c35 77 74 119 138 119z" />
    <glyph glyph-name="sterling" unicode="&#xa3;" horiz-adv-x="430" 
d="M223 568h-2c-23 0 -42 -18 -42 -42c0 -47 28 -91 38 -154h99v-103h-97c-4 -64 -14 -103 -34 -144h199v-125h-353v112c32 45 51 89 55 157h-56v103h50c-12 48 -34 96 -34 160c0 104 75 171 174 171c113 0 184 -71 181 -173l-131 -29c-1 41 -19 67 -47 67z" />
    <glyph glyph-name="yen" unicode="&#xa5;" horiz-adv-x="430" 
d="M214 443h8l23 126l30 127h144l-110 -342h63v-68h-84l-4 -13v-28h88v-67h-88v-178h-137v178h-83v67h83v28l-4 13h-79v68h57l-110 342h145l33 -129z" />
    <glyph glyph-name="section" unicode="&#xa7;" horiz-adv-x="423" 
d="M403 298c0 -45 -16 -72 -52 -97c27 -35 34 -73 34 -108c0 -91 -73 -158 -185 -158c-59 0 -127 31 -176 80l76 85c45 -41 77 -53 100 -53c37 0 55 18 55 42c0 27 -29 60 -85 91c-84 47 -134 84 -134 166c0 43 22 80 58 101c-28 31 -38 63 -38 98c0 92 70 157 168 157
c64 0 110 -19 171 -70l-72 -90c-45 41 -75 44 -99 44c-25 0 -41 -16 -41 -36c0 -25 30 -46 70 -70c77 -45 150 -95 150 -182zM279 296c0 27 -30 50 -101 85c-11 -7 -23 -20 -23 -32c0 -32 60 -63 105 -87c11 7 19 22 19 34z" />
    <glyph glyph-name="quotesingle" unicode="'" horiz-adv-x="200" 
d="M149 477h-92v219h92v-219z" />
    <glyph glyph-name="quotedblleft" unicode="&#x201c;" horiz-adv-x="396" 
d="M45 561l64 152h76l-33 -149h29v-154h-136v151zM215 561l64 152h76l-33 -149h29v-154h-136v151z" />
    <glyph glyph-name="guillemotleft" unicode="&#xab;" horiz-adv-x="539" 
d="M291 46h-129l-116 201l116 200h129l-115 -200zM495 46h-129l-116 201l116 200h129l-115 -200z" />
    <glyph glyph-name="endash" unicode="&#x2013;" horiz-adv-x="500" 
d="M480 221h-460v107h460v-107z" />
    <glyph glyph-name="dagger" unicode="&#x2020;" horiz-adv-x="394" 
d="M380 365h-122v-515h-121v515h-123v122h123v189h121v-189h122v-122z" />
    <glyph glyph-name="periodcentered" unicode="&#xb7;" horiz-adv-x="229" 
d="M182 199h-135v150h135v-150z" />
    <glyph glyph-name="bullet" unicode="&#x2022;" horiz-adv-x="477" 
d="M94 274c0 87 71 158 158 158s158 -71 158 -158s-71 -158 -158 -158s-158 71 -158 158z" />
    <glyph glyph-name="quotedblright" unicode="&#x201d;" horiz-adv-x="396" 
d="M355 563l-64 -152h-76l33 149h-29v154h136v-151zM185 563l-64 -152h-76l33 149h-29v154h136v-151z" />
    <glyph glyph-name="guillemotright" unicode="&#xbb;" horiz-adv-x="539" 
d="M380 46h-129l115 201l-115 200h129l116 -200zM176 46h-129l115 201l-115 200h129l116 -200z" />
    <glyph glyph-name="ellipsis" unicode="&#x2026;" horiz-adv-x="799" 
d="M182 0h-135v150h135v-150zM468 0h-135v150h135v-150zM754 0h-135v150h135v-150z" />
    <glyph glyph-name="grave" unicode="`" horiz-adv-x="385" 
d="M337 574l-72 -43l-136 175l108 54z" />
    <glyph glyph-name="dieresis" unicode="&#xa8;" horiz-adv-x="346" 
d="M320 547h-119v130h119v-130zM145 547h-118v130h118v-130z" />
    <glyph glyph-name="oe" unicode="&#x153;" horiz-adv-x="596" 
d="M564 220h-192c0 -27 0 -61 4 -76c3 -13 14 -22 26 -22c15 0 25 11 28 40l135 -20c-5 -91 -63 -148 -162 -148c-44 0 -75 8 -102 35c-31 -28 -72 -36 -107 -36c-91 0 -137 51 -150 105c-8 33 -10 99 -10 147c0 59 4 134 17 168c20 53 71 90 151 90c43 0 83 -13 102 -37
c23 24 58 37 99 37c100 0 161 -55 161 -159v-124zM202 376c-13 0 -21 -7 -26 -20s-5 -57 -6 -113v-15c0 -35 0 -68 5 -84c3 -15 12 -22 27 -22s25 11 25 22c3 8 4 54 4 101c0 44 -1 91 -4 108c-3 13 -10 23 -25 23zM402 375c-13 0 -19 -7 -24 -19c-3 -7 -4 -26 -5 -53h54v42
c0 13 -6 30 -25 30z" />
    <glyph glyph-name="germandbls" unicode="&#xdf;" horiz-adv-x="429" 
d="M331 433v-5c43 -25 59 -65 59 -114v-152c0 -80 -15 -167 -123 -167c-15 0 -31 2 -50 6v113c17 0 35 10 35 37v185c0 12 -11 36 -40 36v107c24 0 29 8 29 52v32c0 17 -5 34 -28 34c-19 0 -29 -13 -29 -29v-568h-137v567c0 97 53 159 166 159c109 0 165 -59 165 -159v-37
c0 -36 -12 -78 -47 -97z" />
    <glyph glyph-name="trademark" unicode="&#x2122;" horiz-adv-x="729" 
d="M582 504h-3l-26 -70l-28 -65h-46l-31 68l-26 67h-4v-205h-80v396h77l87 -174l38 76l48 98h78v-396h-84v205zM300 615h-84v-316h-86v316h-84v81h254v-81z" />
    <glyph glyph-name="plusminus" unicode="&#xb1;" horiz-adv-x="430" 
d="M408 275h-140v-141h-109v141h-140v109h140v141h109v-141h140v-109zM19 105h389v-105h-389v105z" />
    <glyph glyph-name="divide" unicode="&#xf7;" horiz-adv-x="430" 
d="M290 464c0 -40 -33 -75 -74 -75s-74 35 -74 75c0 41 33 75 74 75s74 -34 74 -75zM290 121c0 -41 -33 -76 -74 -76s-74 35 -74 76c0 40 33 75 74 75s74 -35 74 -75zM19 344h389v-107h-389v107z" />
    <glyph glyph-name="degree" unicode="&#xb0;" horiz-adv-x="353" 
d="M224 571c0 27 -19 47 -47 47c-27 0 -46 -20 -46 -47s19 -48 46 -48c28 0 47 21 47 48zM308 571c0 -73 -58 -131 -131 -131c-72 0 -130 58 -130 131c0 72 58 131 130 131c73 0 131 -59 131 -131z" />
    <glyph glyph-name="registered" unicode="&#xae;" horiz-adv-x="486" 
d="M339 336h-64l-35 104h-9v-104h-60v276h78c52 0 78 -29 78 -86c0 -31 -7 -58 -32 -75c13 -37 29 -78 44 -115zM270 526c0 21 -5 33 -28 33h-11v-66h14c20 0 25 12 25 33zM246 235c-136 0 -206 100 -206 234c0 136 70 235 206 235c130 0 203 -99 203 -235
c0 -134 -73 -234 -203 -234zM246 649c-100 0 -145 -79 -145 -178c0 -104 50 -176 145 -176c98 0 141 77 141 176s-49 178 -141 178z" />
    <glyph glyph-name="copyright" unicode="&#xa9;" horiz-adv-x="703" 
d="M345 550c67 0 114 -49 117 -108l-80 -20c-3 27 -15 45 -35 45c-28 0 -34 -14 -34 -33v-199c0 -16 13 -30 32 -30c21 0 32 15 34 44l82 -16c-7 -68 -44 -111 -116 -111c-65 0 -114 38 -114 115v198c0 72 47 115 114 115zM346 -8c-200 0 -305 150 -305 349
c0 202 105 351 305 351c196 0 305 -149 305 -351c0 -199 -109 -349 -305 -349zM346 615c-149 0 -221 -123 -221 -274c0 -148 79 -271 221 -271c148 0 221 123 221 271c0 151 -77 274 -221 274z" />
    <glyph glyph-name="Adieresis" unicode="&#xc4;" horiz-adv-x="449" 
d="M297 0l-21 136h-102l-21 -136h-144l132 696h166l133 -696h-143zM222 516l-15 -141l-14 -111h63l-13 111l-15 141h-6zM371 729h-119v130h119v-130zM196 729h-118v130h118v-130z" />
    <glyph glyph-name="Eacute" unicode="&#xc9;" horiz-adv-x="394" 
d="M370 0h-319v696h319v-130h-183v-147h160v-131h-160v-157h183v-131zM169 718l-49 68l167 130l77 -93z" />
    <glyph glyph-name="Odieresis" unicode="&#xd6;" horiz-adv-x="445" 
d="M262 164v368c0 31 -17 43 -40 43s-41 -12 -41 -43v-368c0 -32 18 -43 41 -43s40 11 40 43zM400 527v-357c0 -120 -61 -176 -178 -176c-118 0 -177 59 -177 176v357c0 120 66 175 177 175c121 0 178 -55 178 -175zM368 729h-119v130h119v-130zM193 729h-118v130h118v-130z
" />
    <glyph glyph-name="Udieresis" unicode="&#xdc;" horiz-adv-x="445" 
d="M263 695h138v-525c0 -120 -61 -176 -178 -176c-118 0 -177 59 -177 176v525h136v-528c0 -32 18 -43 41 -43s40 11 40 43v528zM368 729h-119v130h119v-130zM193 729h-118v130h118v-130z" />
    <glyph glyph-name="pi" unicode="&#x3c0;" horiz-adv-x="422" 
d="M377 0h-138v374h-57v-374h-136v495h331v-495z" />
    <glyph glyph-name="tonos" unicode="&#x384;" horiz-adv-x="385" 
d="M201 531l-72 43l100 186l108 -54z" />
    <glyph glyph-name="sfthyphen" unicode="&#xe1d5;" horiz-adv-x="383" 
d="M345 216h-296v120h296v-120z" />
    <glyph glyph-name="Gamma" unicode="&#x393;" horiz-adv-x="394" 
d="M370 566h-183v-566h-136v696h319v-130z" />
    <glyph glyph-name="Delta" unicode="&#x2206;" horiz-adv-x="449" 
d="M440 0h-431l132 696h166zM222 516l-15 -141l-32 -245h101l-33 245l-15 141h-6z" />
    <glyph glyph-name="Theta" unicode="&#x398;" horiz-adv-x="445" 
d="M407 524v-351c0 -120 -68 -179 -185 -179s-184 59 -184 179v351c0 119 73 178 184 178c121 0 185 -58 185 -178zM222 124c23 0 47 14 47 46v120h-95v-120c0 -32 25 -46 48 -46zM269 422v104c0 31 -24 46 -47 46s-48 -15 -48 -46v-104h95z" />
    <glyph glyph-name="Lambda" unicode="&#x39b;" horiz-adv-x="449" 
d="M297 0l-54 375l-15 141h-6l-15 -141l-54 -375h-144l132 696h166l133 -696h-143z" />
    <glyph glyph-name="Xi" unicode="&#x39e;" horiz-adv-x="394" 
d="M368 567h-337v129h337v-129zM338 289h-278v128h278v-128zM368 0h-337v131h337v-131z" />
    <glyph glyph-name="Pi" unicode="&#x3a0;" horiz-adv-x="446" 
d="M394 0h-135v563h-72v-563h-136v696h343v-696z" />
    <glyph glyph-name="Sigma" unicode="&#x3a3;" horiz-adv-x="350" 
d="M249 359l-77 -228h167v-131h-318v124l79 235l-81 217v120h309v-130h-157z" />
    <glyph glyph-name="Iotadieresis" unicode="&#x3aa;" horiz-adv-x="242" 
d="M189 0h-136v696h136v-696zM266 729h-119v130h119v-130zM91 729h-118v130h118v-130z" />
    <glyph glyph-name="Alpha" unicode="&#x391;" horiz-adv-x="449" 
d="M297 0l-21 136h-102l-21 -136h-144l132 696h166l133 -696h-143zM222 516l-15 -141l-14 -111h63l-13 111l-15 141h-6z" />
    <glyph glyph-name="Phi" unicode="&#x3a6;" horiz-adv-x="613" 
d="M239 179v363c-40 -1 -62 -29 -62 -69v-226c0 -40 22 -67 62 -68zM436 247v226c0 44 -26 68 -62 69v-363c36 1 62 33 62 68zM568 469v-216c0 -120 -81 -184 -194 -195v-58h-135v58c-114 8 -194 76 -194 195v219c0 120 81 184 194 192v32h135v-32c119 -7 194 -75 194 -195z
" />
    <glyph glyph-name="Upsilondieresis" unicode="&#x3ab;" horiz-adv-x="414" 
d="M207 442h5l25 117l30 137h144l-135 -413v-283h-137v283l-136 413h145l34 -139zM353 729h-119v130h119v-130zM178 729h-118v130h118v-130z" />
    <glyph glyph-name="Psi" unicode="&#x3a8;" horiz-adv-x="613" 
d="M436 695h132v-332c0 -119 -99 -198 -194 -201v-162h-135v162c-107 3 -194 76 -194 195v338h132v-341c0 -40 22 -66 62 -67v408h135v-408c39 3 62 28 62 67v341z" />
    <glyph glyph-name="Omega" unicode="&#x2126;" horiz-adv-x="446" 
d="M362 131l1 -3h47v-128h-168v136c13 7 20 20 20 40v349c0 31 -13 47 -40 47s-41 -16 -41 -47v-349c0 -23 7 -34 22 -39v-137h-166v128h44l1 3c-25 19 -37 51 -37 98v299c0 119 76 175 177 175c113 0 178 -55 178 -175v-299c0 -51 -15 -79 -38 -98z" />
    <glyph glyph-name="afii00208" unicode="&#x2015;" horiz-adv-x="1000" 
d="M980 221h-960v107h960v-107z" />
    <glyph glyph-name="alpha" unicode="&#x3b1;" horiz-adv-x="401" 
d="M203 122c13 0 21 7 26 20s3 57 4 113v11c0 35 0 69 -3 80c-3 15 -12 22 -27 22s-25 -11 -25 -22c-3 -8 -4 -46 -4 -93c0 -44 1 -91 4 -108c3 -13 10 -23 25 -23zM150 -9c-83 0 -95 41 -109 87c-8 32 -10 112 -10 168c0 51 2 97 5 120c11 97 47 134 118 134
c23 0 60 -8 77 -44l4 2v36h134v-494h-137v29h-5c-16 -24 -59 -38 -77 -38z" />
    <glyph glyph-name="beta" unicode="&#x3b2;" horiz-adv-x="422" 
d="M321 423v-2c56 -19 62 -83 62 -183c0 -157 -15 -244 -120 -244c-24 0 -52 7 -77 36h-7v-180h-137v713c0 104 56 163 168 163c109 0 164 -69 164 -181c0 -59 -8 -101 -53 -122zM197 368v99c32 0 40 15 40 68c0 49 -14 62 -30 62c-19 0 -28 -9 -28 -28v-414
c0 -21 13 -32 29 -32c28 0 39 11 39 122c0 101 -9 123 -49 123h-1z" />
    <glyph glyph-name="psi" unicode="&#x3c8;" horiz-adv-x="567" 
d="M397 495h135v-315c0 -136 -97 -183 -182 -186v-185h-132v185c-116 5 -181 71 -181 178v323h136v-320c0 -28 10 -53 45 -54v374h129v-374c23 1 50 18 50 54v320z" />
    <glyph glyph-name="delta" unicode="&#x3b4;" horiz-adv-x="409" 
d="M243 721c23 0 72 -2 103 -7l-8 -106c-35 4 -57 4 -72 4c-61 0 -79 -18 -79 -49c0 -17 32 -47 73 -74c94 -62 111 -106 111 -210v-57c0 -35 -2 -62 -6 -93c-11 -112 -95 -136 -166 -136c-97 0 -138 53 -151 113c-8 35 -9 88 -9 127c0 44 3 97 14 130c11 35 33 64 68 83
c-43 36 -58 71 -58 122c0 92 59 153 180 153zM206 363c-15 -7 -24 -22 -27 -34c-5 -21 -5 -32 -5 -96c0 -52 -1 -74 6 -93c4 -12 12 -18 24 -18c14 0 22 6 24 17c6 13 9 44 9 94v53c0 19 -2 33 -5 46c-5 16 -11 24 -26 31z" />
    <glyph glyph-name="epsilon" unicode="&#x3b5;" horiz-adv-x="392" 
d="M204 503c99 0 171 -56 171 -159l-137 -17c0 35 -15 48 -34 48c-15 0 -27 -11 -27 -26v-22c0 -16 11 -31 36 -31h43v-100h-43c-29 0 -36 -18 -36 -34v-12c0 -15 13 -27 30 -27c15 0 31 11 31 44l137 -21c-3 -93 -61 -151 -160 -151c-101 0 -178 40 -178 151
c0 47 8 86 57 107v1c-43 20 -53 53 -53 101c0 85 60 148 163 148z" />
    <glyph glyph-name="phi" unicode="&#x3c6;" horiz-adv-x="567" 
d="M349 -6v-185h-130v185c-92 0 -158 50 -171 104c-8 33 -10 99 -10 147c0 59 4 134 17 168c16 43 51 69 104 79l35 -118c-7 -3 -13 -9 -16 -18c-5 -13 -3 -57 -4 -113v-15c0 -35 0 -68 5 -84c3 -13 25 -23 40 -23v378h138c85 0 139 -47 158 -96c15 -43 16 -99 16 -155v-15
c0 -36 0 -65 -4 -94c-13 -115 -114 -142 -178 -145zM346 372v-251c27 3 42 20 45 35c1 8 4 42 4 89c0 44 -2 81 -5 98c-3 13 -17 28 -44 29z" />
    <glyph glyph-name="gamma" unicode="&#x3b3;" horiz-adv-x="406" 
d="M144 -38l-80 373c-7 25 -15 48 -43 48c-3 0 -4 -1 -7 -1l-12 108c31 12 58 15 79 15c83 0 98 -83 106 -139l24 -153h7c11 93 25 193 40 281h147c-43 -169 -90 -347 -130 -526v-170h-131v164z" />
    <glyph glyph-name="eta" unicode="&#x3b7;" horiz-adv-x="413" 
d="M179 456l5 -1c17 23 53 46 84 46c90 0 105 -57 105 -126v-375h-137v335c0 27 -12 36 -27 36c-16 0 -30 -14 -30 -39v-332h-137v495h137v-39z" />
    <glyph glyph-name="iota" unicode="&#x3b9;" horiz-adv-x="231" 
d="M215 104l-2 -107c-9 0 -41 -1 -48 -1c-84 0 -119 42 -119 126v372h129v-345c0 -39 11 -44 40 -45z" />
    <glyph glyph-name="xi" unicode="&#x3be;" horiz-adv-x="364" 
d="M211 726c105 0 165 -53 165 -164l-135 -15v9c0 28 -7 42 -30 42c-25 0 -31 -28 -31 -71c0 -52 4 -85 67 -85h75v-115h-66c-67 0 -73 -60 -73 -107c0 -68 30 -84 70 -108c37 -23 71 -38 94 -58c35 -31 28 -68 5 -116c-15 -29 -36 -66 -67 -111l-100 56c35 64 54 88 0 110
c-110 40 -145 92 -145 226c0 69 13 132 66 161c-56 21 -66 96 -66 146c0 120 43 200 171 200z" />
    <glyph glyph-name="kappa" unicode="&#x3ba;" horiz-adv-x="432" 
d="M182 378l7 -1l71 117h163l-133 -193l136 -301h-163l-70 172l-11 -17v-155h-136v494h136v-116z" />
    <glyph glyph-name="lambda" unicode="&#x3bb;" horiz-adv-x="392" 
d="M189 254h-4l-44 -254h-141l133 475l-16 84c-6 28 -14 51 -67 51v115c25 5 46 8 65 8c76 0 108 -44 125 -120l108 -477c7 -27 17 -30 40 -34v-102c-17 -3 -41 -5 -60 -5c-48 0 -88 18 -104 94z" />
    <glyph glyph-name="nu" unicode="&#x3bd;" horiz-adv-x="397" 
d="M198 176h7l11 121l26 197h150l-115 -494h-157l-115 494h153l26 -191z" />
    <glyph glyph-name="omegatonos" unicode="&#x3ce;" horiz-adv-x="588" 
d="M402 -6c-33 0 -85 15 -106 58h-5c-27 -43 -64 -59 -103 -59c-92 0 -133 52 -146 105c-8 33 -9 99 -9 147c0 59 4 137 17 171c20 53 72 87 152 87v-127c-13 0 -21 -7 -26 -20s-6 -57 -7 -113c0 -51 0 -83 5 -99c3 -14 12 -21 26 -21c12 0 29 7 29 27v183h129v-183
c0 -20 18 -27 30 -27c15 0 26 10 26 21c3 8 4 54 4 101c0 44 -1 91 -4 108c-3 13 -10 23 -25 23v127c84 0 131 -33 150 -82c15 -43 15 -109 15 -181c0 -36 -1 -79 -5 -112c-13 -107 -82 -134 -147 -134zM302 531l-72 43l100 186l108 -54z" />
    <glyph glyph-name="rho" unicode="&#x3c1;" horiz-adv-x="401" 
d="M35 -191l-1 436c0 59 4 134 17 168c20 53 71 90 151 90c84 0 131 -38 150 -87c13 -34 14 -113 14 -168v-20c0 -187 -26 -235 -119 -235c-19 0 -51 10 -70 33h-5v-217h-137zM202 376c-13 0 -21 -7 -26 -20s-5 -57 -6 -113v-15c0 -35 0 -68 5 -84c3 -15 12 -22 27 -22
s25 11 25 22c3 8 4 54 4 101c0 44 -1 91 -4 108c-3 13 -10 23 -25 23z" />
    <glyph glyph-name="sigma" unicode="&#x3c3;" horiz-adv-x="411" 
d="M344 383l-4 -2c31 -21 31 -88 31 -133v-15c0 -36 -1 -72 -5 -105c-13 -115 -100 -135 -168 -135c-91 0 -137 51 -150 105c-8 33 -10 99 -10 147c0 60 4 125 17 160c20 53 71 89 151 89h196v-111h-58zM206 368c-13 0 -21 -7 -26 -20s-5 -49 -6 -105v-15c0 -35 0 -68 5 -84
c3 -15 12 -22 27 -22s25 11 25 22c3 8 4 54 4 101c0 44 -1 83 -4 100c-3 13 -10 23 -25 23z" />
    <glyph glyph-name="tau" unicode="&#x3c4;" horiz-adv-x="285" 
d="M258 0h-56c-96 0 -129 65 -129 126v257h-62v112h269v-112h-78v-213c0 -23 1 -46 44 -46h12v-124z" />
    <glyph glyph-name="theta" unicode="&#x3b8;" horiz-adv-x="401" 
d="M202 723c84 0 131 -38 150 -87c11 -35 14 -111 14 -269c0 -170 -1 -207 -4 -239c-13 -115 -100 -135 -168 -135c-91 0 -137 51 -150 105c-8 33 -10 99 -10 243c0 184 4 259 17 292c20 53 71 90 151 90zM231 245v72h-61v-89c0 -35 0 -68 5 -84c3 -15 12 -22 27 -22
s25 11 25 22c3 8 4 54 4 101zM170 463v-41h61v43c0 44 -1 91 -4 108c-3 13 -10 23 -25 23c-13 0 -21 -7 -26 -20s-5 -57 -6 -113z" />
    <glyph glyph-name="omega" unicode="&#x3c9;" horiz-adv-x="588" 
d="M402 -6c-33 0 -85 15 -106 58h-5c-27 -43 -64 -59 -103 -59c-92 0 -133 52 -146 105c-8 33 -9 99 -9 147c0 59 4 137 17 171c20 53 72 87 152 87v-127c-13 0 -21 -7 -26 -20s-6 -57 -7 -113c0 -51 0 -83 5 -99c3 -14 12 -21 26 -21c12 0 29 7 29 27v183h129v-183
c0 -20 18 -27 30 -27c15 0 26 10 26 21c3 8 4 54 4 101c0 44 -1 91 -4 108c-3 13 -10 23 -25 23v127c84 0 131 -33 150 -82c15 -43 15 -109 15 -181c0 -36 -1 -79 -5 -112c-13 -107 -82 -134 -147 -134z" />
    <glyph glyph-name="sigma1" unicode="&#x3c2;" horiz-adv-x="384" 
d="M200 503c100 0 156 -57 156 -161l-133 -15c0 35 -13 49 -28 49c-29 0 -29 -66 -29 -114c0 -68 7 -109 75 -146c82 -45 95 -72 95 -113c0 -23 -23 -77 -86 -168l-101 56c23 40 37 72 37 81c0 13 -7 23 -22 31c-119 64 -132 103 -132 202c0 100 5 173 18 208
c20 53 70 90 150 90z" />
    <glyph glyph-name="chi" unicode="&#x3c7;" horiz-adv-x="405" 
d="M204 140h-5l-45 -140h-150l118 252l-112 243h153l40 -129h3l41 129h147l-114 -243l120 -252h-150z" />
    <glyph glyph-name="upsilon" unicode="&#x3c5;" horiz-adv-x="401" 
d="M35 493h137v-265c0 -35 0 -68 5 -84c3 -15 12 -22 25 -22c15 0 25 11 25 22c3 8 2 54 2 101v248h137v-260c0 -36 0 -72 -4 -105c-13 -115 -100 -135 -168 -135c-91 0 -137 51 -150 105c-8 33 -9 99 -9 147v248z" />
    <glyph glyph-name="zeta" unicode="&#x3b6;" horiz-adv-x="383" 
d="M179 371l-1 3h-129v121h320v-100c-139 -87 -198 -173 -198 -229c0 -31 28 -46 91 -73c59 -24 92 -48 92 -93c0 -26 -11 -81 -91 -169l-89 56c35 52 39 69 39 74c0 17 -9 22 -37 33c-72 27 -146 58 -146 161c0 75 48 144 149 216z" />
    <glyph glyph-name="Euro" unicode="&#x20ac;" horiz-adv-x="430" 
d="M20 262v68h42v39h-42v71h42v79c0 111 64 183 181 183c124 0 180 -76 177 -179l-131 -23c-1 41 -19 72 -47 72c-36 0 -45 -33 -45 -53v-79h128v-71h-128v-39h128v-68h-128v-98c0 -19 5 -40 40 -40c27 0 45 24 46 72l135 -18c-1 -111 -63 -184 -176 -184
c-125 0 -180 59 -180 176v92h-42z" />
    <glyph glyph-name="logicalnot" unicode="&#xac;" horiz-adv-x="430" 
d="M407 354v-262h-109v151h-279v111h388z" />
    <glyph glyph-name="circumflex" unicode="&#x2c6;" horiz-adv-x="385" 
d="M330 515l-119 94l-119 -94l-52 47l134 159h79l129 -158z" />
    <glyph glyph-name="caron" unicode="&#x2c7;" horiz-adv-x="385" 
d="M211 627l119 94l52 -48l-129 -158h-79l-134 159l52 47z" />
    <glyph glyph-name="breve" unicode="&#x2d8;" horiz-adv-x="484" 
d="M77 685h93c3 -29 29 -71 62 -71c38 0 55 42 58 71h95c-5 -64 -49 -154 -153 -154c-110 0 -152 90 -155 154z" />
    <glyph glyph-name="tilde" unicode="&#x2dc;" horiz-adv-x="362" 
d="M128 689c42 0 78 -34 103 -34c19 0 30 5 57 38l65 -36c-32 -75 -67 -99 -106 -99c-48 0 -81 35 -113 35c-16 0 -33 -8 -58 -39l-65 40c31 72 78 95 117 95z" />
    <glyph glyph-name="Acute" unicode="&#xf6c9;" horiz-adv-x="394" 
d="M169 718l-49 68l167 130l77 -93z" />
    <glyph glyph-name="Dieresis" unicode="&#xf6cb;" horiz-adv-x="449" 
d="M366 729h-119v130h119v-130zM191 729h-118v130h118v-130z" />
    <glyph glyph-name="dieresistonos" unicode="&#x385;" horiz-adv-x="469" 
d="M447 555h-119v122h119v-122zM137 555h-118v122h118v-122zM226 528l-77 31l75 199l114 -39z" />
    <glyph glyph-name="acute" unicode="&#xb4;" horiz-adv-x="385" 
d="M201 531l-72 43l100 186l108 -54z" />
    <glyph glyph-name="space" unicode=" " horiz-adv-x="215" 
 />
    <glyph glyph-name="cedilla" unicode="&#xb8;" horiz-adv-x="431" 
d="M177 34h61l-25 -70c71 -11 89 -58 89 -88c0 -28 -22 -86 -97 -86c-11 0 -56 1 -103 23l21 53c31 -13 46 -15 61 -15c19 0 32 15 32 30c0 21 -15 28 -38 28l-34 23z" />
    <glyph glyph-name="AE" unicode="&#xc6;" horiz-adv-x="642" 
d="M620 0h-319v151h-110l-39 -151h-144l197 696h415v-130h-183v-146h160v-133h-160v-151h183v-136zM296 564l-72 -283h77v283h-5z" />
    <glyph glyph-name="Ccedilla" unicode="&#xc7;" horiz-adv-x="427" 
d="M226 702c121 0 178 -65 178 -160c0 -7 0 -12 -1 -19l-131 -23c-1 41 -19 72 -47 72c-36 0 -45 -33 -45 -53v-355c0 -19 5 -40 40 -40c27 0 45 24 46 72l135 -18c-1 -104 -56 -175 -156 -183l-11 -31c71 -11 89 -58 89 -88c0 -28 -22 -86 -97 -86c-11 0 -56 1 -103 23
l21 53c31 -13 46 -15 61 -15c19 0 32 15 32 30c0 21 -15 28 -38 28l-34 23l21 65c-97 11 -141 69 -141 173v349c0 111 58 183 181 183z" />
    <glyph glyph-name="Ntilde" unicode="&#xd1;" horiz-adv-x="481" 
d="M296 367h5v329h133v-696h-116l-82 203l-48 132h-5v-335h-135v696h119l82 -202zM189 862c42 0 78 -34 103 -34c19 0 30 5 57 38l65 -36c-32 -75 -67 -99 -106 -99c-48 0 -81 35 -113 35c-16 0 -33 -8 -58 -39l-65 40c31 72 78 95 117 95z" />
    <glyph glyph-name="multiply" unicode="&#xd7;" horiz-adv-x="430" 
d="M418 418l-124 -120l121 -128l-79 -77l-123 128l-126 -120l-75 78l126 120l-123 128l79 77l123 -128l126 121z" />
    <glyph glyph-name="ae" unicode="&#xe6;" horiz-adv-x="587" 
d="M230 164v44h-25c-23 0 -42 -12 -42 -51c0 -25 15 -36 35 -36s32 18 32 43zM367 350v-47h57v46c0 13 -14 26 -29 26c-16 0 -28 -13 -28 -25zM396 -6c-56 0 -107 19 -130 60c-43 -52 -85 -60 -114 -60c-97 0 -124 64 -124 155c0 80 46 152 159 152h43v42c0 19 -7 31 -32 31
c-13 0 -31 -3 -38 -38l-119 37c21 85 78 128 170 128c39 0 71 -9 94 -28c23 20 56 30 91 30c100 0 165 -55 165 -159v-127h-194v-68c0 -15 12 -26 28 -26c15 0 29 10 32 39l135 -22c-5 -91 -67 -146 -166 -146z" />
    <glyph glyph-name="eth" unicode="&#xf0;" horiz-adv-x="400" 
d="M158 557l52 38c-23 19 -63 32 -110 37l16 98c105 -5 150 -28 186 -67l60 44l34 -43l-62 -46c21 -43 33 -106 33 -233v-124c0 -35 -2 -94 -5 -130c-13 -113 -92 -138 -171 -138c-88 0 -132 41 -149 105c-8 28 -8 97 -8 147c0 64 5 109 17 144c19 51 61 87 132 87
c16 0 53 -5 76 -28c0 39 -3 74 -16 103l-51 -37zM202 347c-13 0 -21 -7 -26 -20s-5 -33 -6 -94c0 -40 0 -73 5 -89c3 -15 12 -22 27 -22s22 10 25 22c3 8 5 50 5 97c0 44 -2 66 -5 83c-3 13 -10 23 -25 23z" />
    <glyph glyph-name="otilde" unicode="&#xf5;" horiz-adv-x="401" 
d="M202 503c84 0 131 -38 150 -87c13 -37 14 -112 14 -168v-15c0 -36 0 -72 -4 -105c-13 -115 -100 -135 -168 -135c-91 0 -137 51 -150 105c-8 33 -10 99 -10 147c0 59 4 134 17 168c20 53 71 90 151 90zM202 376c-13 0 -21 -7 -26 -20s-5 -57 -6 -113v-15
c0 -35 0 -68 5 -84c3 -15 12 -22 27 -22s25 11 25 22c3 8 5 54 5 101c0 44 -2 91 -5 108c-3 13 -10 23 -25 23zM150 689c42 0 78 -34 103 -34c19 0 30 5 57 38l65 -36c-32 -75 -67 -99 -106 -99c-48 0 -81 35 -113 35c-16 0 -33 -8 -58 -39l-65 40c31 72 78 95 117 95z" />
    <glyph glyph-name="dotlessi" unicode="&#x131;" horiz-adv-x="237" 
d="M187 0h-137v494h137v-494z" />
    <glyph glyph-name="florin" unicode="&#x192;" horiz-adv-x="430" 
d="M76 326v115h76l8 63c11 96 50 197 167 197c31 0 62 0 93 -16l-26 -113c-25 11 -43 10 -54 10c-28 0 -43 -35 -47 -68l-9 -73h71v-115h-85c-7 -69 -13 -134 -21 -202c-16 -132 -55 -206 -154 -206c-24 0 -59 4 -98 21l33 107c19 -11 30 -10 37 -10c27 0 38 20 45 76
l23 214h-59z" />
    <glyph glyph-name="onesuperior" unicode="&#xb9;" horiz-adv-x="224" 
d="M179 370h-97v308l-57 -42v101l69 49h85v-416z" />
    <glyph glyph-name="twosuperior" unicode="&#xb2;" horiz-adv-x="280" 
d="M243 370h-216v78l112 188c9 15 14 32 14 51c0 9 -4 20 -17 20c-15 0 -24 -12 -24 -49l-94 12c4 83 56 123 119 123c79 0 114 -41 114 -106c0 -31 -10 -58 -30 -94l-76 -135h98v-88z" />
    <glyph glyph-name="threesuperior" unicode="&#xb3;" horiz-adv-x="280" 
d="M144 793c85 0 111 -54 111 -123c0 -28 -7 -67 -38 -83c33 -11 38 -42 38 -90c0 -76 -28 -130 -114 -130c-64 0 -112 40 -112 115l93 10c0 -33 13 -37 20 -37c8 0 17 4 17 19v51c0 19 -11 24 -26 24h-26v75h29c15 0 23 7 23 22v42c0 7 -3 18 -18 18c-11 0 -21 -9 -21 -46
l-92 13c3 76 51 120 116 120z" />
    <glyph glyph-name="agrave" unicode="&#xe0;" horiz-adv-x="408" 
d="M236 34l-5 1c-15 -24 -51 -41 -79 -41c-97 0 -124 64 -124 155c0 80 46 152 159 152h49v42c0 21 -12 31 -35 31c-13 0 -31 -6 -38 -41l-121 39c20 81 77 129 169 129c111 0 162 -46 162 -158v-343h-137v34zM236 164v44h-28c-23 0 -45 -12 -45 -51c0 -25 18 -36 38 -36
s35 18 35 43zM280 574l-72 -43l-136 175l108 54z" />
    <glyph glyph-name="acircumflex" unicode="&#xe2;" horiz-adv-x="408" 
d="M236 34l-5 1c-15 -24 -51 -41 -79 -41c-97 0 -124 64 -124 155c0 80 46 152 159 152h49v42c0 21 -12 31 -35 31c-13 0 -31 -6 -38 -41l-121 39c20 81 77 129 169 129c111 0 162 -46 162 -158v-343h-137v34zM236 164v44h-28c-23 0 -45 -12 -45 -51c0 -25 18 -36 38 -36
s35 18 35 43zM338 515l-119 94l-119 -94l-52 47l134 159h79l129 -158z" />
    <glyph glyph-name="adieresis" unicode="&#xe4;" horiz-adv-x="408" 
d="M236 34l-5 1c-15 -24 -51 -41 -79 -41c-97 0 -124 64 -124 155c0 80 46 152 159 152h49v42c0 21 -12 31 -35 31c-13 0 -31 -6 -38 -41l-121 39c20 81 77 129 169 129c111 0 162 -46 162 -158v-343h-137v34zM236 164v44h-28c-23 0 -45 -12 -45 -51c0 -25 18 -36 38 -36
s35 18 35 43zM361 547h-119v130h119v-130zM186 547h-118v130h118v-130z" />
    <glyph glyph-name="ccedilla" unicode="&#xe7;" horiz-adv-x="381" 
d="M225 167l135 -17c0 -91 -52 -148 -139 -155l-11 -31c71 -11 89 -58 89 -88c0 -28 -22 -86 -97 -86c-11 0 -56 1 -103 23l21 53c31 -13 46 -15 61 -15c19 0 32 15 32 30c0 21 -15 28 -38 28l-34 23l21 65c-73 11 -106 54 -118 101c-8 33 -10 99 -10 147c0 60 5 133 18 168
c20 53 70 90 150 90c100 0 156 -57 156 -161l-133 -15c0 35 -11 49 -26 49c-13 0 -19 -8 -23 -20c-4 -11 -5 -57 -6 -113v-15c0 -35 1 -68 5 -84c3 -15 11 -22 24 -22c15 0 26 12 26 45z" />
    <glyph glyph-name="eacute" unicode="&#xe9;" horiz-adv-x="394" 
d="M362 220h-192c0 -32 -2 -61 2 -76c3 -15 12 -22 25 -22c15 0 28 11 31 40l135 -20c-5 -91 -63 -148 -162 -148c-100 0 -143 50 -157 104c-8 33 -10 99 -10 147c0 60 5 133 18 168c20 53 69 90 149 90c100 0 161 -55 161 -159v-124zM176 356c-3 -7 -4 -26 -5 -53h54v42
c0 13 -6 30 -25 30c-12 0 -20 -6 -24 -19zM210 531l-72 43l100 186l108 -54z" />
    <glyph glyph-name="egrave" unicode="&#xe8;" horiz-adv-x="394" 
d="M362 220h-192c0 -32 -2 -61 2 -76c3 -15 12 -22 25 -22c15 0 28 11 31 40l135 -20c-5 -91 -63 -148 -162 -148c-100 0 -143 50 -157 104c-8 33 -10 99 -10 147c0 60 5 133 18 168c20 53 69 90 149 90c100 0 161 -55 161 -159v-124zM176 356c-3 -7 -4 -26 -5 -53h54v42
c0 13 -6 30 -25 30c-12 0 -20 -6 -24 -19zM271 574l-72 -43l-136 175l108 54z" />
    <glyph glyph-name="ecircumflex" unicode="&#xea;" horiz-adv-x="394" 
d="M362 220h-192c0 -32 -2 -61 2 -76c3 -15 12 -22 25 -22c15 0 28 11 31 40l135 -20c-5 -91 -63 -148 -162 -148c-100 0 -143 50 -157 104c-8 33 -10 99 -10 147c0 60 5 133 18 168c20 53 69 90 149 90c100 0 161 -55 161 -159v-124zM176 356c-3 -7 -4 -26 -5 -53h54v42
c0 13 -6 30 -25 30c-12 0 -20 -6 -24 -19zM318 515l-119 94l-119 -94l-52 47l134 159h79l129 -158z" />
    <glyph glyph-name="edieresis" unicode="&#xeb;" horiz-adv-x="394" 
d="M362 220h-192c0 -32 -2 -61 2 -76c3 -15 12 -22 25 -22c15 0 28 11 31 40l135 -20c-5 -91 -63 -148 -162 -148c-100 0 -143 50 -157 104c-8 33 -10 99 -10 147c0 60 5 133 18 168c20 53 69 90 149 90c100 0 161 -55 161 -159v-124zM176 356c-3 -7 -4 -26 -5 -53h54v42
c0 13 -6 30 -25 30c-12 0 -20 -6 -24 -19zM344 547h-119v130h119v-130zM169 547h-118v130h118v-130z" />
    <glyph glyph-name="icircumflex" unicode="&#xee;" horiz-adv-x="302" 
d="M219 0h-137v494h137v-494zM270 515l-119 94l-119 -94l-52 47l134 159h79l129 -158z" />
    <glyph glyph-name="idieresis" unicode="&#xef;" horiz-adv-x="273" 
d="M203 0h-137v494h137v-494zM283 547h-119v130h119v-130zM108 547h-118v130h118v-130z" />
    <glyph glyph-name="ocircumflex" unicode="&#xf4;" horiz-adv-x="401" 
d="M202 503c84 0 131 -38 150 -87c13 -37 14 -112 14 -168v-15c0 -36 0 -72 -4 -105c-13 -115 -100 -135 -168 -135c-91 0 -137 51 -150 105c-8 33 -10 99 -10 147c0 59 4 134 17 168c20 53 71 90 151 90zM202 376c-13 0 -21 -7 -26 -20s-5 -57 -6 -113v-15
c0 -35 0 -68 5 -84c3 -15 12 -22 27 -22s25 11 25 22c3 8 5 54 5 101c0 44 -2 91 -5 108c-3 13 -10 23 -25 23zM318 515l-119 94l-119 -94l-52 47l134 159h79l129 -158z" />
    <glyph glyph-name="odieresis" unicode="&#xf6;" horiz-adv-x="401" 
d="M202 503c84 0 131 -38 150 -87c13 -37 14 -112 14 -168v-15c0 -36 0 -72 -4 -105c-13 -115 -100 -135 -168 -135c-91 0 -137 51 -150 105c-8 33 -10 99 -10 147c0 59 4 134 17 168c20 53 71 90 151 90zM202 376c-13 0 -21 -7 -26 -20s-5 -57 -6 -113v-15
c0 -35 0 -68 5 -84c3 -15 12 -22 27 -22s25 11 25 22c3 8 5 54 5 101c0 44 -2 91 -5 108c-3 13 -10 23 -25 23zM347 547h-119v130h119v-130zM172 547h-118v130h118v-130z" />
    <glyph glyph-name="ugrave" unicode="&#xf9;" horiz-adv-x="413" 
d="M237 39l-5 1c-17 -22 -54 -46 -86 -46c-90 0 -103 57 -103 126v375h137v-335c0 -27 12 -36 27 -36c16 0 30 14 30 39v332h137v-495h-137v39zM285 574l-72 -43l-136 175l108 54z" />
    <glyph glyph-name="ucircumflex" unicode="&#xfb;" horiz-adv-x="413" 
d="M237 39l-5 1c-17 -22 -54 -46 -86 -46c-90 0 -103 57 -103 126v375h137v-335c0 -27 12 -36 27 -36c16 0 30 14 30 39v332h137v-495h-137v39zM326 515l-119 94l-119 -94l-52 47l134 159h79l129 -158z" />
    <glyph glyph-name="udieresis" unicode="&#xfc;" horiz-adv-x="413" 
d="M237 39l-5 1c-17 -22 -54 -46 -86 -46c-90 0 -103 57 -103 126v375h137v-335c0 -27 12 -36 27 -36c16 0 30 14 30 39v332h137v-495h-137v39zM353 547h-119v130h119v-130zM178 547h-118v130h118v-130z" />
    <glyph glyph-name="Epsilon" unicode="&#x395;" horiz-adv-x="394" 
d="M370 0h-319v696h319v-130h-183v-147h160v-131h-160v-157h183v-131z" />
    <glyph glyph-name="Zeta" unicode="&#x396;" horiz-adv-x="360" 
d="M339 0h-315v124l168 442h-162v130h309v-120l-169 -445h169v-131z" />
    <glyph glyph-name="Iota" unicode="&#x399;" horiz-adv-x="242" 
d="M189 0h-136v696h136v-696z" />
    <glyph glyph-name="Kappa" unicode="&#x39a;" horiz-adv-x="446" 
d="M187 481h7l95 215h145l-145 -288l160 -408h-141l-97 267l-24 -63v-204h-136v696h136v-215z" />
    <glyph glyph-name="Mu" unicode="&#x39c;" horiz-adv-x="582" 
d="M337 136h-91l-29 89l-32 103h-5v-328h-135v696h127l69 -186l47 -138h6l48 141l68 183h127v-696h-136v325h-4l-33 -108z" />
    <glyph glyph-name="Beta" unicode="&#x392;" horiz-adv-x="446" 
d="M264 498c0 55 -19 68 -63 68h-14v-138h17c40 0 60 23 60 70zM270 226c0 56 -19 76 -58 76h-25v-171h24c51 0 59 43 59 95zM318 369v-5c63 -21 82 -83 82 -147c0 -149 -66 -217 -195 -217h-154v696h157c124 0 186 -66 186 -194c0 -55 -23 -114 -76 -133z" />
    <glyph glyph-name="Nu" unicode="&#x39d;" horiz-adv-x="481" 
d="M296 367h5v329h133v-696h-116l-82 203l-48 132h-5v-335h-135v696h119l82 -202z" />
    <glyph glyph-name="Omicron" unicode="&#x39f;" horiz-adv-x="445" 
d="M262 164v368c0 31 -17 43 -40 43s-41 -12 -41 -43v-368c0 -32 18 -43 41 -43s40 11 40 43zM400 527v-357c0 -120 -61 -176 -178 -176c-118 0 -177 59 -177 176v357c0 120 66 175 177 175c121 0 178 -55 178 -175z" />
    <glyph glyph-name="Rho" unicode="&#x3a1;" horiz-adv-x="428" 
d="M51 696h165c116 0 194 -50 194 -215c0 -143 -56 -226 -191 -226h-32v-255h-136v696zM212 566h-25v-180h23c35 0 70 15 70 96c0 61 -27 84 -68 84z" />
    <glyph glyph-name="Tau" unicode="&#x3a4;" horiz-adv-x="360" 
d="M354 566h-107v-566h-136v566h-107v130h350v-130z" />
    <glyph glyph-name="Upsilon" unicode="&#x3a5;" horiz-adv-x="414" 
d="M207 442h5l25 117l30 137h144l-135 -413v-283h-137v283l-136 413h145l34 -139z" />
    <glyph glyph-name="Chi" unicode="&#x3a7;" horiz-adv-x="450" 
d="M226 204h-4l-61 -204h-158l144 363l-134 333h159l51 -172h6l48 172h160l-138 -333l148 -363h-160z" />
    <glyph glyph-name="Alphatonos" unicode="&#x386;" horiz-adv-x="449" 
d="M297 0l-21 136h-102l-21 -136h-144l132 696h166l133 -696h-143zM222 516l-15 -141l-14 -111h63l-13 111l-15 141h-6zM-46 511l-72 43l100 186l108 -54z" />
    <glyph glyph-name="Epsilontonos" unicode="&#x388;" horiz-adv-x="394" 
d="M370 0h-319v696h319v-130h-183v-147h160v-131h-160v-157h183v-131zM-107 531l-72 43l100 186l108 -54z" />
    <glyph glyph-name="Etatonos" unicode="&#x389;" horiz-adv-x="459" 
d="M409 0h-135v288h-87v-288h-136v696h136v-276h87v276h135v-696zM-104 511l-72 43l100 186l108 -54z" />
    <glyph glyph-name="Iotatonos" unicode="&#x38a;" horiz-adv-x="242" 
d="M189 0h-136v696h136v-696zM-111 511l-72 43l100 186l108 -54z" />
    <glyph glyph-name="Omicrontonos" unicode="&#x38c;" horiz-adv-x="445" 
d="M262 164v368c0 31 -17 43 -40 43s-41 -12 -41 -43v-368c0 -32 18 -43 41 -43s40 11 40 43zM400 527v-357c0 -120 -61 -176 -178 -176c-118 0 -177 59 -177 176v357c0 120 66 175 177 175c121 0 178 -55 178 -175zM-86 511l-72 43l100 186l108 -54z" />
    <glyph glyph-name="Upsilontonos" unicode="&#x38e;" horiz-adv-x="414" 
d="M207 442h5l25 117l30 137h144l-135 -413v-283h-137v283l-136 413h145l34 -139zM-141 511l-72 43l100 186l108 -54z" />
    <glyph glyph-name="Omegatonos" unicode="&#x38f;" horiz-adv-x="446" 
d="M362 131l1 -3h47v-128h-168v136c13 7 20 20 20 40v349c0 31 -13 47 -40 47s-41 -16 -41 -47v-349c0 -23 7 -34 22 -39v-137h-166v128h44l1 3c-25 19 -37 51 -37 98v299c0 119 76 175 177 175c113 0 178 -55 178 -175v-299c0 -51 -15 -79 -38 -98zM-71 511l-72 43l100 186
l108 -54z" />
    <glyph glyph-name="alphatonos" unicode="&#x3ac;" horiz-adv-x="401" 
d="M203 122c13 0 21 7 26 20s3 57 4 113v11c0 35 0 69 -3 80c-3 15 -12 22 -27 22s-25 -11 -25 -22c-3 -8 -4 -46 -4 -93c0 -44 1 -91 4 -108c3 -13 10 -23 25 -23zM150 -9c-83 0 -95 41 -109 87c-8 32 -10 112 -10 168c0 51 2 97 5 120c11 97 47 134 118 134
c23 0 60 -8 77 -44l4 2v36h134v-494h-137v29h-5c-16 -24 -59 -38 -77 -38zM202 531l-72 43l100 186l108 -54z" />
    <glyph glyph-name="omicron" unicode="&#x3bf;" horiz-adv-x="401" 
d="M202 503c84 0 131 -38 150 -87c13 -37 14 -112 14 -168v-15c0 -36 0 -72 -4 -105c-13 -115 -100 -135 -168 -135c-91 0 -137 51 -150 105c-8 33 -10 99 -10 147c0 59 4 134 17 168c20 53 71 90 151 90zM202 376c-13 0 -21 -7 -26 -20s-5 -57 -6 -113v-15
c0 -35 0 -68 5 -84c3 -15 12 -22 27 -22s25 11 25 22c3 8 5 54 5 101c0 44 -2 91 -5 108c-3 13 -10 23 -25 23z" />
    <glyph glyph-name="epsilontonos" unicode="&#x3ad;" horiz-adv-x="392" 
d="M204 503c99 0 171 -56 171 -159l-137 -17c0 35 -15 48 -34 48c-15 0 -27 -11 -27 -26v-22c0 -16 11 -31 36 -31h43v-100h-43c-29 0 -36 -18 -36 -34v-12c0 -15 13 -27 30 -27c15 0 31 11 31 44l137 -21c-3 -93 -61 -151 -160 -151c-101 0 -178 40 -178 151
c0 47 8 86 57 107v1c-43 20 -53 53 -53 101c0 85 60 148 163 148zM201 531l-72 43l100 186l108 -54z" />
    <glyph glyph-name="etatonos" unicode="&#x3ae;" horiz-adv-x="413" 
d="M179 456l5 -1c17 23 53 46 84 46c90 0 105 -57 105 -126v-375h-137v335c0 27 -12 36 -27 36c-16 0 -30 -14 -30 -39v-332h-137v495h137v-39zM194 531l-72 43l100 186l108 -54z" />
    <glyph glyph-name="iotatonos" unicode="&#x3af;" horiz-adv-x="231" 
d="M215 104l-2 -107c-9 0 -41 -1 -48 -1c-84 0 -119 42 -119 126v372h129v-345c0 -39 11 -44 40 -45zM115 531l-72 43l100 186l108 -54z" />
    <glyph glyph-name="omicrontonos" unicode="&#x3cc;" horiz-adv-x="401" 
d="M202 503c84 0 131 -38 150 -87c13 -37 14 -112 14 -168v-15c0 -36 0 -72 -4 -105c-13 -115 -100 -135 -168 -135c-91 0 -137 51 -150 105c-8 33 -10 99 -10 147c0 59 4 134 17 168c20 53 71 90 151 90zM202 376c-13 0 -21 -7 -26 -20s-5 -57 -6 -113v-15
c0 -35 0 -68 5 -84c3 -15 12 -22 27 -22s25 11 25 22c3 8 5 54 5 101c0 44 -2 91 -5 108c-3 13 -10 23 -25 23zM215 531l-72 43l100 186l108 -54z" />
    <glyph glyph-name="upsilontonos" unicode="&#x3cd;" horiz-adv-x="401" 
d="M35 493h137v-265c0 -35 0 -68 5 -84c3 -15 12 -22 25 -22c15 0 25 11 25 22c3 8 2 54 2 101v248h137v-260c0 -36 0 -72 -4 -105c-13 -115 -100 -135 -168 -135c-91 0 -137 51 -150 105c-8 33 -9 99 -9 147v248zM201 531l-72 43l100 186l108 -54z" />
    <glyph glyph-name="iotadieresis" unicode="&#x3ca;" horiz-adv-x="231" 
d="M215 104l-2 -107c-9 0 -41 -1 -48 -1c-84 0 -119 42 -119 126v372h129v-345c0 -39 11 -44 40 -45zM257 547h-119v130h119v-130zM82 547h-118v130h118v-130z" />
    <glyph glyph-name="upsilondieresis" unicode="&#x3cb;" horiz-adv-x="401" 
d="M35 493h137v-265c0 -35 0 -68 5 -84c3 -15 12 -22 25 -22c15 0 25 11 25 22c3 8 2 54 2 101v248h137v-260c0 -36 0 -72 -4 -105c-13 -115 -100 -135 -168 -135c-91 0 -137 51 -150 105c-8 33 -9 99 -9 147v248zM345 547h-119v130h119v-130zM170 547h-118v130h118v-130z
" />
    <glyph glyph-name="iotadieresistonos" unicode="&#x390;" horiz-adv-x="231" 
d="M215 104l-2 -107c-9 0 -41 -1 -48 -1c-84 0 -119 42 -119 126v372h129v-345c0 -39 11 -44 40 -45zM336 555h-119v122h119v-122zM26 555h-118v122h118v-122zM115 528l-77 31l75 199l114 -39z" />
    <glyph glyph-name="upsilondieresistonos" unicode="&#x3b0;" horiz-adv-x="401" 
d="M35 493h137v-265c0 -35 0 -68 5 -84c3 -15 12 -22 25 -22c15 0 25 11 25 22c3 8 2 54 2 101v248h137v-260c0 -36 0 -72 -4 -105c-13 -115 -100 -135 -168 -135c-91 0 -137 51 -150 105c-8 33 -9 99 -9 147v248zM414 555h-119v122h119v-122zM104 555h-118v122h118v-122z
M193 528l-77 31l75 199l114 -39z" />
    <glyph glyph-name="Eta" unicode="&#x397;" horiz-adv-x="459" 
d="M409 0h-135v288h-87v-288h-136v696h136v-276h87v276h135v-696z" />
    <glyph glyph-name="mu" unicode="&#xb5;" horiz-adv-x="413" 
d="M237 39l-5 1c-12 -16 -29 -28 -52 -35v-196h-137v686h137v-335c0 -27 12 -36 27 -36c16 0 30 14 30 39v332h137v-495h-137v39z" />
    <glyph glyph-name="Circumflex" unicode="&#xe023;" horiz-adv-x="449" 
d="M343 721l-119 80l-119 -80l-52 47l134 145h79l129 -144z" />
    <glyph glyph-name="commaaccent" unicode="&#xf6c3;" horiz-adv-x="440" 
d="M284 -167l-55 -109h-66l28 107h-24v111h117v-109z" />
    <glyph glyph-name="Caron" unicode="&#xf6ca;" horiz-adv-x="449" 
d="M222 833l119 80l52 -48l-129 -140h-79l-134 141l52 47z" />
    <glyph glyph-name="DieresisAcute" unicode="&#xf6cc;" horiz-adv-x="449" 
d="M205 720l-70 40l96 189l105 -52zM129 744h-119v122h119v-122zM438 744h-118v122h118v-122z" />
    <glyph glyph-name="DieresisGrave" unicode="&#xf6cd;" horiz-adv-x="449" 
d="M320 760l-70 -40l-131 177l105 52zM445 744h-119v122h119v-122zM135 744h-118v122h118v-122z" />
    <glyph glyph-name="Grave" unicode="&#xf6ce;" horiz-adv-x="449" 
d="M274 786l-49 -68l-195 105l77 93z" />
    <glyph glyph-name="Hungarumlaut" unicode="&#xf6cf;" horiz-adv-x="445" 
d="M113 713l-53 64l157 142l76 -76zM298 716l-51 66l163 135l73 -79z" />
    <glyph glyph-name="Macron" unicode="&#xf6d0;" horiz-adv-x="449" 
d="M350 745h-252v110h252v-110z" />
    <glyph glyph-name="cyrBreve" unicode="&#xf6d1;" horiz-adv-x="449" 
d="M77 893h93c3 -29 29 -71 62 -71c38 0 55 42 58 71h95c-5 -64 -49 -154 -153 -154c-110 0 -152 90 -155 154z" />
    <glyph glyph-name="cyrbreve" unicode="&#xf6d4;" horiz-adv-x="484" 
d="M80 678h93c3 -29 29 -71 62 -71c38 0 55 42 58 71h95c-5 -64 -49 -154 -153 -154c-110 0 -152 90 -155 154z" />
    <glyph glyph-name="emdash" unicode="&#x2014;" horiz-adv-x="1000" 
d="M980 221h-960v107h960v-107z" />
    <glyph glyph-name="macron" unicode="&#xaf;" horiz-adv-x="383" 
d="M337 566h-252v110h252v-110z" />
    <glyph glyph-name="dotaccent" unicode="&#x2d9;" horiz-adv-x="408" 
d="M282 547h-118v130h118v-130z" />
    <glyph glyph-name="ring" unicode="&#x2da;" horiz-adv-x="408" 
d="M221 519c-56 0 -101 45 -101 101s45 102 101 102c59 0 101 -46 101 -102s-42 -101 -101 -101zM221 650c-16 0 -31 -14 -31 -31c0 -19 15 -30 31 -30c17 0 31 11 31 30c0 17 -14 31 -31 31z" />
    <glyph glyph-name="ogonek" unicode="&#x2db;" horiz-adv-x="395" 
d="M234 -114c0 31 16 76 47 123h66l3 -4c-31 -49 -35 -91 -35 -107c0 -27 20 -42 44 -42c13 0 30 3 53 15l22 -58c-31 -20 -67 -27 -98 -27c-57 0 -102 36 -102 100z" />
    <glyph glyph-name="hungarumlaut" unicode="&#x2dd;" horiz-adv-x="408" 
d="M134 531l-72 43l100 186l108 -54zM294 531l-72 43l100 186l108 -54z" />
    <glyph glyph-name="guilsinglright" unicode="&#x203a;" horiz-adv-x="336" 
d="M176 46h-129l115 201l-115 200h129l116 -200z" />
    <glyph glyph-name="guilsinglleft" unicode="&#x2039;" horiz-adv-x="336" 
d="M293 46h-129l-116 201l116 200h129l-115 -200z" />
    <glyph glyph-name="brokenbar" unicode="&#xa6;" horiz-adv-x="259" 
d="M183 326h-107v396h107v-396zM76 232h107v-402h-107v402z" />
    <glyph glyph-name="OE" unicode="&#x152;" horiz-adv-x="605" 
d="M388 287v-151h193v-136h-304c-17 -4 -36 -6 -55 -6c-104 0 -177 57 -177 176v357c0 119 76 175 177 175c21 0 40 -2 58 -6h301v-130h-193v-146h170v-133h-170zM262 172v352c0 31 -17 43 -40 43s-41 -12 -41 -43v-352c0 -32 18 -43 41 -43s40 11 40 43z" />
    <glyph glyph-name="questiondown" unicode="&#xbf;" horiz-adv-x="416" 
d="M47 -21c0 69 9 100 30 134l51 90c11 17 15 33 15 64v37h133v-77c0 -31 -11 -59 -26 -84c-59 -97 -61 -114 -61 -164c0 -24 11 -56 43 -56c21 0 46 20 46 79l131 -15c-5 -125 -69 -194 -185 -194c-124 0 -177 66 -177 186zM146 495h128v-139h-128v139z" />
    <glyph glyph-name="exclamdown" unicode="&#xa1;" horiz-adv-x="275" 
d="M72 -201l10 493h113l10 -493h-133zM74 495h128v-139h-128v139z" />
    <glyph glyph-name="daggerdbl" unicode="&#x2021;" horiz-adv-x="394" 
d="M380 365h-122v-132h122v-122h-122v-261h-121v261h-123v122h123v132h-123v122h123v189h121v-189h122v-122z" />
    <glyph glyph-name="cent" unicode="&#xa2;" horiz-adv-x="430" 
d="M242 594v-93c84 -9 130 -66 130 -159l-133 -15c0 35 -11 49 -26 49c-13 0 -19 -8 -23 -20c-4 -11 -5 -57 -6 -113v-15c0 -35 1 -68 5 -84c3 -15 11 -22 24 -22c15 0 26 12 26 45l135 -17c0 -88 -49 -145 -132 -154v-98h-51v97c-84 8 -119 51 -133 103
c-8 33 -10 99 -10 147c0 60 5 133 18 168c19 47 58 82 125 89v92h51z" />
    <glyph glyph-name="currency" unicode="&#xa4;" horiz-adv-x="513" 
d="M163 194l-62 -62l-77 77l63 63c-11 24 -17 49 -17 74c0 27 6 52 18 76l-61 62l79 78l61 -61c24 12 50 18 78 18c27 0 51 -5 73 -16l63 63l77 -77l-62 -62c12 -23 18 -48 18 -75c0 -26 -6 -52 -19 -79l62 -62l-79 -79l-62 62c-25 -13 -51 -19 -76 -19c-26 0 -52 6 -77 19z
M241 428c-45 0 -81 -34 -81 -81c0 -43 34 -78 77 -78c48 0 83 38 83 85c0 43 -38 74 -79 74z" />
    <glyph glyph-name="Thorn" unicode="&#xde;" horiz-adv-x="428" 
d="M186 575h30c116 0 194 -50 194 -215c0 -143 -56 -226 -191 -226h-32v-134h-136v696h135v-121zM212 445h-25v-180h23c35 0 70 15 70 96c0 61 -27 84 -68 84z" />
    <glyph glyph-name="thorn" unicode="&#xfe;" horiz-adv-x="401" 
d="M201 123c15 0 22 10 25 23c3 17 4 64 4 108c0 47 -1 85 -4 93c0 11 -10 22 -25 22s-24 -7 -27 -22c-3 -11 -3 -45 -3 -80v-11c1 -56 -1 -100 4 -113s13 -20 26 -20zM251 -8c-17 0 -51 5 -74 28h-5v-210h-137v885h134v-236l4 -2c17 36 56 44 79 44c71 0 109 -35 117 -134
c3 -19 3 -69 3 -120c0 -56 -4 -133 -12 -164c-8 -36 -28 -91 -109 -91z" />
    <glyph glyph-name="oslash" unicode="&#xf8;" horiz-adv-x="401" 
d="M202 503c32 0 57 -6 80 -15l29 64l27 -14l-29 -65c21 -15 35 -34 43 -57c13 -37 14 -112 14 -168v-15c0 -36 0 -72 -4 -105c-13 -115 -100 -135 -168 -135c-37 0 -66 8 -89 21l-20 -45l-26 14l22 50c-19 19 -30 41 -37 65c-8 33 -10 99 -10 147c0 59 4 134 17 168
c20 53 71 90 151 90zM232 245c0 19 0 36 -1 52l-60 -134c1 -9 3 -15 4 -19c3 -15 12 -22 27 -22s25 11 25 22c3 8 5 54 5 101zM202 376c-13 0 -21 -7 -26 -20s-5 -57 -6 -113v-9l55 125c-5 11 -12 17 -23 17z" />
    <glyph glyph-name="Oslash" unicode="&#xd8;" horiz-adv-x="445" 
d="M75 -5l-32 17l25 53c-15 26 -23 61 -23 105v357c0 120 66 175 177 175c55 0 97 -12 127 -36l16 34l35 -18l-24 -50c16 -27 24 -62 24 -105v-357c0 -120 -61 -176 -178 -176c-56 0 -99 13 -129 39zM262 164v226l-81 -172v-54c0 -32 18 -43 41 -43s40 11 40 43zM181 532
v-225l81 173v52c0 31 -17 43 -40 43s-41 -12 -41 -43z" />
    <glyph glyph-name="Eth" unicode="&#xd0;" horiz-adv-x="446" 
d="M52 696h183c83 0 129 -26 148 -94c12 -43 12 -138 12 -253s1 -203 -14 -246c-25 -79 -84 -103 -155 -103h-174v299h-48v90h48v307zM259 191v314c0 39 -8 60 -51 60h-21v-176h40v-90h-40v-168h21c43 0 51 20 51 60z" />
    <glyph glyph-name="paragraph" unicode="&#xb6;" horiz-adv-x="462" 
d="M140 -58v366c-98 18 -132 95 -132 192c0 93 52 195 192 195h229v-109h-45v-644h-101v644h-39v-644h-104z" />
    <glyph glyph-name="quotesinglbase" unicode="&#x201a;" horiz-adv-x="234" 
d="M187 -1l-64 -152h-76l33 149h-29v154h136v-151z" />
    <glyph glyph-name="quotedblbase" unicode="&#x201e;" horiz-adv-x="396" 
d="M355 -2l-64 -152h-76l33 149h-29v154h136v-151zM185 -2l-64 -152h-76l33 149h-29v154h136v-151z" />
    <glyph glyph-name="Scaron" unicode="&#x160;" horiz-adv-x="427" 
d="M397 205c0 -128 -40 -211 -181 -211c-129 0 -180 80 -180 179l136 26c3 -51 12 -76 47 -76c39 0 44 40 44 81c0 56 -14 70 -66 92c-137 56 -156 118 -156 208c0 115 50 198 181 198c139 0 175 -98 175 -175l-134 -29c0 39 -6 74 -45 74c-36 0 -42 -38 -42 -67
c0 -37 5 -57 79 -86c127 -50 142 -107 142 -214zM221 833l119 80l52 -48l-129 -140h-79l-134 141l52 47z" />
    <glyph glyph-name="Zcaron" unicode="&#x17d;" horiz-adv-x="360" 
d="M339 0h-315v124l168 442h-162v130h309v-120l-169 -445h169v-131zM186 833l119 80l52 -48l-129 -140h-79l-134 141l52 47z" />
    <glyph glyph-name="scaron" unicode="&#x161;" horiz-adv-x="387" 
d="M27 143l131 19c-1 -27 15 -44 36 -44c17 0 32 15 32 31c0 35 -12 42 -32 49c-76 26 -162 40 -162 155c0 83 57 150 164 150c108 0 161 -59 162 -151l-130 -17c0 19 -9 43 -32 43c-21 0 -29 -17 -29 -28c0 -20 4 -29 27 -36c95 -29 166 -52 166 -165
c0 -80 -42 -155 -170 -155c-99 0 -159 49 -163 149zM200 627l119 94l52 -48l-129 -158h-79l-134 159l52 47z" />
    <glyph glyph-name="zcaron" unicode="&#x17e;" horiz-adv-x="350" 
d="M322 0h-294v121l138 252h-127v122h283v-112l-142 -256h142v-127zM187 627l119 94l52 -48l-129 -158h-79l-134 159l52 47z" />
    <glyph glyph-name="Ydieresis" unicode="&#x178;" horiz-adv-x="414" 
d="M207 442h5l25 117l30 137h144l-135 -413v-283h-137v283l-136 413h145l34 -139zM357 729h-119v130h119v-130zM182 729h-118v130h118v-130z" />
    <glyph glyph-name="Agrave" unicode="&#xc0;" horiz-adv-x="449" 
d="M297 0l-21 136h-102l-21 -136h-144l132 696h166l133 -696h-143zM222 516l-15 -141l-14 -111h63l-13 111l-15 141h-6zM273 786l-49 -68l-195 105l77 93z" />
    <glyph glyph-name="Aacute" unicode="&#xc1;" horiz-adv-x="449" 
d="M297 0l-21 136h-102l-21 -136h-144l132 696h166l133 -696h-143zM222 516l-15 -141l-14 -111h63l-13 111l-15 141h-6zM220 718l-49 68l167 130l77 -93z" />
    <glyph glyph-name="Acircumflex" unicode="&#xc2;" horiz-adv-x="449" 
d="M297 0l-21 136h-102l-21 -136h-144l132 696h166l133 -696h-143zM222 516l-15 -141l-14 -111h63l-13 111l-15 141h-6zM343 721l-119 80l-119 -80l-52 47l134 145h79l129 -144z" />
    <glyph glyph-name="Atilde" unicode="&#xc3;" horiz-adv-x="449" 
d="M297 0l-21 136h-102l-21 -136h-144l132 696h166l133 -696h-143zM222 516l-15 -141l-14 -111h63l-13 111l-15 141h-6zM172 869c42 0 78 -34 103 -34c19 0 30 5 57 38l65 -36c-32 -75 -67 -99 -106 -99c-48 0 -81 35 -113 35c-16 0 -33 -8 -58 -39l-65 40
c31 72 78 95 117 95z" />
    <glyph glyph-name="Aring" unicode="&#xc5;" horiz-adv-x="449" 
d="M297 0l-21 136h-102l-21 -136h-144l132 696h43c-35 16 -58 51 -58 92c0 56 45 102 101 102c59 0 101 -46 101 -102c0 -41 -23 -76 -58 -92h37l133 -696h-143zM222 516l-15 -141l-14 -111h63l-13 111l-15 141h-6zM227 818c-16 0 -31 -14 -31 -31c0 -19 15 -30 31 -30
c17 0 31 11 31 30c0 17 -14 31 -31 31z" />
    <glyph glyph-name="Egrave" unicode="&#xc8;" horiz-adv-x="394" 
d="M370 0h-319v696h319v-130h-183v-147h160v-131h-160v-157h183v-131zM290 786l-49 -68l-195 105l77 93z" />
    <glyph glyph-name="Ecircumflex" unicode="&#xca;" horiz-adv-x="394" 
d="M370 0h-319v696h319v-130h-183v-147h160v-131h-160v-157h183v-131zM329 721l-119 80l-119 -80l-52 47l134 145h79l129 -144z" />
    <glyph glyph-name="Edieresis" unicode="&#xcb;" horiz-adv-x="394" 
d="M370 0h-319v696h319v-130h-183v-147h160v-131h-160v-157h183v-131zM356 729h-119v130h119v-130zM181 729h-118v130h118v-130z" />
    <glyph glyph-name="Igrave" unicode="&#xcc;" horiz-adv-x="242" 
d="M189 0h-136v696h136v-696zM171 786l-49 -68l-195 105l77 93z" />
    <glyph glyph-name="Iacute" unicode="&#xcd;" horiz-adv-x="242" 
d="M189 0h-136v696h136v-696zM111 718l-49 68l167 130l77 -93z" />
    <glyph glyph-name="Icircumflex" unicode="&#xce;" horiz-adv-x="242" 
d="M189 0h-136v696h136v-696zM241 721l-119 80l-119 -80l-52 47l134 145h79l129 -144z" />
    <glyph glyph-name="Idieresis" unicode="&#xcf;" horiz-adv-x="242" 
d="M189 0h-136v696h136v-696zM268 729h-119v130h119v-130zM93 729h-118v130h118v-130z" />
    <glyph glyph-name="Ograve" unicode="&#xd2;" horiz-adv-x="445" 
d="M262 164v368c0 31 -17 43 -40 43s-41 -12 -41 -43v-368c0 -32 18 -43 41 -43s40 11 40 43zM400 527v-357c0 -120 -61 -176 -178 -176c-118 0 -177 59 -177 176v357c0 120 66 175 177 175c121 0 178 -55 178 -175zM302 786l-49 -68l-195 105l77 93z" />
    <glyph glyph-name="Oacute" unicode="&#xd3;" horiz-adv-x="445" 
d="M262 164v368c0 31 -17 43 -40 43s-41 -12 -41 -43v-368c0 -32 18 -43 41 -43s40 11 40 43zM400 527v-357c0 -120 -61 -176 -178 -176c-118 0 -177 59 -177 176v357c0 120 66 175 177 175c121 0 178 -55 178 -175zM188 718l-49 68l167 130l77 -93z" />
    <glyph glyph-name="Ocircumflex" unicode="&#xd4;" horiz-adv-x="445" 
d="M262 164v368c0 31 -17 43 -40 43s-41 -12 -41 -43v-368c0 -32 18 -43 41 -43s40 11 40 43zM400 527v-357c0 -120 -61 -176 -178 -176c-118 0 -177 59 -177 176v357c0 120 66 175 177 175c121 0 178 -55 178 -175zM341 721l-119 80l-119 -80l-52 47l134 145h79l129 -144z
" />
    <glyph glyph-name="Otilde" unicode="&#xd5;" horiz-adv-x="445" 
d="M262 164v368c0 31 -17 43 -40 43s-41 -12 -41 -43v-368c0 -32 18 -43 41 -43s40 11 40 43zM400 527v-357c0 -120 -61 -176 -178 -176c-118 0 -177 59 -177 176v357c0 120 66 175 177 175c121 0 178 -55 178 -175zM172 879c42 0 78 -34 103 -34c19 0 30 5 57 38l65 -36
c-32 -75 -67 -99 -106 -99c-48 0 -81 35 -113 35c-16 0 -33 -8 -58 -39l-65 40c31 72 78 95 117 95z" />
    <glyph glyph-name="Ugrave" unicode="&#xd9;" horiz-adv-x="445" 
d="M263 695h138v-525c0 -120 -61 -176 -178 -176c-118 0 -177 59 -177 176v525h136v-528c0 -32 18 -43 41 -43s40 11 40 43v528zM302 786l-49 -68l-195 105l77 93z" />
    <glyph glyph-name="Uacute" unicode="&#xda;" horiz-adv-x="445" 
d="M263 695h138v-525c0 -120 -61 -176 -178 -176c-118 0 -177 59 -177 176v525h136v-528c0 -32 18 -43 41 -43s40 11 40 43v528zM177 718l-49 68l167 130l77 -93z" />
    <glyph glyph-name="Ucircumflex" unicode="&#xdb;" horiz-adv-x="445" 
d="M263 695h138v-525c0 -120 -61 -176 -178 -176c-118 0 -177 59 -177 176v525h136v-528c0 -32 18 -43 41 -43s40 11 40 43v528zM340 721l-119 80l-119 -80l-52 47l134 145h79l129 -144z" />
    <glyph glyph-name="Yacute" unicode="&#xdd;" horiz-adv-x="414" 
d="M207 442h5l25 117l30 137h144l-135 -413v-283h-137v283l-136 413h145l34 -139zM193 718l-49 68l167 130l77 -93z" />
    <glyph glyph-name="aacute" unicode="&#xe1;" horiz-adv-x="408" 
d="M236 34l-5 1c-15 -24 -51 -41 -79 -41c-97 0 -124 64 -124 155c0 80 46 152 159 152h49v42c0 21 -12 31 -35 31c-13 0 -31 -6 -38 -41l-121 39c20 81 77 129 169 129c111 0 162 -46 162 -158v-343h-137v34zM236 164v44h-28c-23 0 -45 -12 -45 -51c0 -25 18 -36 38 -36
s35 18 35 43zM241 531l-72 43l100 186l108 -54z" />
    <glyph glyph-name="atilde" unicode="&#xe3;" horiz-adv-x="408" 
d="M236 34l-5 1c-15 -24 -51 -41 -79 -41c-97 0 -124 64 -124 155c0 80 46 152 159 152h49v42c0 21 -12 31 -35 31c-13 0 -31 -6 -38 -41l-121 39c20 81 77 129 169 129c111 0 162 -46 162 -158v-343h-137v34zM236 164v44h-28c-23 0 -45 -12 -45 -51c0 -25 18 -36 38 -36
s35 18 35 43zM161 676c42 0 78 -34 103 -34c19 0 30 5 57 38l65 -36c-32 -75 -67 -99 -106 -99c-48 0 -81 35 -113 35c-16 0 -33 -8 -58 -39l-65 40c31 72 78 95 117 95z" />
    <glyph glyph-name="aring" unicode="&#xe5;" horiz-adv-x="408" 
d="M236 34l-5 1c-15 -24 -51 -41 -79 -41c-97 0 -124 64 -124 155c0 80 46 152 159 152h49v42c0 21 -12 31 -35 31c-13 0 -31 -6 -38 -41l-121 39c20 81 77 129 169 129c111 0 162 -46 162 -158v-343h-137v34zM236 164v44h-28c-23 0 -45 -12 -45 -51c0 -25 18 -36 38 -36
s35 18 35 43zM224 519c-56 0 -101 45 -101 101s45 102 101 102c59 0 101 -46 101 -102s-42 -101 -101 -101zM224 650c-16 0 -31 -14 -31 -31c0 -19 15 -30 31 -30c17 0 31 11 31 30c0 17 -14 31 -31 31z" />
    <glyph glyph-name="igrave" unicode="&#xec;" horiz-adv-x="249" 
d="M199 0h-137v494h137v-494zM192 574l-72 -43l-136 175l108 54z" />
    <glyph glyph-name="iacute" unicode="&#xed;" horiz-adv-x="262" 
d="M187 0h-137v494h137v-494zM156 531l-72 43l100 186l108 -54z" />
    <glyph glyph-name="ntilde" unicode="&#xf1;" horiz-adv-x="413" 
d="M179 456l5 -1c17 23 53 46 84 46c90 0 105 -57 105 -126v-375h-137v335c0 27 -12 36 -27 36c-16 0 -30 -14 -30 -39v-332h-137v495h137v-39zM157 689c42 0 78 -34 103 -34c19 0 30 5 57 38l65 -36c-32 -75 -67 -99 -106 -99c-48 0 -81 35 -113 35c-16 0 -33 -8 -58 -39
l-65 40c31 72 78 95 117 95z" />
    <glyph glyph-name="ograve" unicode="&#xf2;" horiz-adv-x="401" 
d="M202 503c84 0 131 -38 150 -87c13 -37 14 -112 14 -168v-15c0 -36 0 -72 -4 -105c-13 -115 -100 -135 -168 -135c-91 0 -137 51 -150 105c-8 33 -10 99 -10 147c0 59 4 134 17 168c20 53 71 90 151 90zM202 376c-13 0 -21 -7 -26 -20s-5 -57 -6 -113v-15
c0 -35 0 -68 5 -84c3 -15 12 -22 27 -22s25 11 25 22c3 8 5 54 5 101c0 44 -2 91 -5 108c-3 13 -10 23 -25 23zM276 574l-72 -43l-136 175l108 54z" />
    <glyph glyph-name="oacute" unicode="&#xf3;" horiz-adv-x="401" 
d="M202 503c84 0 131 -38 150 -87c13 -37 14 -112 14 -168v-15c0 -36 0 -72 -4 -105c-13 -115 -100 -135 -168 -135c-91 0 -137 51 -150 105c-8 33 -10 99 -10 147c0 59 4 134 17 168c20 53 71 90 151 90zM202 376c-13 0 -21 -7 -26 -20s-5 -57 -6 -113v-15
c0 -35 0 -68 5 -84c3 -15 12 -22 27 -22s25 11 25 22c3 8 5 54 5 101c0 44 -2 91 -5 108c-3 13 -10 23 -25 23zM201 531l-72 43l100 186l108 -54z" />
    <glyph glyph-name="uacute" unicode="&#xfa;" horiz-adv-x="413" 
d="M237 39l-5 1c-17 -22 -54 -46 -86 -46c-90 0 -103 57 -103 126v375h137v-335c0 -27 12 -36 27 -36c16 0 30 14 30 39v332h137v-495h-137v39zM235 531l-72 43l100 186l108 -54z" />
    <glyph glyph-name="yacute" unicode="&#xfd;" horiz-adv-x="382" 
d="M183 199h5l17 116l31 179h140l-143 -564c-20 -79 -66 -122 -149 -122h-46v121h25c21 0 44 11 55 56l6 26l-121 483h146l20 -178zM206 531l-72 43l100 186l108 -54z" />
    <glyph glyph-name="ydieresis" unicode="&#xff;" horiz-adv-x="382" 
d="M183 199h5l17 116l31 179h140l-143 -564c-20 -79 -66 -122 -149 -122h-46v121h25c21 0 44 11 55 56l6 26l-121 483h146l20 -178zM332 547h-119v130h119v-130zM157 547h-118v130h118v-130z" />
    <glyph glyph-name="Amacron" unicode="&#x100;" horiz-adv-x="449" 
d="M297 0l-21 136h-102l-21 -136h-144l132 696h166l133 -696h-143zM222 516l-15 -141l-14 -111h63l-13 111l-15 141h-6zM350 745h-252v110h252v-110z" />
    <glyph glyph-name="amacron" unicode="&#x101;" horiz-adv-x="408" 
d="M236 34l-5 1c-15 -24 -51 -41 -79 -41c-97 0 -124 64 -124 155c0 80 46 152 159 152h49v42c0 21 -12 31 -35 31c-13 0 -31 -6 -38 -41l-121 39c20 81 77 129 169 129c111 0 162 -46 162 -158v-343h-137v34zM236 164v44h-28c-23 0 -45 -12 -45 -51c0 -25 18 -36 38 -36
s35 18 35 43zM336 566h-252v110h252v-110z" />
    <glyph glyph-name="Abreve" unicode="&#x102;" horiz-adv-x="449" 
d="M297 0l-21 136h-102l-21 -136h-144l132 696h166l133 -696h-143zM222 516l-15 -141l-14 -111h63l-13 111l-15 141h-6zM76 893h93c3 -29 29 -71 62 -71c38 0 55 42 58 71h95c-5 -64 -49 -154 -153 -154c-110 0 -152 90 -155 154z" />
    <glyph glyph-name="abreve" unicode="&#x103;" horiz-adv-x="408" 
d="M236 34l-5 1c-15 -24 -51 -41 -79 -41c-97 0 -124 64 -124 155c0 80 46 152 159 152h49v42c0 21 -12 31 -35 31c-13 0 -31 -6 -38 -41l-121 39c20 81 77 129 169 129c111 0 162 -46 162 -158v-343h-137v34zM236 164v44h-28c-23 0 -45 -12 -45 -51c0 -25 18 -36 38 -36
s35 18 35 43zM57 685h93c3 -29 29 -71 62 -71c38 0 55 42 58 71h95c-5 -64 -49 -154 -153 -154c-110 0 -152 90 -155 154z" />
    <glyph glyph-name="Aogonek" unicode="&#x104;" horiz-adv-x="449" 
d="M255 -114c0 29 15 72 42 115l-21 135h-102l-21 -136h-144l132 696h166l133 -696h-73c-28 -47 -31 -86 -31 -102c0 -27 20 -42 44 -42c13 0 30 3 53 15l22 -58c-31 -20 -67 -27 -98 -27c-57 0 -102 36 -102 100zM222 516l-15 -141l-14 -111h63l-13 111l-15 141h-6z" />
    <glyph glyph-name="aogonek" unicode="&#x105;" horiz-adv-x="408" 
d="M194 -114c0 29 15 72 42 115v33l-5 1c-15 -24 -51 -41 -79 -41c-97 0 -124 64 -124 155c0 80 46 152 159 152h49v42c0 21 -12 31 -35 31c-13 0 -31 -6 -38 -41l-121 39c20 81 77 129 169 129c111 0 162 -46 162 -158v-343h-67c-28 -47 -31 -86 -31 -102
c0 -27 20 -42 44 -42c13 0 30 3 53 15l22 -58c-31 -20 -67 -27 -98 -27c-57 0 -102 36 -102 100zM236 164v44h-28c-23 0 -45 -12 -45 -51c0 -25 18 -36 38 -36s35 18 35 43z" />
    <glyph glyph-name="Cacute" unicode="&#x106;" horiz-adv-x="427" 
d="M226 702c121 0 178 -65 178 -160c0 -7 0 -12 -1 -19l-131 -23c-1 41 -19 72 -47 72c-36 0 -45 -33 -45 -53v-355c0 -19 5 -40 40 -40c27 0 45 24 46 72l135 -18c-1 -111 -63 -184 -176 -184c-125 0 -180 59 -180 176v349c0 111 58 183 181 183zM169 718l-49 68l167 130
l77 -93z" />
    <glyph glyph-name="cacute" unicode="&#x107;" horiz-adv-x="381" 
d="M201 -6c-100 0 -143 50 -157 104c-8 33 -10 99 -10 147c0 60 5 133 18 168c20 53 70 90 150 90c100 0 156 -57 156 -161l-133 -15c0 35 -11 49 -26 49c-13 0 -19 -8 -23 -20c-4 -11 -5 -57 -6 -113v-15c0 -35 1 -68 5 -84c3 -15 11 -22 24 -22c15 0 26 12 26 45l135 -17
c0 -97 -60 -156 -159 -156zM201 531l-72 43l100 186l108 -54z" />
    <glyph glyph-name="Ccircumflex" unicode="&#x108;" horiz-adv-x="427" 
d="M226 702c121 0 178 -65 178 -160c0 -7 0 -12 -1 -19l-131 -23c-1 41 -19 72 -47 72c-36 0 -45 -33 -45 -53v-355c0 -19 5 -40 40 -40c27 0 45 24 46 72l135 -18c-1 -111 -63 -184 -176 -184c-125 0 -180 59 -180 176v349c0 111 58 183 181 183zM341 721l-119 80l-119 -80
l-52 47l134 145h79l129 -144z" />
    <glyph glyph-name="ccircumflex" unicode="&#x109;" horiz-adv-x="381" 
d="M201 -6c-100 0 -143 50 -157 104c-8 33 -10 99 -10 147c0 60 5 133 18 168c20 53 70 90 150 90c100 0 156 -57 156 -161l-133 -15c0 35 -11 49 -26 49c-13 0 -19 -8 -23 -20c-4 -11 -5 -57 -6 -113v-15c0 -35 1 -68 5 -84c3 -15 11 -22 24 -22c15 0 26 12 26 45l135 -17
c0 -97 -60 -156 -159 -156zM319 515l-119 94l-119 -94l-52 47l134 159h79l129 -158z" />
    <glyph glyph-name="Cdotaccent" unicode="&#x10a;" horiz-adv-x="427" 
d="M226 702c121 0 178 -65 178 -160c0 -7 0 -12 -1 -19l-131 -23c-1 41 -19 72 -47 72c-36 0 -45 -33 -45 -53v-355c0 -19 5 -40 40 -40c27 0 45 24 46 72l135 -18c-1 -111 -63 -184 -176 -184c-125 0 -180 59 -180 176v349c0 111 58 183 181 183zM279 735h-118v130h118
v-130z" />
    <glyph glyph-name="cdotaccent" unicode="&#x10b;" horiz-adv-x="381" 
d="M201 -6c-100 0 -143 50 -157 104c-8 33 -10 99 -10 147c0 60 5 133 18 168c20 53 70 90 150 90c100 0 156 -57 156 -161l-133 -15c0 35 -11 49 -26 49c-13 0 -19 -8 -23 -20c-4 -11 -5 -57 -6 -113v-15c0 -35 1 -68 5 -84c3 -15 11 -22 24 -22c15 0 26 12 26 45l135 -17
c0 -97 -60 -156 -159 -156zM261 547h-118v130h118v-130z" />
    <glyph glyph-name="Ccaron" unicode="&#x10c;" horiz-adv-x="427" 
d="M226 702c121 0 178 -65 178 -160c0 -7 0 -12 -1 -19l-131 -23c-1 41 -19 72 -47 72c-36 0 -45 -33 -45 -53v-355c0 -19 5 -40 40 -40c27 0 45 24 46 72l135 -18c-1 -111 -63 -184 -176 -184c-125 0 -180 59 -180 176v349c0 111 58 183 181 183zM222 833l119 80l52 -48
l-129 -140h-79l-134 141l52 47z" />
    <glyph glyph-name="ccaron" unicode="&#x10d;" horiz-adv-x="381" 
d="M201 -6c-100 0 -143 50 -157 104c-8 33 -10 99 -10 147c0 60 5 133 18 168c20 53 70 90 150 90c100 0 156 -57 156 -161l-133 -15c0 35 -11 49 -26 49c-13 0 -19 -8 -23 -20c-4 -11 -5 -57 -6 -113v-15c0 -35 1 -68 5 -84c3 -15 11 -22 24 -22c15 0 26 12 26 45l135 -17
c0 -97 -60 -156 -159 -156zM200 627l119 94l52 -48l-129 -158h-79l-134 159l52 47z" />
    <glyph glyph-name="Dcaron" unicode="&#x10e;" horiz-adv-x="446" 
d="M259 191v314c0 39 -8 60 -51 60h-21v-434h21c43 0 51 20 51 60zM52 696h183c83 0 129 -26 148 -94c12 -43 12 -138 12 -253s1 -203 -14 -246c-25 -79 -84 -103 -155 -103h-174v696zM208 833l119 80l52 -48l-129 -140h-79l-134 141l52 47z" />
    <glyph glyph-name="dcaron" unicode="&#x10f;" horiz-adv-x="523" 
d="M526 617l-55 -109h-66l28 107h-24v111h117v-109zM197 372c-15 0 -22 -10 -25 -23c-3 -17 -4 -64 -4 -108c0 -47 1 -85 4 -93c0 -11 10 -22 25 -22s24 7 27 22c3 11 3 45 3 80v11c-1 56 1 100 -4 113s-13 20 -26 20zM148 503c17 0 50 -7 73 -30h5v253h137v-726h-134v36
l-4 2c-16 -37 -56 -44 -79 -44c-71 0 -109 35 -117 134c-3 19 -3 69 -3 120c0 55 6 132 14 164c8 35 25 91 108 91z" />
    <glyph glyph-name="Dcroat" unicode="&#x110;" horiz-adv-x="446" 
d="M52 696h183c83 0 129 -26 148 -94c12 -43 12 -138 12 -253s1 -203 -14 -246c-25 -79 -84 -103 -155 -103h-174v300h-48v90h48v306zM259 191v314c0 39 -8 60 -51 60h-21v-175h40v-90h-40v-169h21c43 0 51 20 51 60z" />
    <glyph glyph-name="dcroat" unicode="&#x111;" horiz-adv-x="401" 
d="M148 503c17 0 50 -7 73 -30h5v88h-54v86h54v79h137v-79h39v-86h-39v-561h-134v36l-4 2c-16 -37 -56 -44 -79 -44c-71 0 -109 35 -117 134c-3 19 -3 69 -3 120c0 55 6 132 14 164c8 35 25 91 108 91zM197 372c-15 0 -22 -10 -25 -23c-3 -17 -4 -64 -4 -108
c0 -47 1 -85 4 -93c0 -11 10 -22 25 -22s24 7 27 22c3 11 3 45 3 80v11c-1 56 1 100 -4 113s-13 20 -26 20z" />
    <glyph glyph-name="Emacron" unicode="&#x112;" horiz-adv-x="394" 
d="M370 0h-319v696h319v-130h-183v-147h160v-131h-160v-157h183v-131zM336 745h-252v110h252v-110z" />
    <glyph glyph-name="emacron" unicode="&#x113;" horiz-adv-x="394" 
d="M362 220h-192c0 -32 -2 -61 2 -76c3 -15 12 -22 25 -22c15 0 28 11 31 40l135 -20c-5 -91 -63 -148 -162 -148c-100 0 -143 50 -157 104c-8 33 -10 99 -10 147c0 60 5 133 18 168c20 53 69 90 149 90c100 0 161 -55 161 -159v-124zM176 356c-3 -7 -4 -26 -5 -53h54v42
c0 13 -6 30 -25 30c-12 0 -20 -6 -24 -19zM328 566h-252v110h252v-110z" />
    <glyph glyph-name="Ebreve" unicode="&#x114;" horiz-adv-x="394" 
d="M370 0h-319v696h319v-130h-183v-147h160v-131h-160v-157h183v-131zM60 888h93c3 -29 29 -71 62 -71c38 0 55 42 58 71h95c-5 -64 -49 -154 -153 -154c-110 0 -152 90 -155 154z" />
    <glyph glyph-name="ebreve" unicode="&#x115;" horiz-adv-x="394" 
d="M362 220h-192c0 -32 -2 -61 2 -76c3 -15 12 -22 25 -22c15 0 28 11 31 40l135 -20c-5 -91 -63 -148 -162 -148c-100 0 -143 50 -157 104c-8 33 -10 99 -10 147c0 60 5 133 18 168c20 53 69 90 149 90c100 0 161 -55 161 -159v-124zM176 356c-3 -7 -4 -26 -5 -53h54v42
c0 13 -6 30 -25 30c-12 0 -20 -6 -24 -19zM50 685h93c3 -29 29 -71 62 -71c38 0 55 42 58 71h95c-5 -64 -49 -154 -153 -154c-110 0 -152 90 -155 154z" />
    <glyph glyph-name="Edotaccent" unicode="&#x116;" horiz-adv-x="394" 
d="M370 0h-319v696h319v-130h-183v-147h160v-131h-160v-157h183v-131zM272 727h-118v130h118v-130z" />
    <glyph glyph-name="edotaccent" unicode="&#x117;" horiz-adv-x="394" 
d="M362 220h-192c0 -32 -2 -61 2 -76c3 -15 12 -22 25 -22c15 0 28 11 31 40l135 -20c-5 -91 -63 -148 -162 -148c-100 0 -143 50 -157 104c-8 33 -10 99 -10 147c0 60 5 133 18 168c20 53 69 90 149 90c100 0 161 -55 161 -159v-124zM176 356c-3 -7 -4 -26 -5 -53h54v42
c0 13 -6 30 -25 30c-12 0 -20 -6 -24 -19zM262 547h-118v130h118v-130z" />
    <glyph glyph-name="Eogonek" unicode="&#x118;" horiz-adv-x="394" 
d="M370 131v-131c-31 -49 -35 -91 -35 -107c0 -27 20 -42 44 -42c13 0 30 3 53 15l22 -58c-31 -20 -67 -27 -98 -27c-57 0 -102 36 -102 100c0 31 16 75 44 119h-247v696h319v-130h-183v-147h160v-131h-160v-157h183z" />
    <glyph glyph-name="eogonek" unicode="&#x119;" horiz-adv-x="394" 
d="M200 -87c0 23 8 50 23 82c-7 0 -15 -1 -22 -1c-100 0 -143 50 -157 104c-8 33 -10 99 -10 147c0 60 5 133 18 168c20 53 69 90 149 90c100 0 161 -55 161 -159v-124h-192c0 -32 -2 -61 2 -76c3 -15 12 -22 25 -22c15 0 28 11 31 40l135 -20c-3 -47 -19 -83 -48 -109l1 -1
c-31 -49 -35 -91 -35 -107c0 -27 20 -42 44 -42c13 0 30 3 53 15l22 -58c-31 -20 -67 -27 -98 -27c-57 0 -102 36 -102 100zM176 356c-3 -7 -4 -26 -5 -53h54v42c0 13 -6 30 -25 30c-12 0 -20 -6 -24 -19z" />
    <glyph glyph-name="Ecaron" unicode="&#x11a;" horiz-adv-x="394" 
d="M370 0h-319v696h319v-130h-183v-147h160v-131h-160v-157h183v-131zM215 833l119 80l52 -48l-129 -140h-79l-134 141l52 47z" />
    <glyph glyph-name="ecaron" unicode="&#x11b;" horiz-adv-x="394" 
d="M362 220h-192c0 -32 -2 -61 2 -76c3 -15 12 -22 25 -22c15 0 28 11 31 40l135 -20c-5 -91 -63 -148 -162 -148c-100 0 -143 50 -157 104c-8 33 -10 99 -10 147c0 60 5 133 18 168c20 53 69 90 149 90c100 0 161 -55 161 -159v-124zM176 356c-3 -7 -4 -26 -5 -53h54v42
c0 13 -6 30 -25 30c-12 0 -20 -6 -24 -19zM201 627l119 94l52 -48l-129 -158h-79l-134 159l52 47z" />
    <glyph glyph-name="Gcircumflex" unicode="&#x11c;" horiz-adv-x="440" 
d="M233 702c125 0 185 -77 177 -179l-131 -23c-1 41 -19 72 -47 72c-36 0 -45 -33 -45 -53v-355c0 -19 5 -40 40 -40c27 0 46 15 46 38v107h-47v119h182v-219c0 -115 -64 -175 -176 -175c-125 0 -180 59 -180 176v349c0 111 64 183 181 183zM346 721l-119 80l-119 -80
l-52 47l134 145h79l129 -144z" />
    <glyph glyph-name="gcircumflex" unicode="&#x11d;" horiz-adv-x="401" 
d="M144 0c-83 0 -95 41 -109 87c-8 32 -10 104 -10 160c0 51 2 97 5 120c11 97 47 134 118 134c23 0 60 -8 77 -44l4 2v36h135v-515c0 -124 -61 -177 -166 -177c-100 0 -158 48 -163 147l132 19c3 -28 17 -39 32 -39c19 0 28 13 28 33v75h-5c-16 -24 -59 -38 -78 -38z
M197 131c13 0 21 7 26 20s5 48 5 105v11c0 35 -1 69 -4 80c-3 15 -12 22 -27 22s-25 -11 -25 -22c-3 -8 -4 -46 -4 -93c0 -44 1 -83 4 -100c3 -13 10 -23 25 -23zM322 515l-119 94l-119 -94l-52 47l134 159h79l129 -158z" />
    <glyph glyph-name="Gbreve" unicode="&#x11e;" horiz-adv-x="440" 
d="M233 702c125 0 185 -77 177 -179l-131 -23c-1 41 -19 72 -47 72c-36 0 -45 -33 -45 -53v-355c0 -19 5 -40 40 -40c27 0 46 15 46 38v107h-47v119h182v-219c0 -115 -64 -175 -176 -175c-125 0 -180 59 -180 176v349c0 111 64 183 181 183zM81 893h93c3 -29 29 -71 62 -71
c38 0 55 42 58 71h95c-5 -64 -49 -154 -153 -154c-110 0 -152 90 -155 154z" />
    <glyph glyph-name="gbreve" unicode="&#x11f;" horiz-adv-x="401" 
d="M144 0c-83 0 -95 41 -109 87c-8 32 -10 104 -10 160c0 51 2 97 5 120c11 97 47 134 118 134c23 0 60 -8 77 -44l4 2v36h135v-515c0 -124 -61 -177 -166 -177c-100 0 -158 48 -163 147l132 19c3 -28 17 -39 32 -39c19 0 28 13 28 33v75h-5c-16 -24 -59 -38 -78 -38z
M197 131c13 0 21 7 26 20s5 48 5 105v11c0 35 -1 69 -4 80c-3 15 -12 22 -27 22s-25 -11 -25 -22c-3 -8 -4 -46 -4 -93c0 -44 1 -83 4 -100c3 -13 10 -23 25 -23zM57 685h93c3 -29 29 -71 62 -71c38 0 55 42 58 71h95c-5 -64 -49 -154 -153 -154c-110 0 -152 90 -155 154z
" />
    <glyph glyph-name="Gdotaccent" unicode="&#x120;" horiz-adv-x="440" 
d="M233 702c125 0 185 -77 177 -179l-131 -23c-1 41 -19 72 -47 72c-36 0 -45 -33 -45 -53v-355c0 -19 5 -40 40 -40c27 0 46 15 46 38v107h-47v119h182v-219c0 -115 -64 -175 -176 -175c-125 0 -180 59 -180 176v349c0 111 64 183 181 183zM285 727h-118v130h118v-130z" />
    <glyph glyph-name="gdotaccent" unicode="&#x121;" horiz-adv-x="401" 
d="M144 0c-83 0 -95 41 -109 87c-8 32 -10 104 -10 160c0 51 2 97 5 120c11 97 47 134 118 134c23 0 60 -8 77 -44l4 2v36h135v-515c0 -124 -61 -177 -166 -177c-100 0 -158 48 -163 147l132 19c3 -28 17 -39 32 -39c19 0 28 13 28 33v75h-5c-16 -24 -59 -38 -78 -38z
M197 131c13 0 21 7 26 20s5 48 5 105v11c0 35 -1 69 -4 80c-3 15 -12 22 -27 22s-25 -11 -25 -22c-3 -8 -4 -46 -4 -93c0 -44 1 -83 4 -100c3 -13 10 -23 25 -23zM269 547h-118v130h118v-130z" />
    <glyph glyph-name="Gcommaaccent" unicode="&#x122;" horiz-adv-x="440" 
d="M233 702c125 0 185 -77 177 -179l-131 -23c-1 41 -19 72 -47 72c-36 0 -45 -33 -45 -53v-355c0 -19 5 -40 40 -40c27 0 46 15 46 38v107h-47v119h182v-219c0 -115 -64 -175 -176 -175c-125 0 -180 59 -180 176v349c0 111 64 183 181 183zM287 -167l-55 -109h-66l28 107
h-24v111h117v-109z" />
    <glyph glyph-name="gcommaaccent" unicode="&#x123;" horiz-adv-x="401" 
d="M157 659l55 109h66l-28 -107h24v-111h-117v109zM144 0c-83 0 -95 41 -109 87c-8 32 -10 104 -10 160c0 51 2 97 5 120c11 97 47 134 118 134c23 0 60 -8 77 -44l4 2v36h135v-515c0 -124 -61 -177 -166 -177c-100 0 -158 48 -163 147l132 19c3 -28 17 -39 32 -39
c19 0 28 13 28 33v75h-5c-16 -24 -59 -38 -78 -38zM197 131c13 0 21 7 26 20s5 48 5 105v11c0 35 -1 69 -4 80c-3 15 -12 22 -27 22s-25 -11 -25 -22c-3 -8 -4 -46 -4 -93c0 -44 1 -83 4 -100c3 -13 10 -23 25 -23z" />
    <glyph glyph-name="Hcircumflex" unicode="&#x124;" horiz-adv-x="459" 
d="M409 0h-135v288h-87v-288h-136v696h136v-276h87v276h135v-696zM346 721l-119 80l-119 -80l-52 47l134 145h79l129 -144z" />
    <glyph glyph-name="hcircumflex" unicode="&#x125;" horiz-adv-x="413" 
d="M179 456l5 -1c17 22 57 46 89 46c90 0 100 -63 100 -131v-370h-137v335c0 27 -12 36 -27 36c-16 0 -30 -14 -30 -39v-332h-137v726h137v-270zM226 721l-119 80l-119 -80l-52 47l134 145h79l129 -144z" />
    <glyph glyph-name="Hbar" unicode="&#x126;" horiz-adv-x="459" 
d="M409 0h-135v288h-87v-288h-136v514h-40v81h40v101h136v-101h87v101h135v-101h40v-81h-40v-514zM187 420h87v94h-87v-94z" />
    <glyph glyph-name="hbar" unicode="&#x127;" horiz-adv-x="413" 
d="M179 442l5 -1c17 22 57 46 89 46c90 0 100 -63 100 -131v-356h-137v321c0 27 -12 36 -27 36c-16 0 -30 -14 -30 -39v-318h-137v558h-42v77h42v91h137v-91h117v-77h-117v-116z" />
    <glyph glyph-name="Itilde" unicode="&#x128;" horiz-adv-x="302" 
d="M214 0h-136v696h136v-696zM97 859c42 0 78 -34 103 -34c19 0 30 5 57 38l65 -36c-32 -75 -67 -99 -106 -99c-48 0 -81 35 -113 35c-16 0 -33 -8 -58 -39l-65 40c31 72 78 95 117 95z" />
    <glyph glyph-name="itilde" unicode="&#x129;" horiz-adv-x="305" 
d="M99 689c42 0 78 -34 103 -34c19 0 30 5 57 38l65 -36c-32 -75 -67 -99 -106 -99c-48 0 -81 35 -113 35c-16 0 -33 -8 -58 -39l-65 40c31 72 78 95 117 95zM223 0h-137v494h137v-494z" />
    <glyph glyph-name="Imacron" unicode="&#x12a;" horiz-adv-x="242" 
d="M189 0h-136v696h136v-696zM247 745h-252v110h252v-110z" />
    <glyph glyph-name="imacron" unicode="&#x12b;" horiz-adv-x="237" 
d="M245 566h-252v110h252v-110zM187 0h-137v494h137v-494z" />
    <glyph glyph-name="Ibreve" unicode="&#x12c;" horiz-adv-x="268" 
d="M196 0h-136v696h136v-696zM-20 893h93c3 -29 29 -71 62 -71c38 0 55 42 58 71h95c-5 -64 -49 -154 -153 -154c-110 0 -152 90 -155 154z" />
    <glyph glyph-name="ibreve" unicode="&#x12d;" horiz-adv-x="287" 
d="M-8 691h93c3 -29 29 -71 62 -71c38 0 55 42 58 71h95c-5 -64 -49 -154 -153 -154c-110 0 -152 90 -155 154zM214 0h-137v494h137v-494z" />
    <glyph glyph-name="Iogonek" unicode="&#x12e;" horiz-adv-x="242" 
d="M44 -112c0 29 13 69 40 112h-31v696h136v-696h-34c-27 -47 -30 -85 -30 -100c0 -27 20 -42 44 -42c13 0 30 3 53 15l22 -58c-31 -20 -67 -27 -98 -27c-57 0 -102 36 -102 100z" />
    <glyph glyph-name="iogonek" unicode="&#x12f;" horiz-adv-x="237" 
d="M42 -112c0 29 13 69 40 112h-32v494h137v-494h-34c-27 -47 -30 -85 -30 -100c0 -27 20 -42 44 -42c13 0 30 3 53 15l22 -58c-31 -20 -67 -27 -98 -27c-57 0 -102 36 -102 100zM187 566h-137v130h137v-130z" />
    <glyph glyph-name="Idotaccent" unicode="&#x130;" horiz-adv-x="242" 
d="M189 0h-136v696h136v-696zM180 727h-118v130h118v-130z" />
    <glyph glyph-name="IJ" unicode="&#x132;" horiz-adv-x="631" 
d="M192 0h-136v696h136v-696zM445 696h135v-527c0 -109 -65 -175 -177 -175c-63 0 -119 31 -158 92l101 78c17 -25 41 -39 56 -39c31 0 43 27 43 46v525z" />
    <glyph glyph-name="ij" unicode="&#x133;" horiz-adv-x="437" 
d="M184 566h-137v130h137v-130zM184 0h-137v494h137v-494zM394 566h-137v130h137v-130zM394 495v-530c0 -115 -69 -160 -186 -160h-11v128h17c35 0 43 21 43 69v493h137z" />
    <glyph glyph-name="Jcircumflex" unicode="&#x134;" horiz-adv-x="388" 
d="M174 697h135v-527c0 -109 -65 -175 -177 -175c-63 0 -119 31 -158 92l101 78c17 -25 41 -39 56 -39c31 0 43 27 43 46v525zM356 723l-119 80l-119 -80l-52 47l134 145h79l129 -144z" />
    <glyph glyph-name="jcircumflex" unicode="&#x135;" horiz-adv-x="302" 
d="M217 495v-530c0 -115 -69 -160 -186 -160h-11v128h17c35 0 43 21 43 69v493h137zM270 515l-119 94l-119 -94l-52 47l134 159h79l129 -158z" />
    <glyph glyph-name="Kcommaaccent" unicode="&#x136;" horiz-adv-x="446" 
d="M187 481h7l95 215h145l-145 -288l160 -408h-141l-97 267l-24 -63v-204h-136v696h136v-215zM301 -147l-55 -109h-66l28 107h-24v111h117v-109z" />
    <glyph glyph-name="kcommaaccent" unicode="&#x137;" horiz-adv-x="432" 
d="M182 378l7 -1l71 117h163l-133 -193l136 -301h-163l-70 172l-11 -17v-155h-136v725h136v-347zM284 -167l-55 -109h-66l28 107h-24v111h117v-109z" />
    <glyph glyph-name="kgreenlandic" unicode="&#x138;" horiz-adv-x="432" 
d="M182 378l7 -1l71 117h163l-133 -193l136 -301h-163l-70 172l-11 -17v-155h-136v494h136v-116z" />
    <glyph glyph-name="Lacute" unicode="&#x139;" horiz-adv-x="378" 
d="M370 0h-319v696h136v-565h183v-131zM105 718l-49 68l167 130l77 -93z" />
    <glyph glyph-name="lacute" unicode="&#x13a;" horiz-adv-x="234" 
d="M218 -5h-24c-107 0 -158 40 -158 151v580h137v-562c0 -35 13 -44 33 -44h12v-125zM87 738l-49 68l167 130l77 -93z" />
    <glyph glyph-name="Lcommaaccent" unicode="&#x13b;" horiz-adv-x="378" 
d="M370 0h-319v696h136v-565h183v-131zM260 -167l-55 -109h-66l28 107h-24v111h117v-109z" />
    <glyph glyph-name="lcommaaccent" unicode="&#x13c;" horiz-adv-x="234" 
d="M218 -5h-24c-107 0 -158 40 -158 151v580h137v-562c0 -35 13 -44 33 -44h12v-125zM177 -167l-55 -109h-66l28 107h-24v111h117v-109z" />
    <glyph glyph-name="Lcaron" unicode="&#x13d;" horiz-adv-x="378" 
d="M370 0h-319v696h136v-565h183v-131zM354 587l-55 -109h-66l28 107h-24v111h117v-109z" />
    <glyph glyph-name="lcaron" unicode="&#x13e;" horiz-adv-x="323" 
d="M323 614l-55 -109h-66l28 107h-24v111h117v-109zM218 -5h-24c-107 0 -158 40 -158 151v580h137v-562c0 -35 13 -44 33 -44h12v-125z" />
    <glyph glyph-name="Ldot" unicode="&#x13f;" horiz-adv-x="378" 
d="M370 0h-319v696h136v-565h183v-131zM371 301h-118v130h118v-130z" />
    <glyph glyph-name="ldot" unicode="&#x140;" horiz-adv-x="322" 
d="M321 329h-118v130h118v-130zM218 -5h-24c-107 0 -158 40 -158 151v580h137v-562c0 -35 13 -44 33 -44h12v-125z" />
    <glyph glyph-name="Lslash" unicode="&#x141;" horiz-adv-x="405" 
d="M397 0h-319v256l-36 -26l-42 59l78 56v351h136v-253l61 44l42 -59l-103 -74v-223h183v-131z" />
    <glyph glyph-name="lslash" unicode="&#x142;" horiz-adv-x="295" 
d="M255 -5h-24c-107 0 -158 40 -158 151v136l-31 -22l-42 59l73 52v355h137v-258l41 30l42 -59l-83 -59v-216c0 -35 13 -44 33 -44h12v-125z" />
    <glyph glyph-name="Nacute" unicode="&#x143;" horiz-adv-x="481" 
d="M296 367h5v329h133v-696h-116l-82 203l-48 132h-5v-335h-135v696h119l82 -202zM201 718l-49 68l167 130l77 -93z" />
    <glyph glyph-name="nacute" unicode="&#x144;" horiz-adv-x="413" 
d="M179 456l5 -1c17 23 53 46 84 46c90 0 105 -57 105 -126v-375h-137v335c0 27 -12 36 -27 36c-16 0 -30 -14 -30 -39v-332h-137v495h137v-39zM211 531l-72 43l100 186l108 -54z" />
    <glyph glyph-name="Ncommaaccent" unicode="&#x145;" horiz-adv-x="481" 
d="M296 367h5v329h133v-696h-116l-82 203l-48 132h-5v-335h-135v696h119l82 -202zM301 -147l-55 -109h-66l28 107h-24v111h117v-109z" />
    <glyph glyph-name="ncommaaccent" unicode="&#x146;" horiz-adv-x="413" 
d="M179 456l5 -1c17 23 53 46 84 46c90 0 105 -57 105 -126v-375h-137v335c0 27 -12 36 -27 36c-16 0 -30 -14 -30 -39v-332h-137v495h137v-39zM256 -167l-55 -109h-66l28 107h-24v111h117v-109z" />
    <glyph glyph-name="Ncaron" unicode="&#x147;" horiz-adv-x="481" 
d="M296 367h5v329h133v-696h-116l-82 203l-48 132h-5v-335h-135v696h119l82 -202zM251 833l119 80l52 -48l-129 -140h-79l-134 141l52 47z" />
    <glyph glyph-name="ncaron" unicode="&#x148;" horiz-adv-x="413" 
d="M179 456l5 -1c17 23 53 46 84 46c90 0 105 -57 105 -126v-375h-137v335c0 27 -12 36 -27 36c-16 0 -30 -14 -30 -39v-332h-137v495h137v-39zM204 627l119 94l52 -48l-129 -158h-79l-134 159l52 47z" />
    <glyph glyph-name="napostrophe" unicode="&#x149;" horiz-adv-x="494" 
d="M260 456l5 -1c17 23 53 46 84 46c90 0 105 -57 105 -126v-375h-137v335c0 27 -12 36 -27 36c-16 0 -30 -14 -30 -39v-332h-137v495h137v-39zM125 560l-55 -109h-66l28 107h-24v111h117v-109z" />
    <glyph glyph-name="Eng" unicode="&#x14a;" horiz-adv-x="481" 
d="M296 367h5v329h133v-769c0 -79 -49 -103 -109 -103c-28 0 -58 5 -85 13l10 94c35 0 47 7 47 35v89l-57 150l-52 135h-5v-340h-135v696h119l82 -202z" />
    <glyph glyph-name="eng" unicode="&#x14b;" horiz-adv-x="413" 
d="M179 456l5 -1c17 23 53 46 84 46c90 0 105 -57 105 -126v-448c0 -79 -49 -103 -109 -103c-28 0 -58 5 -85 13l10 94c35 0 47 7 47 35v369c0 27 -12 36 -27 36c-16 0 -30 -14 -30 -39v-332h-137v495h137v-39z" />
    <glyph glyph-name="Omacron" unicode="&#x14c;" horiz-adv-x="445" 
d="M262 164v368c0 31 -17 43 -40 43s-41 -12 -41 -43v-368c0 -32 18 -43 41 -43s40 11 40 43zM400 527v-357c0 -120 -61 -176 -178 -176c-118 0 -177 59 -177 176v357c0 120 66 175 177 175c121 0 178 -55 178 -175zM345 745h-252v110h252v-110z" />
    <glyph glyph-name="omacron" unicode="&#x14d;" horiz-adv-x="401" 
d="M202 503c84 0 131 -38 150 -87c13 -37 14 -112 14 -168v-15c0 -36 0 -72 -4 -105c-13 -115 -100 -135 -168 -135c-91 0 -137 51 -150 105c-8 33 -10 99 -10 147c0 59 4 134 17 168c20 53 71 90 151 90zM202 376c-13 0 -21 -7 -26 -20s-5 -57 -6 -113v-15
c0 -35 0 -68 5 -84c3 -15 12 -22 27 -22s25 11 25 22c3 8 5 54 5 101c0 44 -2 91 -5 108c-3 13 -10 23 -25 23zM323 566h-252v110h252v-110z" />
    <glyph glyph-name="Obreve" unicode="&#x14e;" horiz-adv-x="445" 
d="M262 164v368c0 31 -17 43 -40 43s-41 -12 -41 -43v-368c0 -32 18 -43 41 -43s40 11 40 43zM400 527v-357c0 -120 -61 -176 -178 -176c-118 0 -177 59 -177 176v357c0 120 66 175 177 175c121 0 178 -55 178 -175zM72 893h93c3 -29 29 -71 62 -71c38 0 55 42 58 71h95
c-5 -64 -49 -154 -153 -154c-110 0 -152 90 -155 154z" />
    <glyph glyph-name="obreve" unicode="&#x14f;" horiz-adv-x="401" 
d="M202 503c84 0 131 -38 150 -87c13 -37 14 -112 14 -168v-15c0 -36 0 -72 -4 -105c-13 -115 -100 -135 -168 -135c-91 0 -137 51 -150 105c-8 33 -10 99 -10 147c0 59 4 134 17 168c20 53 71 90 151 90zM202 376c-13 0 -21 -7 -26 -20s-5 -57 -6 -113v-15
c0 -35 0 -68 5 -84c3 -15 12 -22 27 -22s25 11 25 22c3 8 5 54 5 101c0 44 -2 91 -5 108c-3 13 -10 23 -25 23zM49 685h93c3 -29 29 -71 62 -71c38 0 55 42 58 71h95c-5 -64 -49 -154 -153 -154c-110 0 -152 90 -155 154z" />
    <glyph glyph-name="Ohungarumlaut" unicode="&#x150;" horiz-adv-x="445" 
d="M262 164v368c0 31 -17 43 -40 43s-41 -12 -41 -43v-368c0 -32 18 -43 41 -43s40 11 40 43zM400 527v-357c0 -120 -61 -176 -178 -176c-118 0 -177 59 -177 176v357c0 120 66 175 177 175c121 0 178 -55 178 -175zM103 713l-53 64l157 142l76 -76zM288 716l-51 66l163 135
l73 -79z" />
    <glyph glyph-name="ohungarumlaut" unicode="&#x151;" horiz-adv-x="401" 
d="M202 503c84 0 131 -38 150 -87c13 -37 14 -112 14 -168v-15c0 -36 0 -72 -4 -105c-13 -115 -100 -135 -168 -135c-91 0 -137 51 -150 105c-8 33 -10 99 -10 147c0 59 4 134 17 168c20 53 71 90 151 90zM202 376c-13 0 -21 -7 -26 -20s-5 -57 -6 -113v-15
c0 -35 0 -68 5 -84c3 -15 12 -22 27 -22s25 11 25 22c3 8 5 54 5 101c0 44 -2 91 -5 108c-3 13 -10 23 -25 23zM122 531l-72 43l100 186l108 -54zM282 531l-72 43l100 186l108 -54z" />
    <glyph glyph-name="Racute" unicode="&#x154;" horiz-adv-x="446" 
d="M51 696h165c115 0 196 -53 196 -206c0 -95 -25 -152 -77 -188l100 -302h-139l-82 271h-27v-271h-136v696zM212 566h-25v-164h21c39 0 74 16 74 87c0 53 -29 77 -70 77zM179 718l-49 68l167 130l77 -93z" />
    <glyph glyph-name="racute" unicode="&#x155;" horiz-adv-x="316" 
d="M50 0v496h138v-55h2c25 51 63 60 107 60h11v-135c-11 1 -21 2 -30 2c-57 0 -90 -24 -90 -93v-275h-138zM177 531l-72 43l100 186l108 -54z" />
    <glyph glyph-name="Rcommaaccent" unicode="&#x156;" horiz-adv-x="446" 
d="M51 696h165c115 0 196 -53 196 -206c0 -95 -25 -152 -77 -188l100 -302h-139l-82 271h-27v-271h-136v696zM212 566h-25v-164h21c39 0 74 16 74 87c0 53 -29 77 -70 77zM301 -147l-55 -109h-66l28 107h-24v111h117v-109z" />
    <glyph glyph-name="rcommaaccent" unicode="&#x157;" horiz-adv-x="316" 
d="M50 0v496h138v-55h2c25 51 63 60 107 60h11v-135c-11 1 -21 2 -30 2c-57 0 -90 -24 -90 -93v-275h-138zM180 -164l-55 -109h-66l28 107h-24v111h117v-109z" />
    <glyph glyph-name="Rcaron" unicode="&#x158;" horiz-adv-x="446" 
d="M51 696h165c115 0 196 -53 196 -206c0 -95 -25 -152 -77 -188l100 -302h-139l-82 271h-27v-271h-136v696zM212 566h-25v-164h21c39 0 74 16 74 87c0 53 -29 77 -70 77zM187 833l119 80l52 -48l-129 -140h-79l-134 141l52 47z" />
    <glyph glyph-name="rcaron" unicode="&#x159;" horiz-adv-x="316" 
d="M50 0v496h138v-55h2c25 51 63 60 107 60h11v-135c-11 1 -21 2 -30 2c-57 0 -90 -24 -90 -93v-275h-138zM166 627l119 94l52 -48l-129 -158h-79l-134 159l52 47z" />
    <glyph glyph-name="Sacute" unicode="&#x15a;" horiz-adv-x="427" 
d="M397 205c0 -128 -40 -211 -181 -211c-129 0 -180 80 -180 179l136 26c3 -51 12 -76 47 -76c39 0 44 40 44 81c0 56 -14 70 -66 92c-137 56 -156 118 -156 208c0 115 50 198 181 198c139 0 175 -98 175 -175l-134 -29c0 39 -6 74 -45 74c-36 0 -42 -38 -42 -67
c0 -37 5 -57 79 -86c127 -50 142 -107 142 -214zM173 718l-49 68l167 130l77 -93z" />
    <glyph glyph-name="sacute" unicode="&#x15b;" horiz-adv-x="387" 
d="M27 143l131 19c-1 -27 15 -44 36 -44c17 0 32 15 32 31c0 35 -12 42 -32 49c-76 26 -162 40 -162 155c0 83 57 150 164 150c108 0 161 -59 162 -151l-130 -17c0 19 -9 43 -32 43c-21 0 -29 -17 -29 -28c0 -20 4 -29 27 -36c95 -29 166 -52 166 -165
c0 -80 -42 -155 -170 -155c-99 0 -159 49 -163 149zM197 531l-72 43l100 186l108 -54z" />
    <glyph glyph-name="Scircumflex" unicode="&#x15c;" horiz-adv-x="427" 
d="M397 205c0 -128 -40 -211 -181 -211c-129 0 -180 80 -180 179l136 26c3 -51 12 -76 47 -76c39 0 44 40 44 81c0 56 -14 70 -66 92c-137 56 -156 118 -156 208c0 115 50 198 181 198c139 0 175 -98 175 -175l-134 -29c0 39 -6 74 -45 74c-36 0 -42 -38 -42 -67
c0 -37 5 -57 79 -86c127 -50 142 -107 142 -214zM343 721l-119 80l-119 -80l-52 47l134 145h79l129 -144z" />
    <glyph glyph-name="scircumflex" unicode="&#x15d;" horiz-adv-x="387" 
d="M27 143l131 19c-1 -27 15 -44 36 -44c17 0 32 15 32 31c0 35 -12 42 -32 49c-76 26 -162 40 -162 155c0 83 57 150 164 150c108 0 161 -59 162 -151l-130 -17c0 19 -9 43 -32 43c-21 0 -29 -17 -29 -28c0 -20 4 -29 27 -36c95 -29 166 -52 166 -165
c0 -80 -42 -155 -170 -155c-99 0 -159 49 -163 149zM315 515l-119 94l-119 -94l-52 47l134 159h79l129 -158z" />
    <glyph glyph-name="Scedilla" unicode="&#x15e;" horiz-adv-x="427" 
d="M397 205c0 -123 -36 -202 -160 -210l-11 -31c71 -11 89 -58 89 -88c0 -28 -22 -86 -97 -86c-11 0 -56 1 -103 23l21 53c31 -13 46 -15 61 -15c19 0 32 15 32 30c0 21 -15 28 -38 28l-34 23l21 65c-101 13 -142 89 -142 176l136 26c3 -51 12 -76 47 -76c39 0 44 40 44 81
c0 56 -14 70 -66 92c-137 56 -156 118 -156 208c0 115 50 198 181 198c139 0 175 -98 175 -175l-134 -29c0 39 -6 74 -45 74c-36 0 -42 -38 -42 -67c0 -37 5 -57 79 -86c127 -50 142 -107 142 -214z" />
    <glyph glyph-name="scedilla" unicode="&#x15f;" horiz-adv-x="387" 
d="M27 143l131 19c-1 -27 15 -44 36 -44c17 0 32 15 32 31c0 35 -12 42 -32 49c-76 26 -162 40 -162 155c0 83 57 150 164 150c108 0 161 -59 162 -151l-130 -17c0 19 -9 43 -32 43c-21 0 -29 -17 -29 -28c0 -20 4 -29 27 -36c95 -29 166 -52 166 -165
c0 -73 -35 -142 -136 -153l-11 -32c71 -11 89 -58 89 -88c0 -28 -22 -86 -97 -86c-11 0 -56 1 -103 23l21 53c31 -13 46 -15 61 -15c19 0 32 15 32 30c0 21 -15 28 -38 28l-34 23l20 64c-84 7 -134 56 -137 147z" />
    <glyph glyph-name="Tcommaaccent" unicode="&#x162;" horiz-adv-x="360" 
d="M354 566h-107v-566h-136v566h-107v130h350v-130zM237 -167l-55 -109h-66l28 107h-24v111h117v-109z" />
    <glyph glyph-name="tcommaaccent" unicode="&#x163;" horiz-adv-x="277" 
d="M245 0h-56c-96 0 -129 65 -129 126v262h-45v107h45v130h129v-130h56v-107h-56v-218c0 -23 1 -46 44 -46h12v-124zM203 -167l-55 -109h-66l28 107h-24v111h117v-109z" />
    <glyph glyph-name="Tcaron" unicode="&#x164;" horiz-adv-x="360" 
d="M354 566h-107v-566h-136v566h-107v130h350v-130zM185 833l119 80l52 -48l-129 -140h-79l-134 141l52 47z" />
    <glyph glyph-name="tcaron" unicode="&#x165;" horiz-adv-x="360" 
d="M360 662l-55 -109h-66l28 107h-24v111h117v-109zM245 0h-56c-96 0 -129 65 -129 126v262h-45v107h45v130h129v-130h56v-107h-56v-218c0 -23 1 -46 44 -46h12v-124z" />
    <glyph glyph-name="Tbar" unicode="&#x166;" horiz-adv-x="360" 
d="M354 566h-107v-152h85v-98h-85v-316h-136v316h-83v98h83v152h-107v130h350v-130z" />
    <glyph glyph-name="tbar" unicode="&#x167;" horiz-adv-x="277" 
d="M245 0h-56c-96 0 -129 65 -129 126v110h-45v93h45v59h-45v107h45v130h129v-130h56v-107h-56v-59h56v-93h-56v-66c0 -23 1 -46 44 -46h12v-124z" />
    <glyph glyph-name="Utilde" unicode="&#x168;" horiz-adv-x="445" 
d="M263 695h138v-525c0 -120 -61 -176 -178 -176c-118 0 -177 59 -177 176v525h136v-528c0 -32 18 -43 41 -43s40 11 40 43v528zM173 869c42 0 78 -34 103 -34c19 0 30 5 57 38l65 -36c-32 -75 -67 -99 -106 -99c-48 0 -81 35 -113 35c-16 0 -33 -8 -58 -39l-65 40
c31 72 78 95 117 95z" />
    <glyph glyph-name="utilde" unicode="&#x169;" horiz-adv-x="413" 
d="M237 39l-5 1c-17 -22 -54 -46 -86 -46c-90 0 -103 57 -103 126v375h137v-335c0 -27 12 -36 27 -36c16 0 30 14 30 39v332h137v-495h-137v39zM157 689c42 0 78 -34 103 -34c19 0 30 5 57 38l65 -36c-32 -75 -67 -99 -106 -99c-48 0 -81 35 -113 35c-16 0 -33 -8 -58 -39
l-65 40c31 72 78 95 117 95z" />
    <glyph glyph-name="Umacron" unicode="&#x16a;" horiz-adv-x="445" 
d="M263 695h138v-525c0 -120 -61 -176 -178 -176c-118 0 -177 59 -177 176v525h136v-528c0 -32 18 -43 41 -43s40 11 40 43v528zM346 745h-252v110h252v-110z" />
    <glyph glyph-name="umacron" unicode="&#x16b;" horiz-adv-x="413" 
d="M237 39l-5 1c-17 -22 -54 -46 -86 -46c-90 0 -103 57 -103 126v375h137v-335c0 -27 12 -36 27 -36c16 0 30 14 30 39v332h137v-495h-137v39zM335 566h-252v110h252v-110z" />
    <glyph glyph-name="Ubreve" unicode="&#x16c;" horiz-adv-x="445" 
d="M263 695h138v-525c0 -120 -61 -176 -178 -176c-118 0 -177 59 -177 176v525h136v-528c0 -32 18 -43 41 -43s40 11 40 43v528zM73 893h93c3 -29 29 -71 62 -71c38 0 55 42 58 71h95c-5 -64 -49 -154 -153 -154c-110 0 -152 90 -155 154z" />
    <glyph glyph-name="ubreve" unicode="&#x16d;" horiz-adv-x="413" 
d="M237 39l-5 1c-17 -22 -54 -46 -86 -46c-90 0 -103 57 -103 126v375h137v-335c0 -27 12 -36 27 -36c16 0 30 14 30 39v332h137v-495h-137v39zM54 685h93c3 -29 29 -71 62 -71c38 0 55 42 58 71h95c-5 -64 -49 -154 -153 -154c-110 0 -152 90 -155 154z" />
    <glyph glyph-name="Uring" unicode="&#x16e;" horiz-adv-x="445" 
d="M263 695h138v-525c0 -120 -61 -176 -178 -176c-118 0 -177 59 -177 176v525h136v-528c0 -32 18 -43 41 -43s40 11 40 43v528zM221 724c-56 0 -101 45 -101 101s45 102 101 102c59 0 101 -46 101 -102s-42 -101 -101 -101zM221 855c-16 0 -31 -14 -31 -31
c0 -19 15 -30 31 -30c17 0 31 11 31 30c0 17 -14 31 -31 31z" />
    <glyph glyph-name="uring" unicode="&#x16f;" horiz-adv-x="413" 
d="M237 39l-5 1c-17 -22 -54 -46 -86 -46c-90 0 -103 57 -103 126v375h137v-335c0 -27 12 -36 27 -36c16 0 30 14 30 39v332h137v-495h-137v39zM209 519c-56 0 -101 45 -101 101s45 102 101 102c59 0 101 -46 101 -102s-42 -101 -101 -101zM209 650c-16 0 -31 -14 -31 -31
c0 -19 15 -30 31 -30c17 0 31 11 31 30c0 17 -14 31 -31 31z" />
    <glyph glyph-name="Uhungarumlaut" unicode="&#x170;" horiz-adv-x="445" 
d="M263 695h138v-525c0 -120 -61 -176 -178 -176c-118 0 -177 59 -177 176v525h136v-528c0 -32 18 -43 41 -43s40 11 40 43v528zM113 713l-53 64l157 142l76 -76zM298 716l-51 66l163 135l73 -79z" />
    <glyph glyph-name="uhungarumlaut" unicode="&#x171;" horiz-adv-x="413" 
d="M237 39l-5 1c-17 -22 -54 -46 -86 -46c-90 0 -103 57 -103 126v375h137v-335c0 -27 12 -36 27 -36c16 0 30 14 30 39v332h137v-495h-137v39zM126 531l-72 43l100 186l108 -54zM286 531l-72 43l100 186l108 -54z" />
    <glyph glyph-name="Uogonek" unicode="&#x172;" horiz-adv-x="445" 
d="M263 695h138v-525c0 -108 -49 -163 -144 -174c-25 -44 -28 -81 -28 -96c0 -27 20 -42 44 -42c13 0 30 3 53 15l22 -58c-31 -20 -67 -27 -98 -27c-57 0 -102 36 -102 100c0 28 13 68 37 108c-93 11 -139 69 -139 174v525h136v-528c0 -32 18 -43 41 -43s40 11 40 43v528z
" />
    <glyph glyph-name="uogonek" unicode="&#x173;" horiz-adv-x="413" 
d="M197 -112c0 29 13 69 40 112v39l-5 1c-17 -22 -54 -46 -86 -46c-90 0 -103 57 -103 126v375h137v-335c0 -27 12 -36 27 -36c16 0 30 14 30 39v332h137v-495h-66c-27 -47 -30 -85 -30 -100c0 -27 20 -42 44 -42c13 0 30 3 53 15l22 -58c-31 -20 -67 -27 -98 -27
c-57 0 -102 36 -102 100z" />
    <glyph glyph-name="Wcircumflex" unicode="&#x174;" horiz-adv-x="641" 
d="M326 331h-6l-62 -331h-150l-101 696h155l37 -388h5l64 388h112l64 -395h6l31 395h155l-101 -696h-150zM436 721l-119 80l-119 -80l-52 47l134 145h79l129 -144z" />
    <glyph glyph-name="wcircumflex" unicode="&#x175;" horiz-adv-x="582" 
d="M292 225h-5l-16 -119l-16 -106h-151l-94 494h144l17 -175l13 -128h5l15 128l21 175h129l24 -177l19 -126h5l12 129l15 174h141l-94 -494h-151l-16 106zM403 515l-119 94l-119 -94l-52 47l134 159h79l129 -158z" />
    <glyph glyph-name="Ycircumflex" unicode="&#x176;" horiz-adv-x="414" 
d="M207 442h5l25 117l30 137h144l-135 -413v-283h-137v283l-136 413h145l34 -139zM335 721l-119 80l-119 -80l-52 47l134 145h79l129 -144z" />
    <glyph glyph-name="ycircumflex" unicode="&#x177;" horiz-adv-x="382" 
d="M183 199h5l17 116l31 179h140l-143 -564c-20 -79 -66 -122 -149 -122h-46v121h25c21 0 44 11 55 56l6 26l-121 483h146l20 -178zM305 515l-119 94l-119 -94l-52 47l134 159h79l129 -158z" />
    <glyph glyph-name="Zacute" unicode="&#x179;" horiz-adv-x="360" 
d="M339 0h-315v124l168 442h-162v130h309v-120l-169 -445h169v-131zM139 718l-49 68l167 130l77 -93z" />
    <glyph glyph-name="zacute" unicode="&#x17a;" horiz-adv-x="350" 
d="M322 0h-294v121l138 252h-127v122h283v-112l-142 -256h142v-127zM201 531l-72 43l100 186l108 -54z" />
    <glyph glyph-name="Zdotaccent" unicode="&#x17b;" horiz-adv-x="360" 
d="M339 0h-315v124l168 442h-162v130h309v-120l-169 -445h169v-131zM250 727h-118v130h118v-130z" />
    <glyph glyph-name="zdotaccent" unicode="&#x17c;" horiz-adv-x="350" 
d="M322 0h-294v121l138 252h-127v122h283v-112l-142 -256h142v-127zM249 547h-118v130h118v-130z" />
    <glyph glyph-name="AEacute" unicode="&#x1fc;" horiz-adv-x="642" 
d="M620 0h-319v151h-110l-39 -151h-144l197 696h415v-130h-183v-146h160v-133h-160v-151h183v-136zM296 564l-72 -283h77v283h-5zM371 718l-49 68l167 130l77 -93z" />
    <glyph glyph-name="aeacute" unicode="&#x1fd;" horiz-adv-x="587" 
d="M230 164v44h-25c-23 0 -42 -12 -42 -51c0 -25 15 -36 35 -36s32 18 32 43zM367 350v-47h57v46c0 13 -14 26 -29 26c-16 0 -28 -13 -28 -25zM396 -6c-56 0 -107 19 -130 60c-43 -52 -85 -60 -114 -60c-97 0 -124 64 -124 155c0 80 46 152 159 152h43v42c0 19 -7 31 -32 31
c-13 0 -31 -3 -38 -38l-119 37c21 85 78 128 170 128c39 0 71 -9 94 -28c23 20 56 30 91 30c100 0 165 -55 165 -159v-127h-194v-68c0 -15 12 -26 28 -26c15 0 29 10 32 39l135 -22c-5 -91 -67 -146 -166 -146zM326 531l-72 43l100 186l108 -54z" />
    <glyph glyph-name="Oslashacute" unicode="&#x1fe;" horiz-adv-x="445" 
d="M75 -5l-32 17l25 53c-15 26 -23 61 -23 105v357c0 120 66 175 177 175c55 0 97 -12 127 -36l16 34l35 -18l-24 -50c16 -27 24 -62 24 -105v-357c0 -120 -61 -176 -178 -176c-56 0 -99 13 -129 39zM192 718l-49 68l167 130l77 -93zM262 164v226l-81 -172v-54
c0 -32 18 -43 41 -43s40 11 40 43zM181 532v-225l81 173v52c0 31 -17 43 -40 43s-41 -12 -41 -43z" />
    <glyph glyph-name="oslashacute" unicode="&#x1ff;" horiz-adv-x="401" 
d="M202 503c32 0 57 -6 80 -15l29 64l27 -14l-29 -65c21 -15 35 -34 43 -57c13 -37 14 -112 14 -168v-15c0 -36 0 -72 -4 -105c-13 -115 -100 -135 -168 -135c-37 0 -66 8 -89 21l-20 -45l-26 14l22 50c-19 19 -30 41 -37 65c-8 33 -10 99 -10 147c0 59 4 134 17 168
c20 53 71 90 151 90zM208 531l-72 43l100 186l108 -54zM232 245c0 19 0 36 -1 52l-60 -134c1 -9 3 -15 4 -19c3 -15 12 -22 27 -22s25 11 25 22c3 8 5 54 5 101zM202 376c-13 0 -21 -7 -26 -20s-5 -57 -6 -113v-9l55 125c-5 11 -12 17 -23 17z" />
    <glyph glyph-name="afii10023" unicode="&#x401;" horiz-adv-x="394" 
d="M370 0h-319v696h319v-130h-183v-147h160v-131h-160v-157h183v-131zM355 729h-119v130h119v-130zM180 729h-118v130h118v-130z" />
    <glyph glyph-name="afii10052" unicode="&#x403;" horiz-adv-x="394" 
d="M370 566h-183v-566h-136v696h319v-130zM153 718l-49 68l167 130l77 -93z" />
    <glyph glyph-name="afii10054" unicode="&#x405;" horiz-adv-x="427" 
d="M397 205c0 -128 -40 -211 -181 -211c-129 0 -180 80 -180 179l136 26c3 -51 12 -76 47 -76c39 0 44 40 44 81c0 56 -14 70 -66 92c-137 56 -156 118 -156 208c0 115 50 198 181 198c139 0 175 -98 175 -175l-134 -29c0 39 -6 74 -45 74c-36 0 -42 -38 -42 -67
c0 -37 5 -57 79 -86c127 -50 142 -107 142 -214z" />
    <glyph glyph-name="afii10055" unicode="&#x406;" horiz-adv-x="242" 
d="M189 0h-136v696h136v-696z" />
    <glyph glyph-name="afii10056" unicode="&#x407;" horiz-adv-x="242" 
d="M189 0h-136v696h136v-696zM266 726h-119v130h119v-130zM91 726h-118v130h118v-130z" />
    <glyph glyph-name="afii10057" unicode="&#x408;" horiz-adv-x="360" 
d="M174 696h135v-527c0 -109 -65 -175 -177 -175c-63 0 -119 31 -158 92l101 78c17 -25 41 -39 56 -39c31 0 43 27 43 46v525z" />
    <glyph glyph-name="afii10017" unicode="&#x410;" horiz-adv-x="449" 
d="M297 0l-21 136h-102l-21 -136h-144l132 696h166l133 -696h-143zM222 516l-15 -141l-14 -111h63l-13 111l-15 141h-6z" />
    <glyph glyph-name="afii10019" unicode="&#x412;" horiz-adv-x="446" 
d="M264 498c0 55 -19 68 -63 68h-14v-138h17c40 0 60 23 60 70zM270 226c0 56 -19 76 -58 76h-25v-171h24c51 0 59 43 59 95zM318 369v-5c63 -21 82 -83 82 -147c0 -149 -66 -217 -195 -217h-154v696h157c124 0 186 -66 186 -194c0 -55 -23 -114 -76 -133z" />
    <glyph glyph-name="afii10020" unicode="&#x413;" horiz-adv-x="394" 
d="M370 566h-183v-566h-136v696h319v-130z" />
    <glyph glyph-name="afii10022" unicode="&#x415;" horiz-adv-x="394" 
d="M370 0h-319v696h319v-130h-183v-147h160v-131h-160v-157h183v-131z" />
    <glyph glyph-name="afii10028" unicode="&#x41a;" horiz-adv-x="455" 
d="M308 362v-4c48 -19 77 -51 90 -118l47 -240h-136l-37 199c-11 53 -19 92 -67 92h-18v-291h-136v697h136v-286h14c32 0 56 33 67 90l37 193h129l-42 -212c-12 -65 -47 -104 -84 -120z" />
    <glyph glyph-name="afii10030" unicode="&#x41c;" horiz-adv-x="582" 
d="M337 136h-91l-29 89l-32 103h-5v-328h-135v696h127l69 -186l47 -138h6l48 141l68 183h127v-696h-136v325h-4l-33 -108z" />
    <glyph glyph-name="afii10031" unicode="&#x41d;" horiz-adv-x="459" 
d="M409 0h-135v288h-87v-288h-136v696h136v-276h87v276h135v-696z" />
    <glyph glyph-name="afii10032" unicode="&#x41e;" horiz-adv-x="445" 
d="M262 164v368c0 31 -17 43 -40 43s-41 -12 -41 -43v-368c0 -32 18 -43 41 -43s40 11 40 43zM400 527v-357c0 -120 -61 -176 -178 -176c-118 0 -177 59 -177 176v357c0 120 66 175 177 175c121 0 178 -55 178 -175z" />
    <glyph glyph-name="afii10033" unicode="&#x41f;" horiz-adv-x="446" 
d="M394 0h-135v563h-72v-563h-136v696h343v-696z" />
    <glyph glyph-name="afii10034" unicode="&#x420;" horiz-adv-x="428" 
d="M51 696h165c116 0 194 -50 194 -215c0 -143 -56 -226 -191 -226h-32v-255h-136v696zM212 566h-25v-180h23c35 0 70 15 70 96c0 61 -27 84 -68 84z" />
    <glyph glyph-name="afii10035" unicode="&#x421;" horiz-adv-x="427" 
d="M226 702c121 0 178 -65 178 -160c0 -7 0 -12 -1 -19l-131 -23c-1 41 -19 72 -47 72c-36 0 -45 -33 -45 -53v-355c0 -19 5 -40 40 -40c27 0 45 24 46 72l135 -18c-1 -111 -63 -184 -176 -184c-125 0 -180 59 -180 176v349c0 111 58 183 181 183z" />
    <glyph glyph-name="afii10036" unicode="&#x422;" horiz-adv-x="360" 
d="M354 566h-107v-566h-136v566h-107v130h350v-130z" />
    <glyph glyph-name="afii10038" unicode="&#x424;" horiz-adv-x="613" 
d="M239 179v363c-40 -1 -62 -29 -62 -69v-226c0 -40 22 -67 62 -68zM436 247v226c0 44 -26 68 -62 69v-363c36 1 62 33 62 68zM568 469v-216c0 -120 -81 -184 -194 -195v-58h-135v58c-114 8 -194 76 -194 195v219c0 120 81 184 194 192v32h135v-32c119 -7 194 -75 194 -195z
" />
    <glyph glyph-name="afii10039" unicode="&#x425;" horiz-adv-x="450" 
d="M226 204h-4l-61 -204h-158l144 363l-134 333h159l51 -172h6l48 172h160l-138 -333l148 -363h-160z" />
    <glyph glyph-name="afii10065" unicode="&#x430;" horiz-adv-x="408" 
d="M236 34l-5 1c-15 -24 -51 -41 -79 -41c-97 0 -124 64 -124 155c0 80 46 152 159 152h49v42c0 21 -12 31 -35 31c-13 0 -31 -6 -38 -41l-121 39c20 81 77 129 169 129c111 0 162 -46 162 -158v-343h-137v34zM236 164v44h-28c-23 0 -45 -12 -45 -51c0 -25 18 -36 38 -36
s35 18 35 43z" />
    <glyph glyph-name="afii10070" unicode="&#x435;" horiz-adv-x="394" 
d="M362 220h-192c0 -32 -2 -61 2 -76c3 -15 12 -22 25 -22c15 0 28 11 31 40l135 -20c-5 -91 -63 -148 -162 -148c-100 0 -143 50 -157 104c-8 33 -10 99 -10 147c0 60 5 133 18 168c20 53 69 90 149 90c100 0 161 -55 161 -159v-124zM176 356c-3 -7 -4 -26 -5 -53h54v42
c0 13 -6 30 -25 30c-12 0 -20 -6 -24 -19z" />
    <glyph glyph-name="afii10076" unicode="&#x43a;" horiz-adv-x="412" 
d="M296 260v-4c43 -12 61 -50 72 -97l34 -159h-134l-19 117c-11 67 -21 76 -56 76h-15v-193h-136v494h136v-188h11c25 0 42 6 55 72l22 117h127l-29 -144c-11 -47 -35 -79 -68 -91z" />
    <glyph glyph-name="afii10080" unicode="&#x43e;" horiz-adv-x="401" 
d="M202 503c84 0 131 -38 150 -87c13 -37 14 -112 14 -168v-15c0 -36 0 -72 -4 -105c-13 -115 -100 -135 -168 -135c-91 0 -137 51 -150 105c-8 33 -10 99 -10 147c0 59 4 134 17 168c20 53 71 90 151 90zM202 376c-13 0 -21 -7 -26 -20s-5 -57 -6 -113v-15
c0 -35 0 -68 5 -84c3 -15 12 -22 27 -22s25 11 25 22c3 8 5 54 5 101c0 44 -2 91 -5 108c-3 13 -10 23 -25 23z" />
    <glyph glyph-name="afii10081" unicode="&#x43f;" horiz-adv-x="422" 
d="M377 0h-138v374h-57v-374h-136v495h331v-495z" />
    <glyph glyph-name="afii10082" unicode="&#x440;" horiz-adv-x="401" 
d="M201 123c15 0 22 10 25 23c3 17 4 64 4 108c0 47 -1 85 -4 93c0 11 -10 22 -25 22s-24 -7 -27 -22c-3 -11 -3 -45 -3 -80v-11c1 -56 -1 -100 4 -113s13 -20 26 -20zM251 -8c-17 0 -51 5 -74 28h-5v-210h-137v685h134v-36l4 -2c17 36 56 44 79 44c71 0 109 -35 117 -134
c3 -19 3 -69 3 -120c0 -56 -4 -133 -12 -164c-8 -36 -28 -91 -109 -91z" />
    <glyph glyph-name="afii10083" unicode="&#x441;" horiz-adv-x="381" 
d="M201 -6c-100 0 -143 50 -157 104c-8 33 -10 99 -10 147c0 60 5 133 18 168c20 53 70 90 150 90c100 0 156 -57 156 -161l-133 -15c0 35 -11 49 -26 49c-13 0 -19 -8 -23 -20c-4 -11 -5 -57 -6 -113v-15c0 -35 1 -68 5 -84c3 -15 11 -22 24 -22c15 0 26 12 26 45l135 -17
c0 -97 -60 -156 -159 -156z" />
    <glyph glyph-name="afii10085" unicode="&#x443;" horiz-adv-x="382" 
d="M183 199h5l17 116l31 179h140l-143 -564c-20 -79 -66 -122 -149 -122h-46v121h25c21 0 44 11 55 56l6 26l-121 483h146l20 -178z" />
    <glyph glyph-name="afii10087" unicode="&#x445;" horiz-adv-x="405" 
d="M204 140h-5l-45 -140h-150l118 252l-112 243h153l40 -129h3l41 129h147l-114 -243l120 -252h-150z" />
    <glyph glyph-name="afii10071" unicode="&#x451;" horiz-adv-x="394" 
d="M362 220h-192c0 -32 -2 -61 2 -76c3 -15 12 -22 25 -22c15 0 28 11 31 40l135 -20c-5 -91 -63 -148 -162 -148c-100 0 -143 50 -157 104c-8 33 -10 99 -10 147c0 60 5 133 18 168c20 53 69 90 149 90c100 0 161 -55 161 -159v-124zM176 356c-3 -7 -4 -26 -5 -53h54v42
c0 13 -6 30 -25 30c-12 0 -20 -6 -24 -19zM352 554h-119v130h119v-130zM177 554h-118v130h118v-130z" />
    <glyph glyph-name="afii10102" unicode="&#x455;" horiz-adv-x="387" 
d="M27 143l131 19c-1 -27 15 -44 36 -44c17 0 32 15 32 31c0 35 -12 42 -32 49c-76 26 -162 40 -162 155c0 83 57 150 164 150c108 0 161 -59 162 -151l-130 -17c0 19 -9 43 -32 43c-21 0 -29 -17 -29 -28c0 -20 4 -29 27 -36c95 -29 166 -52 166 -165
c0 -80 -42 -155 -170 -155c-99 0 -159 49 -163 149z" />
    <glyph glyph-name="afii10103" unicode="&#x456;" horiz-adv-x="237" 
d="M187 566h-137v130h137v-130zM187 0h-137v494h137v-494z" />
    <glyph glyph-name="afii10104" unicode="&#x457;" horiz-adv-x="237" 
d="M269 547h-119v130h119v-130zM94 547h-118v130h118v-130zM187 0h-137v494h137v-494z" />
    <glyph glyph-name="afii10105" unicode="&#x458;" horiz-adv-x="226" 
d="M183 566h-137v130h137v-130zM183 495v-530c0 -115 -69 -160 -186 -160h-11v128h17c35 0 43 21 43 69v493h137z" />
    <glyph glyph-name="afii10051" unicode="&#x402;" horiz-adv-x="496" 
d="M283 344c-14 0 -28 -6 -43 -19v-325h-136v566h-96v130h369v-130h-137v-132h3c28 20 58 33 101 33c79 0 113 -60 113 -132v-195c0 -114 -31 -176 -148 -176h-28v108c23 0 39 11 39 43v187c0 31 -14 42 -37 42z" />
    <glyph glyph-name="afii10053" unicode="&#x404;" horiz-adv-x="427" 
d="M226 702c125 0 185 -77 177 -179l-131 -23c-1 41 -19 72 -47 72c-36 0 -45 -33 -45 -53v-101h117v-132h-117v-122c0 -19 5 -40 40 -40c27 0 45 24 46 72l135 -18c-1 -111 -63 -184 -176 -184c-125 0 -180 59 -180 176v349c0 111 64 183 181 183z" />
    <glyph glyph-name="afii10058" unicode="&#x409;" horiz-adv-x="649" 
d="M408 130h25c41 0 68 28 68 92c0 80 -35 88 -70 88h-23v-180zM272 0v566h-66v-263c0 -193 -24 -271 -163 -319l-46 100c88 48 89 97 89 217v395h322v-255h35c136 0 190 -75 190 -218c0 -158 -83 -223 -193 -223h-168z" />
    <glyph glyph-name="afii10059" unicode="&#x40a;" horiz-adv-x="649" 
d="M440 0h-168v303h-85v-303h-136v696h136v-261h85v261h136v-261h35c136 0 190 -72 190 -215c0 -158 -83 -220 -193 -220zM408 130h25c41 0 68 25 68 89c0 81 -35 84 -70 84h-23v-173z" />
    <glyph glyph-name="afii10060" unicode="&#x40b;" horiz-adv-x="494" 
d="M457 0h-137v302c0 31 -14 42 -37 42c-14 0 -28 -6 -43 -19v-325h-136v566h-96v130h366v-130h-134v-132h3c28 20 58 33 101 33c79 0 113 -60 113 -132v-335z" />
    <glyph glyph-name="afii10145" unicode="&#x40f;" horiz-adv-x="444" 
d="M259 696h135v-696h-121v-121h-105v121h-117v696h136v-561h72v561z" />
    <glyph glyph-name="afii10018" unicode="&#x411;" horiz-adv-x="428" 
d="M219 0h-168v696h319v-130h-183v-125h35c136 0 190 -75 190 -218c0 -158 -83 -223 -193 -223zM187 130h25c41 0 68 28 68 92c0 80 -35 88 -70 88h-23v-180z" />
    <glyph glyph-name="afii10021" unicode="&#x414;" horiz-adv-x="520" 
d="M383 0h-261v-132h-112v251l43 8c43 48 47 105 50 161l15 408h324v-569h53v-259h-112v132zM235 566l-9 -292c-3 -60 -11 -116 -30 -147h113v439h-74z" />
    <glyph glyph-name="afii10024" unicode="&#x416;" horiz-adv-x="692" 
d="M535 362l-1 -3c49 -19 78 -52 91 -119l47 -240h-136l-37 199c-11 53 -19 92 -67 92h-18v-291h-136v291h-18c-47 0 -58 -39 -67 -92l-37 -199h-136l47 240c13 67 42 99 90 118v4c-37 16 -72 55 -84 120l-42 212h129l37 -193c11 -57 35 -90 67 -90h14v286h136v-286h14
c32 0 56 33 67 90l37 193h129l-42 -212c-12 -65 -47 -104 -84 -120z" />
    <glyph glyph-name="afii10025" unicode="&#x417;" horiz-adv-x="427" 
d="M43 169l135 27c1 -48 18 -67 45 -67c33 0 41 40 41 84c0 75 -23 90 -47 90h-38v114h40c27 0 44 28 44 88c0 20 -9 62 -44 62c-29 0 -46 -26 -47 -67l-131 29c11 105 75 173 184 173c125 0 174 -82 174 -192c0 -38 -7 -122 -58 -149v-2c43 -20 63 -76 63 -151
c0 -153 -73 -214 -182 -214c-113 0 -174 71 -179 175z" />
    <glyph glyph-name="afii10029" unicode="&#x41b;" horiz-adv-x="475" 
d="M94 696h326v-696h-134v566h-72v-264c0 -193 -24 -271 -163 -319l-46 103c88 48 89 97 89 217v393z" />
    <glyph glyph-name="afii10037" unicode="&#x423;" horiz-adv-x="414" 
d="M208 363h5l74 333h126l-139 -541c-37 -148 -96 -163 -169 -166h-41v111h15c37 0 49 15 64 46c3 7 6 17 9 28l-144 521h133z" />
    <glyph glyph-name="afii10040" unicode="&#x426;" horiz-adv-x="467" 
d="M272 696h135v-570h55v-258h-111v132h-301v696h136v-570h86v570z" />
    <glyph glyph-name="afii10041" unicode="&#x427;" horiz-adv-x="445" 
d="M40 696h136v-253c0 -47 19 -54 43 -54c13 0 27 5 40 12v295h136v-696h-136v270c-25 -6 -48 -9 -69 -9c-100 0 -150 45 -150 157v278z" />
    <glyph glyph-name="afii10042" unicode="&#x428;" horiz-adv-x="651" 
d="M466 696h135v-696h-550v696h136v-571h71v571h136v-571h72v571z" />
    <glyph glyph-name="afii10043" unicode="&#x429;" horiz-adv-x="669" 
d="M600 696v-570h55v-258h-111v132h-494v696h136v-570h71v570h136v-570h72v570h135z" />
    <glyph glyph-name="afii10044" unicode="&#x42a;" horiz-adv-x="531" 
d="M154 566h-144v130h280v-255h35c136 0 190 -75 190 -218c0 -158 -83 -223 -193 -223h-168v566zM290 130h25c41 0 68 28 68 92c0 80 -35 88 -70 88h-23v-180z" />
    <glyph glyph-name="afii10045" unicode="&#x42b;" horiz-adv-x="653" 
d="M219 0h-168v696h136v-255h35c136 0 190 -75 190 -218c0 -158 -83 -223 -193 -223zM187 130h25c41 0 68 28 68 92c0 80 -35 88 -70 88h-23v-180zM601 0h-136v696h136v-696z" />
    <glyph glyph-name="afii10046" unicode="&#x42c;" horiz-adv-x="428" 
d="M219 0h-168v696h136v-255h35c136 0 190 -75 190 -218c0 -158 -83 -223 -193 -223zM187 130h25c41 0 68 28 68 92c0 80 -35 88 -70 88h-23v-180z" />
    <glyph glyph-name="afii10047" unicode="&#x42d;" horiz-adv-x="411" 
d="M379 513v-330c0 -117 -46 -189 -175 -189c-113 0 -178 73 -179 184l133 18c1 -48 19 -72 46 -72c35 0 40 30 40 50v112h-117v132h117v104c0 20 -5 50 -40 50c-27 0 -45 -24 -46 -72l-133 18c1 111 66 184 179 184c129 0 175 -72 175 -189z" />
    <glyph glyph-name="afii10048" unicode="&#x42e;" horiz-adv-x="616" 
d="M571 525v-355c0 -120 -59 -176 -168 -176c-111 0 -167 59 -167 176v118h-49v-288h-136v696h136v-276h49v105c0 120 63 175 167 175c115 0 168 -55 168 -175zM441 167v360c0 31 -17 43 -38 43s-39 -12 -39 -43v-360c0 -32 18 -43 39 -43s38 11 38 43z" />
    <glyph glyph-name="afii10049" unicode="&#x42f;" horiz-adv-x="454" 
d="M160 0h-136l37 224c7 43 29 80 61 97c-59 32 -80 84 -80 163c0 139 85 212 200 212h165v-696h-136v284h-16c-39 -1 -57 -39 -65 -92zM271 566h-25c-51 0 -74 -30 -74 -83c0 -64 41 -71 78 -71h21v154z" />
    <glyph glyph-name="afii10067" unicode="&#x432;" horiz-adv-x="407" 
d="M234 341c0 24 -8 36 -47 36h-9v-72h12c31 0 44 16 44 36zM240 168c0 23 -14 41 -43 41h-19v-89h18c37 0 44 25 44 48zM314 261v-2c44 -20 58 -62 58 -102c0 -108 -60 -157 -181 -157h-151v495h153c116 0 174 -47 174 -141c0 -35 -16 -73 -53 -93z" />
    <glyph glyph-name="afii10068" unicode="&#x433;" horiz-adv-x="355" 
d="M340 373h-163v-373h-137v495h300v-122z" />
    <glyph glyph-name="afii10069" unicode="&#x434;" horiz-adv-x="475" 
d="M406 495v-372h49v-247h-109v124h-223v-124h-108v242l44 6c29 33 36 68 39 129l10 242h298zM271 373h-49l-4 -101c-3 -90 -12 -120 -25 -149h78v250z" />
    <glyph glyph-name="afii10073" unicode="&#x437;" horiz-adv-x="384" 
d="M300 257v-2c37 -19 53 -44 53 -104c0 -95 -54 -156 -167 -156c-105 0 -155 54 -160 134l134 21c0 -25 10 -38 30 -38c17 0 27 20 27 41c0 41 -12 56 -43 56h-29v93h32c27 0 40 16 40 49c0 23 -14 34 -31 34c-20 0 -32 -24 -33 -40l-124 22c9 80 65 132 166 132
c105 0 159 -50 159 -146c0 -33 -9 -77 -54 -96z" />
    <glyph glyph-name="afii10074" unicode="&#x438;" horiz-adv-x="433" 
d="M172 233h2l85 262h137v-495h-137v233h-2l-85 -233h-135v495h135v-262z" />
    <glyph glyph-name="afii10077" unicode="&#x43b;" horiz-adv-x="430" 
d="M250 373h-47v-171c0 -152 -74 -201 -167 -217l-35 107c55 21 78 43 78 111v292h306v-495h-135v373z" />
    <glyph glyph-name="afii10078" unicode="&#x43c;" horiz-adv-x="524" 
d="M350 196h-3l-13 -37l-25 -65h-92l-27 65l-14 37h-3v-196h-136v495h126l63 -146l34 -83h3l36 85l63 144h126v-495h-138v196z" />
    <glyph glyph-name="afii10079" unicode="&#x43d;" horiz-adv-x="413" 
d="M374 0h-137v199h-59v-199h-138v495h138v-191h59v191h137v-495z" />
    <glyph glyph-name="afii10084" unicode="&#x442;" horiz-adv-x="324" 
d="M325 373h-95v-373h-138v373h-94v122h327v-122z" />
    <glyph glyph-name="afii10086" unicode="&#x444;" horiz-adv-x="567" 
d="M349 -190h-130v183c-104 3 -161 70 -174 123c-8 33 -9 81 -9 129c0 60 3 105 16 140c19 51 82 109 167 114v197h127v-197c96 -5 152 -63 168 -110c12 -35 15 -85 15 -141v-15c0 -36 0 -51 -4 -84c-13 -107 -101 -147 -176 -155v-184zM346 372v-251c25 4 42 19 45 44
c3 19 3 33 3 80c0 44 -2 81 -5 98c-3 13 -15 28 -43 29zM219 121v251c-40 -15 -48 -43 -48 -118v-20c0 -84 8 -112 48 -113z" />
    <glyph glyph-name="afii10088" unicode="&#x446;" horiz-adv-x="438" 
d="M237 495h137v-373h56v-245h-109v123h-279v495h137v-372h58v372z" />
    <glyph glyph-name="afii10089" unicode="&#x447;" horiz-adv-x="399" 
d="M221 191l-5 1c-31 -13 -61 -20 -88 -20c-64 0 -101 39 -101 110v213h137v-165c0 -23 11 -32 27 -32c8 0 18 3 30 8v189h137v-495h-137v191z" />
    <glyph glyph-name="afii10090" unicode="&#x448;" horiz-adv-x="607" 
d="M431 495h136v-495h-525v495h137v-372h56v372h139v-372h57v372z" />
    <glyph glyph-name="afii10091" unicode="&#x449;" horiz-adv-x="633" 
d="M431 495h137v-373h57v-244h-110v122h-473v495h138v-372h56v372h138v-372h57v372z" />
    <glyph glyph-name="afii10092" unicode="&#x44a;" horiz-adv-x="482" 
d="M293 0h-157v373h-130v122h268v-176h22c127 0 177 -54 177 -158c0 -115 -79 -161 -180 -161zM274 119h16c32 0 48 14 48 42c0 31 -22 39 -49 39h-15v-81z" />
    <glyph glyph-name="afii10093" unicode="&#x44b;" horiz-adv-x="598" 
d="M554 0h-138v495h138v-495zM198 0h-156v495h137v-176h22c127 0 177 -54 177 -158c0 -115 -79 -161 -180 -161zM179 119h16c32 0 48 14 48 42c0 31 -22 39 -49 39h-15v-81z" />
    <glyph glyph-name="afii10094" unicode="&#x44c;" horiz-adv-x="385" 
d="M178 119h16c32 0 48 14 48 42c0 31 -22 39 -49 39h-15v-81zM197 0h-157v495h138v-176h22c127 0 177 -54 177 -158c0 -115 -79 -161 -180 -161z" />
    <glyph glyph-name="afii10095" unicode="&#x44d;" horiz-adv-x="372" 
d="M128 199v105h80c0 38 -3 73 -27 73c-15 0 -27 -15 -27 -50l-131 15c7 107 68 161 168 161c80 0 120 -37 140 -90c13 -34 14 -109 14 -168c0 -48 -2 -114 -10 -147c-14 -54 -58 -104 -157 -104s-159 59 -159 156l135 17c0 -33 11 -45 26 -45c29 0 29 48 29 77h-81z" />
    <glyph glyph-name="afii10096" unicode="&#x44e;" horiz-adv-x="580" 
d="M385 503c83 0 129 -38 146 -87c13 -37 14 -112 14 -168v-15c0 -36 0 -72 -4 -105c-13 -115 -97 -135 -163 -135c-91 0 -133 52 -146 105c-7 23 -8 66 -8 101h-45v-199h-137v495h137v-191h46c0 49 6 85 14 109c19 53 69 90 146 90zM385 376c-12 0 -20 -7 -25 -20
s-5 -57 -6 -113v-15c0 -35 0 -68 5 -84c3 -15 12 -22 26 -22c15 0 25 11 25 22c3 8 4 54 4 101c0 44 -1 91 -4 108c-3 13 -10 23 -25 23z" />
    <glyph glyph-name="afii10097" unicode="&#x44f;" horiz-adv-x="402" 
d="M149 0h-129l32 150c7 31 20 56 47 73c-51 23 -66 67 -66 115c0 103 65 157 169 157h169v-495h-137v190h-11c-27 0 -45 -15 -56 -82zM234 379h-21c-24 0 -49 -10 -49 -43c0 -31 22 -38 53 -38h17v81z" />
    <glyph glyph-name="afii10106" unicode="&#x459;" horiz-adv-x="594" 
d="M83 495h301v-176h23c127 0 177 -54 177 -158c0 -115 -79 -161 -180 -161h-157v373h-40v-171c0 -152 -74 -201 -167 -217l-35 107c55 21 78 43 78 111v292zM385 119h16c32 0 48 14 48 42c0 31 -22 39 -49 39h-15v-81z" />
    <glyph glyph-name="afii10107" unicode="&#x45a;" horiz-adv-x="584" 
d="M375 119h16c32 0 48 14 48 42c0 31 -22 39 -49 39h-15v-81zM375 495v-176h22c127 0 177 -54 177 -158c0 -115 -79 -161 -180 -161h-157v209h-57v-209h-138v495h138v-178h57v178h138z" />
    <glyph glyph-name="afii10108" unicode="&#x45b;" horiz-adv-x="413" 
d="M179 449l5 -1c17 22 57 46 89 46c90 0 100 -63 100 -131v-363h-137v328c0 27 -12 36 -27 36c-16 0 -30 -14 -30 -39v-325h-137v558h-42v77h42v91h137v-91h117v-77h-117v-109z" />
    <glyph glyph-name="afii10193" unicode="&#x45f;" horiz-adv-x="418" 
d="M240 495h137v-495h-114v-123h-109v123h-108v495h137v-373h57v373z" />
    <glyph glyph-name="afii10050" unicode="&#x490;" horiz-adv-x="394" 
d="M264 802h106v-236h-183v-566h-136v696h213v106z" />
    <glyph glyph-name="afii10098" unicode="&#x491;" horiz-adv-x="355" 
d="M177 373v-373h-137v495h197v114h104v-236h-164z" />
    <glyph glyph-name="afii10072" unicode="&#x436;" horiz-adv-x="614" 
d="M119 256v4c-32 12 -57 44 -66 91l-29 144h127l22 -117c11 -66 32 -72 55 -72h11v188h136v-188h11c25 0 42 6 55 72l22 117h127l-29 -144c-9 -47 -35 -79 -67 -91v-5c37 -15 60 -51 71 -96l34 -159h-134l-19 117c-11 67 -21 76 -56 76h-15v-193h-136v193h-15
c-35 0 -45 -9 -56 -76l-19 -117h-134l34 159c11 47 31 82 70 97z" />
    <glyph glyph-name="afii10066" unicode="&#x431;" horiz-adv-x="397" 
d="M219 468c72 0 113 -40 130 -87c12 -33 14 -83 14 -139v-17c0 -37 0 -59 -4 -94c-13 -115 -92 -138 -172 -138c-87 0 -131 52 -144 104c-8 35 -9 92 -9 140v71c0 215 25 310 118 350c64 27 70 28 148 63l46 -97c-51 -31 -94 -42 -126 -61c-36 -20 -57 -46 -61 -114
c19 15 45 19 60 19zM201 341c-13 0 -21 -7 -26 -20c-5 -9 -6 -24 -6 -78v-15c0 -35 0 -68 5 -84c3 -15 12 -22 27 -22s25 11 25 22c3 8 4 54 4 101c0 44 -1 56 -4 73c-3 13 -10 23 -25 23z" />
    <glyph glyph-name="afii10101" unicode="&#x454;" horiz-adv-x="384" 
d="M238 162l135 -21c-4 -92 -72 -147 -168 -147c-100 0 -143 50 -157 104c-8 33 -10 99 -10 147c0 60 5 133 18 168c20 53 70 90 150 90c97 0 162 -50 165 -149l-133 -15c-3 27 -17 37 -30 37c-14 0 -23 -7 -28 -20c-3 -7 -4 -26 -5 -53h95v-105h-96c0 -24 2 -42 5 -54
c3 -15 12 -22 26 -22c15 0 32 11 33 40z" />
    <glyph glyph-name="afii10099" unicode="&#x452;" horiz-adv-x="415" 
d="M277 495c47 0 83 -19 94 -74c8 -34 9 -126 9 -182v-45c0 -36 0 -72 -4 -105c-13 -113 -83 -128 -165 -128v103c25 3 28 20 28 31c3 8 2 82 2 138l-1 97c0 27 -16 36 -31 36c-16 0 -30 -14 -30 -39v-327h-137v558h-42v77h42v91h137v-91h119v-77h-119v-107l5 -1
c16 21 62 45 93 45z" />
    <glyph glyph-name="zero.text" unicode="&#xe20a;" horiz-adv-x="430" 
d="M380 541v-387c0 -99 -69 -160 -161 -160c-94 0 -163 61 -163 160v387c0 100 71 161 163 161c96 0 161 -61 161 -161zM247 149v397c0 17 -13 28 -28 28s-30 -11 -30 -28v-397c0 -16 15 -27 30 -27s28 11 28 27z" />
    <glyph glyph-name="one.text" unicode="&#xe1a3;" horiz-adv-x="371" 
d="M274 0h-133v537l-91 -71v149l104 81h120v-696z" />
    <glyph glyph-name="two.text" unicode="&#xe1f8;" horiz-adv-x="430" 
d="M374 0h-320v120l171 317c17 32 20 59 20 92c0 19 -7 44 -30 44c-16 0 -39 -13 -39 -81l-132 16c0 133 78 194 171 194c119 0 168 -68 168 -173c0 -63 -12 -100 -43 -159l-126 -239h160v-131z" />
    <glyph glyph-name="three.text" unicode="&#xe1eb;" horiz-adv-x="430" 
d="M325 363v-5c43 -20 56 -67 56 -106v-69c0 -116 -61 -189 -178 -189c-118 0 -174 65 -168 195l135 16c-8 -72 20 -82 35 -82s37 8 37 44v83c0 39 -25 53 -52 53h-30v114h38c27 0 49 13 49 48v66c0 19 -8 41 -32 41c-19 0 -39 -12 -39 -81l-132 16c0 124 77 195 176 195
c123 0 161 -85 161 -161v-41c0 -51 -5 -110 -56 -137z" />
    <glyph glyph-name="four.text" unicode="&#xe173;" horiz-adv-x="430" 
d="M396 98h-39v-98h-131v98h-203v111l149 487h132l-141 -470h63v124h131v-124h39v-128z" />
    <glyph glyph-name="five.text" unicode="&#xe166;" horiz-adv-x="430" 
d="M384 330v-147c0 -121 -56 -189 -173 -189c-105 0 -167 64 -160 195l129 16c-8 -72 17 -81 33 -81c15 0 32 7 32 43v149c0 19 -9 28 -28 28c-11 0 -31 -5 -43 -36h-111v388h311v-127h-185v-126l3 -1c15 16 46 24 65 24c91 0 127 -56 127 -136z" />
    <glyph glyph-name="six.text" unicode="&#xe1dc;" horiz-adv-x="430" 
d="M240 408l5 -4c10 5 22 8 37 8c43 0 103 -21 103 -136v-98c0 -94 -32 -184 -168 -184c-108 0 -159 68 -159 155v62c0 49 2 95 19 142l127 343h147zM250 150v131c0 19 -15 28 -30 28s-28 -9 -28 -28v-131c0 -17 13 -27 28 -27s30 10 30 27z" />
    <glyph glyph-name="seven.text" unicode="&#xe1d3;" horiz-adv-x="430" 
d="M382 580l-172 -580h-135l165 569h-63v-67h-122v194h327v-116z" />
    <glyph glyph-name="eight.text" unicode="&#xe152;" horiz-adv-x="430" 
d="M325 367l3 -5c50 -24 51 -83 51 -135v-57c0 -115 -58 -176 -161 -176c-117 0 -164 81 -164 174v35c0 51 0 128 55 159l-1 6c-51 27 -53 86 -53 137v30c0 85 53 167 161 167c113 0 162 -74 162 -165v-32c0 -53 -3 -114 -53 -138zM245 441v106c0 15 -12 27 -28 27
c-13 0 -30 -12 -30 -27v-106c0 -15 15 -27 30 -27c16 0 28 12 28 27zM245 148v140c0 15 -12 27 -28 27s-30 -12 -30 -27v-140c0 -15 15 -26 30 -26c16 0 28 11 28 26z" />
    <glyph glyph-name="nine.text" unicode="&#xe194;" horiz-adv-x="430" 
d="M198 288l-5 4c-10 -5 -22 -8 -37 -8c-43 0 -103 9 -103 137v97c0 94 32 184 168 184c108 0 159 -68 159 -155v-62c0 -49 -2 -95 -19 -142l-127 -343h-147zM188 546v-131c0 -19 15 -28 30 -28s28 9 28 28v131c0 17 -13 27 -28 27s-30 -10 -30 -27z" />
    <glyph glyph-name="numbersign.text" unicode="&#xe19b;" horiz-adv-x="430" 
d="M4 207v95h68l20 102h-52v95h67l34 196h98l-35 -196h70l35 196h98l-36 -196h54v-95h-70l-17 -102h53v-95h-71l-36 -207h-97l36 207h-71l-35 -207h-98l37 207h-52zM188 404l-18 -102h70l19 102h-71z" />
    <glyph glyph-name="dollar.text" unicode="&#xe13e;" horiz-adv-x="430" 
d="M400 205c0 -122 -37 -205 -162 -210v-78h-36v78c-117 5 -163 85 -163 178l136 26c3 -39 8 -65 27 -73v169c-137 56 -158 118 -158 209c0 108 46 186 158 197v68h36v-67c128 -5 162 -101 162 -175l-134 -29c0 32 -4 63 -28 71v-142c136 -64 162 -110 162 -222zM266 204
c0 37 -7 57 -28 72v-151c25 9 28 44 28 79zM179 505c0 -24 2 -41 23 -57v120c-19 -11 -23 -40 -23 -63z" />
    <glyph glyph-name="euro.text" unicode="&#xe15d;" horiz-adv-x="430" 
d="M20 262v68h42v39h-42v71h42v79c0 111 64 183 181 183c124 0 180 -76 177 -179l-131 -23c-1 41 -19 72 -47 72c-36 0 -45 -33 -45 -53v-79h128v-71h-128v-39h128v-68h-128v-98c0 -19 5 -40 40 -40c27 0 45 24 46 72l135 -18c-1 -111 -63 -184 -176 -184
c-125 0 -180 59 -180 176v92h-42z" />
    <glyph glyph-name="florin.text" unicode="&#xe16c;" horiz-adv-x="430" 
d="M76 326v115h76l8 63c11 96 50 197 167 197c31 0 62 0 93 -16l-26 -113c-25 11 -43 10 -54 10c-28 0 -43 -35 -47 -68l-9 -73h71v-115h-85c-7 -69 -13 -134 -21 -202c-16 -132 -55 -206 -154 -206c-24 0 -59 4 -98 21l33 107c19 -11 30 -10 37 -10c27 0 38 20 45 76
l23 214h-59z" />
    <glyph glyph-name="sterling.text" unicode="&#xe1e2;" horiz-adv-x="430" 
d="M223 568h-2c-23 0 -42 -18 -42 -42c0 -47 28 -91 38 -154h99v-103h-97c-4 -64 -14 -103 -34 -144h199v-125h-353v112c32 45 51 89 55 157h-56v103h50c-12 48 -34 96 -34 160c0 104 75 171 174 171c113 0 184 -71 181 -173l-131 -29c-1 41 -19 67 -47 67z" />
    <glyph glyph-name="cent.text" unicode="&#xe12c;" horiz-adv-x="371" 
d="M210 594v-93c84 -9 130 -66 130 -159l-133 -15c0 35 -11 49 -26 49c-13 0 -19 -8 -23 -20c-4 -11 -5 -57 -6 -113v-15c0 -35 1 -68 5 -84c3 -15 11 -22 24 -22c15 0 26 12 26 45l135 -17c0 -88 -49 -145 -132 -154v-98h-51v97c-84 8 -119 51 -133 103
c-8 33 -10 99 -10 147c0 60 5 133 18 168c19 47 58 82 125 89v92h51z" />
    <glyph glyph-name="yen.text" unicode="&#xe204;" horiz-adv-x="430" 
d="M214 443h8l23 126l30 127h144l-110 -342h63v-68h-84l-4 -13v-28h88v-67h-88v-178h-137v178h-83v67h83v28l-4 13h-79v68h57l-110 342h145l33 -129z" />
    <glyph glyph-name="zero.taboldstyle" unicode="&#xe209;" horiz-adv-x="430" 
d="M377 342v-188c0 -99 -69 -160 -161 -160c-94 0 -163 61 -163 160v188c0 100 71 161 163 161c96 0 161 -61 161 -161zM244 149v198c0 17 -13 28 -28 28s-30 -11 -30 -28v-198c0 -19 15 -27 30 -27s28 8 28 27z" />
    <glyph glyph-name="one.taboldstyle" unicode="&#xe1a2;" horiz-adv-x="430" 
d="M392 0h-354v129h112v207l-91 -71v149l104 81h120v-366h109v-129z" />
    <glyph glyph-name="two.taboldstyle" unicode="&#xe1f7;" horiz-adv-x="430" 
d="M391 0h-349v112c80 69 133 120 160 148c31 33 40 55 40 76c0 24 -14 34 -31 34c-20 0 -39 -16 -42 -71l-131 20c0 116 88 184 181 184c105 0 162 -54 162 -147c0 -47 -26 -99 -58 -135c-18 -21 -64 -62 -96 -92h164v-129z" />
    <glyph glyph-name="three.taboldstyle" unicode="&#xe1ea;" horiz-adv-x="430" 
d="M329 184v-4c41 -19 55 -64 55 -100v-65c0 -109 -59 -178 -174 -178s-170 62 -164 185l133 15c-8 -68 17 -77 33 -77c15 0 35 7 35 40v78c0 36 -25 49 -50 49h-30v108h38c25 0 47 12 47 44v62c0 17 -7 38 -30 38c-19 0 -37 -12 -37 -77l-130 16c0 117 75 185 171 185
c121 0 158 -81 158 -153v-38c0 -47 -6 -104 -55 -128z" />
    <glyph glyph-name="four.taboldstyle" unicode="&#xe172;" horiz-adv-x="430" 
d="M396 0h-37v-159h-129v159h-196v104l142 391h130l-135 -374h59v95h129v-95h37v-121z" />
    <glyph glyph-name="five.taboldstyle" unicode="&#xe165;" horiz-adv-x="430" 
d="M378 151v-138c0 -115 -53 -178 -168 -178c-104 0 -162 61 -157 185l128 15c-8 -68 16 -76 31 -76s30 6 30 39v140c0 15 -11 25 -27 25c-9 0 -29 -4 -40 -33h-110v365h304v-121h-180v-115c15 15 48 20 65 20c89 0 124 -52 124 -128z" />
    <glyph glyph-name="six.taboldstyle" unicode="&#xe1db;" horiz-adv-x="430" 
d="M242 142v122c0 17 -14 25 -29 25c-13 0 -26 -8 -26 -25v-122c0 -15 13 -24 26 -24c15 0 29 9 29 24zM234 385l1 -2c12 4 31 5 36 5c40 0 103 -19 103 -129v-91c0 -89 -31 -174 -164 -174c-105 0 -155 64 -155 147v57c0 45 3 91 19 134l123 322h144z" />
    <glyph glyph-name="seven.taboldstyle" unicode="&#xe1d2;" horiz-adv-x="430" 
d="M375 385l-167 -544h-133l160 533h-59v-63h-121v184h320v-110z" />
    <glyph glyph-name="eight.taboldstyle" unicode="&#xe151;" horiz-adv-x="430" 
d="M242 415v99c0 12 -12 24 -27 24c-12 0 -28 -12 -28 -24v-99c0 -15 13 -25 28 -25s27 10 27 25zM242 140v131c0 13 -12 24 -27 24s-28 -11 -28 -24v-131c0 -13 13 -23 28 -23s27 10 27 23zM322 345l2 -4h-1c51 -24 51 -71 51 -120v-60c0 -108 -58 -167 -158 -167
c-114 0 -160 77 -160 165v32c0 47 -2 118 54 150c0 3 -1 2 -1 5c-49 27 -52 81 -52 129v28c0 81 52 157 158 157c110 0 158 -71 158 -155v-30c0 -49 -3 -106 -51 -130z" />
    <glyph glyph-name="nine.taboldstyle" unicode="&#xe193;" horiz-adv-x="430" 
d="M188 355v-123c0 -17 13 -25 28 -25s27 8 27 25v123c0 15 -12 25 -27 25s-28 -10 -28 -25zM196 113l-4 3c-11 -5 -23 -7 -36 -7c-41 0 -101 6 -101 129v91c0 89 31 174 164 174c106 0 156 -64 156 -147v-58c0 -47 -2 -89 -19 -133l-123 -322h-145z" />
    <glyph glyph-name="numbersign.taboldstyle" unicode="&#xe19a;" horiz-adv-x="430" 
d="M25 176v81h61l18 86h-47v81h60l31 167h88l-31 -167h63l31 167h88l-32 -167h49v-81h-63l-16 -86h48v-81h-64l-32 -176h-88l33 176h-64l-32 -176h-88l33 176h-46zM190 343l-16 -86h63l17 86h-64z" />
    <glyph glyph-name="dollar.taboldstyle" unicode="&#xe13d;" horiz-adv-x="430" 
d="M378 175c0 -102 -34 -171 -146 -179v-67h-34v67c-103 5 -147 73 -147 153l125 22c1 -33 9 -54 22 -62v141c-116 48 -142 102 -142 178c0 92 42 157 142 168v58h34v-57c109 -8 146 -90 146 -150l-123 -25c0 27 -4 53 -23 61v-119l17 -7c116 -43 129 -91 129 -182zM255 174
c0 25 -4 46 -23 59v-125c20 8 23 38 23 66zM177 430c0 -19 5 -34 21 -50v102c-15 -9 -21 -32 -21 -52z" />
    <glyph glyph-name="euro.taboldstyle" unicode="&#xe15c;" horiz-adv-x="430" 
d="M34 222v60h37v31h-37v62h37v66c0 95 57 156 164 156c112 0 162 -65 159 -153l-119 -20c-1 35 -17 61 -41 61c-32 0 -40 -27 -40 -44v-66h116v-62h-116v-31h116v-60h-116v-82c0 -16 4 -33 35 -33c24 0 40 21 41 62l122 -16c-1 -95 -54 -158 -158 -158
c-113 0 -163 50 -163 151v76h-37z" />
    <glyph glyph-name="florin.taboldstyle" unicode="&#xe16b;" horiz-adv-x="430" 
d="M87 306v109h73l8 59c11 90 48 185 162 185c29 0 61 0 90 -15l-25 -106c-24 9 -41 9 -52 9c-27 0 -42 -33 -46 -64l-9 -68h69v-109h-82l-20 -189c-16 -125 -54 -194 -150 -194c-23 0 -58 4 -95 20l32 100c19 -9 29 -9 36 -9c27 0 37 19 44 71l22 201h-57z" />
    <glyph glyph-name="sterling.taboldstyle" unicode="&#xe1e1;" horiz-adv-x="430" 
d="M221 482c-27 0 -39 -14 -39 -35s8 -44 16 -67c7 -19 14 -40 18 -63h89v-89h-87c-3 -52 -12 -87 -29 -120h178v-108h-320v97c29 39 46 75 49 131h-50v89h45c-3 11 -6 22 -10 33c-11 31 -21 63 -21 102c0 88 67 146 158 146c103 0 163 -61 164 -148l-120 -25
c-1 35 -17 57 -41 57z" />
    <glyph glyph-name="cent.taboldstyle" unicode="&#xe12b;" horiz-adv-x="430" 
d="M244 546v-79c72 -11 117 -60 117 -137l-122 -13c0 31 -10 42 -22 42s-17 -5 -20 -16c-3 -8 -4 -38 -5 -74v-35c0 -28 0 -56 4 -71c3 -11 13 -17 21 -17c12 0 22 10 22 38l124 -14c0 -76 -47 -124 -119 -133v-84h-48v83c-68 8 -108 49 -120 88c-8 28 -9 85 -9 124
c0 50 3 115 16 143c16 40 53 70 113 77v78h48z" />
    <glyph glyph-name="yen.taboldstyle" unicode="&#xe203;" horiz-adv-x="430" 
d="M215 378h5l21 106l27 108h130l-98 -290h57v-60h-76l-3 -10v-23h79v-58h-79v-151h-126v151h-74v58h74v23l-2 10h-72v60h51l-98 290h131l30 -110z" />
    <glyph glyph-name="zero.textoldstyle" unicode="&#xe20b;" horiz-adv-x="390" 
d="M357 342v-188c0 -99 -69 -160 -161 -160c-94 0 -163 61 -163 160v188c0 100 71 161 163 161c96 0 161 -61 161 -161zM224 149v198c0 17 -13 28 -28 28s-30 -11 -30 -28v-198c0 -19 15 -27 30 -27s28 8 28 27z" />
    <glyph glyph-name="one.textoldstyle" unicode="&#xe1a4;" horiz-adv-x="410" 
d="M382 0h-354v129h112v207l-91 -71v149l104 81h120v-366h109v-129z" />
    <glyph glyph-name="two.textoldstyle" unicode="&#xe1f9;" horiz-adv-x="389" 
d="M371 0h-349v112c80 69 133 120 160 148c31 33 40 55 40 76c0 24 -14 34 -31 34c-20 0 -39 -16 -42 -71l-131 20c0 116 88 184 181 184c105 0 162 -54 162 -147c0 -47 -26 -99 -58 -135c-18 -21 -64 -62 -96 -92h164v-129z" />
    <glyph glyph-name="three.textoldstyle" unicode="&#xe1ec;" horiz-adv-x="389" 
d="M309 184v-4c41 -19 55 -64 55 -100v-65c0 -109 -59 -178 -174 -178s-170 62 -164 185l133 15c-8 -68 17 -77 33 -77c15 0 35 7 35 40v78c0 36 -25 49 -50 49h-30v108h38c25 0 47 12 47 44v62c0 17 -7 38 -30 38c-19 0 -37 -12 -37 -77l-130 16c0 117 75 185 171 185
c121 0 158 -81 158 -153v-38c0 -47 -6 -104 -55 -128z" />
    <glyph glyph-name="four.textoldstyle" unicode="&#xe174;" horiz-adv-x="409" 
d="M385 0h-37v-159h-129v159h-196v104l142 391h130l-135 -374h59v95h129v-95h37v-121z" />
    <glyph glyph-name="five.textoldstyle" unicode="&#xe167;" horiz-adv-x="391" 
d="M348 151v-138c0 -115 -53 -178 -168 -178c-104 0 -162 61 -157 185l128 15c-8 -68 16 -76 31 -76s30 6 30 39v140c0 15 -11 25 -27 25c-9 0 -29 -4 -40 -33h-110v365h304v-121h-180v-115c15 15 48 20 65 20c89 0 124 -52 124 -128z" />
    <glyph glyph-name="six.textoldstyle" unicode="&#xe1dd;" horiz-adv-x="394" 
d="M221 142v122c0 17 -14 25 -29 25c-13 0 -26 -8 -26 -25v-122c0 -15 13 -24 26 -24c15 0 29 9 29 24zM213 385l1 -2c12 4 31 5 36 5c40 0 103 -19 103 -129v-91c0 -89 -31 -174 -164 -174c-105 0 -155 64 -155 147v57c0 45 3 91 19 134l123 322h144z" />
    <glyph glyph-name="seven.textoldstyle" unicode="&#xe1d4;" horiz-adv-x="387" 
d="M355 385l-167 -544h-133l160 533h-59v-63h-121v184h320v-110z" />
    <glyph glyph-name="eight.textoldstyle" unicode="&#xe153;" horiz-adv-x="387" 
d="M221 415v99c0 12 -12 24 -27 24c-12 0 -28 -12 -28 -24v-99c0 -15 13 -25 28 -25s27 10 27 25zM221 140v131c0 13 -12 24 -27 24s-28 -11 -28 -24v-131c0 -13 13 -23 28 -23s27 10 27 23zM301 345l2 -4h-1c51 -24 51 -71 51 -120v-60c0 -108 -58 -167 -158 -167
c-114 0 -160 77 -160 165v32c0 47 -2 118 54 150c0 3 -1 2 -1 5c-49 27 -52 81 -52 129v28c0 81 52 157 158 157c110 0 158 -71 158 -155v-30c0 -49 -3 -106 -51 -130z" />
    <glyph glyph-name="nine.textoldstyle" unicode="&#xe195;" horiz-adv-x="387" 
d="M166 355v-123c0 -17 13 -25 28 -25s27 8 27 25v123c0 15 -12 25 -27 25s-28 -10 -28 -25zM174 113l-4 3c-11 -5 -23 -7 -36 -7c-41 0 -101 6 -101 129v91c0 89 31 174 164 174c106 0 156 -64 156 -147v-58c0 -47 -2 -89 -19 -133l-123 -322h-145z" />
    <glyph glyph-name="numbersign.textoldstyle" unicode="&#xe19c;" horiz-adv-x="408" 
d="M15 176v81h61l18 86h-47v81h60l31 167h88l-31 -167h63l31 167h88l-32 -167h49v-81h-63l-16 -86h48v-81h-64l-32 -176h-88l33 176h-64l-32 -176h-88l33 176h-46zM180 343l-16 -86h63l17 86h-64z" />
    <glyph glyph-name="dollar.textoldstyle" unicode="&#xe13f;" horiz-adv-x="387" 
d="M353 175c0 -102 -34 -171 -146 -179v-67h-34v67c-103 5 -147 73 -147 153l125 22c1 -33 9 -54 22 -62v141c-116 48 -142 102 -142 178c0 92 42 157 142 168v58h34v-57c109 -8 146 -90 146 -150l-123 -25c0 27 -4 53 -23 61v-119l17 -7c116 -43 129 -91 129 -182zM230 174
c0 25 -4 46 -23 59v-125c20 8 23 38 23 66zM152 430c0 -19 5 -34 21 -50v102c-15 -9 -21 -32 -21 -52z" />
    <glyph glyph-name="euro.textoldstyle" unicode="&#xe15e;" horiz-adv-x="408" 
d="M20 222v60h37v31h-37v62h37v66c0 95 57 156 164 156c112 0 162 -65 159 -153l-119 -20c-1 35 -17 61 -41 61c-32 0 -40 -27 -40 -44v-66h116v-62h-116v-31h116v-60h-116v-82c0 -16 4 -33 35 -33c24 0 40 21 41 62l122 -16c-1 -95 -54 -158 -158 -158
c-113 0 -163 50 -163 151v76h-37z" />
    <glyph glyph-name="florin.textoldstyle" unicode="&#xe16d;" horiz-adv-x="366" 
d="M55 306v109h73l8 59c11 90 48 185 162 185c29 0 61 0 90 -15l-25 -106c-24 9 -41 9 -52 9c-27 0 -42 -33 -46 -64l-9 -68h69v-109h-82l-20 -189c-16 -125 -54 -194 -150 -194c-23 0 -58 4 -95 20l32 100c19 -9 29 -9 36 -9c27 0 37 19 44 71l22 201h-57z" />
    <glyph glyph-name="sterling.textoldstyle" unicode="&#xe1e3;" horiz-adv-x="388" 
d="M211 482c-27 0 -39 -14 -39 -35s8 -44 16 -67c7 -19 14 -40 18 -63h89v-89h-87c-3 -52 -12 -87 -29 -120h178v-108h-320v97c29 39 46 75 49 131h-50v89h45c-3 11 -6 22 -10 33c-11 31 -21 63 -21 102c0 88 67 146 158 146c103 0 163 -61 164 -148l-120 -25
c-1 35 -17 57 -41 57z" />
    <glyph glyph-name="cent.textoldstyle" unicode="&#xe12d;" horiz-adv-x="364" 
d="M211 546v-79c72 -11 117 -60 117 -137l-122 -13c0 31 -10 42 -22 42s-17 -5 -20 -16c-3 -8 -4 -38 -5 -74v-35c0 -28 0 -56 4 -71c3 -11 13 -17 21 -17c12 0 22 10 22 38l124 -14c0 -76 -47 -124 -119 -133v-84h-48v83c-68 8 -108 49 -120 88c-8 28 -9 85 -9 124
c0 50 3 115 16 143c16 40 53 70 113 77v78h48z" />
    <glyph glyph-name="yen.textoldstyle" unicode="&#xe205;" horiz-adv-x="389" 
d="M195 378h5l21 106l27 108h130l-98 -290h57v-60h-76l-3 -10v-23h79v-58h-79v-151h-126v151h-74v58h74v23l-2 10h-72v60h51l-98 290h131l30 -110z" />
    <glyph glyph-name="percent.text" unicode="&#xe1b3;" horiz-adv-x="617" 
d="M488 607l-283 -621h-73l283 621h73zM148 334v165c0 7 -4 17 -16 17c-11 0 -15 -10 -15 -17v-165c0 -5 5 -15 16 -15s15 10 15 15zM239 505v-175c0 -59 -45 -94 -105 -94s-104 35 -104 94v175c0 59 44 93 104 93c63 0 105 -34 105 -93zM496 97v165c0 7 -4 17 -16 17
c-11 0 -15 -10 -15 -17v-165c0 -5 5 -15 16 -15s15 10 15 15zM587 268v-175c0 -59 -45 -94 -105 -94s-104 35 -104 94v175c0 59 44 93 104 93c63 0 105 -34 105 -93z" />
    <glyph glyph-name="perthousand.text" unicode="&#xe1b6;" horiz-adv-x="858" 
d="M488 607l-283 -621h-73l283 621h73zM148 334v165c0 7 -4 17 -16 17c-11 0 -15 -10 -15 -17v-165c0 -5 5 -15 16 -15s15 10 15 15zM239 505v-175c0 -59 -45 -94 -105 -94s-104 35 -104 94v175c0 59 44 93 104 93c63 0 105 -34 105 -93zM496 97v165c0 7 -4 17 -16 17
c-11 0 -15 -10 -15 -17v-165c0 -5 5 -15 16 -15s15 10 15 15zM587 268v-175c0 -59 -45 -94 -105 -94s-104 35 -104 94v175c0 59 44 93 104 93c63 0 105 -34 105 -93zM737 97v165c0 7 -4 17 -16 17c-11 0 -15 -10 -15 -17v-165c0 -5 5 -15 16 -15s15 10 15 15zM828 268v-175
c0 -59 -45 -94 -105 -94s-104 35 -104 94v175c0 59 44 93 104 93c63 0 105 -34 105 -93z" />
    <glyph glyph-name="zero.numerator" unicode="&#xe208;" horiz-adv-x="280" 
d="M157 382v216c0 7 -5 18 -17 18s-16 -11 -16 -18v-216c0 -7 5 -16 17 -16c11 0 16 9 16 16zM252 605v-228c0 -61 -46 -99 -110 -99s-109 38 -109 99v228c0 61 46 98 109 98c65 0 110 -37 110 -98z" />
    <glyph glyph-name="one.numerator" unicode="&#xe1a1;" horiz-adv-x="224" 
d="M179 280h-97v308l-57 -42v101l69 49h85v-416z" />
    <glyph glyph-name="two.numerator" unicode="&#xe1f6;" horiz-adv-x="280" 
d="M243 280h-216v78l112 188c9 15 14 32 14 51c0 9 -4 20 -17 20c-15 0 -24 -12 -24 -49l-94 12c4 83 56 123 119 123c79 0 114 -41 114 -106c0 -31 -10 -58 -30 -94l-76 -135h98v-88z" />
    <glyph glyph-name="three.numerator" unicode="&#xe1e9;" horiz-adv-x="280" 
d="M144 703c85 0 111 -54 111 -123c0 -28 -7 -67 -38 -83c33 -11 38 -42 38 -90c0 -76 -28 -130 -114 -130c-64 0 -112 40 -112 115l93 10c0 -33 13 -37 20 -37c8 0 17 4 17 19v51c0 19 -11 24 -26 24h-26v75h29c15 0 23 7 23 22v42c0 7 -3 18 -18 18c-11 0 -21 -9 -21 -46
l-92 13c3 76 51 120 116 120z" />
    <glyph glyph-name="four.numerator" unicode="&#xe171;" horiz-adv-x="280" 
d="M261 337h-24v-57h-87v57h-132v71l89 288h88l-83 -279h38v85h87v-85h24v-80z" />
    <glyph glyph-name="five.numerator" unicode="&#xe164;" horiz-adv-x="280" 
d="M167 562c56 0 85 -33 85 -84v-73c0 -76 -27 -130 -113 -130c-64 0 -112 40 -112 115l92 10c0 -33 14 -37 21 -37c8 0 17 4 17 19v81c0 7 -1 17 -16 17c-4 0 -13 -3 -21 -20h-81v236h208v-84h-116v-62c11 8 25 12 36 12z" />
    <glyph glyph-name="six.numerator" unicode="&#xe1da;" horiz-adv-x="280" 
d="M158 380v63c0 7 -6 15 -17 15s-16 -10 -16 -18v-60c0 -7 5 -15 16 -15s17 8 17 15zM166 530l1 -1c4 3 14 3 21 3c13 0 66 -12 66 -92v-40c0 -27 -1 -55 -17 -79c-19 -27 -53 -44 -96 -44c-55 0 -98 29 -105 86c-3 11 -2 26 -2 45c0 31 1 58 12 85l82 203h109z" />
    <glyph glyph-name="seven.numerator" unicode="&#xe1d1;" horiz-adv-x="256" 
d="M258 621l-117 -341h-99l112 332h-39v-39h-89v123h232v-75z" />
    <glyph glyph-name="eight.numerator" unicode="&#xe150;" horiz-adv-x="280" 
d="M250 583c0 -31 -2 -66 -30 -85c31 -19 30 -59 30 -95c0 -49 -5 -68 -20 -87c-20 -27 -56 -40 -92 -40c-35 0 -71 14 -90 41c-15 20 -19 43 -19 86c0 29 0 70 31 95c-31 19 -31 54 -31 85c0 33 4 61 23 84c21 23 53 36 86 36c31 0 67 -9 87 -33c19 -21 25 -44 25 -87z
M124 602v-53c0 -8 6 -15 17 -15s16 10 16 17v51c0 7 -5 15 -16 15s-17 -8 -17 -15zM124 447v-69c0 -8 6 -15 17 -15s16 10 16 17v67c0 7 -5 15 -16 15s-17 -8 -17 -15z" />
    <glyph glyph-name="nine.numerator" unicode="&#xe192;" horiz-adv-x="280" 
d="M124 599v-65c0 -8 6 -15 17 -15s16 10 16 17v63c0 8 -5 16 -16 16s-17 -8 -17 -16zM116 447l-1 1c-7 -3 -14 -3 -21 -3c-13 0 -66 11 -66 91v44c0 27 1 55 18 79c19 27 52 44 95 44c55 0 98 -29 105 -86c3 -11 2 -31 2 -50c0 -31 0 -57 -11 -84l-83 -203h-108z" />
    <glyph glyph-name="parenleft.numerator" unicode="&#xe1ae;" horiz-adv-x="193" 
d="M33 465c0 96 41 180 93 248l64 -25c-43 -69 -70 -152 -70 -220c0 -76 28 -159 67 -223l-55 -34c-60 77 -99 158 -99 254z" />
    <glyph glyph-name="parenright.numerator" unicode="&#xe1b0;" horiz-adv-x="193" 
d="M187 465c0 -96 -41 -177 -100 -254l-56 34c40 64 67 147 67 223c0 68 -27 151 -68 220l64 25c51 -68 93 -151 93 -248z" />
    <glyph glyph-name="comma.numerator" unicode="&#xe134;" horiz-adv-x="152" 
d="M126 282l-41 -91h-60l21 87h-17v101h97v-97z" />
    <glyph glyph-name="period.numerator" unicode="&#xe1b5;" horiz-adv-x="149" 
d="M123 280h-97v99h97v-99z" />
    <glyph glyph-name="zero.denominator" unicode="&#xe207;" horiz-adv-x="280" 
d="M157 102v216c0 7 -5 18 -17 18s-16 -11 -16 -18v-216c0 -7 5 -16 17 -16c11 0 16 9 16 16zM252 325v-228c0 -61 -46 -99 -110 -99s-109 38 -109 99v228c0 61 46 98 109 98c65 0 110 -37 110 -98z" />
    <glyph glyph-name="one.denominator" unicode="&#xe19f;" horiz-adv-x="224" 
d="M179 0h-97v308l-57 -42v101l69 49h85v-416z" />
    <glyph glyph-name="two.denominator" unicode="&#xe1f5;" horiz-adv-x="280" 
d="M243 0h-216v78l112 188c9 15 14 32 14 51c0 9 -4 20 -17 20c-15 0 -24 -12 -24 -49l-94 12c4 83 56 123 119 123c79 0 114 -41 114 -106c0 -31 -10 -58 -30 -94l-76 -135h98v-88z" />
    <glyph glyph-name="three.denominator" unicode="&#xe1e8;" horiz-adv-x="280" 
d="M144 423c85 0 111 -54 111 -123c0 -28 -7 -67 -38 -83c33 -11 38 -42 38 -90c0 -76 -28 -130 -114 -130c-64 0 -112 40 -112 115l93 10c0 -33 13 -37 20 -37c8 0 17 4 17 19v51c0 19 -11 24 -26 24h-26v75h29c15 0 23 7 23 22v42c0 7 -3 18 -18 18c-11 0 -21 -9 -21 -46
l-92 13c3 76 51 120 116 120z" />
    <glyph glyph-name="four.denominator" unicode="&#xe170;" horiz-adv-x="280" 
d="M261 57h-24v-57h-87v57h-132v71l89 288h88l-83 -279h38v85h87v-85h24v-80z" />
    <glyph glyph-name="five.denominator" unicode="&#xe163;" horiz-adv-x="280" 
d="M167 282c56 0 85 -33 85 -84v-73c0 -76 -27 -130 -113 -130c-64 0 -112 40 -112 115l92 10c0 -33 14 -37 21 -37c8 0 17 4 17 19v81c0 7 -1 17 -16 17c-4 0 -13 -3 -21 -20h-81v236h208v-84h-116v-62c11 8 25 12 36 12z" />
    <glyph glyph-name="six.denominator" unicode="&#xe1d9;" horiz-adv-x="280" 
d="M158 100v63c0 7 -6 15 -17 15s-16 -10 -16 -18v-60c0 -7 5 -15 16 -15s17 8 17 15zM166 250l1 -1c4 3 14 3 21 3c13 0 66 -12 66 -92v-40c0 -27 -1 -55 -17 -79c-19 -27 -53 -44 -96 -44c-55 0 -98 29 -105 86c-3 11 -2 26 -2 45c0 31 1 58 12 85l82 203h109z" />
    <glyph glyph-name="seven.denominator" unicode="&#xe1d0;" horiz-adv-x="256" 
d="M258 341l-117 -341h-99l112 332h-39v-39h-89v123h232v-75z" />
    <glyph glyph-name="eight.denominator" unicode="&#xe14f;" horiz-adv-x="280" 
d="M250 303c0 -31 -2 -66 -30 -85c31 -19 30 -59 30 -95c0 -49 -5 -68 -20 -87c-20 -27 -56 -40 -92 -40c-35 0 -71 14 -90 41c-15 20 -19 43 -19 86c0 29 0 70 31 95c-31 19 -31 54 -31 85c0 33 4 61 23 84c21 23 53 36 86 36c31 0 67 -9 87 -33c19 -21 25 -44 25 -87z
M124 322v-53c0 -8 6 -15 17 -15s16 10 16 17v51c0 7 -5 15 -16 15s-17 -8 -17 -15zM124 167v-69c0 -8 6 -15 17 -15s16 10 16 17v67c0 7 -5 15 -16 15s-17 -8 -17 -15z" />
    <glyph glyph-name="nine.denominator" unicode="&#xe191;" horiz-adv-x="280" 
d="M124 319v-65c0 -8 6 -15 17 -15s16 10 16 17v63c0 8 -5 16 -16 16s-17 -8 -17 -16zM116 167l-1 1c-7 -3 -14 -3 -21 -3c-13 0 -66 11 -66 91v44c0 27 1 55 18 79c19 27 52 44 95 44c55 0 98 -29 105 -86c3 -11 2 -31 2 -50c0 -31 0 -57 -11 -84l-83 -203h-108z" />
    <glyph glyph-name="parenleft.denominator" unicode="&#xe1ad;" horiz-adv-x="193" 
d="M33 185c0 96 41 180 93 248l64 -25c-43 -69 -70 -152 -70 -220c0 -76 28 -159 67 -223l-55 -34c-60 77 -99 158 -99 254z" />
    <glyph glyph-name="parenright.denominator" unicode="&#xe1af;" horiz-adv-x="193" 
d="M187 185c0 -96 -41 -177 -100 -254l-56 34c40 64 67 147 67 223c0 68 -27 151 -68 220l64 25c51 -68 93 -151 93 -248z" />
    <glyph glyph-name="comma.denominator" unicode="&#xe133;" horiz-adv-x="152" 
d="M126 2l-41 -91h-60l21 87h-17v101h97v-97z" />
    <glyph glyph-name="period.denominator" unicode="&#xe1b4;" horiz-adv-x="149" 
d="M123 0h-97v99h97v-99z" />
    <glyph glyph-name="plussuperior" unicode="&#xe1b8;" horiz-adv-x="280" 
d="M269 507h-90v-88h-80v88h-90v76h90v88h80v-88h90v-76z" />
    <glyph glyph-name="hyphensuperior" unicode="&#xf6e6;" horiz-adv-x="250" 
d="M229 491h-202v81h202v-81z" />
    <glyph glyph-name="equalsuperior" unicode="&#xe158;" horiz-adv-x="280" 
d="M269 560h-260v75h260v-75zM269 457h-260v75h260v-75z" />
    <glyph glyph-name="plusinferior" unicode="&#xe1b7;" horiz-adv-x="280" 
d="M269 45h-90v-88h-80v88h-90v75h90v89h80v-89h90v-75z" />
    <glyph glyph-name="hypheninferior" unicode="&#xf6e5;" horiz-adv-x="250" 
d="M229 29h-202v81h202v-81z" />
    <glyph glyph-name="equalinferior" unicode="&#xe157;" horiz-adv-x="280" 
d="M269 98h-260v75h260v-75zM269 -5h-260v75h260v-75z" />
    <glyph glyph-name="afii61248" unicode="&#x2105;" horiz-adv-x="654" 
d="M171 341c-69 0 -97 33 -112 76c-5 16 -11 56 -11 105c0 51 6 95 14 116c15 39 52 66 108 66c72 0 114 -41 115 -121l-99 -11c0 24 -8 33 -16 33c-7 0 -12 -4 -14 -11c-3 -8 -5 -55 -5 -73c0 -32 0 -56 3 -67c1 -7 6 -14 15 -14c8 0 17 10 17 33l100 -13
c-1 -75 -44 -119 -115 -119zM501 357c60 0 95 -27 108 -63c8 -23 9 -78 9 -118c0 -35 1 -59 -2 -82c-8 -84 -73 -99 -121 -99c-65 0 -97 38 -108 77c-5 24 -7 68 -7 103c0 43 3 93 12 117c15 39 50 65 109 65zM501 259c-7 0 -12 -3 -14 -10c-3 -7 -4 -27 -4 -55v-31
c0 -24 -1 -46 2 -57c2 -8 7 -12 16 -12c7 0 12 5 13 12c1 5 3 44 3 69c0 27 1 61 -2 72c-1 5 -3 12 -14 12zM529 714l-314 -731h-81l314 731h81z" />
    <glyph glyph-name="afii61289" unicode="&#x2113;" horiz-adv-x="435" 
d="M329 191l79 -35c-32 -100 -88 -166 -172 -166c-89 0 -152 69 -152 167v21c-11 -5 -25 -19 -38 -26l-37 66c24 16 55 36 74 56v201c0 158 62 220 145 220c56 0 117 -43 117 -139c0 -107 -52 -198 -165 -313v-44c0 -84 36 -111 66 -111c32 0 63 38 83 103zM180 491v-126
c53 67 79 123 79 195c0 23 -11 48 -35 48c-23 0 -44 -34 -44 -117z" />
    <glyph glyph-name="afii61352" unicode="&#x2116;" horiz-adv-x="749" 
d="M294 367h5v329h133v-696h-116l-74 203l-46 132h-5v-335h-135v696h119l73 -202zM587 702c60 0 95 -24 108 -59c8 -20 9 -74 9 -110c0 -33 1 -63 -2 -78c-10 -68 -67 -91 -115 -91c-71 0 -105 36 -113 72c-7 21 -6 64 -6 95c0 40 2 90 11 111c16 35 51 60 108 60zM478 249
v84h221v-84h-221zM586 609c-5 0 -9 -4 -12 -11s-4 -20 -4 -48v-30c0 -21 1 -44 4 -51s7 -11 13 -11c7 0 11 8 12 13c3 8 2 21 2 50v30c0 23 0 36 -3 47c-3 7 -7 11 -12 11z" />
    <glyph glyph-name="estimated" unicode="&#x212e;" horiz-adv-x="817" 
d="M739 284h-521v-147c39 -57 113 -94 186 -94c77 0 148 39 196 99h94c-77 -95 -183 -153 -291 -153c-185 0 -336 142 -336 319c0 178 151 320 336 320c190 0 328 -144 336 -344zM586 334v148c-32 56 -111 91 -182 91c-63 0 -134 -36 -186 -95v-144h368z" />
    <glyph glyph-name="partialdiff" unicode="&#x2202;" horiz-adv-x="431" 
d="M206 111c57 0 75 105 80 190c-32 37 -56 47 -80 47c-39 0 -66 -61 -66 -118c0 -84 31 -119 66 -119zM205 -10c-107 0 -186 83 -186 238c0 145 81 237 182 237c31 0 52 -8 81 -23c-5 92 -49 160 -113 160c-16 0 -40 -4 -81 -21v125c31 11 63 15 87 15
c175 0 231 -173 231 -369c0 -240 -81 -362 -201 -362z" />
    <glyph glyph-name="product" unicode="&#x220f;" horiz-adv-x="446" 
d="M394 -79h-135v642h-72v-642h-136v775h343v-775z" />
    <glyph glyph-name="summation" unicode="&#x2211;" horiz-adv-x="350" 
d="M249 316l-75 -258h165v-136h-318v124l79 270l-81 260v120h309v-130h-157z" />
    <glyph glyph-name="minus" unicode="&#x2212;" horiz-adv-x="430" 
d="M19 354h389v-111h-389v111z" />
    <glyph glyph-name="radical" unicode="&#x221a;" horiz-adv-x="492" 
d="M473 791l-147 -868h-116l-93 375l-74 -21l-27 103l191 60l56 -265l89 616h121z" />
    <glyph glyph-name="infinity" unicode="&#x221e;" horiz-adv-x="623" 
d="M186 421c48 0 96 -39 128 -74c33 48 69 74 129 74c78 0 135 -65 135 -156c0 -83 -63 -157 -140 -157c-55 0 -93 35 -126 76c-33 -43 -71 -76 -131 -76c-76 0 -136 65 -136 157c0 84 64 156 141 156zM186 319c-23 0 -44 -24 -44 -53c0 -32 21 -58 42 -58c25 0 50 25 70 56
c-19 28 -41 55 -68 55zM440 319c-23 0 -47 -22 -70 -53c23 -31 46 -58 69 -58s43 26 43 57s-21 54 -42 54z" />
    <glyph glyph-name="logicaland" unicode="&#x2227;" horiz-adv-x="425" 
d="M214 286h-3l-59 -285h-133l136 531h111l141 -531h-136z" />
    <glyph glyph-name="logicalor" unicode="&#x2228;" horiz-adv-x="425" 
d="M211 246h3l57 285h136l-141 -531h-111l-136 531h133z" />
    <glyph glyph-name="intersection" unicode="&#x2229;" horiz-adv-x="430" 
d="M406 313v-314h-142v310c0 53 -15 83 -54 83c-36 0 -52 -24 -52 -83v-310h-139v314c0 125 41 222 186 222c155 0 201 -97 201 -222z" />
    <glyph glyph-name="union" unicode="&#x222a;" horiz-adv-x="430" 
d="M406 535v-314c0 -125 -46 -222 -201 -222c-145 0 -186 97 -186 222v314h139v-310c0 -59 16 -83 52 -83c39 0 54 30 54 83v310h142z" />
    <glyph glyph-name="integral" unicode="&#x222b;" horiz-adv-x="316" 
d="M98 437c0 34 6 120 11 160c13 133 79 175 171 175c23 0 55 -5 82 -20l-26 -98c-27 8 -43 8 -51 8c-40 0 -53 -28 -58 -109c-4 -52 -7 -272 -7 -364c0 -256 -51 -337 -183 -337c-23 0 -53 6 -80 19l23 88c27 -7 40 -7 48 -7c33 0 53 24 61 136c7 72 9 181 9 349z" />
    <glyph glyph-name="approxequal" unicode="&#x2248;" horiz-adv-x="430" 
d="M281 316c-52 0 -87 51 -136 51c-20 0 -30 -9 -62 -50l-68 65c45 77 93 92 136 92c52 0 87 -50 135 -50c19 0 32 13 64 56l68 -69c-45 -76 -79 -95 -137 -95zM281 141c-52 0 -87 51 -136 51c-20 0 -30 -7 -62 -50l-68 66c45 77 93 92 136 92c52 0 87 -50 135 -50
c19 0 32 13 64 56l68 -69c-45 -77 -78 -96 -137 -96z" />
    <glyph glyph-name="notequal" unicode="&#x2260;" horiz-adv-x="430" 
d="M408 156h-223l-63 -116h-106l63 116h-60v111h120l37 68h-157v111h217l62 113h106l-62 -113h66v-111h-126l-37 -68h163v-111z" />
    <glyph glyph-name="lessequal" unicode="&#x2264;" horiz-adv-x="430" 
d="M407 160l-379 158v99l379 155v-130l-209 -74h1l208 -77v-131zM407 0h-378v116h378v-116z" />
    <glyph glyph-name="greaterequal" unicode="&#x2265;" horiz-adv-x="430" 
d="M408 318l-379 -158v131l208 77h1l-209 74v130l379 -155v-99zM407 0h-378v116h378v-116z" />
    <glyph glyph-name="gradient" unicode="&#x2207;" horiz-adv-x="449" 
d="M9 696h431l-133 -696h-166zM207 321l15 -141h6l15 141l33 238h-101z" />
    <glyph glyph-name="ordfeminine" unicode="&#xaa;" horiz-adv-x="281" 
d="M118 497l-94 27c19 59 59 88 122 88c79 0 114 -32 114 -107v-225h-103v20c-15 -15 -31 -24 -52 -24c-71 0 -89 43 -89 104c0 55 33 103 113 103h28v20c0 11 -6 16 -18 16c-7 0 -17 -3 -21 -22zM158 389v26h-17c-13 0 -29 -7 -29 -30c0 -16 14 -21 25 -21c14 0 21 8 21 25
z" />
    <glyph glyph-name="ordmasculine" unicode="&#xba;" horiz-adv-x="277" 
d="M139 613c60 0 95 -24 108 -59c8 -20 9 -74 9 -110c0 -33 1 -63 -2 -78c-10 -68 -67 -91 -115 -91c-71 0 -105 36 -113 72c-7 21 -6 64 -6 95c0 40 2 90 11 111c16 35 51 60 108 60zM138 520c-5 0 -9 -4 -12 -11s-4 -20 -4 -48v-30c0 -21 1 -44 4 -51s7 -11 13 -11
c7 0 11 8 12 13c3 8 2 21 2 50v30c0 23 0 36 -3 47c-3 7 -7 11 -12 11z" />
    <glyph glyph-name="lozenge" unicode="&#x25ca;" horiz-adv-x="530" 
d="M467 318l-173 -336h-82c-17 34 -158 300 -174 336l175 337h82zM354 318l-101 202c-13 -26 -88 -174 -99 -201c10 -26 90 -177 101 -202z" />
    <glyph glyph-name="fraction" unicode="&#x2044;" horiz-adv-x="128" 
d="M267 714l-314 -731h-81l314 731h81z" />
    <glyph glyph-name="slashedzero" unicode="&#xe1de;" horiz-adv-x="430" 
d="M380 541v-387c0 -99 -69 -160 -161 -160c-94 0 -163 61 -163 160v387c0 100 71 161 163 161c96 0 161 -61 161 -161zM189 546v-239l58 133v106c0 17 -13 28 -28 28s-30 -11 -30 -28zM247 149v196l-58 -131v-65c0 -16 15 -27 30 -27s28 11 28 27z" />
    <glyph glyph-name="ampersandsmall" unicode="&#xf726;" horiz-adv-x="465" 
d="M388 116l80 -116h-145l-19 28c-36 -23 -77 -32 -112 -32c-88 0 -138 55 -138 147c0 60 24 101 64 142c-19 32 -34 62 -34 110c0 76 56 133 136 133c68 0 120 -30 163 -107l-103 -47c-11 27 -37 45 -56 45c-16 0 -26 -11 -26 -24c0 -17 12 -37 32 -66l80 -119
c5 13 6 33 6 56h105c1 -61 -12 -115 -33 -150zM236 123l-52 68c-9 -19 -14 -28 -14 -43c0 -19 10 -38 37 -38c11 0 21 6 29 13z" />
    <glyph glyph-name="exclamsmall" unicode="&#xf721;" horiz-adv-x="257" 
d="M187 0h-117v132h117v-132zM189 524l-9 -351h-104l-9 351h122z" />
    <glyph glyph-name="questionsmall" unicode="&#xf73f;" horiz-adv-x="388" 
d="M356 380c0 -45 -8 -80 -25 -104c-16 -21 -31 -39 -46 -62c-9 -11 -13 -24 -13 -39v-12h-122v42c0 31 10 54 23 70c51 73 54 78 54 98c0 12 -7 29 -34 29c-19 0 -41 -14 -41 -55l-121 11c7 109 64 170 168 170c109 0 157 -52 157 -148zM270 0h-117v132h117v-132z" />
    <glyph glyph-name="Asmall" unicode="&#xf761;" horiz-adv-x="418" 
d="M274 0l-19 96h-91l-20 -96h-133l126 524h143l127 -524h-133zM211 374h-2l-13 -95l-11 -59h48l-10 59z" />
    <glyph glyph-name="Bsmall" unicode="&#xf762;" horiz-adv-x="411" 
d="M239 367c0 25 -13 34 -52 34h-12v-72h20c31 0 44 15 44 38zM247 172c0 29 -15 43 -46 43h-26v-89h20c43 0 52 19 52 46zM311 280v-2c37 -16 55 -68 55 -108c0 -117 -53 -170 -169 -170h-147v524h155c109 0 154 -52 154 -153c0 -35 -9 -70 -48 -91z" />
    <glyph glyph-name="Csmall" unicode="&#xf763;" horiz-adv-x="387" 
d="M208 527c108 0 159 -62 159 -151v-18l-118 -22c0 39 -15 66 -42 66c-33 0 -40 -30 -40 -50v-193c0 -19 4 -38 35 -38c25 0 41 19 42 64l121 -17c-1 -104 -55 -174 -158 -174c-112 0 -162 55 -162 166v194c0 104 54 173 163 173z" />
    <glyph glyph-name="Dsmall" unicode="&#xf764;" horiz-adv-x="402" 
d="M50 524h164c73 0 114 -21 133 -78c8 -25 10 -59 10 -104v-154c0 -44 -1 -81 -12 -105c-24 -61 -79 -83 -139 -83h-156v524zM234 161v202c0 23 -8 35 -43 35h-17v-272h17c35 0 43 14 43 35z" />
    <glyph glyph-name="Esmall" unicode="&#xf765;" horiz-adv-x="361" 
d="M336 0h-286v524h286v-125h-162v-70h141v-126h-141v-77h162v-126z" />
    <glyph glyph-name="Fsmall" unicode="&#xf766;" horiz-adv-x="364" 
d="M336 399h-162v-70h141v-126h-141v-203h-124v524h286v-125z" />
    <glyph glyph-name="Gsmall" unicode="&#xf767;" horiz-adv-x="391" 
d="M206 404c-33 0 -40 -30 -40 -50v-188c0 -19 4 -43 35 -43c28 0 40 19 40 48v18h-38v108h159v-133c0 -113 -61 -168 -156 -168c-112 0 -161 55 -161 166v194c0 104 51 173 162 173c108 0 159 -62 159 -151c0 -7 0 -13 -1 -18l-117 -22c0 39 -17 66 -42 66z" />
    <glyph glyph-name="Hsmall" unicode="&#xf768;" horiz-adv-x="420" 
d="M370 0h-122v206h-74v-206h-124v524h124v-197h74v197h122v-524z" />
    <glyph glyph-name="Ismall" unicode="&#xf769;" horiz-adv-x="235" 
d="M180 0h-125v524h125v-524z" />
    <glyph glyph-name="Jsmall" unicode="&#xf76a;" horiz-adv-x="338" 
d="M166 524h122v-367c0 -87 -59 -161 -158 -161c-53 0 -115 24 -155 89l89 73c11 -20 28 -35 59 -35c27 0 43 20 43 44v357z" />
    <glyph glyph-name="Ksmall" unicode="&#xf76b;" horiz-adv-x="410" 
d="M174 363h2l89 161h140l-136 -222l147 -302h-137l-86 196l-19 -41v-155h-124v524h124v-161z" />
    <glyph glyph-name="Lsmall" unicode="&#xf76c;" horiz-adv-x="349" 
d="M336 0h-286v524h124v-398h162v-126z" />
    <glyph glyph-name="Msmall" unicode="&#xf76d;" horiz-adv-x="539" 
d="M308 96h-75l-26 73l-31 82h-3v-251h-123v524h112l65 -151l42 -104h2l42 107l65 148h111v-524h-123v249h-2l-31 -83z" />
    <glyph glyph-name="Nsmall" unicode="&#xf76e;" horiz-adv-x="446" 
d="M272 283h3v241h121v-524h-102l-73 152l-44 94h-3v-246h-124v524h106l72 -151z" />
    <glyph glyph-name="Osmall" unicode="&#xf76f;" horiz-adv-x="411" 
d="M241 153v216c0 28 -16 41 -36 41s-37 -13 -37 -41v-216c0 -31 17 -41 37 -41s36 10 36 41zM366 362v-201c0 -113 -60 -167 -165 -167c-104 0 -156 56 -156 167v201c0 113 62 166 162 166c109 0 159 -53 159 -166z" />
    <glyph glyph-name="Psmall" unicode="&#xf770;" horiz-adv-x="386" 
d="M50 524h139c103 0 167 -39 167 -168c0 -112 -56 -176 -157 -176h-25v-180h-124v524zM174 301h17c29 0 48 11 48 54c0 31 -11 44 -46 44h-19v-98z" />
    <glyph glyph-name="Qsmall" unicode="&#xf771;" horiz-adv-x="412" 
d="M365 362v-201c0 -23 -3 -45 -8 -64l56 -40l-52 -86l-66 43c-24 -15 -55 -20 -91 -20c-106 0 -159 56 -159 167v201c0 113 59 166 159 166c109 0 161 -53 161 -166zM240 158v206c0 28 -16 41 -36 41s-37 -13 -37 -41v-206c0 -31 17 -41 37 -41s36 10 36 41z" />
    <glyph glyph-name="Rsmall" unicode="&#xf772;" horiz-adv-x="410" 
d="M50 524h139c101 0 166 -42 166 -162c0 -71 -24 -117 -63 -144l92 -218h-132l-65 191h-13v-191h-124v524zM185 399h-11v-87h15c31 0 45 12 45 45c0 27 -10 42 -49 42z" />
    <glyph glyph-name="Ssmall" unicode="&#xf773;" horiz-adv-x="403" 
d="M363 162c0 -84 -35 -166 -162 -166c-115 0 -161 72 -161 160l123 24c3 -35 10 -63 41 -63c32 0 37 19 37 42c0 27 -13 38 -58 53c-99 32 -136 80 -136 160c0 100 59 156 155 156c125 0 161 -77 161 -154l-122 -25c0 27 -6 59 -38 59c-31 0 -36 -18 -36 -34s14 -30 70 -50
c112 -40 126 -84 126 -162z" />
    <glyph glyph-name="Tsmall" unicode="&#xf774;" horiz-adv-x="333" 
d="M323 399h-94v-399h-124v399h-95v125h313v-125z" />
    <glyph glyph-name="Usmall" unicode="&#xf775;" horiz-adv-x="408" 
d="M237 523h126v-366c0 -107 -55 -161 -159 -161s-159 53 -159 161v366h124v-362c0 -28 16 -39 35 -39s33 11 33 39v362z" />
    <glyph glyph-name="Vsmall" unicode="&#xf776;" horiz-adv-x="421" 
d="M234 313l40 211h137l-127 -524h-149l-125 524h137l40 -210l23 -138h1z" />
    <glyph glyph-name="Wsmall" unicode="&#xf777;" horiz-adv-x="588" 
d="M296 264h-1l-34 -143l-31 -121h-116l-104 525h144l21 -179l13 -104h2l19 101l38 182h98l37 -187l21 -96h1l11 98l20 185h143l-103 -525h-116l-32 123z" />
    <glyph glyph-name="Xsmall" unicode="&#xf778;" horiz-adv-x="413" 
d="M207 147l-57 -147h-145l130 273l-120 251h146l46 -135l44 135h147l-124 -251l134 -273h-147l-53 147h-1z" />
    <glyph glyph-name="Ysmall" unicode="&#xf779;" horiz-adv-x="384" 
d="M193 323h3l22 93l25 108h131l-118 -328v-196h-126v196l-120 328h133l28 -110z" />
    <glyph glyph-name="Zsmall" unicode="&#xf77a;" horiz-adv-x="331" 
d="M306 0h-281v112l132 287h-129v125h278v-109l-134 -289h134v-126z" />
    <glyph glyph-name="Scaronsmall" unicode="&#xf6fd;" horiz-adv-x="403" 
d="M363 162c0 -84 -35 -166 -162 -166c-115 0 -161 72 -161 160l123 24c3 -35 10 -63 41 -63c32 0 37 19 37 42c0 27 -13 38 -58 53c-99 32 -136 80 -136 160c0 100 59 156 155 156c125 0 161 -77 161 -154l-122 -25c0 27 -6 59 -38 59c-31 0 -36 -18 -36 -34s14 -30 70 -50
c112 -40 126 -84 126 -162zM207 657l119 94l52 -48l-129 -158h-79l-134 159l52 47z" />
    <glyph glyph-name="OEsmall" unicode="&#xf6fa;" horiz-adv-x="563" 
d="M246 158v215c0 11 -11 32 -35 32c-32 0 -38 -28 -38 -39v-208c0 -32 19 -41 38 -41s35 9 35 41zM359 202v-72h171v-130h-271c-15 -3 -32 -6 -48 -6c-118 0 -161 68 -161 163v211c0 96 53 160 161 160c17 0 36 -1 51 -4h268v-125h-171v-69h151v-128h-151z" />
    <glyph glyph-name="Zcaronsmall" unicode="&#xf6ff;" horiz-adv-x="331" 
d="M306 0h-281v112l132 287h-129v125h278v-109l-134 -289h134v-126zM168 657l119 94l52 -48l-129 -158h-79l-134 159l52 47z" />
    <glyph glyph-name="Ydieresissmall" unicode="&#xf7ff;" horiz-adv-x="384" 
d="M193 323h3l22 93l25 108h131l-118 -328v-196h-126v196l-120 328h133l28 -110zM340 577h-119v130h119v-130zM165 577h-118v130h118v-130z" />
    <glyph glyph-name="Agravesmall" unicode="&#xf7e0;" horiz-adv-x="418" 
d="M274 0l-19 96h-91l-20 -96h-133l126 524h143l127 -524h-133zM211 374h-2l-13 -95l-11 -59h48l-10 59zM285 604l-72 -43l-136 175l108 54z" />
    <glyph glyph-name="Aacutesmall" unicode="&#xf7e1;" horiz-adv-x="418" 
d="M274 0l-19 96h-91l-20 -96h-133l126 524h143l127 -524h-133zM211 374h-2l-13 -95l-11 -59h48l-10 59zM213 561l-72 43l100 186l108 -54z" />
    <glyph glyph-name="Acircumflexsmall" unicode="&#xf7e2;" horiz-adv-x="418" 
d="M274 0l-19 96h-91l-20 -96h-133l126 524h143l127 -524h-133zM211 374h-2l-13 -95l-11 -59h48l-10 59zM330 545l-119 94l-119 -94l-52 47l134 159h79l129 -158z" />
    <glyph glyph-name="Atildesmall" unicode="&#xf7e3;" horiz-adv-x="418" 
d="M274 0l-19 96h-91l-20 -96h-133l126 524h143l127 -524h-133zM211 374h-2l-13 -95l-11 -59h48l-10 59zM157 719c42 0 78 -34 103 -34c19 0 30 5 57 38l65 -36c-32 -75 -67 -99 -106 -99c-48 0 -81 35 -113 35c-16 0 -33 -8 -58 -39l-65 40c31 72 78 95 117 95z" />
    <glyph glyph-name="Adieresissmall" unicode="&#xf7e4;" horiz-adv-x="418" 
d="M274 0l-19 96h-91l-20 -96h-133l126 524h143l127 -524h-133zM211 374h-2l-13 -95l-11 -59h48l-10 59zM357 577h-119v130h119v-130zM182 577h-118v130h118v-130z" />
    <glyph glyph-name="Aringsmall" unicode="&#xf7e5;" horiz-adv-x="418" 
d="M274 0l-19 96h-91l-20 -96h-133l126 524h143l127 -524h-133zM211 374h-2l-13 -95l-11 -59h48l-10 59zM211 549c-56 0 -101 45 -101 101s45 102 101 102c59 0 101 -46 101 -102s-42 -101 -101 -101zM211 680c-16 0 -31 -14 -31 -31c0 -19 15 -30 31 -30c17 0 31 11 31 30
c0 17 -14 31 -31 31z" />
    <glyph glyph-name="AEsmall" unicode="&#xf7e6;" horiz-adv-x="598" 
d="M565 0h-287v107h-95l-36 -107h-136l187 524h367v-125h-162v-69h141v-128h-141v-72h162v-130zM276 399l-54 -167h56v167h-2z" />
    <glyph glyph-name="Ccedillasmall" unicode="&#xf7e7;" horiz-adv-x="387" 
d="M208 527c108 0 159 -62 159 -151v-18l-118 -22c0 39 -15 66 -42 66c-33 0 -40 -30 -40 -50v-193c0 -19 4 -38 35 -38c25 0 41 19 42 64l121 -17c-1 -96 -47 -162 -135 -173l-11 -31c71 -11 89 -58 89 -88c0 -28 -22 -86 -97 -86c-11 0 -56 1 -103 23l21 53
c31 -13 46 -15 61 -15c19 0 32 15 32 30c0 21 -15 28 -38 28l-34 23l20 64c-87 11 -125 67 -125 164v194c0 104 54 173 163 173z" />
    <glyph glyph-name="Egravesmall" unicode="&#xf7e8;" horiz-adv-x="361" 
d="M336 0h-286v524h286v-125h-162v-70h141v-126h-141v-77h162v-126zM288 604l-72 -43l-136 175l108 54z" />
    <glyph glyph-name="Eacutesmall" unicode="&#xf7e9;" horiz-adv-x="361" 
d="M336 0h-286v524h286v-125h-162v-70h141v-126h-141v-77h162v-126zM190 561l-72 43l100 186l108 -54z" />
    <glyph glyph-name="Ecircumflexsmall" unicode="&#xf7ea;" horiz-adv-x="361" 
d="M336 0h-286v524h286v-125h-162v-70h141v-126h-141v-77h162v-126zM314 545l-119 94l-119 -94l-52 47l134 159h79l129 -158z" />
    <glyph glyph-name="Edieresissmall" unicode="&#xf7eb;" horiz-adv-x="361" 
d="M336 0h-286v524h286v-125h-162v-70h141v-126h-141v-77h162v-126zM337 577h-119v130h119v-130zM162 577h-118v130h118v-130z" />
    <glyph glyph-name="Igravesmall" unicode="&#xf7ec;" horiz-adv-x="235" 
d="M180 0h-125v524h125v-524zM192 604l-72 -43l-136 175l108 54z" />
    <glyph glyph-name="Iacutesmall" unicode="&#xf7ed;" horiz-adv-x="235" 
d="M180 0h-125v524h125v-524zM121 561l-72 43l100 186l108 -54z" />
    <glyph glyph-name="Icircumflexsmall" unicode="&#xf7ee;" horiz-adv-x="235" 
d="M180 0h-125v524h125v-524zM238 545l-119 94l-119 -94l-52 47l134 159h79l129 -158z" />
    <glyph glyph-name="Idieresissmall" unicode="&#xf7ef;" horiz-adv-x="235" 
d="M180 0h-125v524h125v-524zM264 577h-119v130h119v-130zM89 577h-118v130h118v-130z" />
    <glyph glyph-name="Ethsmall" unicode="&#xf7f0;" horiz-adv-x="402" 
d="M50 524h164c73 0 114 -21 133 -78c8 -25 10 -59 10 -104v-154c0 -44 -1 -81 -12 -105c-24 -61 -79 -83 -139 -83h-156v215h-35v84h35v225zM234 161v202c0 23 -8 35 -43 35h-17v-99h38v-84h-38v-89h17c35 0 43 14 43 35z" />
    <glyph glyph-name="Ntildesmall" unicode="&#xf7f1;" horiz-adv-x="446" 
d="M272 283h3v241h121v-524h-102l-73 152l-44 94h-3v-246h-124v524h106l72 -151zM169 719c42 0 78 -34 103 -34c19 0 30 5 57 38l65 -36c-32 -75 -67 -99 -106 -99c-48 0 -81 35 -113 35c-16 0 -33 -8 -58 -39l-65 40c31 72 78 95 117 95z" />
    <glyph glyph-name="Ogravesmall" unicode="&#xf7f2;" horiz-adv-x="411" 
d="M241 153v216c0 28 -16 41 -36 41s-37 -13 -37 -41v-216c0 -31 17 -41 37 -41s36 10 36 41zM366 362v-201c0 -113 -60 -167 -165 -167c-104 0 -156 56 -156 167v201c0 113 62 166 162 166c109 0 159 -53 159 -166zM285 604l-72 -43l-136 175l108 54z" />
    <glyph glyph-name="Oacutesmall" unicode="&#xf7f3;" horiz-adv-x="411" 
d="M241 153v216c0 28 -16 41 -36 41s-37 -13 -37 -41v-216c0 -31 17 -41 37 -41s36 10 36 41zM366 362v-201c0 -113 -60 -167 -165 -167c-104 0 -156 56 -156 167v201c0 113 62 166 162 166c109 0 159 -53 159 -166zM217 561l-72 43l100 186l108 -54z" />
    <glyph glyph-name="Ocircumflexsmall" unicode="&#xf7f4;" horiz-adv-x="411" 
d="M241 153v216c0 28 -16 41 -36 41s-37 -13 -37 -41v-216c0 -31 17 -41 37 -41s36 10 36 41zM366 362v-201c0 -113 -60 -167 -165 -167c-104 0 -156 56 -156 167v201c0 113 62 166 162 166c109 0 159 -53 159 -166zM325 545l-119 94l-119 -94l-52 47l134 159h79l129 -158z
" />
    <glyph glyph-name="Otildesmall" unicode="&#xf7f5;" horiz-adv-x="411" 
d="M241 153v216c0 28 -16 41 -36 41s-37 -13 -37 -41v-216c0 -31 17 -41 37 -41s36 10 36 41zM366 362v-201c0 -113 -60 -167 -165 -167c-104 0 -156 56 -156 167v201c0 113 62 166 162 166c109 0 159 -53 159 -166zM155 719c42 0 78 -34 103 -34c19 0 30 5 57 38l65 -36
c-32 -75 -67 -99 -106 -99c-48 0 -81 35 -113 35c-16 0 -33 -8 -58 -39l-65 40c31 72 78 95 117 95z" />
    <glyph glyph-name="Odieresissmall" unicode="&#xf7f6;" horiz-adv-x="411" 
d="M241 153v216c0 28 -16 41 -36 41s-37 -13 -37 -41v-216c0 -31 17 -41 37 -41s36 10 36 41zM366 362v-201c0 -113 -60 -167 -165 -167c-104 0 -156 56 -156 167v201c0 113 62 166 162 166c109 0 159 -53 159 -166zM354 577h-119v130h119v-130zM179 577h-118v130h118v-130z
" />
    <glyph glyph-name="Oslashsmall" unicode="&#xf7f8;" horiz-adv-x="411" 
d="M69 -3l-21 16l22 39c-17 27 -25 63 -25 109v201c0 113 62 166 162 166c51 0 89 -12 115 -36l23 39l22 -16l-26 -45c17 -27 25 -63 25 -108v-201c0 -113 -60 -167 -165 -167c-49 0 -87 12 -113 36zM168 369v-147l73 127v20c0 28 -16 41 -36 41s-37 -13 -37 -41zM241 153
v143l-73 -127v-16c0 -31 17 -41 37 -41s36 10 36 41z" />
    <glyph glyph-name="Ugravesmall" unicode="&#xf7f9;" horiz-adv-x="408" 
d="M237 523h126v-366c0 -107 -55 -161 -159 -161s-159 53 -159 161v366h124v-362c0 -28 16 -39 35 -39s33 11 33 39v362zM283 604l-72 -43l-136 175l108 54z" />
    <glyph glyph-name="Uacutesmall" unicode="&#xf7fa;" horiz-adv-x="408" 
d="M237 523h126v-366c0 -107 -55 -161 -159 -161s-159 53 -159 161v366h124v-362c0 -28 16 -39 35 -39s33 11 33 39v362zM200 561l-72 43l100 186l108 -54z" />
    <glyph glyph-name="Ucircumflexsmall" unicode="&#xf7fb;" horiz-adv-x="408" 
d="M237 523h126v-366c0 -107 -55 -161 -159 -161s-159 53 -159 161v366h124v-362c0 -28 16 -39 35 -39s33 11 33 39v362zM323 545l-119 94l-119 -94l-52 47l134 159h79l129 -158z" />
    <glyph glyph-name="Udieresissmall" unicode="&#xf7fc;" horiz-adv-x="408" 
d="M237 523h126v-366c0 -107 -55 -161 -159 -161s-159 53 -159 161v366h124v-362c0 -28 16 -39 35 -39s33 11 33 39v362zM350 577h-119v130h119v-130zM175 577h-118v130h118v-130z" />
    <glyph glyph-name="Yacutesmall" unicode="&#xf7fd;" horiz-adv-x="384" 
d="M193 323h3l22 93l25 108h131l-118 -328v-196h-126v196l-120 328h133l28 -110zM219 561l-72 43l100 186l108 -54z" />
    <glyph glyph-name="Thornsmall" unicode="&#xf7fe;" horiz-adv-x="398" 
d="M179 435h14c103 0 167 -39 167 -168c0 -112 -56 -176 -157 -176h-25v-91h-124v524h125v-89zM178 212h17c29 0 48 11 48 54c0 31 -11 44 -46 44h-19v-98z" />
    <glyph glyph-name="Amacronsmall" unicode="&#xe008;" horiz-adv-x="418" 
d="M274 0l-19 96h-91l-20 -96h-133l126 524h143l127 -524h-133zM211 374h-2l-13 -95l-11 -59h48l-10 59zM336 596h-252v110h252v-110z" />
    <glyph glyph-name="Abrevesmall" unicode="&#xe002;" horiz-adv-x="418" 
d="M274 0l-19 96h-91l-20 -96h-133l126 524h143l127 -524h-133zM211 374h-2l-13 -95l-11 -59h48l-10 59zM57 715h93c3 -29 29 -71 62 -71c38 0 55 42 58 71h95c-5 -64 -49 -154 -153 -154c-110 0 -152 90 -155 154z" />
    <glyph glyph-name="Aogoneksmall" unicode="&#xe009;" horiz-adv-x="418" 
d="M274 0l-19 96h-91l-20 -96h-133l126 524h143l127 -524h-62c-28 -47 -31 -86 -31 -102c0 -27 20 -42 44 -42c13 0 30 3 53 15l22 -58c-31 -20 -67 -27 -98 -27c-57 0 -102 36 -102 100c0 29 14 71 41 114zM211 374h-2l-13 -95l-11 -59h48l-10 59z" />
    <glyph glyph-name="Cacutesmall" unicode="&#xe01a;" horiz-adv-x="387" 
d="M208 527c108 0 159 -62 159 -151v-18l-118 -22c0 39 -15 66 -42 66c-33 0 -40 -30 -40 -50v-193c0 -19 4 -38 35 -38c25 0 41 19 42 64l121 -17c-1 -104 -55 -174 -158 -174c-112 0 -162 55 -162 166v194c0 104 54 173 163 173zM220 561l-72 43l100 186l108 -54z" />
    <glyph glyph-name="Ccircumflexsmall" unicode="&#xe01e;" horiz-adv-x="387" 
d="M208 527c108 0 159 -62 159 -151v-18l-118 -22c0 39 -15 66 -42 66c-33 0 -40 -30 -40 -50v-193c0 -19 4 -38 35 -38c25 0 41 19 42 64l121 -17c-1 -104 -55 -174 -158 -174c-112 0 -162 55 -162 166v194c0 104 54 173 163 173zM329 545l-119 94l-119 -94l-52 47l134 159
h79l129 -158z" />
    <glyph glyph-name="Cdotaccentsmall" unicode="&#xe01f;" horiz-adv-x="387" 
d="M208 527c108 0 159 -62 159 -151v-18l-118 -22c0 39 -15 66 -42 66c-33 0 -40 -30 -40 -50v-193c0 -19 4 -38 35 -38c25 0 41 19 42 64l121 -17c-1 -104 -55 -174 -158 -174c-112 0 -162 55 -162 166v194c0 104 54 173 163 173zM268 577h-118v130h118v-130z" />
    <glyph glyph-name="Ccaronsmall" unicode="&#xe01d;" horiz-adv-x="387" 
d="M208 527c108 0 159 -62 159 -151v-18l-118 -22c0 39 -15 66 -42 66c-33 0 -40 -30 -40 -50v-193c0 -19 4 -38 35 -38c25 0 41 19 42 64l121 -17c-1 -104 -55 -174 -158 -174c-112 0 -162 55 -162 166v194c0 104 54 173 163 173zM208 657l119 94l52 -48l-129 -158h-79
l-134 159l52 47z" />
    <glyph glyph-name="Dcaronsmall" unicode="&#xe02d;" horiz-adv-x="402" 
d="M50 524h164c73 0 114 -21 133 -78c8 -25 10 -59 10 -104v-154c0 -44 -1 -81 -12 -105c-24 -61 -79 -83 -139 -83h-156v524zM234 161v202c0 23 -8 35 -43 35h-17v-272h17c35 0 43 14 43 35zM203 657l119 94l52 -48l-129 -158h-79l-134 159l52 47z" />
    <glyph glyph-name="Dcroatsmall" unicode="&#xe02e;" horiz-adv-x="402" 
d="M50 524h164c73 0 114 -21 133 -78c8 -25 10 -59 10 -104v-154c0 -44 -1 -81 -12 -105c-24 -61 -79 -83 -139 -83h-156v215h-35v84h35v225zM234 161v202c0 23 -8 35 -43 35h-17v-99h38v-84h-38v-89h17c35 0 43 14 43 35z" />
    <glyph glyph-name="Emacronsmall" unicode="&#xe039;" horiz-adv-x="361" 
d="M336 0h-286v524h286v-125h-162v-70h141v-126h-141v-77h162v-126zM317 596h-252v110h252v-110z" />
    <glyph glyph-name="Ebrevesmall" unicode="&#xe033;" horiz-adv-x="361" 
d="M336 0h-286v524h286v-125h-162v-70h141v-126h-141v-77h162v-126zM42 715h93c3 -29 29 -71 62 -71c38 0 55 42 58 71h95c-5 -64 -49 -154 -153 -154c-110 0 -152 90 -155 154z" />
    <glyph glyph-name="Edotaccentsmall" unicode="&#xe035;" horiz-adv-x="361" 
d="M336 0h-286v524h286v-125h-162v-70h141v-126h-141v-77h162v-126zM261 577h-118v130h118v-130z" />
    <glyph glyph-name="Eogoneksmall" unicode="&#xe03d;" horiz-adv-x="361" 
d="M220 -119c0 31 16 75 44 119h-214v524h286v-125h-162v-70h141v-126h-141v-77h162v-126c-31 -49 -35 -91 -35 -107c0 -27 20 -42 44 -42c13 0 30 3 53 15l22 -58c-31 -20 -67 -27 -98 -27c-57 0 -102 36 -102 100z" />
    <glyph glyph-name="Ecaronsmall" unicode="&#xe034;" horiz-adv-x="361" 
d="M336 0h-286v524h286v-125h-162v-70h141v-126h-141v-77h162v-126zM192 657l119 94l52 -48l-129 -158h-79l-134 159l52 47z" />
    <glyph glyph-name="Gcircumflexsmall" unicode="&#xe04c;" horiz-adv-x="391" 
d="M206 404c-33 0 -40 -30 -40 -50v-188c0 -19 4 -43 35 -43c28 0 40 19 40 48v18h-38v108h159v-133c0 -113 -61 -168 -156 -168c-112 0 -161 55 -161 166v194c0 104 51 173 162 173c108 0 159 -62 159 -151c0 -7 0 -13 -1 -18l-117 -22c0 39 -17 66 -42 66zM324 545
l-119 94l-119 -94l-52 47l134 159h79l129 -158z" />
    <glyph glyph-name="Gbrevesmall" unicode="&#xe04b;" horiz-adv-x="391" 
d="M206 404c-33 0 -40 -30 -40 -50v-188c0 -19 4 -43 35 -43c28 0 40 19 40 48v18h-38v108h159v-133c0 -113 -61 -168 -156 -168c-112 0 -161 55 -161 166v194c0 104 51 173 162 173c108 0 159 -62 159 -151c0 -7 0 -13 -1 -18l-117 -22c0 39 -17 66 -42 66zM52 715h93
c3 -29 29 -71 62 -71c38 0 55 42 58 71h95c-5 -64 -49 -154 -153 -154c-110 0 -152 90 -155 154z" />
    <glyph glyph-name="Gdotaccentsmall" unicode="&#xe04e;" horiz-adv-x="391" 
d="M206 404c-33 0 -40 -30 -40 -50v-188c0 -19 4 -43 35 -43c28 0 40 19 40 48v18h-38v108h159v-133c0 -113 -61 -168 -156 -168c-112 0 -161 55 -161 166v194c0 104 51 173 162 173c108 0 159 -62 159 -151c0 -7 0 -13 -1 -18l-117 -22c0 39 -17 66 -42 66zM265 577h-118
v130h118v-130z" />
    <glyph glyph-name="Gcommaaccentsmall" unicode="&#xe04d;" horiz-adv-x="391" 
d="M206 404c-33 0 -40 -30 -40 -50v-188c0 -19 4 -43 35 -43c28 0 40 19 40 48v18h-38v108h159v-133c0 -113 -61 -168 -156 -168c-112 0 -161 55 -161 166v194c0 104 51 173 162 173c108 0 159 -62 159 -151c0 -7 0 -13 -1 -18l-117 -22c0 39 -17 66 -42 66zM263 -167
l-55 -109h-66l28 107h-24v111h117v-109z" />
    <glyph glyph-name="Hcircumflexsmall" unicode="&#xe059;" horiz-adv-x="420" 
d="M370 0h-122v206h-74v-206h-124v524h124v-197h74v197h122v-524zM332 545l-119 94l-119 -94l-52 47l134 159h79l129 -158z" />
    <glyph glyph-name="Hbarsmall" unicode="&#xe058;" horiz-adv-x="420" 
d="M370 0h-122v206h-74v-206h-124v388h-31v69h31v67h124v-67h74v67h122v-67h39v-69h-39v-388zM174 327h74v61h-74v-61z" />
    <glyph glyph-name="Itildesmall" unicode="&#xe079;" horiz-adv-x="235" 
d="M180 0h-125v524h125v-524zM65 719c42 0 78 -34 103 -34c19 0 30 5 57 38l65 -36c-32 -75 -67 -99 -106 -99c-48 0 -81 35 -113 35c-16 0 -33 -8 -58 -39l-65 40c31 72 78 95 117 95z" />
    <glyph glyph-name="Imacronsmall" unicode="&#xe066;" horiz-adv-x="235" 
d="M180 0h-125v524h125v-524zM244 596h-252v110h252v-110z" />
    <glyph glyph-name="Ibrevesmall" unicode="&#xe062;" horiz-adv-x="235" 
d="M180 0h-125v524h125v-524zM-35 715h93c3 -29 29 -71 62 -71c38 0 55 42 58 71h95c-5 -64 -49 -154 -153 -154c-110 0 -152 90 -155 154z" />
    <glyph glyph-name="Iogoneksmall" unicode="&#xe06b;" horiz-adv-x="235" 
d="M46 -114c0 29 14 71 41 114h-32v524h125v-524h-22c-28 -47 -31 -86 -31 -102c0 -27 20 -42 44 -42c13 0 30 3 53 15l22 -58c-31 -20 -67 -27 -98 -27c-57 0 -102 36 -102 100z" />
    <glyph glyph-name="Idotaccentsmall" unicode="&#xe065;" horiz-adv-x="235" 
d="M180 0h-125v524h125v-524zM176 577h-118v130h118v-130z" />
    <glyph glyph-name="IJsmall" unicode="&#xe061;" horiz-adv-x="580" 
d="M180 0h-125v524h125v-524zM408 524h122v-367c0 -87 -59 -161 -158 -161c-53 0 -115 24 -155 89l89 73c11 -20 28 -35 59 -35c27 0 43 20 43 44v357z" />
    <glyph glyph-name="Jcircumflexsmall" unicode="&#xe07c;" horiz-adv-x="338" 
d="M166 524h122v-367c0 -87 -59 -161 -158 -161c-53 0 -115 24 -155 89l89 73c11 -20 28 -35 59 -35c27 0 43 20 43 44v357zM344 545l-119 94l-119 -94l-52 47l134 159h79l129 -158z" />
    <glyph glyph-name="Kcommaaccentsmall" unicode="&#xe081;" horiz-adv-x="410" 
d="M174 363h2l89 161h140l-136 -222l147 -302h-137l-86 196l-19 -41v-155h-124v524h124v-161zM279 -167l-55 -109h-66l28 107h-24v111h117v-109z" />
    <glyph glyph-name="Lacutesmall" unicode="&#xe086;" horiz-adv-x="349" 
d="M336 0h-286v524h124v-398h162v-126zM133 561l-72 43l100 186l108 -54z" />
    <glyph glyph-name="Lcommaaccentsmall" unicode="&#xe08b;" horiz-adv-x="349" 
d="M336 0h-286v524h124v-398h162v-126zM245 -167l-55 -109h-66l28 107h-24v111h117v-109z" />
    <glyph glyph-name="Lcaronsmall" unicode="&#xe08a;" horiz-adv-x="349" 
d="M336 0h-286v524h124v-398h162v-126zM342 415l-55 -109h-66l28 107h-24v111h117v-109z" />
    <glyph glyph-name="Ldotsmall" unicode="&#xe08c;" horiz-adv-x="349" 
d="M336 0h-286v524h124v-398h162v-126zM331 211h-118v130h118v-130z" />
    <glyph glyph-name="Lslashsmall" unicode="&#xf6f9;" horiz-adv-x="349" 
d="M336 0h-286v144l-23 -18l-40 59l63 48v291h124v-195l51 40l40 -59l-91 -71v-113h162v-126z" />
    <glyph glyph-name="Nacutesmall" unicode="&#xe09a;" horiz-adv-x="446" 
d="M272 283h3v241h121v-524h-102l-73 152l-44 94h-3v-246h-124v524h106l72 -151zM235 561l-72 43l100 186l108 -54z" />
    <glyph glyph-name="Ncommaaccentsmall" unicode="&#xe09c;" horiz-adv-x="446" 
d="M272 283h3v241h121v-524h-102l-73 152l-44 94h-3v-246h-124v524h106l72 -151zM289 -167l-55 -109h-66l28 107h-24v111h117v-109z" />
    <glyph glyph-name="Ncaronsmall" unicode="&#xe09b;" horiz-adv-x="446" 
d="M272 283h3v241h121v-524h-102l-73 152l-44 94h-3v-246h-124v524h106l72 -151zM217 657l119 94l52 -48l-129 -158h-79l-134 159l52 47z" />
    <glyph glyph-name="Engsmall" unicode="&#xe03c;" horiz-adv-x="447" 
d="M273 283h3v241h121v-597c0 -79 -49 -103 -109 -103c-28 0 -58 5 -85 13l10 94c35 0 47 7 47 35v107l-38 79l-44 94h-3v-246h-124v524h106l72 -151z" />
    <glyph glyph-name="Omacronsmall" unicode="&#xe0a9;" horiz-adv-x="411" 
d="M241 153v216c0 28 -16 41 -36 41s-37 -13 -37 -41v-216c0 -31 17 -41 37 -41s36 10 36 41zM366 362v-201c0 -113 -60 -167 -165 -167c-104 0 -156 56 -156 167v201c0 113 62 166 162 166c109 0 159 -53 159 -166zM332 596h-252v110h252v-110z" />
    <glyph glyph-name="Obrevesmall" unicode="&#xe0a6;" horiz-adv-x="411" 
d="M241 153v216c0 28 -16 41 -36 41s-37 -13 -37 -41v-216c0 -31 17 -41 37 -41s36 10 36 41zM366 362v-201c0 -113 -60 -167 -165 -167c-104 0 -156 56 -156 167v201c0 113 62 166 162 166c109 0 159 -53 159 -166zM54 715h93c3 -29 29 -71 62 -71c38 0 55 42 58 71h95
c-5 -64 -49 -154 -153 -154c-110 0 -152 90 -155 154z" />
    <glyph glyph-name="Ohungarumlautsmall" unicode="&#xe0a8;" horiz-adv-x="411" 
d="M241 153v216c0 28 -16 41 -36 41s-37 -13 -37 -41v-216c0 -31 17 -41 37 -41s36 10 36 41zM366 362v-201c0 -113 -60 -167 -165 -167c-104 0 -156 56 -156 167v201c0 113 62 166 162 166c109 0 159 -53 159 -166zM134 561l-72 43l100 186l108 -54zM294 561l-72 43
l100 186l108 -54z" />
    <glyph glyph-name="Racutesmall" unicode="&#xe0c1;" horiz-adv-x="410" 
d="M50 524h139c101 0 166 -42 166 -162c0 -71 -24 -117 -63 -144l92 -218h-132l-65 191h-13v-191h-124v524zM185 399h-11v-87h15c31 0 45 12 45 45c0 27 -10 42 -49 42zM199 561l-72 43l100 186l108 -54z" />
    <glyph glyph-name="Rcommaaccentsmall" unicode="&#xe0c3;" horiz-adv-x="410" 
d="M50 524h139c101 0 166 -42 166 -162c0 -71 -24 -117 -63 -144l92 -218h-132l-65 191h-13v-191h-124v524zM185 399h-11v-87h15c31 0 45 12 45 45c0 27 -10 42 -49 42zM269 -167l-55 -109h-66l28 107h-24v111h117v-109z" />
    <glyph glyph-name="Rcaronsmall" unicode="&#xe0c2;" horiz-adv-x="410" 
d="M50 524h139c101 0 166 -42 166 -162c0 -71 -24 -117 -63 -144l92 -218h-132l-65 191h-13v-191h-124v524zM185 399h-11v-87h15c31 0 45 12 45 45c0 27 -10 42 -49 42zM201 657l119 94l52 -48l-129 -158h-79l-134 159l52 47z" />
    <glyph glyph-name="Sacutesmall" unicode="&#xe0cb;" horiz-adv-x="403" 
d="M363 162c0 -84 -35 -166 -162 -166c-115 0 -161 72 -161 160l123 24c3 -35 10 -63 41 -63c32 0 37 19 37 42c0 27 -13 38 -58 53c-99 32 -136 80 -136 160c0 100 59 156 155 156c125 0 161 -77 161 -154l-122 -25c0 27 -6 59 -38 59c-31 0 -36 -18 -36 -34s14 -30 70 -50
c112 -40 126 -84 126 -162zM218 561l-72 43l100 186l108 -54z" />
    <glyph glyph-name="Scircumflexsmall" unicode="&#xe0cf;" horiz-adv-x="403" 
d="M363 162c0 -84 -35 -166 -162 -166c-115 0 -161 72 -161 160l123 24c3 -35 10 -63 41 -63c32 0 37 19 37 42c0 27 -13 38 -58 53c-99 32 -136 80 -136 160c0 100 59 156 155 156c125 0 161 -77 161 -154l-122 -25c0 27 -6 59 -38 59c-31 0 -36 -18 -36 -34s14 -30 70 -50
c112 -40 126 -84 126 -162zM326 545l-119 94l-119 -94l-52 47l134 159h79l129 -158z" />
    <glyph glyph-name="Scedillasmall" unicode="&#xe0ce;" horiz-adv-x="403" 
d="M363 162c0 -78 -31 -153 -135 -164l-12 -34c71 -11 89 -58 89 -88c0 -28 -22 -86 -97 -86c-11 0 -56 1 -103 23l21 53c31 -13 46 -15 61 -15c19 0 32 15 32 30c0 21 -15 28 -38 28l-34 23l21 66c-92 11 -128 80 -128 158l123 24c3 -35 10 -63 41 -63c32 0 37 19 37 42
c0 27 -13 38 -58 53c-99 32 -136 80 -136 160c0 100 59 156 155 156c125 0 161 -77 161 -154l-122 -25c0 27 -6 59 -38 59c-31 0 -36 -18 -36 -34s14 -30 70 -50c112 -40 126 -84 126 -162z" />
    <glyph glyph-name="Tcommaaccentsmall" unicode="&#xe0e7;" horiz-adv-x="333" 
d="M323 399h-94v-399h-124v399h-95v125h313v-125zM225 -167l-55 -109h-66l28 107h-24v111h117v-109z" />
    <glyph glyph-name="Tcaronsmall" unicode="&#xe0e6;" horiz-adv-x="333" 
d="M323 399h-94v-399h-124v399h-95v125h313v-125zM167 657l119 94l52 -48l-129 -158h-79l-134 159l52 47z" />
    <glyph glyph-name="Tbarsmall" unicode="&#xe0e5;" horiz-adv-x="333" 
d="M323 399h-94v-84h75v-92h-75v-223h-124v223h-75v92h75v84h-95v125h313v-125z" />
    <glyph glyph-name="Utildesmall" unicode="&#xe0fa;" horiz-adv-x="408" 
d="M237 523h126v-366c0 -107 -55 -161 -159 -161s-159 53 -159 161v366h124v-362c0 -28 16 -39 35 -39s33 11 33 39v362zM151 719c42 0 78 -34 103 -34c19 0 30 5 57 38l65 -36c-32 -75 -67 -99 -106 -99c-48 0 -81 35 -113 35c-16 0 -33 -8 -58 -39l-65 40
c31 72 78 95 117 95z" />
    <glyph glyph-name="Umacronsmall" unicode="&#xe0f1;" horiz-adv-x="408" 
d="M237 523h126v-366c0 -107 -55 -161 -159 -161s-159 53 -159 161v366h124v-362c0 -28 16 -39 35 -39s33 11 33 39v362zM331 596h-252v110h252v-110z" />
    <glyph glyph-name="Ubrevesmall" unicode="&#xe0ed;" horiz-adv-x="408" 
d="M237 523h126v-366c0 -107 -55 -161 -159 -161s-159 53 -159 161v366h124v-362c0 -28 16 -39 35 -39s33 11 33 39v362zM53 715h93c3 -29 29 -71 62 -71c38 0 55 42 58 71h95c-5 -64 -49 -154 -153 -154c-110 0 -152 90 -155 154z" />
    <glyph glyph-name="Uringsmall" unicode="&#xe0f9;" horiz-adv-x="408" 
d="M237 523h126v-366c0 -107 -55 -161 -159 -161s-159 53 -159 161v366h124v-362c0 -28 16 -39 35 -39s33 11 33 39v362zM206 549c-56 0 -101 45 -101 101s45 102 101 102c59 0 101 -46 101 -102s-42 -101 -101 -101zM206 680c-16 0 -31 -14 -31 -31c0 -19 15 -30 31 -30
c17 0 31 11 31 30c0 17 -14 31 -31 31z" />
    <glyph glyph-name="Uhungarumlautsmall" unicode="&#xe0ee;" horiz-adv-x="408" 
d="M237 523h126v-366c0 -107 -55 -161 -159 -161s-159 53 -159 161v366h124v-362c0 -28 16 -39 35 -39s33 11 33 39v362zM145 561l-72 43l100 186l108 -54zM305 561l-72 43l100 186l108 -54z" />
    <glyph glyph-name="Uogoneksmall" unicode="&#xe0f6;" horiz-adv-x="408" 
d="M126 -114c0 29 13 70 40 113c-81 11 -121 64 -121 158v366h124v-362c0 -28 16 -39 35 -39s33 11 33 39v362h126v-366c0 -95 -43 -148 -126 -159c-27 -47 -30 -85 -30 -100c0 -27 20 -42 44 -42c13 0 30 3 53 15l22 -58c-31 -20 -67 -27 -98 -27c-57 0 -102 36 -102 100z
" />
    <glyph glyph-name="Wcircumflexsmall" unicode="&#xe100;" horiz-adv-x="588" 
d="M296 264h-1l-34 -143l-31 -121h-116l-104 525h144l21 -179l13 -104h2l19 101l38 182h98l37 -187l21 -96h1l11 98l20 185h143l-103 -525h-116l-32 123zM414 545l-119 94l-119 -94l-52 47l134 159h79l129 -158z" />
    <glyph glyph-name="Ycircumflexsmall" unicode="&#xe104;" horiz-adv-x="384" 
d="M193 323h3l22 93l25 108h131l-118 -328v-196h-126v196l-120 328h133l28 -110zM313 545l-119 94l-119 -94l-52 47l134 159h79l129 -158z" />
    <glyph glyph-name="Zacutesmall" unicode="&#xe10a;" horiz-adv-x="331" 
d="M306 0h-281v112l132 287h-129v125h278v-109l-134 -289h134v-126zM176 561l-72 43l100 186l108 -54z" />
    <glyph glyph-name="Zdotaccentsmall" unicode="&#xe10b;" horiz-adv-x="331" 
d="M306 0h-281v112l132 287h-129v125h278v-109l-134 -289h134v-126zM238 577h-118v130h118v-130z" />
    <glyph glyph-name="AEacutesmall" unicode="&#xe001;" horiz-adv-x="581" 
d="M565 0h-287v107h-95l-36 -107h-136l187 524h367v-125h-162v-69h141v-128h-141v-72h162v-130zM276 399l-54 -167h56v167h-2zM381 561l-72 43l100 186l108 -54z" />
    <glyph glyph-name="Oslashacutesmall" unicode="&#xe0af;" horiz-adv-x="411" 
d="M71 -3l-21 16l21 37c-17 26 -26 63 -26 111v201c0 113 62 166 162 166c53 0 92 -12 117 -37l23 40l22 -16l-27 -47c16 -27 24 -63 24 -106v-201c0 -113 -60 -167 -165 -167c-49 0 -87 12 -112 35zM201 561l-72 43l100 186l108 -54zM168 369v-150l73 127v23
c0 28 -16 41 -36 41s-37 -13 -37 -41zM241 153v139l-73 -127v-12c0 -31 17 -41 37 -41s36 10 36 41z" />
    <glyph glyph-name="exclamdownsmall" unicode="&#xf7a1;" horiz-adv-x="257" 
d="M69 523h117v-132h-117v132zM67 -1l10 351h104l8 -351h-122z" />
    <glyph glyph-name="questiondownsmall" unicode="&#xf7bf;" horiz-adv-x="316" 
d="M93 522h112v-115h-112v115zM19 142c0 51 10 75 25 100l37 63c5 9 10 25 10 45v34h116v-63c0 -23 -7 -44 -22 -65c-45 -72 -42 -81 -42 -114c0 -15 3 -34 23 -34c13 0 25 16 25 59l115 -13c-4 -100 -54 -155 -146 -155c-100 0 -141 51 -141 143z" />
    <glyph glyph-name="Alphasmall" unicode="&#xe006;" horiz-adv-x="418" 
d="M274 0l-19 96h-91l-20 -96h-133l126 524h143l127 -524h-133zM211 374h-2l-13 -95l-11 -59h48l-10 59z" />
    <glyph glyph-name="Betasmall" unicode="&#xe00f;" horiz-adv-x="411" 
d="M239 367c0 25 -13 34 -52 34h-12v-72h20c31 0 44 15 44 38zM247 172c0 29 -15 43 -46 43h-26v-89h20c43 0 52 19 52 46zM311 280v-2c37 -16 55 -68 55 -108c0 -117 -53 -170 -169 -170h-147v524h155c109 0 154 -52 154 -153c0 -35 -9 -70 -48 -91z" />
    <glyph glyph-name="Gammasmall" unicode="&#xe04a;" horiz-adv-x="350" 
d="M339 399h-162v-399h-124v524h286v-125z" />
    <glyph glyph-name="Deltasmall" unicode="&#xe02f;" horiz-adv-x="418" 
d="M407 0h-396l126 524h143zM208 383l-14 -104l-23 -153h79l-25 153l-15 104h-2z" />
    <glyph glyph-name="Epsilonsmall" unicode="&#xe03e;" horiz-adv-x="361" 
d="M336 0h-286v524h286v-125h-162v-70h141v-126h-141v-77h162v-126z" />
    <glyph glyph-name="Zetasmall" unicode="&#xe10c;" horiz-adv-x="331" 
d="M306 0h-281v112l132 287h-129v125h278v-109l-134 -289h134v-126z" />
    <glyph glyph-name="Etasmall" unicode="&#xe043;" horiz-adv-x="420" 
d="M370 0h-122v206h-74v-206h-124v524h124v-197h74v197h122v-524z" />
    <glyph glyph-name="Thetasmall" unicode="&#xe0ea;" horiz-adv-x="411" 
d="M366 362v-201c0 -113 -60 -167 -165 -167c-104 0 -156 56 -156 167v201c0 113 62 166 162 166c109 0 159 -53 159 -166zM205 112c20 0 36 10 36 41v56h-73v-56c0 -31 17 -41 37 -41zM241 317v52c0 28 -16 41 -36 41s-37 -13 -37 -41v-52h73z" />
    <glyph glyph-name="Iotasmall" unicode="&#xe06d;" horiz-adv-x="235" 
d="M180 0h-125v524h125v-524z" />
    <glyph glyph-name="Kappasmall" unicode="&#xe080;" horiz-adv-x="410" 
d="M174 363h2l89 161h140l-136 -222l147 -302h-137l-86 196l-19 -41v-155h-124v524h124v-161z" />
    <glyph glyph-name="Lambdasmall" unicode="&#xe087;" horiz-adv-x="418" 
d="M274 0l-49 279l-16 101h-1l-16 -101l-48 -279h-133l126 524h143l127 -524h-133z" />
    <glyph glyph-name="Musmall" unicode="&#xe098;" horiz-adv-x="539" 
d="M308 96h-75l-26 73l-31 82h-3v-251h-123v524h112l65 -151l42 -104h2l42 107l65 148h111v-524h-123v249h-2l-31 -83z" />
    <glyph glyph-name="Nusmall" unicode="&#xe0a4;" horiz-adv-x="446" 
d="M272 283h3v241h121v-524h-102l-73 152l-44 94h-3v-246h-124v524h106l72 -151z" />
    <glyph glyph-name="Xismall" unicode="&#xe103;" horiz-adv-x="367" 
d="M310 204h-249v124h249v-124zM337 399h-303v125h303v-125zM337 0h-303v126h303v-126z" />
    <glyph glyph-name="Omicronsmall" unicode="&#xe0ad;" horiz-adv-x="411" 
d="M241 153v216c0 28 -16 41 -36 41s-37 -13 -37 -41v-216c0 -31 17 -41 37 -41s36 10 36 41zM366 362v-201c0 -113 -60 -167 -165 -167c-104 0 -156 56 -156 167v201c0 113 62 166 162 166c109 0 159 -53 159 -166z" />
    <glyph glyph-name="Pismall" unicode="&#xe0b9;" horiz-adv-x="408" 
d="M358 0h-123v397h-60v-397h-125v524h308v-524z" />
    <glyph glyph-name="Rhosmall" unicode="&#xe0c5;" horiz-adv-x="386" 
d="M50 524h139c103 0 167 -39 167 -168c0 -112 -56 -176 -157 -176h-25v-180h-124v524zM174 301h17c29 0 48 11 48 54c0 31 -11 44 -46 44h-19v-98z" />
    <glyph glyph-name="Sigmasmall" unicode="&#xe0d4;" horiz-adv-x="321" 
d="M229 271l-60 -145h137v-126h-284v111l65 158l-67 146v109h276v-125h-127z" />
    <glyph glyph-name="Tausmall" unicode="&#xe0e4;" horiz-adv-x="333" 
d="M323 399h-94v-399h-124v399h-95v125h313v-125z" />
    <glyph glyph-name="Upsilonsmall" unicode="&#xe0f8;" horiz-adv-x="384" 
d="M193 323h3l22 93l25 108h131l-118 -328v-196h-126v196l-120 328h133l28 -110z" />
    <glyph glyph-name="Phismall" unicode="&#xe0b8;" horiz-adv-x="557" 
d="M216 152v234c-49 -8 -54 -46 -54 -73v-96c0 -33 15 -64 54 -65zM341 386v-234c39 1 54 32 54 65v96c0 27 -5 65 -54 73zM341 44v-44h-125v44c-121 7 -171 66 -171 183v82c0 117 66 176 171 187v28h125v-28c113 -11 171 -70 171 -187v-77c0 -117 -66 -176 -171 -188z" />
    <glyph glyph-name="Chismall" unicode="&#xe022;" horiz-adv-x="413" 
d="M207 147l-57 -147h-145l130 273l-120 251h146l46 -135l44 135h147l-124 -251l134 -273h-147l-53 147h-1z" />
    <glyph glyph-name="Psismall" unicode="&#xe0be;" horiz-adv-x="557" 
d="M391 523h121v-235c0 -121 -88 -166 -171 -174v-114h-125v114c-86 3 -171 52 -171 174v235h120v-242c0 -36 26 -53 51 -54v296h125v-296c23 1 50 18 50 54v242z" />
    <glyph glyph-name="Omegasmall" unicode="&#xe0aa;" horiz-adv-x="415" 
d="M366 379v-199c0 -23 -10 -53 -19 -62h33v-118h-161v121c16 3 22 21 22 36v213c0 15 -11 35 -35 35c-23 0 -38 -21 -38 -36v-212c0 -12 6 -33 23 -36v-121h-156v118h32c-17 11 -21 41 -21 62v196c0 96 61 152 161 152c105 0 159 -53 159 -149z" />
    <glyph glyph-name="Alphatonossmall" unicode="&#xe007;" horiz-adv-x="418" 
d="M274 0l-19 96h-91l-20 -96h-133l126 524h143l127 -524h-133zM211 374h-2l-13 -95l-11 -59h48l-10 59zM218 561l-72 43l100 186l108 -54z" />
    <glyph glyph-name="Epsilontonossmall" unicode="&#xe03f;" horiz-adv-x="361" 
d="M336 0h-286v524h286v-125h-162v-70h141v-126h-141v-77h162v-126zM178 561l-72 43l100 186l108 -54z" />
    <glyph glyph-name="Etatonossmall" unicode="&#xe044;" horiz-adv-x="420" 
d="M370 0h-122v206h-74v-206h-124v524h124v-197h74v197h122v-524zM224 561l-72 43l100 186l108 -54z" />
    <glyph glyph-name="Iotatonossmall" unicode="&#xe06e;" horiz-adv-x="235" 
d="M180 0h-125v524h125v-524zM125 561l-72 43l100 186l108 -54z" />
    <glyph glyph-name="Omicrontonossmall" unicode="&#xe0ae;" horiz-adv-x="411" 
d="M241 153v216c0 28 -16 41 -36 41s-37 -13 -37 -41v-216c0 -31 17 -41 37 -41s36 10 36 41zM366 362v-201c0 -113 -60 -167 -165 -167c-104 0 -156 56 -156 167v201c0 113 62 166 162 166c109 0 159 -53 159 -166zM214 561l-72 43l100 186l108 -54z" />
    <glyph glyph-name="Ypsilontonossmall" unicode="&#xe109;" horiz-adv-x="384" 
d="M193 323h3l22 93l25 108h131l-118 -328v-196h-126v196l-120 328h133l28 -110zM204 561l-72 43l100 186l108 -54z" />
    <glyph glyph-name="Omegatonossmall" unicode="&#xe0ab;" horiz-adv-x="415" 
d="M366 379v-199c0 -23 -10 -53 -19 -62h33v-118h-161v121c16 3 22 21 22 36v213c0 15 -11 35 -35 35c-23 0 -38 -21 -38 -36v-212c0 -12 6 -33 23 -36v-121h-156v118h32c-17 11 -21 41 -21 62v196c0 96 61 152 161 152c105 0 159 -53 159 -149zM230 561l-72 43l100 186
l108 -54z" />
    </font>
</defs>
</svg>
